<svg width="48" height="48" viewBox="0 0 48 48" fill="none" xmlns="http://www.w3.org/2000/svg">
<mask id="path-1-inside-1_2821_1404" fill="white">
<path fill-rule="evenodd" clip-rule="evenodd" d="M1.7041 41.2548C1.12516 42.2548 1.84674 43.5064 3.00224 43.5064H45.4622C46.6177 43.5064 47.3393 42.2548 46.7603 41.2548L25.5304 4.58487C24.9526 3.58694 23.5118 3.58694 22.9341 4.58487L1.7041 41.2548ZM22.0657 17.5083H26.3987V21.8413L25.3154 30.5074H23.1489L22.0657 21.8413V17.5083ZM24.2322 37.0068C25.4287 37.0068 26.3987 36.0368 26.3987 34.8403C26.3987 33.6438 25.4287 32.6738 24.2322 32.6738C23.0357 32.6738 22.0657 33.6438 22.0657 34.8403C22.0657 36.0368 23.0357 37.0068 24.2322 37.0068Z"/>
</mask>
<path fill-rule="evenodd" clip-rule="evenodd" d="M1.7041 41.2548C1.12516 42.2548 1.84674 43.5064 3.00224 43.5064H45.4622C46.6177 43.5064 47.3393 42.2548 46.7603 41.2548L25.5304 4.58487C24.9526 3.58694 23.5118 3.58694 22.9341 4.58487L1.7041 41.2548ZM22.0657 17.5083H26.3987V21.8413L25.3154 30.5074H23.1489L22.0657 21.8413V17.5083ZM24.2322 37.0068C25.4287 37.0068 26.3987 36.0368 26.3987 34.8403C26.3987 33.6438 25.4287 32.6738 24.2322 32.6738C23.0357 32.6738 22.0657 33.6438 22.0657 34.8403C22.0657 36.0368 23.0357 37.0068 24.2322 37.0068Z" fill="url(#paint0_linear_2821_1404)"/>
<path d="M1.7041 41.2548L0.405965 40.5033L0.405964 40.5033L1.7041 41.2548ZM46.7603 41.2548L48.0585 40.5033L46.7603 41.2548ZM25.5304 4.58487L24.2322 5.33643L25.5304 4.58487ZM22.9341 4.58487L24.2322 5.33643V5.33643L22.9341 4.58487ZM26.3987 17.5083H27.8987C27.8987 16.6798 27.2271 16.0083 26.3987 16.0083V17.5083ZM22.0657 17.5083V16.0083C21.2372 16.0083 20.5657 16.6798 20.5657 17.5083H22.0657ZM26.3987 21.8413L27.8871 22.0273C27.8948 21.9656 27.8987 21.9035 27.8987 21.8413H26.3987ZM25.3154 30.5074V32.0074C26.0719 32.0074 26.71 31.444 26.8039 30.6934L25.3154 30.5074ZM23.1489 30.5074L21.6605 30.6934C21.7543 31.444 22.3924 32.0074 23.1489 32.0074V30.5074ZM22.0657 21.8413H20.5657C20.5657 21.9035 20.5695 21.9656 20.5773 22.0273L22.0657 21.8413ZM3.00224 42.0064L3.00224 42.0064L0.405964 40.5033C-0.751927 42.5033 0.691243 45.0064 3.00224 45.0064V42.0064ZM45.4622 42.0064H3.00224V45.0064H45.4622V42.0064ZM45.4622 42.0064V45.0064C47.7732 45.0064 49.2164 42.5033 48.0585 40.5033L45.4622 42.0064ZM24.2322 5.33643L45.4622 42.0064L48.0585 40.5033L26.8285 3.83332L24.2322 5.33643ZM24.2322 5.33643V5.33643L26.8285 3.83332C25.673 1.83746 22.7914 1.83746 21.6359 3.83332L24.2322 5.33643ZM3.00224 42.0064L24.2322 5.33643L21.6359 3.83332L0.405965 40.5033L3.00224 42.0064ZM26.3987 16.0083H22.0657V19.0083H26.3987V16.0083ZM27.8987 21.8413V17.5083H24.8987V21.8413H27.8987ZM26.8039 30.6934L27.8871 22.0273L24.9103 21.6552L23.827 30.3213L26.8039 30.6934ZM23.1489 32.0074H25.3154V29.0074H23.1489V32.0074ZM20.5773 22.0273L21.6605 30.6934L24.6373 30.3213L23.5541 21.6552L20.5773 22.0273ZM20.5657 17.5083V21.8413H23.5657V17.5083H20.5657ZM24.8987 34.8403C24.8987 35.2084 24.6003 35.5068 24.2322 35.5068V38.5068C26.2571 38.5068 27.8987 36.8653 27.8987 34.8403H24.8987ZM24.2322 34.1738C24.6003 34.1738 24.8987 34.4722 24.8987 34.8403H27.8987C27.8987 32.8154 26.2571 31.1738 24.2322 31.1738V34.1738ZM23.5657 34.8403C23.5657 34.4722 23.8641 34.1738 24.2322 34.1738V31.1738C22.2072 31.1738 20.5657 32.8154 20.5657 34.8403H23.5657ZM24.2322 35.5068C23.8641 35.5068 23.5657 35.2084 23.5657 34.8403H20.5657C20.5657 36.8653 22.2072 38.5068 24.2322 38.5068V35.5068Z" fill="url(#paint1_linear_2821_1404)" mask="url(#path-1-inside-1_2821_1404)"/>
<defs>
<linearGradient id="paint0_linear_2821_1404" x1="46.9644" y1="23.6714" x2="1.5" y2="23.6714" gradientUnits="userSpaceOnUse">
<stop stop-color="#43A3D5"/>
<stop offset="1" stop-color="#9C60DA"/>
</linearGradient>
<linearGradient id="paint1_linear_2821_1404" x1="46.9644" y1="23.6714" x2="1.5" y2="23.6714" gradientUnits="userSpaceOnUse">
<stop stop-color="#43A3D5"/>
<stop offset="1" stop-color="#9C60DA"/>
</linearGradient>
</defs>
</svg>
