<svg width="16" height="16" viewBox="0 0 16 16" fill="none" xmlns="http://www.w3.org/2000/svg">
<mask id="path-1-inside-1_1016_6290" fill="white">
<path fill-rule="evenodd" clip-rule="evenodd" d="M0.568035 13.7516C0.375052 14.0849 0.615582 14.5021 1.00075 14.5021H15.1541C15.5392 14.5021 15.7798 14.0849 15.5868 13.7516L8.51012 1.52829C8.31754 1.19565 7.83728 1.19565 7.64469 1.52829L0.568035 13.7516ZM7.35514 5.83608H8.79949V7.28042L8.4384 10.1691H7.71623L7.35514 7.28042V5.83608ZM8.07731 12.3356C8.47616 12.3356 8.79949 12.0123 8.79949 11.6134C8.79949 11.2146 8.47616 10.8913 8.07731 10.8913C7.67847 10.8913 7.35514 11.2146 7.35514 11.6134C7.35514 12.0123 7.67847 12.3356 8.07731 12.3356Z"/>
</mask>
<path fill-rule="evenodd" clip-rule="evenodd" d="M0.568035 13.7516C0.375052 14.0849 0.615582 14.5021 1.00075 14.5021H15.1541C15.5392 14.5021 15.7798 14.0849 15.5868 13.7516L8.51012 1.52829C8.31754 1.19565 7.83728 1.19565 7.64469 1.52829L0.568035 13.7516ZM7.35514 5.83608H8.79949V7.28042L8.4384 10.1691H7.71623L7.35514 7.28042V5.83608ZM8.07731 12.3356C8.47616 12.3356 8.79949 12.0123 8.79949 11.6134C8.79949 11.2146 8.47616 10.8913 8.07731 10.8913C7.67847 10.8913 7.35514 11.2146 7.35514 11.6134C7.35514 12.0123 7.67847 12.3356 8.07731 12.3356Z" fill="#E50000"/>
<path d="M0.568035 13.7516L0.135322 13.5011H0.135322L0.568035 13.7516ZM15.5868 13.7516L16.0195 13.5011L15.5868 13.7516ZM8.51012 1.52829L8.94283 1.27777V1.27777L8.51012 1.52829ZM7.64469 1.52829L7.21198 1.27777V1.27777L7.64469 1.52829ZM8.79949 5.83608H9.29949C9.29949 5.55994 9.07563 5.33608 8.79949 5.33608V5.83608ZM7.35514 5.83608V5.33608C7.079 5.33608 6.85514 5.55994 6.85514 5.83608H7.35514ZM8.79949 7.28042L9.29562 7.34244C9.2982 7.32187 9.29949 7.30115 9.29949 7.28042H8.79949ZM8.4384 10.1691V10.6691C8.69056 10.6691 8.90326 10.4813 8.93454 10.2311L8.4384 10.1691ZM7.71623 10.1691L7.22009 10.2311C7.25137 10.4813 7.46407 10.6691 7.71623 10.6691V10.1691ZM7.35514 7.28042H6.85514C6.85514 7.30115 6.85643 7.32187 6.859 7.34244L7.35514 7.28042ZM1.00075 14.0021H1.00075L0.135322 13.5011C-0.250643 14.1678 0.230416 15.0021 1.00075 15.0021V14.0021ZM15.1541 14.0021H1.00075V15.0021H15.1541V14.0021ZM15.1541 14.0021V15.0021C15.9244 15.0021 16.4055 14.1678 16.0195 13.5011L15.1541 14.0021ZM8.07741 1.77881L15.1541 14.0021L16.0195 13.5011L8.94283 1.27777L8.07741 1.77881ZM8.07741 1.77881L8.07741 1.77881L8.94283 1.27777C8.55767 0.612486 7.59715 0.612489 7.21198 1.27777L8.07741 1.77881ZM1.00075 14.0021L8.07741 1.77881L7.21198 1.27777L0.135322 13.5011L1.00075 14.0021ZM8.79949 5.33608H7.35514V6.33608H8.79949V5.33608ZM9.29949 7.28042V5.83608H8.29949V7.28042H9.29949ZM8.93454 10.2311L9.29562 7.34244L8.30335 7.2184L7.94226 10.1071L8.93454 10.2311ZM7.71623 10.6691H8.4384V9.66911H7.71623V10.6691ZM6.859 7.34244L7.22009 10.2311L8.21237 10.1071L7.85128 7.2184L6.859 7.34244ZM6.85514 5.83608V7.28042H7.85514V5.83608H6.85514ZM8.29949 11.6134C8.29949 11.7361 8.20002 11.8356 8.07731 11.8356V12.8356C8.7523 12.8356 9.29949 12.2884 9.29949 11.6134H8.29949ZM8.07731 11.3913C8.20002 11.3913 8.29949 11.4907 8.29949 11.6134H9.29949C9.29949 10.9384 8.7523 10.3913 8.07731 10.3913V11.3913ZM7.85514 11.6134C7.85514 11.4907 7.95461 11.3913 8.07731 11.3913V10.3913C7.40233 10.3913 6.85514 10.9384 6.85514 11.6134H7.85514ZM8.07731 11.8356C7.95461 11.8356 7.85514 11.7361 7.85514 11.6134H6.85514C6.85514 12.2884 7.40233 12.8356 8.07731 12.8356V11.8356Z" fill="#E50000" mask="url(#path-1-inside-1_1016_6290)"/>
</svg>
