<svg width="24" height="24" viewBox="0 0 24 24" fill="none" xmlns="http://www.w3.org/2000/svg">
<mask id="path-1-inside-1_1047_10748" fill="white">
<path fill-rule="evenodd" clip-rule="evenodd" d="M0.852083 20.6272C0.56261 21.1272 0.923404 21.753 1.50115 21.753H22.7311C23.3089 21.753 23.6697 21.1272 23.3802 20.6272L12.7652 2.29223C12.4763 1.79327 11.7559 1.79327 11.4671 2.29223L0.852083 20.6272ZM11.0328 8.75392H13.1994V10.9204L12.6577 15.2535H11.5745L11.0328 10.9204V8.75392ZM12.1161 18.5032C12.7144 18.5032 13.1994 18.0182 13.1994 17.4199C13.1994 16.8217 12.7144 16.3367 12.1161 16.3367C11.5178 16.3367 11.0328 16.8217 11.0328 17.4199C11.0328 18.0182 11.5178 18.5032 12.1161 18.5032Z"/>
</mask>
<path fill-rule="evenodd" clip-rule="evenodd" d="M0.852083 20.6272C0.56261 21.1272 0.923404 21.753 1.50115 21.753H22.7311C23.3089 21.753 23.6697 21.1272 23.3802 20.6272L12.7652 2.29223C12.4763 1.79327 11.7559 1.79327 11.4671 2.29223L0.852083 20.6272ZM11.0328 8.75392H13.1994V10.9204L12.6577 15.2535H11.5745L11.0328 10.9204V8.75392ZM12.1161 18.5032C12.7144 18.5032 13.1994 18.0182 13.1994 17.4199C13.1994 16.8217 12.7144 16.3367 12.1161 16.3367C11.5178 16.3367 11.0328 16.8217 11.0328 17.4199C11.0328 18.0182 11.5178 18.5032 12.1161 18.5032Z" fill="#1D1933"/>
<path d="M0.852083 20.6272L0.203014 20.2514H0.203014L0.852083 20.6272ZM23.3802 20.6272L22.7311 21.003V21.003L23.3802 20.6272ZM12.7652 2.29223L13.4143 1.91646L13.4143 1.91645L12.7652 2.29223ZM11.4671 2.29223L10.818 1.91645L10.818 1.91646L11.4671 2.29223ZM13.1994 8.75392H13.9494C13.9494 8.33971 13.6136 8.00392 13.1994 8.00392V8.75392ZM11.0328 8.75392V8.00392C10.6186 8.00392 10.2828 8.33971 10.2828 8.75392H11.0328ZM13.1994 10.9204L13.9436 11.0135C13.9474 10.9826 13.9494 10.9515 13.9494 10.9204H13.1994ZM12.6577 15.2535V16.0035C13.036 16.0035 13.355 15.7218 13.4019 15.3465L12.6577 15.2535ZM11.5745 15.2535L10.8303 15.3465C10.8772 15.7218 11.1962 16.0035 11.5745 16.0035V15.2535ZM11.0328 10.9204H10.2828C10.2828 10.9515 10.2848 10.9826 10.2886 11.0135L11.0328 10.9204ZM1.50115 21.003L1.50115 21.003L0.203014 20.2514C-0.375932 21.2514 0.345653 22.503 1.50115 22.503V21.003ZM22.7311 21.003H1.50115V22.503H22.7311V21.003ZM22.7311 21.003V22.503C23.8866 22.503 24.6082 21.2514 24.0293 20.2514L22.7311 21.003ZM12.1161 2.66801L22.7311 21.003L24.0293 20.2514L13.4143 1.91646L12.1161 2.66801ZM12.1161 2.66801L12.1161 2.66801L13.4143 1.91645C12.8365 0.918529 11.3958 0.918527 10.818 1.91645L12.1161 2.66801ZM1.50115 21.003L12.1161 2.66801L10.818 1.91646L0.203014 20.2514L1.50115 21.003ZM13.1994 8.00392H11.0328V9.50392H13.1994V8.00392ZM13.9494 10.9204V8.75392H12.4494V10.9204H13.9494ZM13.4019 15.3465L13.9436 11.0135L12.4551 10.8274L11.9135 15.1604L13.4019 15.3465ZM11.5745 16.0035H12.6577V14.5035H11.5745V16.0035ZM10.2886 11.0135L10.8303 15.3465L12.3187 15.1604L11.777 10.8274L10.2886 11.0135ZM10.2828 8.75392V10.9204H11.7828V8.75392H10.2828ZM12.4494 17.4199C12.4494 17.604 12.3001 17.7532 12.1161 17.7532V19.2532C13.1286 19.2532 13.9494 18.4324 13.9494 17.4199H12.4494ZM12.1161 17.0867C12.3001 17.0867 12.4494 17.2359 12.4494 17.4199H13.9494C13.9494 16.4075 13.1286 15.5867 12.1161 15.5867V17.0867ZM11.7828 17.4199C11.7828 17.2359 11.932 17.0867 12.1161 17.0867V15.5867C11.1036 15.5867 10.2828 16.4075 10.2828 17.4199H11.7828ZM12.1161 17.7532C11.932 17.7532 11.7828 17.604 11.7828 17.4199H10.2828C10.2828 18.4324 11.1036 19.2532 12.1161 19.2532V17.7532Z" fill="#1D1933" mask="url(#path-1-inside-1_1047_10748)"/>
</svg>
