<svg width="74" height="16" viewBox="0 0 74 16" fill="none" xmlns="http://www.w3.org/2000/svg">
    <path d="M3.33333 14C2.96667 14 2.65289 13.8696 2.392 13.6087C2.13111 13.3478 2.00044 13.0338 2 12.6667V8.26667L3.53333 9.8C3.66667 9.93333 3.82222 10 4 10C4.17778 10 4.33333 9.93333 4.46667 9.8L6.66667 7.6L8.86667 9.8C9 9.93333 9.15555 10 9.33333 10C9.51111 10 9.66667 9.93333 9.8 9.8L12 7.6L14 9.6V12.6667C14 13.0333 13.8696 13.3473 13.6087 13.6087C13.3478 13.87 13.0338 14.0004 12.6667 14H3.33333ZM3.33333 2H12.6667C13.0333 2 13.3473 2.13067 13.6087 2.392C13.87 2.65333 14.0004 2.96711 14 3.33333V7.71667L12.4667 6.18333C12.3333 6.05 12.1778 5.98333 12 5.98333C11.8222 5.98333 11.6667 6.05 11.5333 6.18333L9.33333 8.38333L7.13333 6.18333C7 6.05 6.84444 5.98333 6.66667 5.98333C6.48889 5.98333 6.33333 6.05 6.2 6.18333L4 8.38333L2 6.38333V3.33333C2 2.96667 2.13067 2.65289 2.392 2.392C2.65333 2.13111 2.96711 2.00044 3.33333 2Z" fill="#E50000"/>
    <path d="M18.5114 12.5L21.8354 4.1H23.5634L26.8634 12.5H24.7994L23.2154 8.24C23.1514 8.072 23.0874 7.892 23.0234 7.7C22.9594 7.508 22.8954 7.312 22.8314 7.112C22.7674 6.904 22.7034 6.704 22.6394 6.512C22.5834 6.312 22.5354 6.128 22.4954 5.96L22.8554 5.948C22.8074 6.148 22.7514 6.344 22.6874 6.536C22.6314 6.728 22.5714 6.92 22.5074 7.112C22.4514 7.296 22.3874 7.484 22.3154 7.676C22.2434 7.86 22.1754 8.052 22.1114 8.252L20.5274 12.5H18.5114ZM20.0954 10.892L20.7314 9.356H24.5954L25.2194 10.892H20.0954ZM29.0658 12.5L26.4018 6.128H28.5258L30.1098 10.892L29.6418 10.94L31.2738 6.128H33.3738L30.5778 12.5H29.0658ZM36.5517 12.608C36.0157 12.608 35.5357 12.468 35.1117 12.188C34.6957 11.9 34.3637 11.508 34.1157 11.012C33.8677 10.508 33.7437 9.94 33.7437 9.308C33.7437 8.66 33.8677 8.088 34.1157 7.592C34.3637 7.096 34.7037 6.708 35.1357 6.428C35.5677 6.14 36.0597 5.996 36.6117 5.996C36.9157 5.996 37.1917 6.04 37.4397 6.128C37.6957 6.216 37.9197 6.34 38.1117 6.5C38.3037 6.652 38.4677 6.832 38.6037 7.04C38.7397 7.24 38.8397 7.456 38.9037 7.688L38.5077 7.64V6.128H40.4157V12.5H38.4717V10.964L38.9037 10.952C38.8397 11.176 38.7357 11.388 38.5917 11.588C38.4477 11.788 38.2717 11.964 38.0637 12.116C37.8557 12.268 37.6237 12.388 37.3677 12.476C37.1117 12.564 36.8397 12.608 36.5517 12.608ZM37.0797 10.988C37.3757 10.988 37.6317 10.92 37.8477 10.784C38.0637 10.648 38.2317 10.456 38.3517 10.208C38.4717 9.952 38.5317 9.652 38.5317 9.308C38.5317 8.964 38.4717 8.668 38.3517 8.42C38.2317 8.164 38.0637 7.968 37.8477 7.832C37.6317 7.688 37.3757 7.616 37.0797 7.616C36.7917 7.616 36.5397 7.688 36.3237 7.832C36.1157 7.968 35.9517 8.164 35.8317 8.42C35.7117 8.668 35.6517 8.964 35.6517 9.308C35.6517 9.652 35.7117 9.952 35.8317 10.208C35.9517 10.456 36.1157 10.648 36.3237 10.784C36.5397 10.92 36.7917 10.988 37.0797 10.988ZM42.1098 12.5V6.128H43.9338L44.0178 8.204L43.6578 7.808C43.7538 7.464 43.9098 7.156 44.1258 6.884C44.3498 6.612 44.6098 6.396 44.9058 6.236C45.2018 6.076 45.5178 5.996 45.8538 5.996C45.9978 5.996 46.1298 6.008 46.2498 6.032C46.3778 6.056 46.4938 6.084 46.5978 6.116L46.0698 8.24C45.9818 8.184 45.8618 8.14 45.7098 8.108C45.5658 8.068 45.4138 8.048 45.2538 8.048C45.0778 8.048 44.9138 8.08 44.7618 8.144C44.6098 8.2 44.4818 8.284 44.3778 8.396C44.2738 8.508 44.1898 8.64 44.1258 8.792C44.0698 8.944 44.0418 9.116 44.0418 9.308V12.5H42.1098ZM47.6788 12.5V6.128H49.5988V12.5H47.6788ZM48.6388 4.868C48.2788 4.868 47.9948 4.784 47.7868 4.616C47.5868 4.44 47.4868 4.192 47.4868 3.872C47.4868 3.584 47.5908 3.348 47.7988 3.164C48.0068 2.98 48.2868 2.888 48.6388 2.888C48.9988 2.888 49.2788 2.976 49.4788 3.152C49.6788 3.32 49.7788 3.56 49.7788 3.872C49.7788 4.168 49.6748 4.408 49.4668 4.592C49.2668 4.776 48.9908 4.868 48.6388 4.868ZM53.7548 12.608C53.2188 12.608 52.7388 12.468 52.3148 12.188C51.8988 11.9 51.5668 11.508 51.3188 11.012C51.0708 10.508 50.9468 9.94 50.9468 9.308C50.9468 8.66 51.0708 8.088 51.3188 7.592C51.5668 7.096 51.9068 6.708 52.3388 6.428C52.7708 6.14 53.2628 5.996 53.8148 5.996C54.1188 5.996 54.3948 6.04 54.6428 6.128C54.8988 6.216 55.1228 6.34 55.3148 6.5C55.5068 6.652 55.6708 6.832 55.8068 7.04C55.9428 7.24 56.0428 7.456 56.1068 7.688L55.7108 7.64V6.128H57.6188V12.5H55.6748V10.964L56.1068 10.952C56.0428 11.176 55.9388 11.388 55.7948 11.588C55.6508 11.788 55.4748 11.964 55.2668 12.116C55.0588 12.268 54.8268 12.388 54.5708 12.476C54.3148 12.564 54.0428 12.608 53.7548 12.608ZM54.2828 10.988C54.5788 10.988 54.8348 10.92 55.0508 10.784C55.2668 10.648 55.4348 10.456 55.5548 10.208C55.6748 9.952 55.7348 9.652 55.7348 9.308C55.7348 8.964 55.6748 8.668 55.5548 8.42C55.4348 8.164 55.2668 7.968 55.0508 7.832C54.8348 7.688 54.5788 7.616 54.2828 7.616C53.9948 7.616 53.7428 7.688 53.5268 7.832C53.3188 7.968 53.1548 8.164 53.0348 8.42C52.9148 8.668 52.8548 8.964 52.8548 9.308C52.8548 9.652 52.9148 9.952 53.0348 10.208C53.1548 10.456 53.3188 10.648 53.5268 10.784C53.7428 10.92 53.9948 10.988 54.2828 10.988ZM61.7249 12.632C61.1729 12.632 60.6809 12.492 60.2489 12.212C59.8249 11.924 59.4889 11.532 59.2409 11.036C58.9929 10.532 58.8689 9.96 58.8689 9.32C58.8689 8.68 58.9929 8.112 59.2409 7.616C59.4889 7.112 59.8289 6.716 60.2609 6.428C60.6929 6.14 61.1889 5.996 61.7489 5.996C62.0369 5.996 62.3129 6.04 62.5769 6.128C62.8409 6.216 63.0809 6.336 63.2969 6.488C63.5129 6.64 63.6889 6.816 63.8249 7.016C63.9609 7.208 64.0409 7.408 64.0649 7.616L63.6089 7.724V3.62H65.5409V12.5H63.7529L63.6449 11.048L64.0289 11.108C64.0049 11.308 63.9249 11.5 63.7889 11.684C63.6609 11.868 63.4929 12.032 63.2849 12.176C63.0769 12.312 62.8369 12.42 62.5649 12.5C62.3009 12.588 62.0209 12.632 61.7249 12.632ZM62.2169 11.036C62.5129 11.036 62.7689 10.964 62.9849 10.82C63.2009 10.676 63.3649 10.476 63.4769 10.22C63.5969 9.964 63.6569 9.664 63.6569 9.32C63.6569 8.968 63.5969 8.664 63.4769 8.408C63.3649 8.152 63.2009 7.952 62.9849 7.808C62.7689 7.664 62.5129 7.592 62.2169 7.592C61.9209 7.592 61.6649 7.664 61.4489 7.808C61.2409 7.952 61.0769 8.152 60.9569 8.408C60.8369 8.664 60.7769 8.968 60.7769 9.32C60.7769 9.664 60.8369 9.964 60.9569 10.22C61.0769 10.476 61.2409 10.676 61.4489 10.82C61.6649 10.964 61.9209 11.036 62.2169 11.036ZM70.1645 12.62C69.5005 12.62 68.9085 12.476 68.3885 12.188C67.8765 11.9 67.4685 11.508 67.1645 11.012C66.8685 10.516 66.7205 9.948 66.7205 9.308C66.7205 8.668 66.8685 8.1 67.1645 7.604C67.4685 7.108 67.8765 6.716 68.3885 6.428C68.9085 6.14 69.5005 5.996 70.1645 5.996C70.8285 5.996 71.4165 6.14 71.9285 6.428C72.4485 6.716 72.8565 7.108 73.1525 7.604C73.4485 8.1 73.5965 8.668 73.5965 9.308C73.5965 9.948 73.4485 10.516 73.1525 11.012C72.8565 11.508 72.4485 11.9 71.9285 12.188C71.4165 12.476 70.8285 12.62 70.1645 12.62ZM70.1645 10.964C70.4525 10.964 70.7085 10.892 70.9325 10.748C71.1565 10.604 71.3325 10.408 71.4605 10.16C71.5885 9.912 71.6485 9.628 71.6405 9.308C71.6485 8.988 71.5885 8.704 71.4605 8.456C71.3325 8.2 71.1565 8 70.9325 7.856C70.7085 7.712 70.4525 7.64 70.1645 7.64C69.8765 7.64 69.6165 7.712 69.3845 7.856C69.1605 8 68.9845 8.2 68.8565 8.456C68.7285 8.704 68.6685 8.988 68.6765 9.308C68.6685 9.628 68.7285 9.912 68.8565 10.16C68.9845 10.408 69.1605 10.604 69.3845 10.748C69.6165 10.892 69.8765 10.964 70.1645 10.964Z" fill="#E50000"/>
    </svg>
    