<svg width="200" height="40" viewBox="0 0 200 40" fill="none" xmlns="http://www.w3.org/2000/svg">
<g clip-path="url(#clip0_2377_8291)">
<path d="M164 0.5C174.77 0.5 183.5 9.23045 183.5 20C183.5 30.7696 174.77 39.5 164 39.5H17.5V0.5H164Z" stroke="#E1DDF4"/>
<g clip-path="url(#clip1_2377_8291)">
<path d="M54 13L57 13C57.7956 13 58.5587 13.3161 59.1213 13.8787C59.6839 14.4413 60 15.2044 60 16L60 24C60 24.7956 59.6839 25.5587 59.1213 26.1213C58.5587 26.6839 57.7956 27 57 27L54 27M49 11C49.2652 11 49.5196 11.1054 49.7071 11.2929C49.8946 11.4804 50 11.7348 50 12L50 14C50 14.2652 49.8946 14.5196 49.7071 14.7071C49.5196 14.8946 49.2652 15 49 15L47 15C46.7348 15 46.4804 14.8946 46.2929 14.7071C46.1054 14.5196 46 14.2652 46 14L46 12C46 11.7348 46.1054 11.4804 46.2929 11.2929C46.4804 11.1054 46.7348 11 47 11L49 11ZM49 18C49.2652 18 49.5196 18.1054 49.7071 18.2929C49.8946 18.4804 50 18.7348 50 19L50 21C50 21.2652 49.8946 21.5196 49.7071 21.7071C49.5196 21.8946 49.2652 22 49 22L47 22C46.7348 22 46.4804 21.8946 46.2929 21.7071C46.1054 21.5196 46 21.2652 46 21L46 19C46 18.7348 46.1054 18.4804 46.2929 18.2929C46.4804 18.1054 46.7348 18 47 18L49 18ZM49 25C49.2652 25 49.5196 25.1054 49.7071 25.2929C49.8946 25.4804 50 25.7348 50 26L50 28C50 28.2652 49.8946 28.5196 49.7071 28.7071C49.5196 28.8946 49.2652 29 49 29L47 29C46.7348 29 46.4804 28.8946 46.2929 28.7071C46.1054 28.5196 46 28.2652 46 28L46 26C46 25.7348 46.1054 25.4804 46.2929 25.2929C46.4804 25.1054 46.7348 25 47 25L49 25Z" stroke="#E1DDF4" stroke-width="2" stroke-linecap="round" stroke-linejoin="round"/>
<path d="M56.5 24.5L54 27L56.5 29.5" stroke="#E1DDF4" stroke-width="2" stroke-linecap="round" stroke-linejoin="round"/>
</g>
<path d="M77.272 26.16C76.4827 26.16 75.752 26.0213 75.08 25.744C74.4187 25.456 73.8373 25.056 73.336 24.544C72.8453 24.032 72.4613 23.4293 72.184 22.736C71.9173 22.032 71.784 21.264 71.784 20.432C71.784 19.6 71.9173 18.8373 72.184 18.144C72.4613 17.44 72.8453 16.832 73.336 16.32C73.8373 15.7973 74.4187 15.3973 75.08 15.12C75.752 14.832 76.4827 14.688 77.272 14.688C78.072 14.688 78.8027 14.832 79.464 15.12C80.136 15.3973 80.7173 15.7973 81.208 16.32C81.7093 16.832 82.0933 17.44 82.36 18.144C82.6373 18.8373 82.776 19.6 82.776 20.432C82.776 21.2533 82.6373 22.016 82.36 22.72C82.0933 23.4133 81.7093 24.0213 81.208 24.544C80.7173 25.056 80.136 25.456 79.464 25.744C78.8027 26.0213 78.072 26.16 77.272 26.16ZM77.272 24.928C77.88 24.928 78.44 24.8213 78.952 24.608C79.4747 24.384 79.9227 24.0693 80.296 23.664C80.6693 23.2587 80.9573 22.784 81.16 22.24C81.3733 21.6853 81.48 21.0827 81.48 20.432C81.48 19.7707 81.3733 19.168 81.16 18.624C80.9573 18.0693 80.6693 17.5893 80.296 17.184C79.9227 16.7787 79.4747 16.464 78.952 16.24C78.44 16.016 77.88 15.904 77.272 15.904C76.664 15.904 76.0987 16.016 75.576 16.24C75.064 16.464 74.6213 16.7787 74.248 17.184C73.8747 17.5893 73.5867 18.0693 73.384 18.624C73.1813 19.168 73.08 19.7707 73.08 20.432C73.08 21.0827 73.1813 21.6853 73.384 22.24C73.5867 22.784 73.8747 23.2587 74.248 23.664C74.6213 24.0693 75.064 24.384 75.576 24.608C76.0987 24.8213 76.664 24.928 77.272 24.928ZM84.7305 26V17.648H85.9305L85.9625 19.872L85.8345 19.568C85.9518 19.1947 86.1385 18.848 86.3945 18.528C86.6612 18.208 86.9758 17.952 87.3385 17.76C87.7012 17.568 88.1012 17.472 88.5385 17.472C88.7198 17.472 88.8905 17.488 89.0505 17.52C89.2105 17.5413 89.3438 17.5733 89.4505 17.616L89.1145 18.96C88.9758 18.896 88.8318 18.8533 88.6825 18.832C88.5438 18.8 88.4105 18.784 88.2825 18.784C87.9198 18.784 87.5945 18.848 87.3065 18.976C87.0185 19.104 86.7732 19.2853 86.5705 19.52C86.3678 19.744 86.2132 20.0053 86.1065 20.304C85.9998 20.6027 85.9465 20.9227 85.9465 21.264V26H84.7305ZM93.7319 26.16C92.9745 26.16 92.2919 25.9733 91.6839 25.6C91.0865 25.2267 90.6119 24.7147 90.2599 24.064C89.9185 23.4027 89.7479 22.656 89.7479 21.824C89.7479 20.9813 89.9239 20.2347 90.2759 19.584C90.6279 18.9227 91.1025 18.4053 91.6999 18.032C92.2972 17.6587 92.9692 17.472 93.7159 17.472C94.1319 17.472 94.5319 17.536 94.9159 17.664C95.3105 17.792 95.6625 17.9733 95.9719 18.208C96.2812 18.432 96.5372 18.6933 96.7399 18.992C96.9425 19.28 97.0652 19.584 97.1079 19.904L96.7399 19.776V14.16H97.9399V26H96.7559L96.7239 23.92L97.0279 23.808C96.9852 24.1067 96.8625 24.4 96.6599 24.688C96.4679 24.9653 96.2225 25.216 95.9239 25.44C95.6252 25.664 95.2839 25.84 94.8999 25.968C94.5265 26.096 94.1372 26.16 93.7319 26.16ZM93.9079 25.056C94.4625 25.056 94.9585 24.9173 95.3959 24.64C95.8332 24.3627 96.1745 23.9787 96.4199 23.488C96.6759 22.9973 96.8039 22.4373 96.8039 21.808C96.8039 21.1787 96.6759 20.624 96.4199 20.144C96.1745 19.6533 95.8332 19.2693 95.3959 18.992C94.9585 18.704 94.4625 18.56 93.9079 18.56C93.3319 18.56 92.8252 18.704 92.3879 18.992C91.9612 19.2693 91.6199 19.6533 91.3639 20.144C91.1185 20.624 90.9959 21.1787 90.9959 21.808C90.9959 22.4267 91.1185 22.9813 91.3639 23.472C91.6092 23.9627 91.9505 24.352 92.3879 24.64C92.8252 24.9173 93.3319 25.056 93.9079 25.056ZM103.957 26.16C103.125 26.16 102.384 25.9787 101.733 25.616C101.093 25.2533 100.592 24.7467 100.229 24.096C99.8667 23.4453 99.6854 22.6987 99.6854 21.856C99.6854 21.2053 99.7867 20.6187 99.9894 20.096C100.192 19.5627 100.475 19.0987 100.837 18.704C101.211 18.3093 101.653 18.0053 102.165 17.792C102.677 17.568 103.232 17.456 103.829 17.456C104.395 17.456 104.907 17.5573 105.365 17.76C105.835 17.9627 106.235 18.2453 106.565 18.608C106.907 18.96 107.163 19.3813 107.333 19.872C107.504 20.3627 107.579 20.9013 107.557 21.488L107.541 22.048H100.581L100.405 21.04H106.629L106.341 21.312V20.928C106.32 20.544 106.208 20.176 106.005 19.824C105.803 19.4613 105.515 19.168 105.141 18.944C104.779 18.72 104.341 18.608 103.829 18.608C103.232 18.608 102.715 18.7307 102.277 18.976C101.84 19.2107 101.504 19.5627 101.269 20.032C101.035 20.5013 100.917 21.0827 100.917 21.776C100.917 22.4373 101.045 23.0133 101.301 23.504C101.557 23.984 101.92 24.3573 102.389 24.624C102.869 24.8907 103.445 25.024 104.117 25.024C104.512 25.024 104.901 24.96 105.285 24.832C105.68 24.6933 106.112 24.4267 106.581 24.032L107.205 24.896C106.96 25.1413 106.667 25.36 106.325 25.552C105.984 25.7333 105.611 25.8827 105.205 26C104.8 26.1067 104.384 26.16 103.957 26.16ZM109.262 26V17.648H110.446L110.494 19.392L110.302 19.472C110.408 19.1093 110.616 18.7787 110.926 18.48C111.235 18.1813 111.603 17.9413 112.03 17.76C112.467 17.568 112.915 17.472 113.374 17.472C113.992 17.472 114.51 17.5947 114.926 17.84C115.342 18.0853 115.656 18.464 115.87 18.976C116.083 19.488 116.19 20.1387 116.19 20.928V26H114.974V20.992C114.974 20.4373 114.899 19.984 114.75 19.632C114.611 19.2693 114.392 19.0027 114.094 18.832C113.795 18.6613 113.427 18.5813 112.99 18.592C112.627 18.592 112.291 18.656 111.982 18.784C111.672 18.9013 111.406 19.0667 111.182 19.28C110.958 19.4933 110.782 19.7387 110.654 20.016C110.526 20.2933 110.462 20.592 110.462 20.912V26H109.87C109.795 26 109.71 26 109.614 26C109.518 26 109.4 26 109.262 26ZM121.745 26.16C121.019 26.16 120.363 25.9733 119.777 25.6C119.19 25.216 118.726 24.6987 118.385 24.048C118.043 23.3867 117.873 22.64 117.873 21.808C117.873 20.9653 118.049 20.2187 118.401 19.568C118.753 18.9173 119.222 18.4053 119.809 18.032C120.406 17.6587 121.073 17.472 121.809 17.472C122.246 17.472 122.651 17.536 123.025 17.664C123.398 17.792 123.729 17.9733 124.017 18.208C124.315 18.432 124.561 18.6987 124.753 19.008C124.955 19.3067 125.094 19.632 125.169 19.984L124.817 19.808L124.865 17.648H126.065V26H124.849V23.952L125.169 23.744C125.094 24.064 124.95 24.3733 124.737 24.672C124.523 24.96 124.262 25.216 123.953 25.44C123.654 25.664 123.313 25.84 122.929 25.968C122.555 26.096 122.161 26.16 121.745 26.16ZM122.016 25.008C122.571 25.008 123.067 24.8747 123.505 24.608C123.942 24.3307 124.283 23.952 124.529 23.472C124.785 22.9813 124.913 22.4267 124.913 21.808C124.913 21.1893 124.785 20.64 124.529 20.16C124.283 19.68 123.942 19.3013 123.505 19.024C123.067 18.7467 122.571 18.608 122.016 18.608C121.451 18.608 120.95 18.7467 120.513 19.024C120.086 19.3013 119.745 19.68 119.489 20.16C119.243 20.64 119.121 21.1893 119.121 21.808C119.121 22.416 119.243 22.9653 119.489 23.456C119.734 23.936 120.075 24.3147 120.513 24.592C120.95 24.8693 121.451 25.008 122.016 25.008ZM128.402 26V17.648H129.602L129.634 19.872L129.506 19.568C129.624 19.1947 129.81 18.848 130.066 18.528C130.333 18.208 130.648 17.952 131.01 17.76C131.373 17.568 131.773 17.472 132.21 17.472C132.392 17.472 132.562 17.488 132.722 17.52C132.882 17.5413 133.016 17.5733 133.122 17.616L132.786 18.96C132.648 18.896 132.504 18.8533 132.354 18.832C132.216 18.8 132.082 18.784 131.954 18.784C131.592 18.784 131.266 18.848 130.978 18.976C130.69 19.104 130.445 19.2853 130.242 19.52C130.04 19.744 129.885 20.0053 129.778 20.304C129.672 20.6027 129.618 20.9227 129.618 21.264V26H128.402ZM139.336 26V14.8H143.768C144.354 14.8 144.882 14.944 145.352 15.232C145.821 15.52 146.194 15.92 146.472 16.432C146.749 16.9333 146.888 17.4987 146.888 18.128C146.888 18.7893 146.749 19.3813 146.472 19.904C146.194 20.416 145.821 20.8267 145.352 21.136C144.882 21.4347 144.354 21.584 143.768 21.584H140.584V26H139.336ZM140.584 20.368H143.832C144.162 20.368 144.456 20.272 144.712 20.08C144.978 19.8773 145.192 19.6107 145.352 19.28C145.512 18.9387 145.592 18.5493 145.592 18.112C145.592 17.7173 145.512 17.3653 145.352 17.056C145.192 16.736 144.978 16.4853 144.712 16.304C144.456 16.112 144.162 16.016 143.832 16.016H140.584V20.368ZM152.348 26.16C151.516 26.16 150.775 25.9733 150.124 25.6C149.484 25.2267 148.978 24.7093 148.604 24.048C148.242 23.3867 148.06 22.6347 148.06 21.792C148.06 20.96 148.242 20.2187 148.604 19.568C148.978 18.9173 149.484 18.4053 150.124 18.032C150.775 17.6587 151.516 17.472 152.348 17.472C153.17 17.472 153.9 17.6587 154.54 18.032C155.191 18.4053 155.698 18.9173 156.06 19.568C156.434 20.2187 156.62 20.96 156.62 21.792C156.62 22.6347 156.434 23.3867 156.06 24.048C155.698 24.7093 155.191 25.2267 154.54 25.6C153.9 25.9733 153.17 26.16 152.348 26.16ZM152.348 25.024C152.935 25.024 153.458 24.8853 153.916 24.608C154.375 24.32 154.732 23.936 154.988 23.456C155.244 22.9653 155.372 22.4107 155.372 21.792C155.372 21.1733 155.244 20.624 154.988 20.144C154.732 19.664 154.375 19.2907 153.916 19.024C153.458 18.7467 152.935 18.608 152.348 18.608C151.762 18.608 151.234 18.7467 150.764 19.024C150.306 19.2907 149.943 19.6693 149.676 20.16C149.42 20.64 149.298 21.184 149.308 21.792C149.298 22.4107 149.42 22.9653 149.676 23.456C149.943 23.936 150.306 24.32 150.764 24.608C151.234 24.8853 151.762 25.024 152.348 25.024ZM158.371 26V17.648H159.571L159.603 19.872L159.475 19.568C159.592 19.1947 159.779 18.848 160.035 18.528C160.302 18.208 160.616 17.952 160.979 17.76C161.342 17.568 161.742 17.472 162.179 17.472C162.36 17.472 162.531 17.488 162.691 17.52C162.851 17.5413 162.984 17.5733 163.091 17.616L162.755 18.96C162.616 18.896 162.472 18.8533 162.323 18.832C162.184 18.8 162.051 18.784 161.923 18.784C161.56 18.784 161.235 18.848 160.947 18.976C160.659 19.104 160.414 19.2853 160.211 19.52C160.008 19.744 159.854 20.0053 159.747 20.304C159.64 20.6027 159.587 20.9227 159.587 21.264V26H158.371Z" fill="white"/>
</g>
<defs>
<clipPath id="clip0_2377_8291">
<rect width="200" height="40" fill="white"/>
</clipPath>
<clipPath id="clip1_2377_8291">
<rect width="24" height="24" fill="white" transform="translate(61 8) rotate(90)"/>
</clipPath>
</defs>
</svg>
