<svg xmlns="http://www.w3.org/2000/svg" width="25" height="24" viewBox="0 0 25 24" fill="none">
  <g clip-path="url(#clip0_669_91)">
    <path d="M3.77273 9V5.625H0.5V3.375H3.77273V0H5.95455V3.375H9.22727V5.625H5.95455V9H3.77273Z" fill="#E1DDF4"/>
    <path d="M18.0396 18.0493C18.0444 18.8644 17.7707 19.2333 17.2012 19.5242C16.6817 19.7902 16.1652 19.72 15.6404 19.6349C13.2238 19.2422 10.9941 18.389 9.02391 16.9122C8.47527 16.5011 7.98315 16.0275 7.58149 15.4688C7.5321 15.4004 7.50889 15.2725 7.53686 15.1951C7.98315 13.97 8.43242 12.7456 8.89657 11.527C9.25003 10.5988 9.80463 10.3162 10.7799 10.5358C11.6207 10.725 12.3556 11.1403 13.0519 11.6252C14.818 12.8544 16.2705 14.3824 17.3678 16.2375C17.7284 16.8486 18.0141 17.49 18.0396 18.0493ZM16.6079 18.5907C16.6157 18.5711 16.6228 18.5508 16.6305 18.5312C16.915 18.5371 17.0215 18.458 16.9537 18.1754C16.8543 17.7619 16.7335 17.3412 16.5419 16.9646C15.901 15.7068 14.9739 14.6662 13.9492 13.7106C13.1221 12.9389 12.2372 12.241 11.1887 11.7888C10.9007 11.6651 10.5847 11.5901 10.2741 11.5389C10.0296 11.4991 9.9284 11.6002 9.97124 11.8477C10.0278 12.172 10.1063 12.5022 10.2396 12.8021C10.7526 13.9569 11.547 14.9155 12.4205 15.8109C13.3155 16.7278 14.2848 17.5554 15.4386 18.1331C15.8111 18.3206 16.217 18.4408 16.6079 18.5907Z" fill="#E1DDF4"/>
    <path d="M7.04237 16.5243C9.08104 18.6817 11.6559 19.7842 14.4562 20.5184C14.3979 20.5482 14.3574 20.575 14.3128 20.5916C13.4452 20.9135 12.5782 21.239 11.7064 21.5496C11.5618 21.6013 11.3875 21.618 11.2357 21.5948C10.0218 21.4085 8.83706 21.1206 7.7487 20.525C7.14293 20.1936 6.60797 19.7759 6.21821 19.1964C6.1706 19.1256 6.12776 19.0096 6.15275 18.9394C6.43898 18.1379 6.73889 17.3412 7.04237 16.5243Z" fill="#E1DDF4"/>
    <path d="M16.2003 5.59739C16.3824 5.85978 16.5359 6.06862 16.6758 6.28638C16.8876 6.61541 17.0025 6.96943 16.8965 7.36331C16.7543 7.89344 16.3509 8.22247 15.7689 8.28434C15.5261 8.30993 15.2815 8.32302 15.0156 8.34384C15.0447 8.39501 15.0691 8.4438 15.0983 8.48902C15.2185 8.67585 15.3547 8.85434 15.4589 9.0495C15.782 9.65341 15.6469 10.2781 15.1012 10.6899C14.6228 11.051 14.0539 11.1629 13.4755 11.226C13.2893 11.2462 13.1679 11.1296 13.1286 10.9475C13.081 10.7303 13.0364 10.5126 13.0043 10.2924C12.9626 10.0098 13.0608 9.8795 13.3411 9.81703C13.6065 9.75753 13.8713 9.69863 14.1658 9.63318C13.9915 9.3815 13.8391 9.17266 13.6993 8.95549C13.4821 8.62051 13.3631 8.26054 13.4744 7.85833C13.619 7.33772 14.0164 7.01226 14.5883 6.9492C14.837 6.92183 15.087 6.90814 15.3619 6.88672C15.2327 6.69335 15.106 6.51545 14.9912 6.32982C14.5205 5.56645 14.7139 4.77571 15.5225 4.39135C15.9296 4.19798 16.3925 4.11468 16.837 4.01175C17.0548 3.96118 17.1893 4.0772 17.2405 4.29556C17.2911 4.51213 17.3333 4.73049 17.3654 4.95004C17.4047 5.22136 17.3083 5.34987 17.0382 5.41116C16.7722 5.47244 16.5062 5.53015 16.2003 5.59739Z" fill="#E1DDF4"/>
    <path d="M20.1444 13.4857C20.1836 13.1507 20.1932 12.83 20.2628 12.5224C20.4437 11.7228 21.2321 11.339 21.9712 11.6966C22.2878 11.8495 22.5728 12.0679 22.9054 12.2773C22.9626 12.0298 23.0256 11.7954 23.0703 11.558C23.1423 11.1754 23.2767 11.0766 23.6546 11.1498C23.8367 11.1849 24.02 11.2147 24.1997 11.2575C24.4228 11.3104 24.5234 11.4348 24.4954 11.6561C24.4353 12.1357 24.3383 12.6075 24.0932 13.0335C23.6653 13.7767 22.9286 13.9688 22.1985 13.525C22.0045 13.4072 21.8206 13.2739 21.6159 13.1371C21.5951 13.4 21.5808 13.6416 21.5558 13.882C21.4523 14.8821 20.5472 15.3599 19.6689 14.8702C19.4047 14.7233 19.1625 14.5371 18.8721 14.3431C18.8126 14.596 18.7478 14.828 18.7043 15.0636C18.6305 15.4623 18.5008 15.5575 18.1075 15.4801C17.9331 15.4456 17.757 15.4182 17.5838 15.3784C17.3488 15.3236 17.2476 15.1993 17.278 14.9654C17.3387 14.4936 17.4345 14.0289 17.6731 13.6083C18.1021 12.8538 18.8436 12.6599 19.5826 13.1115C19.7713 13.2263 19.9516 13.3566 20.1444 13.4857Z" fill="#E1DDF4"/>
    <path d="M23.7367 7.64176C23.7373 8.07669 23.7885 8.12608 23.266 8.17784C21.4826 8.35396 19.9986 9.19408 18.6918 10.3608C18.1646 10.8321 17.7171 11.3931 17.2452 11.9245C17.0524 12.1416 17.0167 12.1625 16.7704 11.9977C16.6532 11.9191 16.5353 11.8424 16.4193 11.7626C16.22 11.6258 16.2015 11.5353 16.3419 11.3444C17.4047 9.89735 18.7293 8.75498 20.333 7.94461C21.247 7.4829 22.2122 7.18541 23.2381 7.10032C23.297 7.09556 23.3565 7.09021 23.4154 7.08842C23.6606 7.08069 23.7326 7.1503 23.7367 7.39722C23.7379 7.47814 23.7367 7.56025 23.7367 7.64176Z" fill="#E1DDF4"/>
    <path d="M5.66778 20.2567C6.69961 21.3859 8.026 21.9577 9.52019 22.3635C9.15482 22.5003 8.85551 22.6128 8.5556 22.7247C7.48033 23.1257 6.40327 23.5231 5.32979 23.9307C5.07986 24.0253 4.85255 24.0461 4.65202 23.8438C4.45089 23.6415 4.47707 23.4137 4.57168 23.1649C4.91146 22.2719 5.23934 21.3746 5.57257 20.4798C5.59816 20.4108 5.6297 20.3441 5.66778 20.2567Z" fill="#E1DDF4"/>
    <path d="M11.9772 6.36373C11.9772 6.57138 11.9754 6.77903 11.9778 6.98609C11.9796 7.16934 11.8951 7.26156 11.7094 7.25978C11.5315 7.25799 11.3536 7.25799 11.1756 7.25978C10.99 7.26156 10.9067 7.16875 10.9079 6.98549C10.9102 6.57019 10.9091 6.15548 10.9085 5.74018C10.9085 5.56764 10.99 5.4778 11.1649 5.4778C11.35 5.4778 11.5357 5.4778 11.7207 5.4778C11.8957 5.4778 11.9778 5.56823 11.9772 5.74018C11.9766 5.94843 11.9772 6.15608 11.9772 6.36373Z" fill="#E1DDF4"/>
    <path d="M20.6924 17.5923C20.4925 17.5923 20.2919 17.5905 20.092 17.5929C19.9093 17.5953 19.8153 17.512 19.8171 17.3258C19.8183 17.1407 19.8165 16.9551 19.8183 16.77C19.8201 16.607 19.9051 16.5243 20.0676 16.5243C20.4972 16.5237 20.9275 16.5225 21.3571 16.5249C21.5213 16.5261 21.5981 16.6177 21.5987 16.7784C21.5987 16.9634 21.5987 17.149 21.5987 17.3341C21.5987 17.5078 21.51 17.5923 21.3375 17.5917C21.122 17.5923 20.9072 17.5923 20.6924 17.5923Z" fill="#E1DDF4"/>
    <path d="M22.9453 4.82153C22.9179 4.86972 22.8989 4.92862 22.8602 4.96789C22.5538 5.27967 22.2449 5.58965 21.9337 5.89667C21.8183 6.01031 21.6981 6.00257 21.5832 5.88715C21.4529 5.75565 21.322 5.62476 21.1905 5.49386C21.0655 5.36951 21.0738 5.24813 21.1952 5.12735C21.494 4.82867 21.7867 4.52284 22.0973 4.23725C22.1586 4.18073 22.3282 4.15157 22.383 4.19382C22.5686 4.3378 22.7263 4.51808 22.8906 4.68884C22.9179 4.718 22.9239 4.76798 22.9453 4.82153Z" fill="#E1DDF4"/>
  </g>
  <defs>
    <clipPath id="clip0_669_91">
      <rect width="24" height="24" fill="white" transform="translate(0.5)"/>
    </clipPath>
  </defs>
</svg>