<svg width="14" height="14" viewBox="0 0 14 14" fill="none" xmlns="http://www.w3.org/2000/svg">
<g clip-path="url(#clip0_672_563)">
<path d="M10.71 10.423L12.649 12.362C12.7794 12.4932 12.8526 12.6706 12.8526 12.8555C12.8526 13.0404 12.7794 13.2178 12.649 13.349C12.5178 13.4794 12.3404 13.5526 12.1555 13.5526C11.9706 13.5526 11.7932 13.4794 11.662 13.349L9.849 11.543C9.25043 12.0964 8.50373 12.4637 7.7 12.6V6.328C7.7 6.14235 7.62625 5.9643 7.49497 5.83303C7.3637 5.70175 7.18565 5.628 7 5.628C6.81435 5.628 6.6363 5.70175 6.50503 5.83303C6.37375 5.9643 6.3 6.14235 6.3 6.328V12.6C5.49627 12.4637 4.74957 12.0964 4.151 11.543L2.338 13.349C2.20685 13.4794 2.02943 13.5526 1.8445 13.5526C1.65957 13.5526 1.48215 13.4794 1.351 13.349C1.22062 13.2178 1.14745 13.0404 1.14745 12.8555C1.14745 12.6706 1.22062 12.4932 1.351 12.362L3.29 10.423C3.0703 10.0097 2.92125 9.56249 2.849 9.1H0.7C0.514348 9.1 0.336301 9.02625 0.205025 8.89498C0.0737498 8.7637 0 8.58565 0 8.4C0 8.21435 0.0737498 8.0363 0.205025 7.90503C0.336301 7.77375 0.514348 7.7 0.7 7.7H2.8V5.887L0.651 3.738C0.520624 3.60685 0.447445 3.42943 0.447445 3.2445C0.447445 3.05957 0.520624 2.88215 0.651 2.751C0.782154 2.62062 0.95957 2.54745 1.1445 2.54745C1.32943 2.54745 1.50685 2.62062 1.638 2.751L3.108 4.221H10.892L12.362 2.751C12.4932 2.62062 12.6706 2.54745 12.8555 2.54745C13.0404 2.54745 13.2178 2.62062 13.349 2.751C13.4794 2.88215 13.5526 3.05957 13.5526 3.2445C13.5526 3.42943 13.4794 3.60685 13.349 3.738L11.2 5.887V7.7H13.3C13.4857 7.7 13.6637 7.77375 13.795 7.90503C13.9263 8.0363 14 8.21435 14 8.4C14 8.58565 13.9263 8.7637 13.795 8.89498C13.6637 9.02625 13.4857 9.1 13.3 9.1H11.151C11.081 9.569 10.927 10.017 10.71 10.423ZM10.5 3.5H3.5C3.5 2.57174 3.86875 1.6815 4.52513 1.02513C5.1815 0.368749 6.07174 0 7 0C7.92826 0 8.8185 0.368749 9.47487 1.02513C10.1313 1.6815 10.5 2.57174 10.5 3.5Z" fill="#E1DDF4"/>
</g>
<defs>
<clipPath id="clip0_672_563">
<rect width="14" height="14" fill="white"/>
</clipPath>
</defs>
</svg>
