<svg width="24" height="24" viewBox="0 0 24 24" fill="none" xmlns="http://www.w3.org/2000/svg">
<path d="M2.18164 11.5091C2.18164 7.80665 2.18164 5.95494 3.33233 4.80523C4.48302 3.65552 6.33375 3.65454 10.0362 3.65454H13.9635C17.6659 3.65454 19.5176 3.65454 20.6673 4.80523C21.817 5.95592 21.818 7.80665 21.818 11.5091V13.4727C21.818 17.1752 21.818 19.0269 20.6673 20.1766C19.5166 21.3263 17.6659 21.3273 13.9635 21.3273H10.0362C6.33375 21.3273 4.48204 21.3273 3.33233 20.1766C2.18262 19.0259 2.18164 17.1752 2.18164 13.4727V11.5091Z" stroke="#E1DDF4" stroke-width="2.2"/>
<path d="M7.09103 3.65461V2.18188M16.9092 3.65461V2.18188M2.67285 8.5637H21.3274" stroke="#E1DDF4" stroke-width="2.2" stroke-linecap="round"/>
<path d="M7.09082 15.7773C7.39093 15.7773 7.67936 15.8962 7.8916 16.1084L7.9668 16.1914C8.13191 16.3928 8.22266 16.6464 8.22266 16.9092C8.22264 17.1717 8.13164 17.4246 7.9668 17.626L7.8916 17.709C7.67934 17.9212 7.391 18.041 7.09082 18.041C6.82824 18.0409 6.57535 17.9492 6.37402 17.7842L6.29102 17.709C6.07887 17.4968 5.95901 17.2093 5.95898 16.9092C5.95898 16.609 6.07876 16.3207 6.29102 16.1084L6.37402 16.0332C6.57529 15.8684 6.82841 15.7774 7.09082 15.7773ZM12 15.7773C12.3001 15.7773 12.5885 15.8962 12.8008 16.1084C13.013 16.3207 13.1318 16.609 13.1318 16.9092C13.1318 17.2092 13.0128 17.4968 12.8008 17.709C12.5885 17.9212 12.3002 18.041 12 18.041C11.7374 18.041 11.4845 17.9492 11.2832 17.7842L11.2002 17.709C10.988 17.4968 10.8682 17.2093 10.8682 16.9092C10.8682 16.609 10.9879 16.3207 11.2002 16.1084L11.2832 16.0332C11.4845 15.8684 11.7376 15.7774 12 15.7773ZM16.9092 15.7773C17.2093 15.7773 17.4977 15.8962 17.71 16.1084L17.7852 16.1914C17.9502 16.3928 18.041 16.6465 18.041 16.9092C18.041 17.1716 17.95 17.4247 17.7852 17.626L17.71 17.709C17.4977 17.9212 17.2094 18.041 16.9092 18.041C16.6466 18.041 16.3937 17.9492 16.1924 17.7842L16.1094 17.709C15.8972 17.4968 15.7774 17.2093 15.7773 16.9092C15.7773 16.609 15.8971 16.3207 16.1094 16.1084L16.1924 16.0332C16.3937 15.8684 16.6468 15.7774 16.9092 15.7773ZM7.09082 11.8496C7.391 11.8496 7.67934 11.9694 7.8916 12.1816L7.9668 12.2646C8.13167 12.4659 8.22257 12.719 8.22266 12.9814C8.22266 13.2441 8.13182 13.4978 7.9668 13.6992L7.8916 13.7822C7.67934 13.9945 7.391 14.1133 7.09082 14.1133C6.82835 14.1132 6.57531 14.0223 6.37402 13.8574L6.29102 13.7822C6.07876 13.57 5.95898 13.2816 5.95898 12.9814C5.95908 12.6814 6.07885 12.3938 6.29102 12.1816L6.37402 12.1064C6.57533 11.9415 6.8283 11.8497 7.09082 11.8496ZM12 11.8496C12.3002 11.8496 12.5885 11.9694 12.8008 12.1816L12.876 12.2646C13.0408 12.4659 13.1317 12.719 13.1318 12.9814C13.1318 13.2441 13.041 13.4978 12.876 13.6992L12.8008 13.7822C12.5885 13.9945 12.3002 14.1133 12 14.1133C11.7375 14.1132 11.4845 14.0223 11.2832 13.8574L11.2002 13.7822C10.9879 13.57 10.8682 13.2816 10.8682 12.9814C10.8683 12.6814 10.988 12.3938 11.2002 12.1816L11.2832 12.1064C11.4845 11.9415 11.7375 11.8497 12 11.8496ZM16.9092 11.8496C17.2094 11.8496 17.4977 11.9694 17.71 12.1816L17.7852 12.2646C17.95 12.4659 18.0409 12.719 18.041 12.9814C18.041 13.2441 17.9501 13.4978 17.7852 13.6992L17.71 13.7822C17.4977 13.9945 17.2094 14.1133 16.9092 14.1133C16.6467 14.1132 16.3937 14.0223 16.1924 13.8574L16.1094 13.7822C15.8971 13.57 15.7773 13.2816 15.7773 12.9814C15.7774 12.6814 15.8972 12.3938 16.1094 12.1816L16.1924 12.1064C16.3937 11.9415 16.6466 11.8497 16.9092 11.8496Z" fill="#E1DDF4" stroke="#E1DDF4" stroke-width="0.3"/>
</svg>
