<svg width="32" height="32" viewBox="0 0 32 32" fill="none" xmlns="http://www.w3.org/2000/svg">
<g id="solar:calendar-linear">
<g id="Group">
<path id="Vector" d="M2.90918 15.3458C2.90918 10.4092 2.90918 7.94025 4.44343 6.4073C5.97769 4.87436 8.44533 4.87305 13.3819 4.87305H18.6183C23.5549 4.87305 26.0238 4.87305 27.5567 6.4073C29.0897 7.94155 29.091 10.4092 29.091 15.3458V17.964C29.091 22.9005 29.091 25.3695 27.5567 26.9024C26.0225 28.4354 23.5549 28.4367 18.6183 28.4367H13.3819C8.44533 28.4367 5.97638 28.4367 4.44343 26.9024C2.91049 25.3682 2.90918 22.9005 2.90918 17.964V15.3458Z" stroke="#9C60DA" stroke-width="2.93333"/>
<path id="Vector_2" d="M9.45536 4.87282V2.90918M22.5463 4.87282V2.90918M3.56445 11.4183H28.4372" stroke="#9C60DA" stroke-width="2.93333" stroke-linecap="round"/>
<path id="Vector_3" d="M9.45557 21.0361C9.85562 21.0363 10.2391 21.1956 10.522 21.4785L10.6226 21.5889C10.8426 21.8574 10.9644 22.1957 10.9644 22.5459C10.9643 22.8959 10.8425 23.2335 10.6226 23.502L10.522 23.6123C10.2391 23.8952 9.85563 24.0546 9.45557 24.0547C9.10534 24.0547 8.76708 23.9329 8.49854 23.7129L8.38818 23.6123C8.1053 23.3294 7.94592 22.946 7.9458 22.5459C7.9458 22.1457 8.10517 21.7615 8.38818 21.4785L8.49854 21.3779C8.76707 21.1579 9.10536 21.0361 9.45557 21.0361ZM16.0005 21.0361C16.4007 21.0361 16.7849 21.1955 17.0679 21.4785L17.1675 21.5889C17.3877 21.8575 17.5093 22.1956 17.5093 22.5459C17.5092 22.8961 17.3875 23.2335 17.1675 23.502L17.0679 23.6123C16.7849 23.8953 16.4007 24.0547 16.0005 24.0547C15.6504 24.0547 15.3129 23.9328 15.0444 23.7129L14.9331 23.6123C14.6504 23.3294 14.4918 22.9458 14.4917 22.5459C14.4917 22.1458 14.6503 21.7615 14.9331 21.4785L15.0444 21.3779C15.3129 21.1581 15.6504 21.0361 16.0005 21.0361ZM22.5464 21.0361C22.9464 21.0362 23.3299 21.1956 23.6128 21.4785L23.7134 21.5889C23.9335 21.8574 24.0552 22.1957 24.0552 22.5459C24.0551 22.896 23.9333 23.2335 23.7134 23.502L23.6128 23.6123C23.3299 23.8952 22.9465 24.0546 22.5464 24.0547C22.1961 24.0547 21.8579 23.933 21.5894 23.7129L21.479 23.6123C21.1961 23.3294 21.0367 22.9459 21.0366 22.5459C21.0366 22.1457 21.196 21.7615 21.479 21.4785L21.5894 21.3779C21.8579 21.1579 22.1962 21.0361 22.5464 21.0361ZM9.45557 15.7998C9.85563 15.7999 10.2391 15.9593 10.522 16.2422L10.6226 16.3525C10.8426 16.6211 10.9644 16.9594 10.9644 17.3096C10.9642 17.6596 10.8425 17.9972 10.6226 18.2656L10.522 18.376C10.2391 18.6589 9.85563 18.8182 9.45557 18.8184C9.10535 18.8184 8.76708 18.6966 8.49854 18.4766L8.38818 18.376C8.10529 18.0931 7.94593 17.7096 7.9458 17.3096C7.9458 16.9093 8.10517 16.5252 8.38818 16.2422L8.49854 16.1416C8.76707 15.9216 9.10535 15.7998 9.45557 15.7998ZM16.0005 15.7998C16.4007 15.7998 16.7849 15.9592 17.0679 16.2422L17.1675 16.3525C17.3877 16.6211 17.5093 16.9592 17.5093 17.3096C17.5092 17.7095 17.3506 18.0931 17.0679 18.376C16.7849 18.659 16.4007 18.8184 16.0005 18.8184C15.6003 18.8183 15.2161 18.659 14.9331 18.376C14.6504 18.0931 14.4918 17.7095 14.4917 17.3096C14.4917 16.9095 14.6503 16.5252 14.9331 16.2422L15.0444 16.1416C15.3129 15.9217 15.6504 15.7998 16.0005 15.7998ZM22.5464 15.7998C22.9465 15.7999 23.3299 15.9593 23.6128 16.2422L23.7134 16.3525C23.9334 16.6211 24.0552 16.9593 24.0552 17.3096C24.0551 17.6596 23.9333 17.9972 23.7134 18.2656L23.6128 18.376C23.3299 18.6589 22.9465 18.8183 22.5464 18.8184C22.1961 18.8184 21.8579 18.6966 21.5894 18.4766L21.479 18.376C21.1961 18.0931 21.0367 17.7096 21.0366 17.3096C21.0366 16.9094 21.196 16.5252 21.479 16.2422L21.5894 16.1416C21.8579 15.9215 22.1962 15.7998 22.5464 15.7998Z" fill="#9C60DA" stroke="#9C60DA" stroke-width="0.4"/>
</g>
</g>
</svg>
