<svg width="16" height="16" viewBox="0 0 16 16" fill="none" xmlns="http://www.w3.org/2000/svg">
<path d="M12.6665 11.3333H7.99984C7.2645 11.3333 6.6665 11.9313 6.6665 12.6667C6.6665 13.402 7.2645 14 7.99984 14H12.6665C13.4018 14 13.9998 13.402 13.9998 12.6667C13.9998 11.9313 13.4018 11.3333 12.6665 11.3333ZM12.6665 6.66667H7.99984C7.2645 6.66667 6.6665 7.26467 6.6665 8C6.6665 8.73533 7.2645 9.33333 7.99984 9.33333H12.6665C13.4018 9.33333 13.9998 8.73533 13.9998 8C13.9998 7.26467 13.4018 6.66667 12.6665 6.66667ZM12.6665 2H7.99984C7.2645 2 6.6665 2.598 6.6665 3.33333C6.6665 4.06867 7.2645 4.66667 7.99984 4.66667H12.6665C13.4018 4.66667 13.9998 4.06867 13.9998 3.33333C13.9998 2.598 13.4018 2 12.6665 2Z" fill="#E1DDF4"/>
<path d="M3.33317 14.3333C4.25364 14.3333 4.99984 13.5871 4.99984 12.6667C4.99984 11.7462 4.25364 11 3.33317 11C2.4127 11 1.6665 11.7462 1.6665 12.6667C1.6665 13.5871 2.4127 14.3333 3.33317 14.3333Z" fill="#E1DDF4"/>
<path d="M3.33317 9.66683C4.25364 9.66683 4.99984 8.92064 4.99984 8.00016C4.99984 7.07969 4.25364 6.3335 3.33317 6.3335C2.4127 6.3335 1.6665 7.07969 1.6665 8.00016C1.6665 8.92064 2.4127 9.66683 3.33317 9.66683Z" fill="#E1DDF4"/>
<path d="M3.33317 4.99984C4.25364 4.99984 4.99984 4.25364 4.99984 3.33317C4.99984 2.4127 4.25364 1.6665 3.33317 1.6665C2.4127 1.6665 1.6665 2.4127 1.6665 3.33317C1.6665 4.25364 2.4127 4.99984 3.33317 4.99984Z" fill="#E1DDF4"/>
</svg>
