<svg width="25" height="24" viewBox="0 0 25 24" fill="none" xmlns="http://www.w3.org/2000/svg">
<g clip-path="url(#clip0_661_1388)">
<path d="M7.40354 12.375C9.35223 12.375 10.932 10.7953 10.932 8.84659C10.932 6.8979 9.35223 5.31818 7.40354 5.31818C5.45486 5.31818 3.87513 6.8979 3.87513 8.84659C3.87513 10.7953 5.45486 12.375 7.40354 12.375Z" fill="#E1DDF4"/>
<path d="M11.422 14.3352C10.042 13.6344 8.51891 13.3551 7.40354 13.3551C5.21887 13.3551 0.73877 14.6949 0.73877 17.3736V19.4318H8.08962V18.6443C8.08962 17.7132 8.48167 16.7796 9.16775 16.0014C9.71514 15.38 10.4816 14.8032 11.422 14.3352Z" fill="#E1DDF4"/>
<path d="M16.6166 13.9432C14.0649 13.9432 8.97173 15.5192 8.97173 18.6477V21H24.2615V18.6477C24.2615 15.5192 19.1683 13.9432 16.6166 13.9432Z" fill="#E1DDF4"/>
<path d="M16.6166 12.375C18.9983 12.375 20.9291 10.4442 20.9291 8.0625C20.9291 5.68077 18.9983 3.75 16.6166 3.75C14.2349 3.75 12.3041 5.68077 12.3041 8.0625C12.3041 10.4442 14.2349 12.375 16.6166 12.375Z" fill="#E1DDF4"/>
</g>
<defs>
<clipPath id="clip0_661_1388">
<rect width="24" height="24" fill="white" transform="translate(0.5)"/>
</clipPath>
</defs>
</svg>
