<svg width="14" height="16" viewBox="0 0 14 16" fill="none" xmlns="http://www.w3.org/2000/svg">
<path fill-rule="evenodd" clip-rule="evenodd" d="M7.00058 0.605164C7.19511 0.605164 7.38167 0.68244 7.51922 0.819993C7.65677 0.957546 7.73405 1.14411 7.73405 1.33864V2.04424L8.21374 1.79046C8.38571 1.69951 8.58675 1.68061 8.77266 1.7379C8.95856 1.79519 9.11409 1.92399 9.20503 2.09595C9.29597 2.26791 9.31488 2.46896 9.25759 2.65486C9.2003 2.84077 9.0715 2.9963 8.89954 3.08724L7.73405 3.70336V5.09843C8.25848 5.23338 8.72571 5.50917 9.09391 5.88398L10.3027 5.18644L10.2535 3.86912C10.2462 3.67469 10.3165 3.48532 10.4488 3.34268C10.5811 3.20004 10.7647 3.11581 10.9591 3.10851C11.1536 3.10122 11.3429 3.17146 11.4856 3.30378C11.6282 3.43611 11.7125 3.61968 11.7197 3.81411L11.7396 4.35688L12.3505 4.00408C12.434 3.95516 12.5263 3.92323 12.6221 3.91013C12.718 3.89702 12.8154 3.903 12.909 3.92773C13.0025 3.95245 13.0902 3.99543 13.167 4.05419C13.2439 4.11295 13.3083 4.18632 13.3567 4.27009C13.4051 4.35386 13.4364 4.44637 13.4488 4.5423C13.4613 4.63822 13.4547 4.73566 13.4293 4.82901C13.404 4.92237 13.3604 5.00978 13.3012 5.08623C13.2419 5.16268 13.1681 5.22665 13.084 5.27446L12.473 5.62653L12.9329 5.91551C13.0145 5.96676 13.0852 6.03357 13.141 6.11213C13.1967 6.19069 13.2365 6.27947 13.2579 6.37339C13.2794 6.46732 13.2821 6.56455 13.266 6.65953C13.2499 6.75451 13.2152 6.84539 13.164 6.92698C13.1127 7.00856 13.0459 7.07925 12.9673 7.13502C12.8888 7.19078 12.8 7.23052 12.7061 7.25198C12.6122 7.27343 12.5149 7.27618 12.4199 7.26006C12.325 7.24393 12.2341 7.20926 12.1525 7.15802L11.0361 6.45682L9.82812 7.15362C9.97108 7.66781 9.97108 8.21126 9.82812 8.72545L11.0361 9.42299L12.1525 8.72179C12.3173 8.6183 12.5164 8.5845 12.7061 8.62783C12.8958 8.67116 13.0605 8.78806 13.164 8.95283C13.2674 9.1176 13.3012 9.31673 13.2579 9.50641C13.2146 9.6961 13.0977 9.8608 12.9329 9.96429L12.4738 10.2525L13.084 10.6053C13.1681 10.6532 13.2419 10.7171 13.3012 10.7936C13.3604 10.87 13.404 10.9574 13.4293 11.0508C13.4547 11.1441 13.4613 11.2416 13.4488 11.3375C13.4364 11.4334 13.4051 11.5259 13.3567 11.6097C13.3083 11.6935 13.2439 11.7669 13.167 11.8256C13.0902 11.8844 13.0025 11.9274 12.909 11.9521C12.8154 11.9768 12.718 11.9828 12.6221 11.9697C12.5263 11.9566 12.434 11.9246 12.3505 11.8757L11.7403 11.5237L11.7197 12.0657C11.7125 12.2601 11.6282 12.4437 11.4856 12.576C11.3429 12.7083 11.1536 12.7786 10.9591 12.7713C10.7647 12.764 10.5811 12.6798 10.4488 12.5371C10.3165 12.3945 10.2462 12.2051 10.2535 12.0107L10.3027 10.6934L9.09391 9.99583C8.72571 10.3699 8.25775 10.6464 7.73405 10.7814V12.1764L8.89954 12.7926C9.0715 12.8835 9.2003 13.039 9.25759 13.2249C9.31488 13.4108 9.29597 13.6119 9.20503 13.7839C9.11409 13.9558 8.95856 14.0846 8.77266 14.1419C8.58675 14.1992 8.38571 14.1803 8.21374 14.0893L7.73405 13.8356V14.5412C7.73405 14.7357 7.65677 14.9223 7.51922 15.0598C7.38167 15.1974 7.19511 15.2746 7.00058 15.2746C6.80605 15.2746 6.61948 15.1974 6.48193 15.0598C6.34438 14.9223 6.2671 14.7357 6.2671 14.5412V13.8356L5.78741 14.0893C5.70226 14.1344 5.60908 14.1622 5.51318 14.1712C5.41728 14.1802 5.32055 14.1703 5.2285 14.1419C5.13645 14.1135 5.05089 14.0673 4.9767 14.0059C4.90251 13.9445 4.84115 13.869 4.79612 13.7839C4.75109 13.6987 4.72327 13.6055 4.71425 13.5096C4.70524 13.4137 4.7152 13.317 4.74356 13.2249C4.77193 13.1329 4.81815 13.0473 4.87959 12.9731C4.94102 12.899 5.01646 12.8376 5.10161 12.7926L6.2671 12.1764V10.7814C5.75077 10.6478 5.28064 10.3759 4.90724 9.9951L3.69848 10.6934L3.74762 12.0107C3.75118 12.107 3.73575 12.203 3.7022 12.2933C3.66865 12.3836 3.61764 12.4664 3.55209 12.537C3.48653 12.6076 3.40771 12.6646 3.32013 12.7047C3.23255 12.7449 3.13792 12.7674 3.04165 12.7709C2.94538 12.7745 2.84935 12.7591 2.75904 12.7255C2.66873 12.692 2.58591 12.641 2.51532 12.5754C2.44472 12.5098 2.38773 12.431 2.34759 12.3434C2.30746 12.2559 2.28497 12.1612 2.2814 12.065L2.2616 11.5229L1.65062 11.875C1.56712 11.9266 1.4741 11.961 1.37708 11.9761C1.28005 11.9911 1.181 11.9865 1.08578 11.9625C0.990565 11.9386 0.901127 11.8958 0.822768 11.8366C0.74441 11.7774 0.678727 11.7032 0.629613 11.6181C0.580499 11.5331 0.548954 11.4391 0.536847 11.3417C0.524741 11.2442 0.532319 11.1454 0.559134 11.0509C0.585948 10.9565 0.631453 10.8684 0.69295 10.7918C0.754447 10.7153 0.830684 10.6519 0.917143 10.6053L1.52813 10.2525L1.06824 9.96356C0.907835 9.85814 0.795146 9.69404 0.754357 9.50648C0.713568 9.31892 0.747929 9.12284 0.850065 8.96032C0.952201 8.79781 1.11397 8.6818 1.30067 8.63721C1.48736 8.59261 1.6841 8.62298 1.84866 8.72179L2.965 9.42299L4.17303 8.72545C4.03021 8.21149 4.03021 7.66831 4.17303 7.15435L2.965 6.45755L1.84866 7.15802C1.6841 7.25683 1.48736 7.28719 1.30067 7.2426C1.11397 7.198 0.952201 7.082 0.850065 6.91948C0.747929 6.75697 0.713568 6.56089 0.754357 6.37333C0.795146 6.18577 0.907835 6.02167 1.06824 5.91625L1.52813 5.62726L0.917143 5.27519C0.748584 5.17793 0.625566 5.01769 0.575153 4.82972C0.52474 4.64175 0.55106 4.44146 0.648325 4.2729C0.74559 4.10434 0.905831 3.98132 1.0938 3.93091C1.28176 3.8805 1.48206 3.90682 1.65062 4.00408L2.2616 4.35688L2.2814 3.81411C2.2887 3.61968 2.37293 3.43611 2.51558 3.30378C2.58621 3.23826 2.66905 3.18729 2.75938 3.15379C2.8497 3.12028 2.94574 3.1049 3.04202 3.10851C3.13829 3.11212 3.23291 3.13466 3.32047 3.17484C3.40803 3.21502 3.48683 3.27205 3.55235 3.34268C3.61787 3.41331 3.66884 3.49615 3.70234 3.58648C3.73585 3.67681 3.75123 3.77285 3.74762 3.86912L3.69848 5.18644L4.90724 5.88471C5.28064 5.50389 5.75077 5.23205 6.2671 5.09843V3.70336L5.10161 3.08724C4.92965 2.9963 4.80085 2.84077 4.74356 2.65486C4.68627 2.46896 4.70518 2.26791 4.79612 2.09595C4.88706 1.92399 5.04259 1.79519 5.2285 1.7379C5.4144 1.68061 5.61545 1.69951 5.78741 1.79046L6.2671 2.04424V1.33864C6.2671 1.14411 6.34438 0.957546 6.48193 0.819993C6.61948 0.68244 6.80605 0.605164 7.00058 0.605164ZM7.00058 9.40685C7.38964 9.40685 7.76276 9.2523 8.03786 8.97719C8.31297 8.70209 8.46752 8.32896 8.46752 7.9399C8.46752 7.55084 8.31297 7.17772 8.03786 6.90261C7.76276 6.62751 7.38964 6.47296 7.00058 6.47296C6.61152 6.47296 6.23839 6.62751 5.96329 6.90261C5.68818 7.17772 5.53363 7.55084 5.53363 7.9399C5.53363 8.32896 5.68818 8.70209 5.96329 8.97719C6.23839 9.2523 6.61152 9.40685 7.00058 9.40685Z" fill="#E1DDF4"/>
</svg>
