<svg width="219" height="32" viewBox="0 0 219 32" fill="none" xmlns="http://www.w3.org/2000/svg">
<path d="M2.90918 15.3453C2.90918 10.4087 2.90918 7.93976 4.44343 6.40681C5.97769 4.87387 8.44533 4.87256 13.3819 4.87256H18.6183C23.5549 4.87256 26.0238 4.87256 27.5567 6.40681C29.0897 7.94107 29.091 10.4087 29.091 15.3453V17.9635C29.091 22.9 29.091 25.369 27.5567 26.9019C26.0225 28.4349 23.5549 28.4362 18.6183 28.4362H13.3819C8.44533 28.4362 5.97638 28.4362 4.44343 26.9019C2.91049 25.3677 2.90918 22.9 2.90918 17.9635V15.3453Z" stroke="#9C60DA" stroke-width="2.93333"/>
<path d="M9.45536 4.87257V2.90894M22.5463 4.87257V2.90894M3.56445 11.418H28.4372" stroke="#9C60DA" stroke-width="2.93333" stroke-linecap="round"/>
<path d="M23.6126 23.6125C23.8956 23.3295 24.0546 22.9457 24.0546 22.5455C24.0546 22.1452 23.8956 21.7614 23.6126 21.4784C23.3296 21.1954 22.9457 21.0364 22.5455 21.0364C22.1453 21.0364 21.7614 21.1954 21.4784 21.4784C21.1954 21.7614 21.0364 22.1452 21.0364 22.5455C21.0364 22.9457 21.1954 23.3295 21.4784 23.6125C21.7614 23.8956 22.1453 24.0545 22.5455 24.0545C22.9457 24.0545 23.3296 23.8956 23.6126 23.6125ZM23.6126 18.3762C23.8956 18.0932 24.0546 17.7093 24.0546 17.3091C24.0546 16.9089 23.8956 16.525 23.6126 16.242C23.3296 15.959 22.9457 15.8 22.5455 15.8C22.1453 15.8 21.7614 15.959 21.4784 16.242C21.1954 16.525 21.0364 16.9089 21.0364 17.3091C21.0364 17.7093 21.1954 18.0932 21.4784 18.3762C21.7614 18.6592 22.1453 18.8182 22.5455 18.8182C22.9457 18.8182 23.3296 18.6592 23.6126 18.3762ZM17.0671 23.6125C17.3501 23.3295 17.5091 22.9457 17.5091 22.5455C17.5091 22.1452 17.3501 21.7614 17.0671 21.4784C16.7841 21.1954 16.4003 21.0364 16.0001 21.0364C15.5998 21.0364 15.216 21.1954 14.933 21.4784C14.65 21.7614 14.491 22.1452 14.491 22.5455C14.491 22.9457 14.65 23.3295 14.933 23.6125C15.216 23.8956 15.5998 24.0545 16.0001 24.0545C16.4003 24.0545 16.7841 23.8956 17.0671 23.6125ZM17.0671 18.3762C17.3501 18.0932 17.5091 17.7093 17.5091 17.3091C17.5091 16.9089 17.3501 16.525 17.0671 16.242C16.7841 15.959 16.4003 15.8 16.0001 15.8C15.5998 15.8 15.216 15.959 14.933 16.242C14.65 16.525 14.491 16.9089 14.491 17.3091C14.491 17.7093 14.65 18.0932 14.933 18.3762C15.216 18.6592 15.5998 18.8182 16.0001 18.8182C16.4003 18.8182 16.7841 18.6592 17.0671 18.3762ZM10.5217 23.6125C10.8047 23.3295 10.9637 22.9457 10.9637 22.5455C10.9637 22.1452 10.8047 21.7614 10.5217 21.4784C10.2387 21.1954 9.85483 21.0364 9.4546 21.0364C9.05436 21.0364 8.67052 21.1954 8.38751 21.4784C8.1045 21.7614 7.94551 22.1452 7.94551 22.5455C7.94551 22.9457 8.1045 23.3295 8.38751 23.6125C8.67052 23.8956 9.05436 24.0545 9.4546 24.0545C9.85483 24.0545 10.2387 23.8956 10.5217 23.6125ZM10.5217 18.3762C10.8047 18.0932 10.9637 17.7093 10.9637 17.3091C10.9637 16.9089 10.8047 16.525 10.5217 16.242C10.2387 15.959 9.85483 15.8 9.4546 15.8C9.05436 15.8 8.67052 15.959 8.38751 16.242C8.1045 16.525 7.94551 16.9089 7.94551 17.3091C7.94551 17.7093 8.1045 18.0932 8.38751 18.3762C8.67052 18.6592 9.05436 18.8182 9.4546 18.8182C9.85483 18.8182 10.2387 18.6592 10.5217 18.3762Z" fill="#9C60DA" stroke="#9C60DA" stroke-width="0.4"/>
<path d="M44.472 25V8.2H50.808C51.96 8.2 53.008 8.408 53.952 8.824C54.912 9.224 55.744 9.8 56.448 10.552C57.152 11.304 57.696 12.192 58.08 13.216C58.464 14.24 58.656 15.368 58.656 16.6C58.656 17.832 58.464 18.968 58.08 20.008C57.696 21.032 57.152 21.92 56.448 22.672C55.76 23.408 54.936 23.984 53.976 24.4C53.016 24.8 51.96 25 50.808 25H44.472ZM46.344 23.512L46.128 23.176H50.688C51.568 23.176 52.376 23.024 53.112 22.72C53.864 22.4 54.504 21.952 55.032 21.376C55.576 20.784 55.992 20.088 56.28 19.288C56.584 18.488 56.736 17.592 56.736 16.6C56.736 15.608 56.584 14.712 56.28 13.912C55.992 13.112 55.576 12.424 55.032 11.848C54.488 11.256 53.848 10.808 53.112 10.504C52.376 10.184 51.568 10.024 50.688 10.024H46.056L46.344 9.736V23.512ZM66.4839 25.24C65.3959 25.24 64.4119 24.96 63.5319 24.4C62.6519 23.824 61.9559 23.048 61.4439 22.072C60.9319 21.08 60.6759 19.96 60.6759 18.712C60.6759 17.448 60.9399 16.328 61.4679 15.352C61.9959 14.376 62.6999 13.608 63.5799 13.048C64.4759 12.488 65.4759 12.208 66.5799 12.208C67.2359 12.208 67.8439 12.304 68.4039 12.496C68.9639 12.688 69.4599 12.96 69.8919 13.312C70.3399 13.648 70.7079 14.048 70.9959 14.512C71.2999 14.96 71.5079 15.448 71.6199 15.976L71.0919 15.712L71.1639 12.472H72.9639V25H71.1399V21.928L71.6199 21.616C71.5079 22.096 71.2919 22.56 70.9719 23.008C70.6519 23.44 70.2599 23.824 69.7959 24.16C69.3479 24.496 68.8359 24.76 68.2599 24.952C67.6999 25.144 67.1079 25.24 66.4839 25.24ZM66.8919 23.512C67.7239 23.512 68.4679 23.312 69.1239 22.912C69.7799 22.496 70.2919 21.928 70.6599 21.208C71.0439 20.472 71.2359 19.64 71.2359 18.712C71.2359 17.784 71.0439 16.96 70.6599 16.24C70.2919 15.52 69.7799 14.952 69.1239 14.536C68.4679 14.12 67.7239 13.912 66.8919 13.912C66.0439 13.912 65.2919 14.12 64.6359 14.536C63.9959 14.952 63.4839 15.52 63.0999 16.24C62.7319 16.96 62.5479 17.784 62.5479 18.712C62.5479 19.624 62.7319 20.448 63.0999 21.184C63.4679 21.904 63.9799 22.472 64.6359 22.888C65.2919 23.304 66.0439 23.512 66.8919 23.512ZM78.1988 25V9.184H79.9988V25H78.1988ZM75.3668 14.2V12.472H83.1668V14.2H75.3668ZM90.1558 25.24C89.0678 25.24 88.0838 24.96 87.2038 24.4C86.3238 23.824 85.6278 23.048 85.1158 22.072C84.6038 21.08 84.3478 19.96 84.3478 18.712C84.3478 17.448 84.6118 16.328 85.1398 15.352C85.6678 14.376 86.3718 13.608 87.2518 13.048C88.1478 12.488 89.1478 12.208 90.2518 12.208C90.9078 12.208 91.5158 12.304 92.0758 12.496C92.6358 12.688 93.1318 12.96 93.5638 13.312C94.0118 13.648 94.3798 14.048 94.6678 14.512C94.9718 14.96 95.1798 15.448 95.2918 15.976L94.7638 15.712L94.8358 12.472H96.6358V25H94.8118V21.928L95.2918 21.616C95.1798 22.096 94.9638 22.56 94.6438 23.008C94.3238 23.44 93.9318 23.824 93.4678 24.16C93.0198 24.496 92.5078 24.76 91.9318 24.952C91.3718 25.144 90.7798 25.24 90.1558 25.24ZM90.5638 23.512C91.3958 23.512 92.1398 23.312 92.7958 22.912C93.4518 22.496 93.9638 21.928 94.3318 21.208C94.7158 20.472 94.9078 19.64 94.9078 18.712C94.9078 17.784 94.7158 16.96 94.3318 16.24C93.9638 15.52 93.4518 14.952 92.7958 14.536C92.1398 14.12 91.3958 13.912 90.5638 13.912C89.7158 13.912 88.9638 14.12 88.3078 14.536C87.6678 14.952 87.1558 15.52 86.7718 16.24C86.4038 16.96 86.2198 17.784 86.2198 18.712C86.2198 19.624 86.4038 20.448 86.7718 21.184C87.1398 21.904 87.6518 22.472 88.3078 22.888C88.9638 23.304 89.7158 23.512 90.5638 23.512ZM111.957 25.24C110.821 25.24 109.797 24.96 108.885 24.4C107.989 23.84 107.277 23.072 106.749 22.096C106.237 21.104 105.981 19.984 105.981 18.736C105.981 17.472 106.245 16.352 106.773 15.376C107.301 14.384 108.013 13.608 108.909 13.048C109.805 12.488 110.813 12.208 111.933 12.208C112.557 12.208 113.157 12.304 113.733 12.496C114.325 12.688 114.853 12.96 115.317 13.312C115.781 13.648 116.165 14.04 116.469 14.488C116.773 14.92 116.957 15.376 117.021 15.856L116.469 15.664V7.24H118.269V25H116.493L116.445 21.88L116.901 21.712C116.837 22.16 116.653 22.6 116.349 23.032C116.061 23.448 115.693 23.824 115.245 24.16C114.797 24.496 114.285 24.76 113.709 24.952C113.149 25.144 112.565 25.24 111.957 25.24ZM112.221 23.584C113.053 23.584 113.797 23.376 114.453 22.96C115.109 22.544 115.621 21.968 115.989 21.232C116.373 20.496 116.565 19.656 116.565 18.712C116.565 17.768 116.373 16.936 115.989 16.216C115.621 15.48 115.109 14.904 114.453 14.488C113.797 14.056 113.053 13.84 112.221 13.84C111.357 13.84 110.597 14.056 109.941 14.488C109.301 14.904 108.789 15.48 108.405 16.216C108.037 16.936 107.853 17.768 107.853 18.712C107.853 19.64 108.037 20.472 108.405 21.208C108.773 21.944 109.285 22.528 109.941 22.96C110.597 23.376 111.357 23.584 112.221 23.584ZM127.319 25.24C126.071 25.24 124.959 24.96 123.983 24.4C123.023 23.84 122.263 23.064 121.703 22.072C121.159 21.08 120.887 19.952 120.887 18.688C120.887 17.44 121.159 16.328 121.703 15.352C122.263 14.376 123.023 13.608 123.983 13.048C124.959 12.488 126.071 12.208 127.319 12.208C128.551 12.208 129.647 12.488 130.607 13.048C131.583 13.608 132.343 14.376 132.887 15.352C133.447 16.328 133.727 17.44 133.727 18.688C133.727 19.952 133.447 21.08 132.887 22.072C132.343 23.064 131.583 23.84 130.607 24.4C129.647 24.96 128.551 25.24 127.319 25.24ZM127.319 23.536C128.199 23.536 128.983 23.328 129.671 22.912C130.359 22.48 130.895 21.904 131.279 21.184C131.663 20.448 131.855 19.616 131.855 18.688C131.855 17.76 131.663 16.936 131.279 16.216C130.895 15.496 130.359 14.936 129.671 14.536C128.983 14.12 128.199 13.912 127.319 13.912C126.439 13.912 125.647 14.12 124.943 14.536C124.255 14.936 123.711 15.504 123.311 16.24C122.927 16.96 122.743 17.776 122.759 18.688C122.743 19.616 122.927 20.448 123.311 21.184C123.711 21.904 124.255 22.48 124.943 22.912C125.647 23.328 126.439 23.536 127.319 23.536ZM143.8 25V8.2H153.976V10.024H145.672V23.176H153.928V25H143.8ZM144.664 17.272V15.448H152.632V17.272H144.664ZM160.984 25L155.704 12.472H157.696L161.872 22.72L161.392 22.984L165.976 12.472H167.896L162.28 25H160.984ZM175.178 25.24C173.93 25.24 172.818 24.968 171.842 24.424C170.882 23.88 170.13 23.12 169.586 22.144C169.042 21.168 168.77 20.048 168.77 18.784C168.77 17.808 168.922 16.928 169.226 16.144C169.53 15.344 169.954 14.648 170.498 14.056C171.058 13.464 171.722 13.008 172.49 12.688C173.258 12.352 174.09 12.184 174.986 12.184C175.834 12.184 176.602 12.336 177.29 12.64C177.994 12.944 178.594 13.368 179.09 13.912C179.602 14.44 179.986 15.072 180.242 15.808C180.498 16.544 180.61 17.352 180.578 18.232L180.554 19.072H170.114L169.85 17.56H179.186L178.754 17.968V17.392C178.722 16.816 178.554 16.264 178.25 15.736C177.946 15.192 177.514 14.752 176.954 14.416C176.41 14.08 175.754 13.912 174.986 13.912C174.09 13.912 173.314 14.096 172.658 14.464C172.002 14.816 171.498 15.344 171.146 16.048C170.794 16.752 170.618 17.624 170.618 18.664C170.618 19.656 170.81 20.52 171.194 21.256C171.578 21.976 172.122 22.536 172.826 22.936C173.546 23.336 174.41 23.536 175.418 23.536C176.01 23.536 176.594 23.44 177.17 23.248C177.762 23.04 178.41 22.64 179.114 22.048L180.05 23.344C179.682 23.712 179.242 24.04 178.73 24.328C178.218 24.6 177.658 24.824 177.05 25C176.442 25.16 175.818 25.24 175.178 25.24ZM183.135 25V12.472H184.911L184.983 15.088L184.695 15.208C184.855 14.664 185.167 14.168 185.631 13.72C186.095 13.272 186.647 12.912 187.287 12.64C187.943 12.352 188.615 12.208 189.303 12.208C190.231 12.208 191.007 12.392 191.631 12.76C192.255 13.128 192.727 13.696 193.047 14.464C193.367 15.232 193.527 16.208 193.527 17.392V25H191.703V17.488C191.703 16.656 191.591 15.976 191.367 15.448C191.159 14.904 190.831 14.504 190.383 14.248C189.935 13.992 189.383 13.872 188.727 13.888C188.183 13.888 187.679 13.984 187.215 14.176C186.751 14.352 186.351 14.6 186.015 14.92C185.679 15.24 185.415 15.608 185.223 16.024C185.031 16.44 184.935 16.888 184.935 17.368V25H184.047C183.935 25 183.807 25 183.663 25C183.519 25 183.343 25 183.135 25ZM198.691 25V9.184H200.491V25H198.691ZM195.859 14.2V12.472H203.659V14.2H195.859ZM211.296 25.24C210.048 25.24 208.936 24.96 207.96 24.4C207 23.84 206.24 23.064 205.68 22.072C205.136 21.08 204.864 19.952 204.864 18.688C204.864 17.44 205.136 16.328 205.68 15.352C206.24 14.376 207 13.608 207.96 13.048C208.936 12.488 210.048 12.208 211.296 12.208C212.528 12.208 213.624 12.488 214.584 13.048C215.56 13.608 216.32 14.376 216.864 15.352C217.424 16.328 217.704 17.44 217.704 18.688C217.704 19.952 217.424 21.08 216.864 22.072C216.32 23.064 215.56 23.84 214.584 24.4C213.624 24.96 212.528 25.24 211.296 25.24ZM211.296 23.536C212.176 23.536 212.96 23.328 213.648 22.912C214.336 22.48 214.872 21.904 215.256 21.184C215.64 20.448 215.832 19.616 215.832 18.688C215.832 17.76 215.64 16.936 215.256 16.216C214.872 15.496 214.336 14.936 213.648 14.536C212.96 14.12 212.176 13.912 211.296 13.912C210.416 13.912 209.624 14.12 208.92 14.536C208.232 14.936 207.688 15.504 207.288 16.24C206.904 16.96 206.72 17.776 206.736 18.688C206.72 19.616 206.904 20.448 207.288 21.184C207.688 21.904 208.232 22.48 208.92 22.912C209.624 23.328 210.416 23.536 211.296 23.536Z" fill="url(#paint0_linear_925_5123)"/>
<defs>
<linearGradient id="paint0_linear_925_5123" x1="219" y1="16" x2="42" y2="16" gradientUnits="userSpaceOnUse">
<stop stop-color="#43A3D5"/>
<stop offset="1" stop-color="#9C60DA"/>
</linearGradient>
</defs>
</svg>
