<svg width="133" height="48" viewBox="0 0 133 48" fill="none" xmlns="http://www.w3.org/2000/svg">
<g clip-path="url(#clip0_661_1378)">
<path d="M22.138 0.000396137C22.138 0.917537 22.138 1.83556 22.138 2.7527C22.138 4.93456 22.138 7.11642 22.138 9.29828C22.138 11.8905 22.138 14.4827 22.138 17.075C22.138 19.2232 22.138 21.3724 22.138 23.5206C22.138 25.1807 22.2925 26.8557 21.4471 28.3637C20.9266 29.2923 20.1948 30.2042 19.3715 30.8834C16.9008 32.9229 13.6574 33.0909 12.8688 33.1148C12.0588 33.144 9.20799 33.1501 6.525 31.1239C3.68305 28.9783 2.97434 26.0217 2.81714 25.2682C2.6555 24.4316 2.31447 22.0825 3.48322 19.47C4.70082 16.7477 6.80742 15.4176 7.53834 14.9992C8.43356 14.5685 11.5064 13.2286 15.2942 14.1626C18.0811 14.8498 19.8653 16.4249 20.6309 17.1917C21.1327 16.6434 21.6353 16.0959 22.1371 15.5476C21.4728 14.8533 20.4657 13.9556 19.0669 13.1826C17.3129 12.2124 15.6841 11.8481 14.6201 11.6968C13.4123 11.5314 11.1236 11.3855 8.49395 12.2885C5.16619 13.4312 3.21413 15.5936 2.43969 16.5576C1.84555 17.5243 -0.0701091 20.9089 0.664359 25.2797C1.09953 27.8684 2.28161 29.7168 3.01874 30.6915C3.6795 31.5166 4.74079 32.6301 6.30475 33.5641C6.79233 33.855 9.34298 35.3294 12.9834 35.3064C15.6415 35.2896 17.5802 34.483 18.1539 34.2291C21.3707 32.8043 24.0279 30.0971 24.3281 26.4551C24.368 25.9731 24.3379 25.4955 24.3379 25.0126C24.3379 22.6097 24.3379 20.2067 24.3379 17.8046C24.3379 12.9987 24.3379 8.19364 24.3379 3.38772C24.3379 2.25831 24.3379 1.12891 24.3379 -0.000488281L22.138 0.000396137Z" fill="#E1DDF4"/>
<path d="M51.8578 23.855H49.7716C49.8009 24.7792 49.7299 26.9469 48.3222 29.0766C45.9581 32.6585 41.8594 33.0255 41.4296 33.0582C39.2564 33.2156 37.5574 32.5329 36.7359 32.134C40.0965 25.9431 43.4572 19.7521 46.8178 13.5577C46.0993 13.0651 45.0744 12.4752 43.7449 12.0595C41.6197 11.3926 39.7662 11.5058 38.6987 11.6535C37.6054 11.8596 35.6516 12.3752 33.6657 13.8177C31.314 15.5282 30.1755 17.6251 29.6968 18.6625C29.2731 19.8441 28.6861 21.9844 28.9952 24.6315C29.2083 26.4613 29.7598 27.7623 29.9152 28.1143C31.3646 31.4088 33.9428 33.0494 34.7954 33.5756C35.616 34.0824 36.9162 34.7581 38.6702 35.1746C39.2546 35.2896 40.0157 35.3922 40.9083 35.3913C40.9083 35.3913 41.9367 35.3895 42.9394 35.2073C43.8017 35.0508 48.2556 34.0222 50.5834 29.8265C51.9368 27.3882 51.9413 25.0144 51.8578 23.855ZM32.6542 28.79C31.8895 27.6969 31.5325 26.7408 31.306 25.9227C31.1124 25.224 30.671 23.5543 31.0867 21.437C31.5201 19.2303 32.6355 17.802 33.1844 17.1157C33.6453 16.5399 34.4935 15.5503 35.9269 14.6835C36.5929 14.2811 38.1978 13.4401 40.387 13.4692C42.1792 13.4949 43.5309 14.091 44.2103 14.4518C41.1605 19.8636 37.8958 25.6061 34.846 31.0205C34.2608 30.741 33.4135 29.8752 32.6542 28.79Z" fill="#E1DDF4"/>
<path d="M125.362 23.855H123.276C123.305 24.7792 123.234 26.9469 121.827 29.0766C119.463 32.6585 115.364 33.0255 114.934 33.0582C112.761 33.2156 111.062 32.5329 110.24 32.134C113.601 25.9431 116.962 19.7521 120.322 13.5577C119.604 13.0651 118.579 12.4752 117.249 12.0595C115.124 11.3926 113.271 11.5058 112.203 11.6535C111.11 11.8596 109.156 12.3752 107.17 13.8177C104.819 15.5282 103.68 17.6251 103.201 18.6625C102.778 19.8441 102.191 21.9844 102.5 24.6315C102.713 26.4613 103.264 27.7623 103.42 28.1143C104.869 31.4088 107.447 33.0494 108.3 33.5756C109.121 34.0824 110.421 34.7581 112.175 35.1746C112.759 35.2896 113.52 35.3922 114.413 35.3913C114.413 35.3913 115.441 35.3895 116.444 35.2073C117.306 35.0508 121.76 34.0222 124.088 29.8265C125.44 27.3882 125.445 25.0144 125.362 23.855ZM106.158 28.79C105.393 27.6969 105.036 26.7408 104.81 25.9227C104.616 25.224 104.175 23.5543 104.59 21.437C105.024 19.2303 106.139 17.802 106.688 17.1157C107.149 16.5399 107.997 15.5503 109.431 14.6835C110.097 14.2811 111.701 13.4401 113.891 13.4692C115.683 13.4949 117.035 14.091 117.714 14.4518C114.664 19.8636 111.4 25.6061 108.35 31.0205C107.765 30.741 106.917 29.8752 106.158 28.79Z" fill="#E1DDF4"/>
<path d="M56.7815 34.6157V12.2311H59.2149V17.1352C59.7815 16.2295 60.9299 14.6614 62.9263 13.3905C65.2798 11.8932 67.5587 11.6058 68.6582 11.5403C69.477 11.5094 73.3341 11.451 76.5953 14.366C78.7019 16.2498 80.1903 19.0331 80.1575 21.8942C80.1175 25.3443 80.1291 28.8006 80.1291 32.2534C80.1291 33.0414 80.1291 33.8285 80.1291 34.6166H78.0438C78.0438 31.3805 78.0438 28.1453 78.0438 24.9092C78.0438 24.1265 78.0438 23.3447 78.0438 22.5619C78.0438 21.59 78.1352 20.6463 77.7356 19.7327C77.5011 19.1967 77.2063 18.6749 76.8857 18.1858C75.9834 16.8088 74.7569 15.6538 73.2933 14.8861C70.6751 13.5126 67.8784 13.5612 65.2265 14.7976C61.4405 16.562 59.7203 19.883 59.1581 21.1168C59.1581 25.6167 59.1581 30.1166 59.1581 34.6166L56.7815 34.6157Z" fill="#E1DDF4"/>
<path d="M85.8645 12.2311V14.5969H95.655L84.8209 34.6157H99.1098V32.5391C95.6213 32.5391 92.1328 32.5391 88.6452 32.5391C92.2953 25.7697 95.9445 19.0004 99.5947 12.2311H85.8645Z" fill="#E1DDF4"/>
<path d="M132.5 0.000440358H130.154V35.3082H132.5V0.000440358Z" fill="#E1DDF4"/>
<path d="M3.01953 36.0576V47.9999H67.1092V36.0576H3.01953ZM15.7071 46.5282C13.2115 46.5282 11.1884 44.5135 11.1884 42.0283C11.1884 39.5431 13.2115 37.5284 15.7071 37.5284C18.2027 37.5284 20.2258 39.5431 20.2258 42.0283C20.2258 44.5135 18.2027 46.5282 15.7071 46.5282ZM28.8582 46.5282C26.3626 46.5282 24.3395 44.5135 24.3395 42.0283C24.3395 39.5431 26.3626 37.5284 28.8582 37.5284C31.3538 37.5284 33.3769 39.5431 33.3769 42.0283C33.3769 44.5135 31.3538 46.5282 28.8582 46.5282ZM41.5742 46.5282C39.0786 46.5282 37.0555 44.5135 37.0555 42.0283C37.0555 39.5431 39.0786 37.5284 41.5742 37.5284C44.0698 37.5284 46.0929 39.5431 46.0929 42.0283C46.0929 44.5135 44.0698 46.5282 41.5742 46.5282ZM54.4207 46.5282C51.9251 46.5282 49.902 44.5135 49.902 42.0283C49.902 39.5431 51.9251 37.5284 54.4207 37.5284C56.9163 37.5284 58.9395 39.5431 58.9395 42.0283C58.9395 44.5135 56.9163 46.5282 54.4207 46.5282Z" fill="#E1DDF4"/>
<path d="M102.693 39.9942C101.91 40.0198 101.751 40.5372 101.751 41.4959V42.4909H103.634V41.4959C103.634 40.5372 103.476 40.0198 102.693 39.9942Z" fill="#E1DDF4"/>
<path d="M116.768 39.9942C115.986 40.0198 115.827 40.5372 115.827 41.4959V44.3835C115.827 45.3431 115.985 45.8596 116.768 45.8853C117.551 45.8596 117.71 45.3422 117.71 44.3835V41.4959C117.71 40.5372 117.551 40.0198 116.768 39.9942Z" fill="#E1DDF4"/>
<path d="M111.991 39.9942C111.209 40.0198 111.05 40.5372 111.05 41.4959V42.4909H112.932V41.4959C112.932 40.5372 112.773 40.0198 111.991 39.9942Z" fill="#E1DDF4"/>
<path d="M67.1104 36.0576V47.9999H131.11V36.0576H67.1104ZM75.7703 46.5574H75.0812V39.3034H75.7703V46.5574ZM80.3317 46.5574H77.2393V39.3034H77.9284V45.8861H80.3317V46.5574ZM84.8211 44.4472C84.8211 45.826 84.2127 46.5282 83.1905 46.5574C82.1683 46.5282 81.5599 45.826 81.5599 44.4472V39.3034H82.2491V44.38C82.2491 45.3369 82.4072 45.8517 83.1905 45.8782C83.9729 45.8525 84.1319 45.3369 84.1319 44.38V39.3034H84.8211V44.4472ZM92.3292 46.5574H91.6631V40.6654L89.425 43.6132L87.187 40.6654V46.5574H86.5209V39.3034H87.1222L89.425 42.4219L91.7279 39.3034H92.3292V46.5574ZM94.4828 46.5574H93.7937V39.3034H94.4828V46.5574ZM99.6508 46.469H99.3159L96.8612 41.5605L96.8692 42.0274V46.4681H96.3088V39.3919H96.6401L98.7893 44.1633L98.9811 44.6037L98.9589 44.127V39.3919H99.6508V46.469ZM104.323 46.5671H103.634V43.1789H101.751V46.5671H101.062V41.4287C101.062 40.0463 101.67 39.3423 102.693 39.3132C103.715 39.3423 104.323 40.0463 104.323 41.4287V46.5671ZM107.532 45.8773C108.107 45.8578 108.344 45.5748 108.431 45.0459H109.116C108.964 46.0029 108.421 46.5052 107.599 46.5539C107.519 46.7025 107.415 46.8634 107.292 47.027C107.208 47.1367 107.121 47.2393 107.036 47.3295C106.965 47.2844 106.894 47.2428 106.82 47.1977C106.868 47.0854 106.92 46.9501 106.959 46.7953C106.988 46.683 107.008 46.5733 107.02 46.4761C106.309 46.2541 105.901 45.5775 105.901 44.4463V41.4313C105.901 40.0525 106.51 39.3503 107.532 39.3211C108.392 39.3468 108.962 39.8491 109.117 40.8317H108.432C108.344 40.3037 108.108 40.0198 107.533 40.0003C106.75 40.026 106.591 40.5416 106.591 41.4986V44.3782C106.591 45.336 106.749 45.8517 107.532 45.8773ZM113.621 46.5671H112.932V43.1789H111.049V46.5671H110.36V41.4287C110.36 40.0463 110.968 39.3423 111.99 39.3132C113.012 39.3423 113.621 40.0463 113.621 41.4287V46.5671ZM113.24 38.3695C113.125 38.4022 113.011 38.4181 112.896 38.4181C112.586 38.4181 112.273 38.2934 111.956 38.044C111.548 37.7239 111.21 37.5638 110.943 37.5638H110.902C110.63 37.5797 110.44 37.8079 110.33 38.2474H109.758C109.878 37.5479 110.151 37.1357 110.575 37.011C110.69 36.9783 110.805 36.9624 110.919 36.9624C111.23 36.9624 111.543 37.0844 111.859 37.3285C112.267 37.654 112.605 37.8167 112.872 37.8167H112.913C113.186 37.7999 113.376 37.5726 113.485 37.1331H114.049C113.934 37.8326 113.664 38.2448 113.24 38.3695ZM118.399 44.4507C118.399 45.8331 117.79 46.5371 116.768 46.5663C115.746 46.5371 115.138 45.8331 115.138 44.4507V41.4287C115.138 40.0463 115.746 39.3423 116.768 39.3132C117.79 39.3423 118.399 40.0463 118.399 41.4287V44.4507Z" fill="#E1DDF4"/>
</g>
<defs>
<clipPath id="clip0_661_1378">
<rect width="132" height="48" fill="white" transform="translate(0.5)"/>
</clipPath>
</defs>
</svg>
