<svg width="32" height="32" viewBox="0 0 32 32" fill="none" xmlns="http://www.w3.org/2000/svg">
<g id="ix:maintenance">
<path id="Vector" fill-rule="evenodd" clip-rule="evenodd" d="M20.7587 2C15.6548 2 11.5173 6.13752 11.5173 11.2413C11.5173 12.1749 11.6558 13.0762 11.9132 13.9257L2.27596 23.5632C0.574681 25.2644 0.574681 28.0228 2.27596 29.724C3.97723 31.4253 6.73563 31.4253 8.43683 29.724L18.0743 20.0868C18.9238 20.3442 19.8251 20.4827 20.7587 20.4827C25.8625 20.4827 30 16.3452 30 11.2413C30 10.2564 29.8459 9.30745 29.5605 8.41732L25.1891 12.7815L20.8562 11.3385L20.6627 11.145L19.2185 6.81619L23.595 2.44351C22.7013 2.15559 21.7481 2 20.7587 2Z" stroke="#9C60DA" stroke-width="2" stroke-linejoin="round"/>
</g>
</svg>
