<svg width="32" height="32" viewBox="0 0 32 32" fill="none" xmlns="http://www.w3.org/2000/svg">
<g id="Bot&#195;&#163;o Icon Editar bxs:edit">
<g id="Vector">
<path d="M22.9981 6L26 9.0019L23.7116 11.2913L20.7097 8.28945L22.9981 6ZM12.0032 19.9968H15.0051L22.2967 12.7052L19.2948 9.70334L12.0032 16.9949V19.9968Z" fill="#E1DDF4"/>
<path d="M23.0101 22.9987H12.1613C12.1352 22.9987 12.1082 23.0087 12.0822 23.0087C12.0492 23.0087 12.0162 22.9997 11.9821 22.9987H9.00126V8.98989H15.8526L17.8539 6.98862H9.00126C7.89757 6.98862 7 7.88519 7 8.98989V22.9987C7 24.1034 7.89757 25 9.00126 25H23.0101C23.5409 25 24.0499 24.7892 24.4252 24.4138C24.8005 24.0385 25.0114 23.5295 25.0114 22.9987V14.3253L23.0101 16.3265V22.9987Z" fill="#E1DDF4"/>
</g>
</g>
</svg>
