<svg width="208" height="32" viewBox="0 0 208 32" fill="none" xmlns="http://www.w3.org/2000/svg">
<path fill-rule="evenodd" clip-rule="evenodd" d="M20.7587 2C15.6548 2 11.5173 6.13752 11.5173 11.2413C11.5173 12.1749 11.6558 13.0762 11.9132 13.9257L2.27596 23.5632C0.574681 25.2644 0.574681 28.0228 2.27596 29.724C3.97723 31.4253 6.73563 31.4253 8.43683 29.724L18.0743 20.0868C18.9238 20.3442 19.8251 20.4827 20.7587 20.4827C25.8625 20.4827 30 16.3452 30 11.2413C30 10.2564 29.8459 9.30745 29.5605 8.41732L25.1891 12.7815L20.8562 11.3385L20.6627 11.145L19.2185 6.81619L23.595 2.44351C22.7013 2.15559 21.7481 2 20.7587 2Z" stroke="#9C60DA" stroke-width="2" stroke-linejoin="round"/>
<path d="M44.472 25V8.2H50.808C51.96 8.2 53.008 8.408 53.952 8.824C54.912 9.224 55.744 9.8 56.448 10.552C57.152 11.304 57.696 12.192 58.08 13.216C58.464 14.24 58.656 15.368 58.656 16.6C58.656 17.832 58.464 18.968 58.08 20.008C57.696 21.032 57.152 21.92 56.448 22.672C55.76 23.408 54.936 23.984 53.976 24.4C53.016 24.8 51.96 25 50.808 25H44.472ZM46.344 23.512L46.128 23.176H50.688C51.568 23.176 52.376 23.024 53.112 22.72C53.864 22.4 54.504 21.952 55.032 21.376C55.576 20.784 55.992 20.088 56.28 19.288C56.584 18.488 56.736 17.592 56.736 16.6C56.736 15.608 56.584 14.712 56.28 13.912C55.992 13.112 55.576 12.424 55.032 11.848C54.488 11.256 53.848 10.808 53.112 10.504C52.376 10.184 51.568 10.024 50.688 10.024H46.056L46.344 9.736V23.512ZM67.1079 25.24C65.8599 25.24 64.7479 24.968 63.7719 24.424C62.8119 23.88 62.0599 23.12 61.5159 22.144C60.9719 21.168 60.6999 20.048 60.6999 18.784C60.6999 17.808 60.8519 16.928 61.1559 16.144C61.4599 15.344 61.8839 14.648 62.4279 14.056C62.9879 13.464 63.6519 13.008 64.4199 12.688C65.1879 12.352 66.0199 12.184 66.9159 12.184C67.7639 12.184 68.5319 12.336 69.2199 12.64C69.9239 12.944 70.5239 13.368 71.0199 13.912C71.5319 14.44 71.9159 15.072 72.1719 15.808C72.4279 16.544 72.5399 17.352 72.5079 18.232L72.4839 19.072H62.0439L61.7799 17.56H71.1159L70.6839 17.968V17.392C70.6519 16.816 70.4839 16.264 70.1799 15.736C69.8759 15.192 69.4439 14.752 68.8839 14.416C68.3399 14.08 67.6839 13.912 66.9159 13.912C66.0199 13.912 65.2439 14.096 64.5879 14.464C63.9319 14.816 63.4279 15.344 63.0759 16.048C62.7239 16.752 62.5479 17.624 62.5479 18.664C62.5479 19.656 62.7399 20.52 63.1239 21.256C63.5079 21.976 64.0519 22.536 64.7559 22.936C65.4759 23.336 66.3399 23.536 67.3479 23.536C67.9399 23.536 68.5239 23.44 69.0999 23.248C69.6919 23.04 70.3399 22.64 71.0439 22.048L71.9799 23.344C71.6119 23.712 71.1719 24.04 70.6599 24.328C70.1479 24.6 69.5879 24.824 68.9799 25C68.3719 25.16 67.7479 25.24 67.1079 25.24ZM79.1685 25.24C78.0965 25.24 77.1365 25.04 76.2885 24.64C75.4405 24.24 74.7685 23.712 74.2725 23.056L75.5445 21.952C76.0085 22.512 76.5525 22.936 77.1765 23.224C77.8165 23.512 78.5285 23.656 79.3125 23.656C79.7125 23.656 80.0725 23.616 80.3925 23.536C80.7125 23.44 80.9925 23.304 81.2325 23.128C81.4725 22.952 81.6565 22.744 81.7845 22.504C81.9125 22.264 81.9765 22 81.9765 21.712C81.9765 21.184 81.7445 20.744 81.2805 20.392C81.0725 20.248 80.7765 20.104 80.3925 19.96C80.0085 19.8 79.5445 19.648 79.0005 19.504C78.1045 19.248 77.3605 18.992 76.7685 18.736C76.1765 18.464 75.7125 18.152 75.3765 17.8C75.1365 17.512 74.9525 17.2 74.8245 16.864C74.7125 16.528 74.6565 16.16 74.6565 15.76C74.6565 15.248 74.7605 14.776 74.9685 14.344C75.1925 13.912 75.4965 13.536 75.8805 13.216C76.2805 12.88 76.7445 12.632 77.2725 12.472C77.8165 12.296 78.4005 12.208 79.0245 12.208C79.6165 12.208 80.2005 12.288 80.7765 12.448C81.3525 12.608 81.8885 12.84 82.3845 13.144C82.8805 13.448 83.3045 13.808 83.6565 14.224L82.5525 15.424C82.2485 15.104 81.9125 14.816 81.5445 14.56C81.1765 14.304 80.7845 14.104 80.3685 13.96C79.9685 13.816 79.5525 13.744 79.1205 13.744C78.7365 13.744 78.3765 13.792 78.0405 13.888C77.7205 13.984 77.4405 14.12 77.2005 14.296C76.9765 14.456 76.8005 14.656 76.6725 14.896C76.5605 15.136 76.5045 15.4 76.5045 15.688C76.5045 15.928 76.5525 16.144 76.6485 16.336C76.7445 16.528 76.8805 16.696 77.0565 16.84C77.2805 17.016 77.5925 17.184 77.9925 17.344C78.4085 17.488 78.9205 17.64 79.5285 17.8C80.2325 17.992 80.8245 18.192 81.3045 18.4C81.8005 18.592 82.2085 18.824 82.5285 19.096C82.9605 19.416 83.2645 19.784 83.4405 20.2C83.6325 20.616 83.7285 21.088 83.7285 21.616C83.7285 22.32 83.5285 22.944 83.1285 23.488C82.7445 24.032 82.2085 24.464 81.5205 24.784C80.8325 25.088 80.0485 25.24 79.1685 25.24ZM86.5249 25V12.472H88.3249L88.3729 15.328L88.0129 15.448C88.1409 14.968 88.3489 14.536 88.6369 14.152C88.9409 13.752 89.3009 13.408 89.7169 13.12C90.1329 12.832 90.5889 12.616 91.0849 12.472C91.5809 12.312 92.1009 12.232 92.6449 12.232C93.3009 12.232 93.8849 12.344 94.3969 12.568C94.9249 12.776 95.3649 13.144 95.7169 13.672C96.0849 14.184 96.3649 14.864 96.5569 15.712L96.1249 15.496L96.2929 15.088C96.4529 14.72 96.6849 14.368 96.9889 14.032C97.3089 13.68 97.6689 13.368 98.0689 13.096C98.4849 12.824 98.9329 12.616 99.4129 12.472C99.9089 12.312 100.413 12.232 100.925 12.232C101.805 12.232 102.549 12.424 103.157 12.808C103.765 13.176 104.221 13.744 104.525 14.512C104.845 15.28 105.005 16.256 105.005 17.44V25H103.157V17.536C103.157 16.704 103.053 16.024 102.845 15.496C102.637 14.968 102.325 14.576 101.909 14.32C101.509 14.048 100.997 13.912 100.373 13.912C99.8289 13.912 99.3249 14.008 98.8609 14.2C98.4129 14.376 98.0209 14.632 97.6849 14.968C97.3649 15.288 97.1089 15.656 96.9169 16.072C96.7409 16.488 96.6529 16.936 96.6529 17.416V25H94.8289V17.512C94.8289 16.712 94.7169 16.048 94.4929 15.52C94.2849 14.992 93.9729 14.592 93.5569 14.32C93.1409 14.048 92.6289 13.912 92.0209 13.912C91.4929 13.912 91.0049 14.008 90.5569 14.2C90.1089 14.376 89.7169 14.624 89.3809 14.944C89.0609 15.264 88.8049 15.632 88.6129 16.048C88.4369 16.464 88.3489 16.912 88.3489 17.392V25H86.5249ZM113.96 25.24C112.712 25.24 111.6 24.96 110.624 24.4C109.664 23.84 108.904 23.064 108.344 22.072C107.8 21.08 107.528 19.952 107.528 18.688C107.528 17.44 107.8 16.328 108.344 15.352C108.904 14.376 109.664 13.608 110.624 13.048C111.6 12.488 112.712 12.208 113.96 12.208C115.192 12.208 116.288 12.488 117.248 13.048C118.224 13.608 118.984 14.376 119.528 15.352C120.088 16.328 120.368 17.44 120.368 18.688C120.368 19.952 120.088 21.08 119.528 22.072C118.984 23.064 118.224 23.84 117.248 24.4C116.288 24.96 115.192 25.24 113.96 25.24ZM113.96 23.536C114.84 23.536 115.624 23.328 116.312 22.912C117 22.48 117.536 21.904 117.92 21.184C118.304 20.448 118.496 19.616 118.496 18.688C118.496 17.76 118.304 16.936 117.92 16.216C117.536 15.496 117 14.936 116.312 14.536C115.624 14.12 114.84 13.912 113.96 13.912C113.08 13.912 112.288 14.12 111.584 14.536C110.896 14.936 110.352 15.504 109.952 16.24C109.568 16.96 109.384 17.776 109.4 18.688C109.384 19.616 109.568 20.448 109.952 21.184C110.352 21.904 110.896 22.48 111.584 22.912C112.288 23.328 113.08 23.536 113.96 23.536ZM122.994 25V12.472H124.77L124.842 15.088L124.554 15.208C124.714 14.664 125.026 14.168 125.49 13.72C125.954 13.272 126.506 12.912 127.146 12.64C127.802 12.352 128.474 12.208 129.162 12.208C130.09 12.208 130.866 12.392 131.49 12.76C132.114 13.128 132.586 13.696 132.906 14.464C133.226 15.232 133.386 16.208 133.386 17.392V25H131.562V17.488C131.562 16.656 131.45 15.976 131.226 15.448C131.018 14.904 130.69 14.504 130.242 14.248C129.794 13.992 129.242 13.872 128.586 13.888C128.042 13.888 127.538 13.984 127.074 14.176C126.61 14.352 126.21 14.6 125.874 14.92C125.538 15.24 125.274 15.608 125.082 16.024C124.89 16.44 124.794 16.888 124.794 17.368V25H123.906C123.794 25 123.666 25 123.522 25C123.378 25 123.202 25 122.994 25ZM138.55 25V9.184H140.35V25H138.55ZM135.718 14.2V12.472H143.518V14.2H135.718ZM150.507 25.24C149.419 25.24 148.435 24.96 147.555 24.4C146.675 23.824 145.979 23.048 145.467 22.072C144.955 21.08 144.699 19.96 144.699 18.712C144.699 17.448 144.963 16.328 145.491 15.352C146.019 14.376 146.723 13.608 147.603 13.048C148.499 12.488 149.499 12.208 150.603 12.208C151.259 12.208 151.867 12.304 152.427 12.496C152.987 12.688 153.483 12.96 153.915 13.312C154.363 13.648 154.731 14.048 155.019 14.512C155.323 14.96 155.531 15.448 155.643 15.976L155.115 15.712L155.187 12.472H156.987V25H155.163V21.928L155.643 21.616C155.531 22.096 155.315 22.56 154.995 23.008C154.675 23.44 154.283 23.824 153.819 24.16C153.371 24.496 152.859 24.76 152.283 24.952C151.723 25.144 151.131 25.24 150.507 25.24ZM150.915 23.512C151.747 23.512 152.491 23.312 153.147 22.912C153.803 22.496 154.315 21.928 154.683 21.208C155.067 20.472 155.259 19.64 155.259 18.712C155.259 17.784 155.067 16.96 154.683 16.24C154.315 15.52 153.803 14.952 153.147 14.536C152.491 14.12 151.747 13.912 150.915 13.912C150.067 13.912 149.315 14.12 148.659 14.536C148.019 14.952 147.507 15.52 147.123 16.24C146.755 16.96 146.571 17.784 146.571 18.712C146.571 19.624 146.755 20.448 147.123 21.184C147.491 21.904 148.003 22.472 148.659 22.888C149.315 23.304 150.067 23.512 150.915 23.512ZM165.894 30.52C164.966 30.52 164.086 30.376 163.254 30.088C162.422 29.8 161.734 29.44 161.19 29.008L161.91 27.496C162.23 27.752 162.598 27.976 163.014 28.168C163.446 28.376 163.91 28.536 164.406 28.648C164.902 28.776 165.406 28.84 165.918 28.84C166.846 28.84 167.63 28.664 168.27 28.312C168.926 27.976 169.422 27.472 169.758 26.8C170.11 26.128 170.286 25.296 170.286 24.304V21.904L170.574 21.832C170.43 22.44 170.118 23.008 169.638 23.536C169.158 24.048 168.574 24.464 167.886 24.784C167.198 25.088 166.47 25.24 165.702 25.24C164.534 25.24 163.486 24.96 162.558 24.4C161.646 23.84 160.926 23.072 160.398 22.096C159.87 21.104 159.606 19.984 159.606 18.736C159.606 17.472 159.87 16.352 160.398 15.376C160.942 14.384 161.67 13.608 162.582 13.048C163.494 12.488 164.518 12.208 165.654 12.208C166.15 12.208 166.63 12.272 167.094 12.4C167.558 12.512 167.982 12.68 168.366 12.904C168.766 13.128 169.126 13.384 169.446 13.672C169.766 13.96 170.03 14.272 170.238 14.608C170.462 14.944 170.622 15.288 170.718 15.64L170.214 15.568L170.286 12.472H172.086V24.232C172.086 25.24 171.942 26.128 171.654 26.896C171.366 27.68 170.942 28.336 170.382 28.864C169.838 29.408 169.182 29.816 168.414 30.088C167.662 30.376 166.822 30.52 165.894 30.52ZM165.918 23.512C166.766 23.512 167.518 23.312 168.174 22.912C168.846 22.496 169.374 21.928 169.758 21.208C170.142 20.488 170.334 19.656 170.334 18.712C170.334 17.784 170.142 16.96 169.758 16.24C169.39 15.52 168.87 14.952 168.198 14.536C167.526 14.12 166.766 13.912 165.918 13.912C165.054 13.912 164.286 14.12 163.614 14.536C162.958 14.952 162.438 15.52 162.054 16.24C161.67 16.96 161.478 17.784 161.478 18.712C161.478 19.624 161.662 20.448 162.03 21.184C162.414 21.904 162.934 22.472 163.59 22.888C164.262 23.304 165.038 23.512 165.918 23.512ZM181.108 25.24C179.86 25.24 178.748 24.968 177.772 24.424C176.812 23.88 176.06 23.12 175.516 22.144C174.972 21.168 174.7 20.048 174.7 18.784C174.7 17.808 174.852 16.928 175.156 16.144C175.46 15.344 175.884 14.648 176.428 14.056C176.988 13.464 177.652 13.008 178.42 12.688C179.188 12.352 180.02 12.184 180.916 12.184C181.764 12.184 182.532 12.336 183.22 12.64C183.924 12.944 184.524 13.368 185.02 13.912C185.532 14.44 185.916 15.072 186.172 15.808C186.428 16.544 186.54 17.352 186.508 18.232L186.484 19.072H176.044L175.78 17.56H185.116L184.684 17.968V17.392C184.652 16.816 184.484 16.264 184.18 15.736C183.876 15.192 183.444 14.752 182.884 14.416C182.34 14.08 181.684 13.912 180.916 13.912C180.02 13.912 179.244 14.096 178.588 14.464C177.932 14.816 177.428 15.344 177.076 16.048C176.724 16.752 176.548 17.624 176.548 18.664C176.548 19.656 176.74 20.52 177.124 21.256C177.508 21.976 178.052 22.536 178.756 22.936C179.476 23.336 180.34 23.536 181.348 23.536C181.94 23.536 182.524 23.44 183.1 23.248C183.692 23.04 184.34 22.64 185.044 22.048L185.98 23.344C185.612 23.712 185.172 24.04 184.66 24.328C184.148 24.6 183.588 24.824 182.98 25C182.372 25.16 181.748 25.24 181.108 25.24ZM189.041 25V12.472H190.84L190.889 15.328L190.529 15.448C190.657 14.968 190.865 14.536 191.153 14.152C191.457 13.752 191.817 13.408 192.233 13.12C192.649 12.832 193.105 12.616 193.601 12.472C194.097 12.312 194.617 12.232 195.161 12.232C195.817 12.232 196.401 12.344 196.913 12.568C197.441 12.776 197.881 13.144 198.233 13.672C198.601 14.184 198.881 14.864 199.073 15.712L198.641 15.496L198.809 15.088C198.969 14.72 199.201 14.368 199.505 14.032C199.825 13.68 200.185 13.368 200.585 13.096C201.001 12.824 201.449 12.616 201.929 12.472C202.425 12.312 202.929 12.232 203.441 12.232C204.321 12.232 205.065 12.424 205.673 12.808C206.281 13.176 206.737 13.744 207.041 14.512C207.361 15.28 207.521 16.256 207.521 17.44V25H205.673V17.536C205.673 16.704 205.569 16.024 205.361 15.496C205.153 14.968 204.841 14.576 204.425 14.32C204.025 14.048 203.513 13.912 202.889 13.912C202.345 13.912 201.841 14.008 201.377 14.2C200.929 14.376 200.537 14.632 200.201 14.968C199.881 15.288 199.625 15.656 199.432 16.072C199.257 16.488 199.169 16.936 199.169 17.416V25H197.345V17.512C197.345 16.712 197.233 16.048 197.009 15.52C196.801 14.992 196.489 14.592 196.073 14.32C195.657 14.048 195.145 13.912 194.537 13.912C194.009 13.912 193.521 14.008 193.073 14.2C192.625 14.376 192.233 14.624 191.897 14.944C191.577 15.264 191.321 15.632 191.129 16.048C190.953 16.464 190.865 16.912 190.865 17.392V25H189.041Z" fill="url(#paint0_linear_300_135)"/>
<defs>
<linearGradient id="paint0_linear_300_135" x1="210" y1="16" x2="42" y2="16" gradientUnits="userSpaceOnUse">
<stop stop-color="#43A3D5"/>
<stop offset="1" stop-color="#9C60DA"/>
</linearGradient>
</defs>
</svg>
