<svg width="244" height="32" viewBox="0 0 244 32" fill="none" xmlns="http://www.w3.org/2000/svg">
<path d="M10.3365 22.4791C10.3289 23.7834 10.7668 24.3736 11.678 24.8392C12.5092 25.2647 13.3356 25.1524 14.1753 25.0163C18.0418 24.3879 21.6093 23.0227 24.7617 20.6598C25.6395 20.002 26.4269 19.2442 27.0696 18.3503C27.1486 18.2408 27.1858 18.0361 27.141 17.9123C26.4269 15.9521 25.7081 13.9929 24.9655 12.0432C24.3999 10.558 23.5126 10.1058 21.9521 10.4571C20.6068 10.7599 19.4309 11.4244 18.317 12.2003C15.4911 14.1671 13.1671 16.6119 11.4114 19.5803C10.8344 20.558 10.3774 21.5843 10.3365 22.4791ZM12.6272 23.3455C12.6149 23.3141 12.6034 23.2817 12.591 23.2503C12.1359 23.2598 11.9655 23.1332 12.0741 22.681C12.2331 22.0193 12.4263 21.3462 12.7329 20.7436C13.7583 18.7311 15.2417 17.066 16.8812 15.5371C18.2046 14.3023 19.6204 13.1856 21.298 12.4621C21.7588 12.264 22.2644 12.1441 22.7614 12.0622C23.1527 11.9984 23.3145 12.1603 23.246 12.5563C23.1555 13.0752 23.0298 13.6035 22.8166 14.0833C21.9959 15.9312 20.7248 17.4649 19.3271 18.8977C17.8952 20.3647 16.3442 21.689 14.4981 22.6134C13.9021 22.9133 13.2528 23.1056 12.6272 23.3455Z" fill="#9C60DA"/>
<path d="M27.9322 20.0391C24.6703 23.4911 20.5506 25.2552 16.07 26.43C16.1633 26.4776 16.2281 26.5204 16.2995 26.5471C17.6876 27.0621 19.0748 27.5829 20.4697 28.0798C20.701 28.1627 20.98 28.1893 21.2228 28.1522C23.165 27.8542 25.0607 27.3934 26.8021 26.4405C27.7713 25.9102 28.6272 25.2419 29.2509 24.3146C29.327 24.2013 29.3956 24.0157 29.3556 23.9034C28.8976 22.621 28.4178 21.3462 27.9322 20.0391Z" fill="#9C60DA"/>
<path d="M13.2794 2.55543C12.9881 2.97526 12.7424 3.30942 12.5187 3.65786C12.1797 4.18432 11.996 4.75077 12.1655 5.381C12.393 6.22924 13.0385 6.7557 13.9697 6.85471C14.3581 6.89565 14.7495 6.91659 15.175 6.94991C15.1284 7.03179 15.0894 7.10985 15.0427 7.18221C14.8504 7.48114 14.6323 7.76674 14.4657 8.079C13.9487 9.0453 14.1649 10.0449 15.0379 10.7037C15.8034 11.2816 16.7136 11.4606 17.6391 11.5615C17.9371 11.5938 18.1313 11.4072 18.1941 11.1159C18.2703 10.7684 18.3417 10.42 18.3931 10.0678C18.4598 9.61555 18.3027 9.40706 17.8542 9.3071C17.4296 9.2119 17.0059 9.11765 16.5346 9.01293C16.8136 8.61022 17.0573 8.27607 17.2811 7.92858C17.6286 7.3926 17.819 6.81663 17.641 6.17307C17.4096 5.34006 16.7736 4.81931 15.8586 4.7184C15.4607 4.67461 15.0608 4.65271 14.6209 4.61844C14.8275 4.30903 15.0303 4.02438 15.2141 3.72735C15.9672 2.50592 15.6578 1.2407 14.3639 0.625696C13.7126 0.316292 12.9719 0.18301 12.2607 0.018312C11.9122 -0.062609 11.697 0.123033 11.6151 0.472422C11.5342 0.818955 11.4666 1.16834 11.4152 1.51964C11.3524 1.95375 11.5066 2.15939 11.9389 2.25745C12.3644 2.3555 12.79 2.44785 13.2794 2.55543Z" fill="#9C60DA"/>
<path d="M6.96891 15.1772C6.90607 14.6412 6.89084 14.1281 6.77945 13.6359C6.49001 12.3564 5.22848 11.7423 4.04597 12.3145C3.53946 12.5592 3.0834 12.9086 2.55118 13.2437C2.45978 12.8476 2.35886 12.4725 2.28745 12.0927C2.17225 11.4805 1.95707 11.3225 1.35249 11.4396C1.06115 11.4958 0.7679 11.5434 0.480366 11.6119C0.123329 11.6966 -0.0375748 11.8956 0.00717354 12.2498C0.103334 13.0171 0.25853 13.772 0.650795 14.4537C1.33535 15.6427 2.51405 15.9502 3.68227 15.24C3.99265 15.0515 4.28685 14.8383 4.61437 14.6193C4.6477 15.0401 4.67055 15.4266 4.71054 15.8112C4.8762 17.4116 6.32434 18.176 7.72964 17.3925C8.15237 17.1574 8.53987 16.8594 9.0045 16.5491C9.0997 16.9537 9.20348 17.3249 9.27299 17.7019C9.39105 18.3398 9.59861 18.4921 10.2279 18.3684C10.5069 18.3131 10.7887 18.2693 11.0658 18.2056C11.4419 18.118 11.6037 17.919 11.5552 17.5449C11.4581 16.7899 11.3048 16.0464 10.923 15.3733C10.2365 14.1662 9.0502 13.8558 7.86769 14.5784C7.56588 14.7621 7.27739 14.9706 6.96891 15.1772Z" fill="#9C60DA"/>
<path d="M1.2211 5.82654C1.22015 6.52246 1.13827 6.60148 1.97421 6.6843C4.82765 6.9661 7.20218 8.31034 9.29298 10.1772C10.1365 10.9312 10.8525 11.829 11.6075 12.6791C11.916 13.0266 11.9731 13.0599 12.3673 12.7962C12.5549 12.6706 12.7434 12.5478 12.929 12.4202C13.248 12.2012 13.2775 12.0565 13.0528 11.7509C11.3524 9.43562 9.233 7.60776 6.6671 6.31112C5.20468 5.57235 3.66037 5.09635 2.01896 4.96021C1.9247 4.95259 1.82949 4.94403 1.73523 4.94117C1.34297 4.92879 1.22776 5.04018 1.2211 5.43526C1.21919 5.56474 1.2211 5.69612 1.2211 5.82654Z" fill="#9C60DA"/>
<path d="M30.1315 26.0111C28.4806 27.818 26.3584 28.7329 23.9677 29.3822C24.5523 29.6011 25.0312 29.7811 25.511 29.9601C27.2315 30.6017 28.9548 31.2377 30.6723 31.8898C31.0722 32.0412 31.4359 32.0745 31.7568 31.7508C32.0786 31.4271 32.0367 31.0625 31.8853 30.6645C31.3417 29.2356 30.8171 27.7999 30.2839 26.3681C30.2429 26.2577 30.1925 26.1511 30.1315 26.0111Z" fill="#9C60DA"/>
<path d="M20.0365 3.78162C20.0365 4.11387 20.0393 4.44612 20.0355 4.77742C20.0326 5.07064 20.1678 5.2182 20.4649 5.21535C20.7496 5.21249 21.0343 5.21249 21.3189 5.21535C21.616 5.2182 21.7493 5.06969 21.7474 4.77647C21.7436 4.11197 21.7455 3.44841 21.7464 2.78391C21.7464 2.50783 21.616 2.36407 21.3361 2.36407C21.04 2.36407 20.7429 2.36407 20.4468 2.36407C20.1669 2.36407 20.0355 2.50878 20.0365 2.78391C20.0374 3.11711 20.0365 3.44937 20.0365 3.78162Z" fill="#9C60DA"/>
<path d="M6.09203 21.748C6.41194 21.748 6.73279 21.7451 7.0527 21.749C7.34499 21.7528 7.49542 21.6195 7.49257 21.3215C7.49066 21.0254 7.49352 20.7284 7.49066 20.4323C7.48781 20.1715 7.35166 20.0391 7.09174 20.0391C6.40432 20.0382 5.71595 20.0363 5.02854 20.0401C4.76576 20.042 4.64294 20.1886 4.64198 20.4456C4.64198 20.7417 4.64198 21.0387 4.64198 21.3348C4.64198 21.6128 4.78385 21.748 5.05996 21.747C5.40462 21.748 5.74833 21.748 6.09203 21.748Z" fill="#9C60DA"/>
<path d="M2.48739 1.314C2.53119 1.39111 2.56165 1.48536 2.62354 1.5482C3.11387 2.04705 3.60801 2.54305 4.10595 3.03429C4.29066 3.21612 4.48298 3.20375 4.66674 3.01906C4.87525 2.80866 5.08471 2.59922 5.29512 2.38978C5.49507 2.1908 5.48174 1.99659 5.28751 1.80334C4.80956 1.32543 4.34112 0.836091 3.84413 0.379125C3.74606 0.288684 3.47472 0.242035 3.38712 0.309628C3.09007 0.540015 2.83776 0.828475 2.57498 1.1017C2.53119 1.14835 2.52166 1.22832 2.48739 1.314Z" fill="#9C60DA"/>
<path d="M45.296 28V5.6H58.864V8.032H47.792V25.568H58.8V28H45.296ZM46.448 17.696V15.264H57.072V17.696H46.448ZM70.12 28.32C68.6053 28.32 67.24 27.9467 66.024 27.2C64.8293 26.4533 63.88 25.4293 63.176 24.128C62.4933 22.8053 62.152 21.312 62.152 19.648C62.152 17.9627 62.504 16.4693 63.208 15.168C63.912 13.8453 64.8613 12.8107 66.056 12.064C67.2507 11.3173 68.5947 10.944 70.088 10.944C70.92 10.944 71.72 11.072 72.488 11.328C73.2773 11.584 73.9813 11.9467 74.6 12.416C75.2187 12.864 75.7307 13.3867 76.136 13.984C76.5413 14.56 76.7867 15.168 76.872 15.808L76.136 15.552V4.32H78.536V28H76.168L76.104 23.84L76.712 23.616C76.6267 24.2133 76.3813 24.8 75.976 25.376C75.592 25.9307 75.1013 26.432 74.504 26.88C73.9067 27.328 73.224 27.68 72.456 27.936C71.7093 28.192 70.9307 28.32 70.12 28.32ZM70.472 26.112C71.5813 26.112 72.5733 25.8347 73.448 25.28C74.3227 24.7253 75.0053 23.9573 75.496 22.976C76.008 21.9947 76.264 20.8747 76.264 19.616C76.264 18.3573 76.008 17.248 75.496 16.288C75.0053 15.3067 74.3227 14.5387 73.448 13.984C72.5733 13.408 71.5813 13.12 70.472 13.12C69.32 13.12 68.3067 13.408 67.432 13.984C66.5787 14.5387 65.896 15.3067 65.384 16.288C64.8933 17.248 64.648 18.3573 64.648 19.616C64.648 20.8533 64.8933 21.9627 65.384 22.944C65.8747 23.9253 66.5573 24.704 67.432 25.28C68.3067 25.8347 69.32 26.112 70.472 26.112ZM83.851 28V11.296H86.251V28H83.851ZM85.035 7.68C84.4377 7.68 83.979 7.53067 83.659 7.232C83.3603 6.912 83.211 6.48533 83.211 5.952C83.211 5.41867 83.371 4.992 83.691 4.672C84.011 4.352 84.459 4.192 85.035 4.192C85.611 4.192 86.059 4.352 86.379 4.672C86.699 4.97067 86.859 5.39733 86.859 5.952C86.859 6.464 86.699 6.88 86.379 7.2C86.059 7.52 85.611 7.68 85.035 7.68ZM93.7963 28V6.912H96.1963V28H93.7963ZM90.0203 13.6V11.296H100.42V13.6H90.0203ZM109.739 28.32C108.288 28.32 106.976 27.9467 105.803 27.2C104.63 26.432 103.702 25.3973 103.019 24.096C102.336 22.7733 101.995 21.28 101.995 19.616C101.995 17.9307 102.347 16.4373 103.051 15.136C103.755 13.8347 104.694 12.8107 105.867 12.064C107.062 11.3173 108.395 10.944 109.867 10.944C110.742 10.944 111.552 11.072 112.299 11.328C113.046 11.584 113.707 11.9467 114.283 12.416C114.88 12.864 115.371 13.3973 115.755 14.016C116.16 14.6133 116.438 15.264 116.587 15.968L115.883 15.616L115.979 11.296H118.379V28H115.947V23.904L116.587 23.488C116.438 24.128 116.15 24.7467 115.723 25.344C115.296 25.92 114.774 26.432 114.155 26.88C113.558 27.328 112.875 27.68 112.107 27.936C111.36 28.192 110.571 28.32 109.739 28.32ZM110.283 26.016C111.392 26.016 112.384 25.7493 113.259 25.216C114.134 24.6613 114.816 23.904 115.307 22.944C115.819 21.9627 116.075 20.8533 116.075 19.616C116.075 18.3787 115.819 17.28 115.307 16.32C114.816 15.36 114.134 14.6027 113.259 14.048C112.384 13.4933 111.392 13.216 110.283 13.216C109.152 13.216 108.15 13.4933 107.275 14.048C106.422 14.6027 105.739 15.36 105.227 16.32C104.736 17.28 104.491 18.3787 104.491 19.616C104.491 20.832 104.736 21.9307 105.227 22.912C105.718 23.872 106.4 24.6293 107.275 25.184C108.15 25.7387 109.152 26.016 110.283 26.016ZM123.055 28V11.296H125.455L125.519 15.744L125.263 15.136C125.497 14.3893 125.871 13.696 126.383 13.056C126.916 12.416 127.545 11.904 128.271 11.52C128.996 11.136 129.796 10.944 130.671 10.944C131.033 10.944 131.375 10.976 131.695 11.04C132.015 11.0827 132.281 11.1467 132.495 11.232L131.823 13.92C131.545 13.792 131.257 13.7067 130.959 13.664C130.681 13.6 130.415 13.568 130.159 13.568C129.433 13.568 128.783 13.696 128.207 13.952C127.631 14.208 127.14 14.5707 126.735 15.04C126.329 15.488 126.02 16.0107 125.807 16.608C125.593 17.2053 125.487 17.8453 125.487 18.528V28H123.055ZM144.921 28V5.6H158.489V8.032H147.417V25.568H158.425V28H144.921ZM146.073 17.696V15.264H156.697V17.696H146.073ZM167.833 28L160.793 11.296H163.449L169.017 24.96L168.377 25.312L174.489 11.296H177.049L169.561 28H167.833ZM186.759 28.32C185.095 28.32 183.612 27.9573 182.311 27.232C181.031 26.5067 180.028 25.4933 179.303 24.192C178.577 22.8907 178.215 21.3973 178.215 19.712C178.215 18.4107 178.417 17.2373 178.823 16.192C179.228 15.1253 179.793 14.1973 180.519 13.408C181.265 12.6187 182.151 12.0107 183.175 11.584C184.199 11.136 185.308 10.912 186.503 10.912C187.633 10.912 188.657 11.1147 189.575 11.52C190.513 11.9253 191.313 12.4907 191.975 13.216C192.657 13.92 193.169 14.7627 193.51 15.744C193.852 16.7253 194.001 17.8027 193.958 18.976L193.927 20.096H180.007L179.655 18.08H192.103L191.527 18.624V17.856C191.484 17.088 191.26 16.352 190.855 15.648C190.449 14.9227 189.873 14.336 189.127 13.888C188.401 13.44 187.527 13.216 186.503 13.216C185.308 13.216 184.273 13.4613 183.399 13.952C182.524 14.4213 181.852 15.1253 181.383 16.064C180.913 17.0027 180.679 18.1653 180.679 19.552C180.679 20.8747 180.935 22.0267 181.447 23.008C181.959 23.968 182.684 24.7147 183.623 25.248C184.583 25.7813 185.735 26.048 187.079 26.048C187.868 26.048 188.647 25.92 189.415 25.664C190.204 25.3867 191.068 24.8533 192.007 24.064L193.255 25.792C192.764 26.2827 192.177 26.72 191.495 27.104C190.812 27.4667 190.065 27.7653 189.255 28C188.444 28.2133 187.612 28.32 186.759 28.32ZM197.367 28V11.296H199.735L199.831 14.784L199.447 14.944C199.661 14.2187 200.077 13.5573 200.695 12.96C201.314 12.3627 202.05 11.8827 202.903 11.52C203.778 11.136 204.674 10.944 205.591 10.944C206.829 10.944 207.863 11.1893 208.695 11.68C209.527 12.1707 210.157 12.928 210.583 13.952C211.01 14.976 211.223 16.2773 211.223 17.856V28H208.791V17.984C208.791 16.8747 208.642 15.968 208.343 15.264C208.066 14.5387 207.629 14.0053 207.031 13.664C206.434 13.3227 205.698 13.1627 204.823 13.184C204.098 13.184 203.426 13.312 202.807 13.568C202.189 13.8027 201.655 14.1333 201.207 14.56C200.759 14.9867 200.407 15.4773 200.151 16.032C199.895 16.5867 199.767 17.184 199.767 17.824V28H198.583C198.434 28 198.263 28 198.071 28C197.879 28 197.645 28 197.367 28ZM218.109 28V6.912H220.509V28H218.109ZM214.333 13.6V11.296H224.733V13.6H214.333ZM234.916 28.32C233.252 28.32 231.769 27.9467 230.468 27.2C229.188 26.4533 228.174 25.4187 227.428 24.096C226.702 22.7733 226.34 21.2693 226.34 19.584C226.34 17.92 226.702 16.4373 227.428 15.136C228.174 13.8347 229.188 12.8107 230.468 12.064C231.769 11.3173 233.252 10.944 234.916 10.944C236.558 10.944 238.02 11.3173 239.3 12.064C240.601 12.8107 241.614 13.8347 242.34 15.136C243.086 16.4373 243.46 17.92 243.46 19.584C243.46 21.2693 243.086 22.7733 242.34 24.096C241.614 25.4187 240.601 26.4533 239.3 27.2C238.02 27.9467 236.558 28.32 234.916 28.32ZM234.916 26.048C236.089 26.048 237.134 25.7707 238.052 25.216C238.969 24.64 239.684 23.872 240.196 22.912C240.708 21.9307 240.964 20.8213 240.964 19.584C240.964 18.3467 240.708 17.248 240.196 16.288C239.684 15.328 238.969 14.5813 238.052 14.048C237.134 13.4933 236.089 13.216 234.916 13.216C233.742 13.216 232.686 13.4933 231.748 14.048C230.83 14.5813 230.105 15.3387 229.572 16.32C229.06 17.28 228.814 18.368 228.836 19.584C228.814 20.8213 229.06 21.9307 229.572 22.912C230.105 23.872 230.83 24.64 231.748 25.216C232.686 25.7707 233.742 26.048 234.916 26.048Z" fill="url(#paint0_linear_300_135)"/>
<defs>
<linearGradient id="paint0_linear_300_135" x1="245" y1="16" x2="42" y2="16" gradientUnits="userSpaceOnUse">
<stop stop-color="#43A3D5"/>
<stop offset="1" stop-color="#9C60DA"/>
</linearGradient>
</defs>
</svg>
