<svg width="164" height="32" viewBox="0 0 164 32" fill="none" xmlns="http://www.w3.org/2000/svg">
<g clip-path="url(#clip0_300_135)">
<path fill-rule="evenodd" clip-rule="evenodd" d="M10.6665 0.820557C16.1043 0.820557 20.5126 5.22886 20.5126 10.6667C20.5126 11.6614 20.3651 12.6216 20.0908 13.5268L30.3588 23.7949C32.1714 25.6076 32.1714 28.5464 30.3588 30.359C28.5462 32.1716 25.6072 32.1716 23.7947 30.359L13.5265 20.091C12.6214 20.3653 11.6612 20.5129 10.6665 20.5129C5.22862 20.5129 0.820312 16.1046 0.820312 10.6667C0.820312 9.61733 0.984466 8.60625 1.28854 7.65786L5.94608 12.3077L10.5625 10.7703L10.7687 10.5641L12.3075 5.95194L7.64454 1.2931C8.5967 0.986326 9.61224 0.820557 10.6665 0.820557Z" fill="#9C60DA"/>
</g>
<path d="M44.472 25V8.2H46.296L52.752 18.688L51.888 18.664L58.416 8.2H60.12V25H58.248V17.32C58.248 15.88 58.272 14.584 58.32 13.432C58.368 12.28 58.456 11.136 58.584 10L58.92 10.672L52.896 20.128H51.6L45.744 10.792L46.008 10C46.136 11.072 46.224 12.176 46.272 13.312C46.32 14.432 46.344 15.768 46.344 17.32V25H44.472ZM69.8976 25.24C68.6496 25.24 67.5376 24.96 66.5616 24.4C65.6016 23.84 64.8416 23.064 64.2816 22.072C63.7376 21.08 63.4656 19.952 63.4656 18.688C63.4656 17.44 63.7376 16.328 64.2816 15.352C64.8416 14.376 65.6016 13.608 66.5616 13.048C67.5376 12.488 68.6496 12.208 69.8976 12.208C71.1296 12.208 72.2256 12.488 73.1856 13.048C74.1616 13.608 74.9216 14.376 75.4656 15.352C76.0256 16.328 76.3056 17.44 76.3056 18.688C76.3056 19.952 76.0256 21.08 75.4656 22.072C74.9216 23.064 74.1616 23.84 73.1856 24.4C72.2256 24.96 71.1296 25.24 69.8976 25.24ZM69.8976 23.536C70.7776 23.536 71.5616 23.328 72.2496 22.912C72.9376 22.48 73.4736 21.904 73.8576 21.184C74.2416 20.448 74.4336 19.616 74.4336 18.688C74.4336 17.76 74.2416 16.936 73.8576 16.216C73.4736 15.496 72.9376 14.936 72.2496 14.536C71.5616 14.12 70.7776 13.912 69.8976 13.912C69.0176 13.912 68.2256 14.12 67.5216 14.536C66.8336 14.936 66.2896 15.504 65.8896 16.24C65.5056 16.96 65.3216 17.776 65.3376 18.688C65.3216 19.616 65.5056 20.448 65.8896 21.184C66.2896 21.904 66.8336 22.48 67.5216 22.912C68.2256 23.328 69.0176 23.536 69.8976 23.536ZM78.9317 25V12.472H80.7077L80.7797 15.088L80.4917 15.208C80.6517 14.664 80.9637 14.168 81.4277 13.72C81.8917 13.272 82.4437 12.912 83.0837 12.64C83.7397 12.352 84.4117 12.208 85.0997 12.208C86.0277 12.208 86.8037 12.392 87.4277 12.76C88.0517 13.128 88.5237 13.696 88.8437 14.464C89.1637 15.232 89.3237 16.208 89.3237 17.392V25H87.4997V17.488C87.4997 16.656 87.3877 15.976 87.1637 15.448C86.9557 14.904 86.6277 14.504 86.1797 14.248C85.7317 13.992 85.1797 13.872 84.5237 13.888C83.9797 13.888 83.4757 13.984 83.0117 14.176C82.5477 14.352 82.1477 14.6 81.8117 14.92C81.4757 15.24 81.2117 15.608 81.0197 16.024C80.8277 16.44 80.7317 16.888 80.7317 17.368V25H79.8437C79.7317 25 79.6037 25 79.4597 25C79.3157 25 79.1397 25 78.9317 25ZM94.4878 25V9.184H96.2878V25H94.4878ZM91.6558 14.2V12.472H99.4558V14.2H91.6558ZM106.445 25.24C105.357 25.24 104.373 24.96 103.493 24.4C102.613 23.824 101.917 23.048 101.405 22.072C100.893 21.08 100.637 19.96 100.637 18.712C100.637 17.448 100.901 16.328 101.429 15.352C101.957 14.376 102.661 13.608 103.541 13.048C104.437 12.488 105.437 12.208 106.541 12.208C107.197 12.208 107.805 12.304 108.365 12.496C108.925 12.688 109.421 12.96 109.853 13.312C110.301 13.648 110.669 14.048 110.957 14.512C111.261 14.96 111.469 15.448 111.581 15.976L111.053 15.712L111.125 12.472H112.925V25H111.101V21.928L111.581 21.616C111.469 22.096 111.253 22.56 110.933 23.008C110.613 23.44 110.221 23.824 109.757 24.16C109.309 24.496 108.797 24.76 108.221 24.952C107.661 25.144 107.069 25.24 106.445 25.24ZM106.853 23.512C107.685 23.512 108.429 23.312 109.085 22.912C109.741 22.496 110.253 21.928 110.621 21.208C111.005 20.472 111.197 19.64 111.197 18.712C111.197 17.784 111.005 16.96 110.621 16.24C110.253 15.52 109.741 14.952 109.085 14.536C108.429 14.12 107.685 13.912 106.853 13.912C106.005 13.912 105.253 14.12 104.597 14.536C103.957 14.952 103.445 15.52 103.061 16.24C102.693 16.96 102.509 17.784 102.509 18.712C102.509 19.624 102.693 20.448 103.061 21.184C103.429 21.904 103.941 22.472 104.597 22.888C105.253 23.304 106.005 23.512 106.853 23.512ZM121.832 30.52C120.904 30.52 120.024 30.376 119.192 30.088C118.36 29.8 117.672 29.44 117.128 29.008L117.848 27.496C118.168 27.752 118.536 27.976 118.952 28.168C119.384 28.376 119.848 28.536 120.344 28.648C120.84 28.776 121.344 28.84 121.856 28.84C122.784 28.84 123.568 28.664 124.208 28.312C124.864 27.976 125.36 27.472 125.696 26.8C126.048 26.128 126.224 25.296 126.224 24.304V21.904L126.512 21.832C126.368 22.44 126.056 23.008 125.576 23.536C125.096 24.048 124.512 24.464 123.824 24.784C123.136 25.088 122.408 25.24 121.64 25.24C120.472 25.24 119.424 24.96 118.496 24.4C117.584 23.84 116.864 23.072 116.336 22.096C115.808 21.104 115.544 19.984 115.544 18.736C115.544 17.472 115.808 16.352 116.336 15.376C116.88 14.384 117.608 13.608 118.52 13.048C119.432 12.488 120.456 12.208 121.592 12.208C122.088 12.208 122.568 12.272 123.032 12.4C123.496 12.512 123.92 12.68 124.304 12.904C124.704 13.128 125.064 13.384 125.384 13.672C125.704 13.96 125.968 14.272 126.176 14.608C126.4 14.944 126.56 15.288 126.656 15.64L126.152 15.568L126.224 12.472H128.024V24.232C128.024 25.24 127.88 26.128 127.592 26.896C127.304 27.68 126.88 28.336 126.32 28.864C125.776 29.408 125.12 29.816 124.352 30.088C123.6 30.376 122.76 30.52 121.832 30.52ZM121.856 23.512C122.704 23.512 123.456 23.312 124.112 22.912C124.784 22.496 125.312 21.928 125.696 21.208C126.08 20.488 126.272 19.656 126.272 18.712C126.272 17.784 126.08 16.96 125.696 16.24C125.328 15.52 124.808 14.952 124.136 14.536C123.464 14.12 122.704 13.912 121.856 13.912C120.992 13.912 120.224 14.12 119.552 14.536C118.896 14.952 118.376 15.52 117.992 16.24C117.608 16.96 117.416 17.784 117.416 18.712C117.416 19.624 117.6 20.448 117.968 21.184C118.352 21.904 118.872 22.472 119.528 22.888C120.2 23.304 120.976 23.512 121.856 23.512ZM137.045 25.24C135.797 25.24 134.685 24.968 133.709 24.424C132.749 23.88 131.997 23.12 131.453 22.144C130.909 21.168 130.637 20.048 130.637 18.784C130.637 17.808 130.789 16.928 131.093 16.144C131.397 15.344 131.821 14.648 132.365 14.056C132.925 13.464 133.589 13.008 134.357 12.688C135.125 12.352 135.957 12.184 136.853 12.184C137.701 12.184 138.469 12.336 139.157 12.64C139.861 12.944 140.461 13.368 140.957 13.912C141.469 14.44 141.853 15.072 142.109 15.808C142.365 16.544 142.477 17.352 142.445 18.232L142.421 19.072H131.981L131.717 17.56H141.053L140.621 17.968V17.392C140.589 16.816 140.421 16.264 140.117 15.736C139.813 15.192 139.381 14.752 138.821 14.416C138.277 14.08 137.621 13.912 136.853 13.912C135.957 13.912 135.181 14.096 134.525 14.464C133.869 14.816 133.365 15.344 133.013 16.048C132.661 16.752 132.485 17.624 132.485 18.664C132.485 19.656 132.677 20.52 133.061 21.256C133.445 21.976 133.989 22.536 134.693 22.936C135.413 23.336 136.277 23.536 137.285 23.536C137.877 23.536 138.461 23.44 139.037 23.248C139.629 23.04 140.277 22.64 140.981 22.048L141.917 23.344C141.549 23.712 141.109 24.04 140.597 24.328C140.085 24.6 139.525 24.824 138.917 25C138.309 25.16 137.685 25.24 137.045 25.24ZM144.978 25V12.472H146.778L146.826 15.328L146.466 15.448C146.594 14.968 146.802 14.536 147.09 14.152C147.394 13.752 147.754 13.408 148.17 13.12C148.586 12.832 149.042 12.616 149.538 12.472C150.034 12.312 150.554 12.232 151.098 12.232C151.754 12.232 152.338 12.344 152.85 12.568C153.378 12.776 153.818 13.144 154.17 13.672C154.538 14.184 154.818 14.864 155.01 15.712L154.578 15.496L154.746 15.088C154.906 14.72 155.138 14.368 155.442 14.032C155.762 13.68 156.122 13.368 156.522 13.096C156.938 12.824 157.386 12.616 157.866 12.472C158.362 12.312 158.866 12.232 159.378 12.232C160.258 12.232 161.002 12.424 161.61 12.808C162.218 13.176 162.674 13.744 162.978 14.512C163.298 15.28 163.458 16.256 163.458 17.44V25H161.61V17.536C161.61 16.704 161.506 16.024 161.298 15.496C161.09 14.968 160.778 14.576 160.362 14.32C159.962 14.048 159.45 13.912 158.826 13.912C158.282 13.912 157.778 14.008 157.314 14.2C156.866 14.376 156.474 14.632 156.138 14.968C155.818 15.288 155.562 15.656 155.37 16.072C155.194 16.488 155.106 16.936 155.106 17.416V25H153.282V17.512C153.282 16.712 153.17 16.048 152.946 15.52C152.738 14.992 152.426 14.592 152.01 14.32C151.594 14.048 151.082 13.912 150.474 13.912C149.946 13.912 149.458 14.008 149.01 14.2C148.562 14.376 148.17 14.624 147.834 14.944C147.514 15.264 147.258 15.632 147.066 16.048C146.89 16.464 146.802 16.912 146.802 17.392V25H144.978Z" fill="url(#paint0_linear_300_135)"/>
<defs>
<linearGradient id="paint0_linear_300_135" x1="166" y1="16" x2="42" y2="16" gradientUnits="userSpaceOnUse">
<stop stop-color="#43A3D5"/>
<stop offset="1" stop-color="#9C60DA"/>
</linearGradient>
<clipPath id="clip0_300_135">
<rect width="32" height="32" fill="white"/>
</clipPath>
</defs>
</svg>
