<svg width="237" height="60" viewBox="0 0 237 60" fill="none" xmlns="http://www.w3.org/2000/svg">
<g clip-path="url(#clip0_886_5189)">
<path d="M12 30C10.35 30 8.9375 29.4125 7.7625 28.2375C6.5875 27.0625 6 25.65 6 24C6 22.35 6.5875 20.9375 7.7625 19.7625C8.9375 18.5875 10.35 18 12 18C13.65 18 15.0625 18.5875 16.2375 19.7625C17.4125 20.9375 18 22.35 18 24C18 25.65 17.4125 27.0625 16.2375 28.2375C15.0625 29.4125 13.65 30 12 30ZM0 42V37.8C0 36.95 0.219 36.169 0.657 35.457C1.095 34.745 1.676 34.201 2.4 33.825C3.95 33.05 5.525 32.469 7.125 32.082C8.725 31.695 10.35 31.501 12 31.5C13.65 31.499 15.275 31.693 16.875 32.082C18.475 32.471 20.05 33.052 21.6 33.825C22.325 34.2 22.9065 34.744 23.3445 35.457C23.7825 36.17 24.001 36.951 24 37.8V42H0Z" fill="#9C60DA"/>
</g>
<path d="M37.296 42V19.6H50.864V22.032H39.792V39.568H50.8V42H37.296ZM38.448 31.696V29.264H49.072V31.696H38.448ZM62.12 42.32C60.6053 42.32 59.24 41.9467 58.024 41.2C56.8293 40.4533 55.88 39.4293 55.176 38.128C54.4933 36.8053 54.152 35.312 54.152 33.648C54.152 31.9627 54.504 30.4693 55.208 29.168C55.912 27.8453 56.8613 26.8107 58.056 26.064C59.2507 25.3173 60.5947 24.944 62.088 24.944C62.92 24.944 63.72 25.072 64.488 25.328C65.2773 25.584 65.9813 25.9467 66.6 26.416C67.2187 26.864 67.7307 27.3867 68.136 27.984C68.5413 28.56 68.7867 29.168 68.872 29.808L68.136 29.552V18.32H70.536V42H68.168L68.104 37.84L68.712 37.616C68.6267 38.2133 68.3813 38.8 67.976 39.376C67.592 39.9307 67.1013 40.432 66.504 40.88C65.9067 41.328 65.224 41.68 64.456 41.936C63.7093 42.192 62.9307 42.32 62.12 42.32ZM62.472 40.112C63.5813 40.112 64.5733 39.8347 65.448 39.28C66.3227 38.7253 67.0053 37.9573 67.496 36.976C68.008 35.9947 68.264 34.8747 68.264 33.616C68.264 32.3573 68.008 31.248 67.496 30.288C67.0053 29.3067 66.3227 28.5387 65.448 27.984C64.5733 27.408 63.5813 27.12 62.472 27.12C61.32 27.12 60.3067 27.408 59.432 27.984C58.5787 28.5387 57.896 29.3067 57.384 30.288C56.8933 31.248 56.648 32.3573 56.648 33.616C56.648 34.8533 56.8933 35.9627 57.384 36.944C57.8747 37.9253 58.5573 38.704 59.432 39.28C60.3067 39.8347 61.32 40.112 62.472 40.112ZM75.851 42V25.296H78.251V42H75.851ZM77.035 21.68C76.4377 21.68 75.979 21.5307 75.659 21.232C75.3603 20.912 75.211 20.4853 75.211 19.952C75.211 19.4187 75.371 18.992 75.691 18.672C76.011 18.352 76.459 18.192 77.035 18.192C77.611 18.192 78.059 18.352 78.379 18.672C78.699 18.9707 78.859 19.3973 78.859 19.952C78.859 20.464 78.699 20.88 78.379 21.2C78.059 21.52 77.611 21.68 77.035 21.68ZM85.7963 42V20.912H88.1963V42H85.7963ZM82.0203 27.6V25.296H92.4203V27.6H82.0203ZM101.739 42.32C100.288 42.32 98.9763 41.9467 97.803 41.2C96.6297 40.432 95.7017 39.3973 95.019 38.096C94.3363 36.7733 93.995 35.28 93.995 33.616C93.995 31.9307 94.347 30.4373 95.051 29.136C95.755 27.8347 96.6937 26.8107 97.867 26.064C99.0617 25.3173 100.395 24.944 101.867 24.944C102.742 24.944 103.552 25.072 104.299 25.328C105.046 25.584 105.707 25.9467 106.283 26.416C106.88 26.864 107.371 27.3973 107.755 28.016C108.16 28.6133 108.438 29.264 108.587 29.968L107.883 29.616L107.979 25.296H110.379V42H107.947V37.904L108.587 37.488C108.438 38.128 108.15 38.7467 107.723 39.344C107.296 39.92 106.774 40.432 106.155 40.88C105.558 41.328 104.875 41.68 104.107 41.936C103.36 42.192 102.571 42.32 101.739 42.32ZM102.283 40.016C103.392 40.016 104.384 39.7493 105.259 39.216C106.134 38.6613 106.816 37.904 107.307 36.944C107.819 35.9627 108.075 34.8533 108.075 33.616C108.075 32.3787 107.819 31.28 107.307 30.32C106.816 29.36 106.134 28.6027 105.259 28.048C104.384 27.4933 103.392 27.216 102.283 27.216C101.152 27.216 100.15 27.4933 99.275 28.048C98.4217 28.6027 97.739 29.36 97.227 30.32C96.7363 31.28 96.491 32.3787 96.491 33.616C96.491 34.832 96.7363 35.9307 97.227 36.912C97.7177 37.872 98.4003 38.6293 99.275 39.184C100.15 39.7387 101.152 40.016 102.283 40.016ZM115.055 42V25.296H117.455L117.519 29.744L117.263 29.136C117.497 28.3893 117.871 27.696 118.383 27.056C118.916 26.416 119.545 25.904 120.271 25.52C120.996 25.136 121.796 24.944 122.671 24.944C123.033 24.944 123.375 24.976 123.695 25.04C124.015 25.0827 124.281 25.1467 124.495 25.232L123.823 27.92C123.545 27.792 123.257 27.7067 122.959 27.664C122.681 27.6 122.415 27.568 122.159 27.568C121.433 27.568 120.783 27.696 120.207 27.952C119.631 28.208 119.14 28.5707 118.735 29.04C118.329 29.488 118.02 30.0107 117.807 30.608C117.593 31.2053 117.487 31.8453 117.487 32.528V42H115.055ZM146.201 42.32C144.601 42.32 143.129 42.0427 141.785 41.488C140.441 40.912 139.278 40.112 138.297 39.088C137.316 38.0427 136.548 36.816 135.993 35.408C135.46 34 135.193 32.464 135.193 30.8C135.193 29.1573 135.46 27.6533 135.993 26.288C136.548 24.9013 137.326 23.696 138.329 22.672C139.332 21.6267 140.494 20.8267 141.817 20.272C143.14 19.7173 144.59 19.44 146.169 19.44C147.214 19.44 148.249 19.6107 149.273 19.952C150.297 20.272 151.236 20.72 152.089 21.296C152.964 21.872 153.678 22.5333 154.233 23.28L152.505 25.072C151.972 24.432 151.353 23.8773 150.649 23.408C149.966 22.9387 149.241 22.576 148.473 22.32C147.705 22.064 146.937 21.936 146.169 21.936C144.974 21.936 143.854 22.16 142.809 22.608C141.785 23.0347 140.9 23.6427 140.153 24.432C139.406 25.2213 138.82 26.16 138.393 27.248C137.988 28.336 137.785 29.52 137.785 30.8C137.785 32.1227 137.988 33.3387 138.393 34.448C138.82 35.5573 139.417 36.5173 140.185 37.328C140.974 38.1173 141.892 38.736 142.937 39.184C144.004 39.6107 145.188 39.824 146.489 39.824C147.257 39.824 148.025 39.7173 148.793 39.504C149.561 39.2693 150.265 38.9493 150.905 38.544C151.545 38.1387 152.089 37.68 152.537 37.168L153.817 39.248C153.326 39.8453 152.665 40.3787 151.833 40.848C151.022 41.296 150.126 41.6587 149.145 41.936C148.164 42.192 147.182 42.32 146.201 42.32ZM157.65 42V18.32H160.05V42H157.65ZM165.414 42V25.296H167.814V42H165.414ZM166.598 21.68C166 21.68 165.542 21.5307 165.222 21.232C164.923 20.912 164.774 20.4853 164.774 19.952C164.774 19.4187 164.934 18.992 165.254 18.672C165.574 18.352 166.022 18.192 166.598 18.192C167.174 18.192 167.622 18.352 167.942 18.672C168.262 18.9707 168.422 19.3973 168.422 19.952C168.422 20.464 168.262 20.88 167.942 21.2C167.622 21.52 167.174 21.68 166.598 21.68ZM180.415 42.32C178.751 42.32 177.268 41.9573 175.967 41.232C174.687 40.5067 173.684 39.4933 172.959 38.192C172.233 36.8907 171.871 35.3973 171.871 33.712C171.871 32.4107 172.073 31.2373 172.479 30.192C172.884 29.1253 173.449 28.1973 174.175 27.408C174.921 26.6187 175.807 26.0107 176.831 25.584C177.855 25.136 178.964 24.912 180.159 24.912C181.289 24.912 182.313 25.1147 183.231 25.52C184.169 25.9253 184.969 26.4907 185.631 27.216C186.313 27.92 186.825 28.7627 187.167 29.744C187.508 30.7253 187.657 31.8027 187.615 32.976L187.583 34.096H173.663L173.311 32.08H185.759L185.183 32.624V31.856C185.14 31.088 184.916 30.352 184.511 29.648C184.105 28.9227 183.529 28.336 182.783 27.888C182.057 27.44 181.183 27.216 180.159 27.216C178.964 27.216 177.929 27.4613 177.055 27.952C176.18 28.4213 175.508 29.1253 175.039 30.064C174.569 31.0027 174.335 32.1653 174.335 33.552C174.335 34.8747 174.591 36.0267 175.103 37.008C175.615 37.968 176.34 38.7147 177.279 39.248C178.239 39.7813 179.391 40.048 180.735 40.048C181.524 40.048 182.303 39.92 183.071 39.664C183.86 39.3867 184.724 38.8533 185.663 38.064L186.911 39.792C186.42 40.2827 185.833 40.72 185.151 41.104C184.468 41.4667 183.721 41.7653 182.911 42C182.1 42.2133 181.268 42.32 180.415 42.32ZM191.024 42V25.296H193.391L193.488 28.784L193.104 28.944C193.317 28.2187 193.733 27.5573 194.352 26.96C194.97 26.3627 195.706 25.8827 196.56 25.52C197.434 25.136 198.33 24.944 199.248 24.944C200.485 24.944 201.52 25.1893 202.352 25.68C203.184 26.1707 203.813 26.928 204.24 27.952C204.666 28.976 204.88 30.2773 204.88 31.856V42H202.448V31.984C202.448 30.8747 202.298 29.968 202 29.264C201.722 28.5387 201.285 28.0053 200.688 27.664C200.09 27.3227 199.354 27.1627 198.48 27.184C197.754 27.184 197.082 27.312 196.464 27.568C195.845 27.8027 195.312 28.1333 194.864 28.56C194.416 28.9867 194.064 29.4773 193.808 30.032C193.552 30.5867 193.424 31.184 193.424 31.824V42H192.24C192.09 42 191.92 42 191.728 42C191.536 42 191.301 42 191.024 42ZM211.765 42V20.912H214.165V42H211.765ZM207.989 27.6V25.296H218.389V27.6H207.989ZM228.54 42.32C226.876 42.32 225.393 41.9573 224.092 41.232C222.812 40.5067 221.809 39.4933 221.084 38.192C220.358 36.8907 219.996 35.3973 219.996 33.712C219.996 32.4107 220.198 31.2373 220.604 30.192C221.009 29.1253 221.574 28.1973 222.3 27.408C223.046 26.6187 223.932 26.0107 224.956 25.584C225.98 25.136 227.089 24.912 228.284 24.912C229.414 24.912 230.438 25.1147 231.356 25.52C232.294 25.9253 233.094 26.4907 233.756 27.216C234.438 27.92 234.95 28.7627 235.292 29.744C235.633 30.7253 235.782 31.8027 235.74 32.976L235.708 34.096H221.788L221.436 32.08H233.884L233.308 32.624V31.856C233.265 31.088 233.041 30.352 232.636 29.648C232.23 28.9227 231.654 28.336 230.908 27.888C230.182 27.44 229.308 27.216 228.284 27.216C227.089 27.216 226.054 27.4613 225.18 27.952C224.305 28.4213 223.633 29.1253 223.164 30.064C222.694 31.0027 222.46 32.1653 222.46 33.552C222.46 34.8747 222.716 36.0267 223.228 37.008C223.74 37.968 224.465 38.7147 225.404 39.248C226.364 39.7813 227.516 40.048 228.86 40.048C229.649 40.048 230.428 39.92 231.196 39.664C231.985 39.3867 232.849 38.8533 233.788 38.064L235.036 39.792C234.545 40.2827 233.958 40.72 233.276 41.104C232.593 41.4667 231.846 41.7653 231.036 42C230.225 42.2133 229.393 42.32 228.54 42.32Z" fill="url(#paint0_linear_886_5189)"/>
<defs>
<linearGradient id="paint0_linear_886_5189" x1="237" y1="30" x2="34" y2="30" gradientUnits="userSpaceOnUse">
<stop stop-color="#43A3D5"/>
<stop offset="1" stop-color="#9C60DA"/>
</linearGradient>
<clipPath id="clip0_886_5189">
<rect width="24" height="24" fill="white" transform="translate(0 18)"/>
</clipPath>
</defs>
</svg>
