<svg width="90" height="17" viewBox="0 0 90 17" fill="none" xmlns="http://www.w3.org/2000/svg">
<rect x="1" y="9" width="6" height="6" rx="1" fill="#E1DDF4"/>
<rect x="9" y="9" width="6" height="6" rx="1" fill="#E1DDF4"/>
<rect x="5" y="1" width="6" height="6" rx="1" fill="#E1DDF4"/>
<path d="M19.2201 13V4.6H25.0761V6.34H21.2001V11.26H25.1961V13H19.2201ZM20.1801 9.556V7.9H24.5361V9.556H20.1801ZM26.7384 13V6.628H28.5624L28.6224 7.78L28.3704 7.792C28.4664 7.584 28.5864 7.4 28.7304 7.24C28.8824 7.08 29.0504 6.948 29.2344 6.844C29.4264 6.732 29.6224 6.648 29.8224 6.592C30.0304 6.536 30.2384 6.508 30.4464 6.508C30.7584 6.508 31.0424 6.556 31.2984 6.652C31.5544 6.748 31.7784 6.904 31.9704 7.12C32.1624 7.328 32.3144 7.612 32.4264 7.972L32.1264 7.948L32.2224 7.756C32.3264 7.564 32.4584 7.392 32.6184 7.24C32.7864 7.08 32.9704 6.948 33.1704 6.844C33.3704 6.732 33.5784 6.648 33.7944 6.592C34.0104 6.536 34.2184 6.508 34.4184 6.508C34.9224 6.508 35.3424 6.608 35.6784 6.808C36.0144 7 36.2664 7.292 36.4344 7.684C36.6104 8.076 36.6984 8.552 36.6984 9.112V13H34.7664V9.268C34.7664 9.012 34.7304 8.8 34.6584 8.632C34.5864 8.464 34.4784 8.34 34.3344 8.26C34.1984 8.172 34.0264 8.128 33.8184 8.128C33.6504 8.128 33.4944 8.156 33.3504 8.212C33.2144 8.268 33.0944 8.344 32.9904 8.44C32.8944 8.536 32.8184 8.648 32.7624 8.776C32.7064 8.904 32.6784 9.048 32.6784 9.208V13H30.7464V9.256C30.7464 9.016 30.7104 8.812 30.6384 8.644C30.5664 8.476 30.4584 8.348 30.3144 8.26C30.1704 8.172 30.0024 8.128 29.8104 8.128C29.6424 8.128 29.4864 8.156 29.3424 8.212C29.2064 8.268 29.0864 8.344 28.9824 8.44C28.8864 8.536 28.8104 8.648 28.7544 8.776C28.6984 8.904 28.6704 9.044 28.6704 9.196V13H26.7384ZM42.3412 13V4.6H48.1972V6.34H44.3212V11.26H48.3172V13H42.3412ZM43.3012 9.556V7.9H47.6572V9.556H43.3012ZM52.0195 13.12C51.3955 13.12 50.8435 13.02 50.3635 12.82C49.8915 12.62 49.5155 12.352 49.2355 12.016L50.3995 11.008C50.6475 11.256 50.9275 11.44 51.2395 11.56C51.5515 11.672 51.8475 11.728 52.1275 11.728C52.2395 11.728 52.3395 11.716 52.4275 11.692C52.5155 11.668 52.5875 11.636 52.6435 11.596C52.7075 11.548 52.7555 11.496 52.7875 11.44C52.8195 11.376 52.8355 11.304 52.8355 11.224C52.8355 11.064 52.7635 10.94 52.6195 10.852C52.5475 10.812 52.4275 10.764 52.2595 10.708C52.0915 10.652 51.8755 10.588 51.6115 10.516C51.2355 10.42 50.9075 10.308 50.6275 10.18C50.3555 10.044 50.1315 9.888 49.9555 9.712C49.7955 9.544 49.6715 9.36 49.5835 9.16C49.4955 8.952 49.4515 8.72 49.4515 8.464C49.4515 8.168 49.5195 7.9 49.6555 7.66C49.7995 7.42 49.9875 7.212 50.2195 7.036C50.4595 6.86 50.7315 6.728 51.0355 6.64C51.3475 6.544 51.6675 6.496 51.9955 6.496C52.3475 6.496 52.6835 6.536 53.0035 6.616C53.3235 6.696 53.6195 6.808 53.8915 6.952C54.1715 7.096 54.4195 7.268 54.6355 7.468L53.6275 8.596C53.4835 8.46 53.3195 8.34 53.1355 8.236C52.9595 8.124 52.7755 8.036 52.5835 7.972C52.3915 7.908 52.2155 7.876 52.0555 7.876C51.9355 7.876 51.8275 7.888 51.7315 7.912C51.6435 7.928 51.5675 7.96 51.5035 8.008C51.4395 8.048 51.3915 8.1 51.3595 8.164C51.3275 8.22 51.3115 8.288 51.3115 8.368C51.3115 8.448 51.3315 8.524 51.3715 8.596C51.4195 8.668 51.4835 8.728 51.5635 8.776C51.6435 8.824 51.7715 8.88 51.9475 8.944C52.1235 9 52.3635 9.072 52.6675 9.16C53.0435 9.264 53.3675 9.38 53.6395 9.508C53.9115 9.636 54.1275 9.788 54.2875 9.964C54.4155 10.1 54.5115 10.26 54.5755 10.444C54.6395 10.62 54.6715 10.812 54.6715 11.02C54.6715 11.428 54.5555 11.792 54.3235 12.112C54.0995 12.424 53.7875 12.672 53.3875 12.856C52.9875 13.032 52.5315 13.12 52.0195 13.12ZM56.3409 13V5.02H58.2609V13H56.3409ZM55.2129 8.308V6.628H59.4969V8.308H55.2129ZM63.5356 13.12C62.8716 13.12 62.2796 12.976 61.7596 12.688C61.2476 12.4 60.8396 12.008 60.5356 11.512C60.2396 11.016 60.0916 10.448 60.0916 9.808C60.0916 9.168 60.2396 8.6 60.5356 8.104C60.8396 7.608 61.2476 7.216 61.7596 6.928C62.2796 6.64 62.8716 6.496 63.5356 6.496C64.1996 6.496 64.7876 6.64 65.2996 6.928C65.8196 7.216 66.2276 7.608 66.5236 8.104C66.8196 8.6 66.9676 9.168 66.9676 9.808C66.9676 10.448 66.8196 11.016 66.5236 11.512C66.2276 12.008 65.8196 12.4 65.2996 12.688C64.7876 12.976 64.1996 13.12 63.5356 13.12ZM63.5356 11.464C63.8236 11.464 64.0796 11.392 64.3036 11.248C64.5276 11.104 64.7036 10.908 64.8316 10.66C64.9596 10.412 65.0196 10.128 65.0116 9.808C65.0196 9.488 64.9596 9.204 64.8316 8.956C64.7036 8.7 64.5276 8.5 64.3036 8.356C64.0796 8.212 63.8236 8.14 63.5356 8.14C63.2476 8.14 62.9876 8.212 62.7556 8.356C62.5316 8.5 62.3556 8.7 62.2276 8.956C62.0996 9.204 62.0396 9.488 62.0476 9.808C62.0396 10.128 62.0996 10.412 62.2276 10.66C62.3556 10.908 62.5316 11.104 62.7556 11.248C62.9876 11.392 63.2476 11.464 63.5356 11.464ZM72.4831 15.64V11.464L72.9031 11.56C72.8711 11.76 72.7871 11.956 72.6511 12.148C72.5151 12.332 72.3431 12.496 72.1351 12.64C71.9351 12.784 71.7071 12.9 71.4511 12.988C71.1951 13.068 70.9311 13.108 70.6591 13.108C70.0991 13.108 69.6031 12.968 69.1711 12.688C68.7391 12.4 68.3991 12.008 68.1511 11.512C67.9031 11.016 67.7791 10.448 67.7791 9.808C67.7791 9.16 67.8991 8.588 68.1391 8.092C68.3871 7.596 68.7231 7.208 69.1471 6.928C69.5791 6.64 70.0631 6.496 70.5991 6.496C70.9031 6.496 71.1911 6.54 71.4631 6.628C71.7351 6.716 71.9791 6.832 72.1951 6.976C72.4111 7.12 72.5871 7.288 72.7231 7.48C72.8591 7.664 72.9351 7.86 72.9511 8.068L72.5191 8.14L72.5911 6.628H74.4151V15.64H72.4831ZM71.0911 11.488C71.3871 11.488 71.6431 11.42 71.8591 11.284C72.0751 11.148 72.2431 10.956 72.3631 10.708C72.4831 10.452 72.5431 10.152 72.5431 9.808C72.5431 9.464 72.4831 9.168 72.3631 8.92C72.2431 8.664 72.0751 8.468 71.8591 8.332C71.6431 8.188 71.3871 8.116 71.0911 8.116C70.8031 8.116 70.5511 8.188 70.3351 8.332C70.1191 8.468 69.9511 8.664 69.8311 8.92C69.7191 9.176 69.6631 9.472 69.6631 9.808C69.6631 10.152 69.7191 10.452 69.8311 10.708C69.9511 10.956 70.1191 11.148 70.3351 11.284C70.5511 11.42 70.8031 11.488 71.0911 11.488ZM78.2935 13.132C77.8215 13.132 77.4175 13.032 77.0815 12.832C76.7535 12.624 76.4975 12.328 76.3135 11.944C76.1375 11.56 76.0495 11.1 76.0495 10.564V6.628H77.9815V10.3C77.9815 10.556 78.0215 10.776 78.1015 10.96C78.1815 11.144 78.3015 11.288 78.4615 11.392C78.6215 11.488 78.8135 11.536 79.0375 11.536C79.2055 11.536 79.3575 11.508 79.4935 11.452C79.6375 11.396 79.7575 11.32 79.8535 11.224C79.9575 11.12 80.0375 11.004 80.0935 10.876C80.1495 10.74 80.1775 10.592 80.1775 10.432V6.628H82.1095V13H80.2975L80.2135 11.692L80.5735 11.548C80.4775 11.852 80.3175 12.124 80.0935 12.364C79.8695 12.596 79.6015 12.784 79.2895 12.928C78.9775 13.064 78.6455 13.132 78.2935 13.132ZM86.8568 13.12C86.1528 13.12 85.5408 12.98 85.0208 12.7C84.5008 12.412 84.0968 12.024 83.8088 11.536C83.5208 11.04 83.3768 10.476 83.3768 9.844C83.3768 9.356 83.4568 8.908 83.6168 8.5C83.7768 8.092 84.0008 7.74 84.2888 7.444C84.5768 7.14 84.9168 6.908 85.3088 6.748C85.7088 6.58 86.1448 6.496 86.6168 6.496C87.0648 6.496 87.4728 6.576 87.8408 6.736C88.2168 6.896 88.5408 7.12 88.8128 7.408C89.0848 7.696 89.2928 8.036 89.4368 8.428C89.5808 8.82 89.6448 9.248 89.6288 9.712L89.6168 10.228H84.5408L84.2648 9.148H88.0568L87.8528 9.376V9.136C87.8368 8.936 87.7728 8.76 87.6608 8.608C87.5568 8.448 87.4168 8.324 87.2408 8.236C87.0648 8.148 86.8648 8.104 86.6408 8.104C86.3288 8.104 86.0608 8.168 85.8368 8.296C85.6208 8.416 85.4568 8.596 85.3448 8.836C85.2328 9.068 85.1768 9.356 85.1768 9.7C85.1768 10.052 85.2488 10.36 85.3928 10.624C85.5448 10.88 85.7608 11.08 86.0408 11.224C86.3288 11.368 86.6688 11.44 87.0608 11.44C87.3328 11.44 87.5728 11.4 87.7808 11.32C87.9968 11.24 88.2288 11.104 88.4768 10.912L89.3768 12.184C89.1288 12.4 88.8648 12.576 88.5848 12.712C88.3048 12.848 88.0168 12.948 87.7208 13.012C87.4328 13.084 87.1448 13.12 86.8568 13.12Z" fill="#E1DDF4"/>
</svg>
