<svg width="64" height="15" viewBox="0 0 64 15" fill="none" xmlns="http://www.w3.org/2000/svg">
<path d="M7.46667 7.49593C7.46667 6.90704 7.25833 6.40426 6.84167 5.9876C6.425 5.57093 5.92222 5.3626 5.33333 5.3626C4.74444 5.3626 4.24167 5.57093 3.825 5.9876C3.40833 6.40426 3.2 6.90704 3.2 7.49593C3.2 8.08482 3.40833 8.5876 3.825 9.00426C4.24167 9.42093 4.74444 9.62926 5.33333 9.62926C5.92222 9.62926 6.425 9.42093 6.84167 9.00426C7.25833 8.5876 7.46667 8.08482 7.46667 7.49593ZM13.8667 11.7626C13.8667 11.4737 13.7611 11.2237 13.55 11.0126C13.3389 10.8015 13.0889 10.6959 12.8 10.6959C12.5111 10.6959 12.2611 10.8015 12.05 11.0126C11.8389 11.2237 11.7333 11.4737 11.7333 11.7626C11.7333 12.057 11.8375 12.3084 12.0458 12.5168C12.2542 12.7251 12.5056 12.8293 12.8 12.8293C13.0944 12.8293 13.3458 12.7251 13.5542 12.5168C13.7625 12.3084 13.8667 12.057 13.8667 11.7626ZM13.8667 3.22926C13.8667 2.94038 13.7611 2.69038 13.55 2.47926C13.3389 2.26815 13.0889 2.1626 12.8 2.1626C12.5111 2.1626 12.2611 2.26815 12.05 2.47926C11.8389 2.69038 11.7333 2.94038 11.7333 3.22926C11.7333 3.52371 11.8375 3.7751 12.0458 3.98343C12.2542 4.19176 12.5056 4.29593 12.8 4.29593C13.0944 4.29593 13.3458 4.19176 13.5542 3.98343C13.7625 3.7751 13.8667 3.52371 13.8667 3.22926ZM10.6667 6.7376V8.27926C10.6667 8.33482 10.6472 8.38899 10.6083 8.44176C10.5694 8.49454 10.525 8.52371 10.475 8.52926L9.18333 8.72926C9.12222 8.92371 9.03333 9.13482 8.91667 9.3626C9.10556 9.62926 9.35556 9.94871 9.66667 10.3209C9.70556 10.382 9.725 10.4376 9.725 10.4876C9.725 10.5543 9.70556 10.607 9.66667 10.6459C9.53889 10.8126 9.30972 11.0612 8.97917 11.3918C8.64861 11.7223 8.43056 11.8876 8.325 11.8876C8.26389 11.8876 8.20556 11.8682 8.15 11.8293L7.19167 11.0793C6.98611 11.1848 6.77222 11.2709 6.55 11.3376C6.48889 11.9376 6.425 12.3682 6.35833 12.6293C6.31944 12.7626 6.23611 12.8293 6.10833 12.8293H4.55833C4.49722 12.8293 4.44167 12.8084 4.39167 12.7668C4.34167 12.7251 4.31389 12.6765 4.30833 12.6209L4.11667 11.3459C3.92778 11.2904 3.71944 11.2043 3.49167 11.0876L2.50833 11.8293C2.46944 11.8682 2.41389 11.8876 2.34167 11.8876C2.28056 11.8876 2.22222 11.8654 2.16667 11.8209C1.36667 11.082 0.966667 10.6376 0.966667 10.4876C0.966667 10.4376 0.986111 10.3848 1.025 10.3293C1.08056 10.2515 1.19444 10.1043 1.36667 9.8876C1.53889 9.67093 1.66944 9.50149 1.75833 9.37926C1.63056 9.13482 1.53333 8.90704 1.46667 8.69593L0.2 8.49593C0.144444 8.49038 0.0972222 8.46399 0.0583333 8.41676C0.0194444 8.36954 0 8.31538 0 8.25426V6.7126C0 6.65704 0.0194444 6.60288 0.0583333 6.5501C0.0972222 6.49732 0.141667 6.46815 0.191667 6.4626L1.48333 6.2626C1.54444 6.06815 1.63333 5.85704 1.75 5.62926C1.56111 5.3626 1.31111 5.04315 1 4.67093C0.961111 4.60982 0.941667 4.55426 0.941667 4.50426C0.941667 4.4376 0.961111 4.38204 1 4.3376C1.12222 4.17093 1.35 3.92371 1.68333 3.59593C2.01667 3.26815 2.23611 3.10426 2.34167 3.10426C2.40278 3.10426 2.46111 3.12371 2.51667 3.1626L3.475 3.9126C3.66389 3.8126 3.87778 3.72371 4.11667 3.64593C4.17778 3.04593 4.24167 2.61815 4.30833 2.3626C4.34722 2.22926 4.43056 2.1626 4.55833 2.1626H6.10833C6.16944 2.1626 6.225 2.18343 6.275 2.2251C6.325 2.26676 6.35278 2.31538 6.35833 2.37093L6.55 3.64593C6.73889 3.70149 6.94722 3.7876 7.175 3.90426L8.15833 3.1626C8.20278 3.12371 8.25833 3.10426 8.325 3.10426C8.38611 3.10426 8.44444 3.12649 8.5 3.17093C9.3 3.90982 9.7 4.35426 9.7 4.50426C9.7 4.54871 9.68056 4.60149 9.64167 4.6626C9.575 4.75149 9.45833 4.90149 9.29167 5.1126C9.125 5.32371 9 5.49038 8.91667 5.6126C9.04445 5.87926 9.13889 6.10704 9.2 6.29593L10.4667 6.4876C10.5222 6.49871 10.5694 6.52788 10.6083 6.5751C10.6472 6.62232 10.6667 6.67649 10.6667 6.7376ZM16 11.1793V12.3459C16 12.4348 15.5861 12.5209 14.7583 12.6043C14.6917 12.7543 14.6083 12.8987 14.5083 13.0376C14.7917 13.6654 14.9333 14.0487 14.9333 14.1876C14.9333 14.2098 14.9222 14.2293 14.9 14.2459C14.2222 14.6404 13.8778 14.8376 13.8667 14.8376C13.8222 14.8376 13.6944 14.707 13.4833 14.4459C13.2722 14.1848 13.1278 13.9959 13.05 13.8793C12.9389 13.8904 12.8556 13.8959 12.8 13.8959C12.7444 13.8959 12.6611 13.8904 12.55 13.8793C12.4722 13.9959 12.3278 14.1848 12.1167 14.4459C11.9056 14.707 11.7778 14.8376 11.7333 14.8376C11.7222 14.8376 11.3778 14.6404 10.7 14.2459C10.6778 14.2293 10.6667 14.2098 10.6667 14.1876C10.6667 14.0487 10.8083 13.6654 11.0917 13.0376C10.9917 12.8987 10.9083 12.7543 10.8417 12.6043C10.0139 12.5209 9.6 12.4348 9.6 12.3459V11.1793C9.6 11.0904 10.0139 11.0043 10.8417 10.9209C10.9139 10.7598 10.9972 10.6154 11.0917 10.4876C10.8083 9.85982 10.6667 9.47649 10.6667 9.3376C10.6667 9.31538 10.6778 9.29593 10.7 9.27926C10.7222 9.26815 10.8194 9.2126 10.9917 9.1126C11.1639 9.0126 11.3278 8.91815 11.4833 8.82926C11.6389 8.74037 11.7222 8.69593 11.7333 8.69593C11.7778 8.69593 11.9056 8.8251 12.1167 9.08343C12.3278 9.34176 12.4722 9.52926 12.55 9.64593C12.6611 9.63482 12.7444 9.62926 12.8 9.62926C12.8556 9.62926 12.9389 9.63482 13.05 9.64593C13.3333 9.25149 13.5889 8.94038 13.8167 8.7126L13.8667 8.69593C13.8889 8.69593 14.2333 8.89038 14.9 9.27926C14.9222 9.29593 14.9333 9.31538 14.9333 9.3376C14.9333 9.47649 14.7917 9.85982 14.5083 10.4876C14.6028 10.6154 14.6861 10.7598 14.7583 10.9209C15.5861 11.0043 16 11.0904 16 11.1793ZM16 2.64593V3.8126C16 3.90149 15.5861 3.9876 14.7583 4.07093C14.6917 4.22093 14.6083 4.36538 14.5083 4.50426C14.7917 5.13204 14.9333 5.51538 14.9333 5.65426C14.9333 5.67649 14.9222 5.69593 14.9 5.7126C14.2222 6.10704 13.8778 6.30426 13.8667 6.30426C13.8222 6.30426 13.6944 6.17371 13.4833 5.9126C13.2722 5.65149 13.1278 5.4626 13.05 5.34593C12.9389 5.35704 12.8556 5.3626 12.8 5.3626C12.7444 5.3626 12.6611 5.35704 12.55 5.34593C12.4722 5.4626 12.3278 5.65149 12.1167 5.9126C11.9056 6.17371 11.7778 6.30426 11.7333 6.30426C11.7222 6.30426 11.3778 6.10704 10.7 5.7126C10.6778 5.69593 10.6667 5.67649 10.6667 5.65426C10.6667 5.51538 10.8083 5.13204 11.0917 4.50426C10.9917 4.36538 10.9083 4.22093 10.8417 4.07093C10.0139 3.9876 9.6 3.90149 9.6 3.8126V2.64593C9.6 2.55704 10.0139 2.47093 10.8417 2.3876C10.9139 2.22649 10.9972 2.08204 11.0917 1.95426C10.8083 1.32649 10.6667 0.943153 10.6667 0.804264C10.6667 0.782042 10.6778 0.762598 10.7 0.745931C10.7222 0.73482 10.8194 0.679264 10.9917 0.579264C11.1639 0.479264 11.3278 0.38482 11.4833 0.295931C11.6389 0.207042 11.7222 0.162598 11.7333 0.162598C11.7778 0.162598 11.9056 0.291764 12.1167 0.550098C12.3278 0.808431 12.4722 0.995931 12.55 1.1126C12.6611 1.10149 12.7444 1.09593 12.8 1.09593C12.8556 1.09593 12.9389 1.10149 13.05 1.1126C13.3333 0.718153 13.5889 0.407042 13.8167 0.179264L13.8667 0.162598C13.8889 0.162598 14.2333 0.357042 14.9 0.745931C14.9222 0.762598 14.9333 0.782042 14.9333 0.804264C14.9333 0.943153 14.7917 1.32649 14.5083 1.95426C14.6028 2.08204 14.6861 2.22649 14.7583 2.3876C15.5861 2.47093 16 2.55704 16 2.64593Z" fill="#E1DDF4"/>
<path d="M19.1302 12V3.6H24.9862V5.34H21.1102V10.26H25.1062V12H19.1302ZM20.0902 8.556V6.9H24.4462V8.556H20.0902ZM26.6486 12V5.628H28.4726L28.5326 6.78L28.2806 6.792C28.3766 6.584 28.4966 6.4 28.6406 6.24C28.7926 6.08 28.9606 5.948 29.1446 5.844C29.3366 5.732 29.5326 5.648 29.7326 5.592C29.9406 5.536 30.1486 5.508 30.3566 5.508C30.6686 5.508 30.9526 5.556 31.2086 5.652C31.4646 5.748 31.6886 5.904 31.8806 6.12C32.0726 6.328 32.2246 6.612 32.3366 6.972L32.0366 6.948L32.1326 6.756C32.2366 6.564 32.3686 6.392 32.5286 6.24C32.6966 6.08 32.8806 5.948 33.0806 5.844C33.2806 5.732 33.4886 5.648 33.7046 5.592C33.9206 5.536 34.1286 5.508 34.3286 5.508C34.8326 5.508 35.2526 5.608 35.5886 5.808C35.9246 6 36.1766 6.292 36.3446 6.684C36.5206 7.076 36.6086 7.552 36.6086 8.112V12H34.6766V8.268C34.6766 8.012 34.6406 7.8 34.5686 7.632C34.4966 7.464 34.3886 7.34 34.2446 7.26C34.1086 7.172 33.9366 7.128 33.7286 7.128C33.5606 7.128 33.4046 7.156 33.2606 7.212C33.1246 7.268 33.0046 7.344 32.9006 7.44C32.8046 7.536 32.7286 7.648 32.6726 7.776C32.6166 7.904 32.5886 8.048 32.5886 8.208V12H30.6566V8.256C30.6566 8.016 30.6206 7.812 30.5486 7.644C30.4766 7.476 30.3686 7.348 30.2246 7.26C30.0806 7.172 29.9126 7.128 29.7206 7.128C29.5526 7.128 29.3966 7.156 29.2526 7.212C29.1166 7.268 28.9966 7.344 28.8926 7.44C28.7966 7.536 28.7206 7.648 28.6646 7.776C28.6086 7.904 28.5806 8.044 28.5806 8.196V12H26.6486ZM45.7913 12.072C45.0953 12.072 44.4753 11.932 43.9313 11.652C43.3873 11.364 42.9593 10.972 42.6473 10.476C42.3433 9.98 42.1913 9.412 42.1913 8.772V3.6H44.2553V8.664C44.2553 8.968 44.3233 9.244 44.4593 9.492C44.5953 9.732 44.7793 9.924 45.0113 10.068C45.2433 10.204 45.5033 10.272 45.7913 10.272C46.0953 10.272 46.3633 10.204 46.5953 10.068C46.8353 9.924 47.0273 9.732 47.1713 9.492C47.3153 9.244 47.3873 8.968 47.3873 8.664V3.6H49.3793V8.772C49.3793 9.412 49.2233 9.98 48.9113 10.476C48.6073 10.972 48.1833 11.364 47.6393 11.652C47.0953 11.932 46.4793 12.072 45.7913 12.072ZM53.3711 12.12C52.7471 12.12 52.1951 12.02 51.7151 11.82C51.2431 11.62 50.8671 11.352 50.5871 11.016L51.7511 10.008C51.9991 10.256 52.2791 10.44 52.5911 10.56C52.9031 10.672 53.1991 10.728 53.4791 10.728C53.5911 10.728 53.6911 10.716 53.7791 10.692C53.8671 10.668 53.9391 10.636 53.9951 10.596C54.0591 10.548 54.1071 10.496 54.1391 10.44C54.1711 10.376 54.1871 10.304 54.1871 10.224C54.1871 10.064 54.1151 9.94 53.9711 9.852C53.8991 9.812 53.7791 9.764 53.6111 9.708C53.4431 9.652 53.2271 9.588 52.9631 9.516C52.5871 9.42 52.2591 9.308 51.9791 9.18C51.7071 9.044 51.4831 8.888 51.3071 8.712C51.1471 8.544 51.0231 8.36 50.9351 8.16C50.8471 7.952 50.8031 7.72 50.8031 7.464C50.8031 7.168 50.8711 6.9 51.0071 6.66C51.1511 6.42 51.3391 6.212 51.5711 6.036C51.8111 5.86 52.0831 5.728 52.3871 5.64C52.6991 5.544 53.0191 5.496 53.3471 5.496C53.6991 5.496 54.0351 5.536 54.3551 5.616C54.6751 5.696 54.9711 5.808 55.2431 5.952C55.5231 6.096 55.7711 6.268 55.9871 6.468L54.9791 7.596C54.8351 7.46 54.6711 7.34 54.4871 7.236C54.3111 7.124 54.1271 7.036 53.9351 6.972C53.7431 6.908 53.5671 6.876 53.4071 6.876C53.2871 6.876 53.1791 6.888 53.0831 6.912C52.9951 6.928 52.9191 6.96 52.8551 7.008C52.7911 7.048 52.7431 7.1 52.7111 7.164C52.6791 7.22 52.6631 7.288 52.6631 7.368C52.6631 7.448 52.6831 7.524 52.7231 7.596C52.7711 7.668 52.8351 7.728 52.9151 7.776C52.9951 7.824 53.1231 7.88 53.2991 7.944C53.4751 8 53.7151 8.072 54.0191 8.16C54.3951 8.264 54.7191 8.38 54.9911 8.508C55.2631 8.636 55.4791 8.788 55.6391 8.964C55.7671 9.1 55.8631 9.26 55.9271 9.444C55.9911 9.62 56.0231 9.812 56.0231 10.02C56.0231 10.428 55.9071 10.792 55.6751 11.112C55.4511 11.424 55.1391 11.672 54.7391 11.856C54.3391 12.032 53.8831 12.12 53.3711 12.12ZM60.1645 12.12C59.5005 12.12 58.9085 11.976 58.3885 11.688C57.8765 11.4 57.4685 11.008 57.1645 10.512C56.8685 10.016 56.7205 9.448 56.7205 8.808C56.7205 8.168 56.8685 7.6 57.1645 7.104C57.4685 6.608 57.8765 6.216 58.3885 5.928C58.9085 5.64 59.5005 5.496 60.1645 5.496C60.8285 5.496 61.4165 5.64 61.9285 5.928C62.4485 6.216 62.8565 6.608 63.1525 7.104C63.4485 7.6 63.5965 8.168 63.5965 8.808C63.5965 9.448 63.4485 10.016 63.1525 10.512C62.8565 11.008 62.4485 11.4 61.9285 11.688C61.4165 11.976 60.8285 12.12 60.1645 12.12ZM60.1645 10.464C60.4525 10.464 60.7085 10.392 60.9325 10.248C61.1565 10.104 61.3325 9.908 61.4605 9.66C61.5885 9.412 61.6485 9.128 61.6405 8.808C61.6485 8.488 61.5885 8.204 61.4605 7.956C61.3325 7.7 61.1565 7.5 60.9325 7.356C60.7085 7.212 60.4525 7.14 60.1645 7.14C59.8765 7.14 59.6165 7.212 59.3845 7.356C59.1605 7.5 58.9845 7.7 58.8565 7.956C58.7285 8.204 58.6685 8.488 58.6765 8.808C58.6685 9.128 58.7285 9.412 58.8565 9.66C58.9845 9.908 59.1605 10.104 59.3845 10.248C59.6165 10.392 59.8765 10.464 60.1645 10.464Z" fill="#E1DDF4"/>
</svg>
