<svg width="16" height="16" viewBox="0 0 16 16" fill="none" xmlns="http://www.w3.org/2000/svg">
<path d="M15.7961 13.625V5.375C15.7961 4.61417 15.1819 4 14.4211 4H1.57861C0.81778 4 0.203613 4.61417 0.203613 5.375V13.625C0.203613 14.3858 0.81778 15 1.57861 15H14.4211C15.1819 15 15.7961 14.3858 15.7961 13.625ZM14.5953 5.27417C14.8978 5.57667 14.7328 5.88833 14.5678 6.04417L10.8461 9.45417L14.4211 13.1758C14.5311 13.3042 14.6044 13.5058 14.4761 13.6433C14.3569 13.79 14.0819 13.7808 13.9628 13.6892L9.95695 10.27L7.99528 12.0575L6.04278 10.27L2.03695 13.6892C1.91778 13.7808 1.64278 13.79 1.52361 13.6433C1.39528 13.5058 1.46861 13.3042 1.57861 13.1758L5.15361 9.45417L1.43195 6.04417C1.26695 5.88833 1.10195 5.57667 1.40445 5.27417C1.70695 4.97167 2.01861 5.11833 2.27528 5.33833L7.99528 9.95833L13.7244 5.33833C13.9811 5.11833 14.2928 4.97167 14.5953 5.27417Z" fill="#E1DDF4"/>
</svg>
