<svg width="120" height="47" viewBox="0 0 120 17" fill="none" xmlns="http://www.w3.org/2000/svg">
<path fill-rule="evenodd" clip-rule="evenodd" d="M7.99966 1.8335C11.6755 1.8335 14.6664 4.82434 14.6664 8.50015C14.6664 12.176 11.6755 15.1668 7.99966 15.1668C4.32385 15.1668 1.33301 12.176 1.33301 8.50015C1.33301 4.82434 4.32385 1.8335 7.99966 1.8335ZM8.02823 5.44125C7.39591 4.96031 6.56935 4.79446 5.97698 4.92843L7.0026 5.95406L6.48979 6.97968L5.46416 7.49253L4.43851 6.4669C4.30454 7.05928 4.47038 7.88584 4.95132 8.51815C5.60701 9.02246 6.41363 9.19259 7.00257 9.03096L9.34226 11.2521C9.78593 11.6435 10.2296 11.6174 10.6733 11.1738C11.1447 10.7024 11.1447 10.231 10.6733 9.75956C9.23162 8.34512 8.52088 7.58944 8.54107 7.49253C8.70263 6.90362 8.53251 6.09696 8.02826 5.44128" fill="#43A3D5"/>
<path d="M22.6654 13V4.6H28.5214V6.34H24.6454V11.26H28.6414V13H22.6654ZM23.6254 9.556V7.9H27.9814V9.556H23.6254ZM30.1838 13V6.628H32.0078L32.0678 7.78L31.8158 7.792C31.9118 7.584 32.0318 7.4 32.1758 7.24C32.3278 7.08 32.4958 6.948 32.6798 6.844C32.8718 6.732 33.0678 6.648 33.2678 6.592C33.4758 6.536 33.6838 6.508 33.8918 6.508C34.2038 6.508 34.4878 6.556 34.7438 6.652C34.9998 6.748 35.2238 6.904 35.4158 7.12C35.6078 7.328 35.7598 7.612 35.8718 7.972L35.5718 7.948L35.6678 7.756C35.7718 7.564 35.9038 7.392 36.0638 7.24C36.2318 7.08 36.4158 6.948 36.6158 6.844C36.8158 6.732 37.0238 6.648 37.2398 6.592C37.4558 6.536 37.6638 6.508 37.8638 6.508C38.3678 6.508 38.7878 6.608 39.1238 6.808C39.4598 7 39.7118 7.292 39.8798 7.684C40.0558 8.076 40.1438 8.552 40.1438 9.112V13H38.2118V9.268C38.2118 9.012 38.1758 8.8 38.1038 8.632C38.0318 8.464 37.9238 8.34 37.7798 8.26C37.6438 8.172 37.4718 8.128 37.2638 8.128C37.0958 8.128 36.9398 8.156 36.7958 8.212C36.6598 8.268 36.5398 8.344 36.4358 8.44C36.3398 8.536 36.2638 8.648 36.2078 8.776C36.1518 8.904 36.1237 9.048 36.1237 9.208V13H34.1918V9.256C34.1918 9.016 34.1558 8.812 34.0838 8.644C34.0118 8.476 33.9038 8.348 33.7598 8.26C33.6158 8.172 33.4478 8.128 33.2558 8.128C33.0878 8.128 32.9318 8.156 32.7878 8.212C32.6518 8.268 32.5318 8.344 32.4277 8.44C32.3318 8.536 32.2558 8.648 32.1998 8.776C32.1438 8.904 32.1158 9.044 32.1158 9.196V13H30.1838ZM45.7865 13V4.6H47.6105L50.6705 9.58L49.3625 9.568L52.4585 4.6H54.2105V13H52.2305V10.384C52.2305 9.664 52.2465 9.016 52.2785 8.44C52.3185 7.864 52.3825 7.292 52.4705 6.724L52.6985 7.348L50.3705 10.96H49.5785L47.2985 7.372L47.5265 6.724C47.6145 7.26 47.6745 7.812 47.7065 8.38C47.7465 8.94 47.7665 9.608 47.7665 10.384V13H45.7865ZM58.4696 13.108C57.9336 13.108 57.4536 12.968 57.0296 12.688C56.6136 12.4 56.2816 12.008 56.0336 11.512C55.7856 11.008 55.6616 10.44 55.6616 9.808C55.6616 9.16 55.7856 8.588 56.0336 8.092C56.2816 7.596 56.6216 7.208 57.0536 6.928C57.4856 6.64 57.9776 6.496 58.5296 6.496C58.8336 6.496 59.1096 6.54 59.3576 6.628C59.6136 6.716 59.8376 6.84 60.0296 7C60.2216 7.152 60.3856 7.332 60.5216 7.54C60.6576 7.74 60.7576 7.956 60.8216 8.188L60.4256 8.14V6.628H62.3336V13H60.3896V11.464L60.8216 11.452C60.7576 11.676 60.6536 11.888 60.5096 12.088C60.3656 12.288 60.1896 12.464 59.9816 12.616C59.7736 12.768 59.5416 12.888 59.2856 12.976C59.0296 13.064 58.7576 13.108 58.4696 13.108ZM58.9976 11.488C59.2936 11.488 59.5496 11.42 59.7656 11.284C59.9816 11.148 60.1496 10.956 60.2696 10.708C60.3896 10.452 60.4496 10.152 60.4496 9.808C60.4496 9.464 60.3896 9.168 60.2696 8.92C60.1496 8.664 59.9816 8.468 59.7656 8.332C59.5496 8.188 59.2936 8.116 58.9976 8.116C58.7096 8.116 58.4576 8.188 58.2416 8.332C58.0336 8.468 57.8696 8.664 57.7496 8.92C57.6296 9.168 57.5696 9.464 57.5696 9.808C57.5696 10.152 57.6296 10.452 57.7496 10.708C57.8696 10.956 58.0336 11.148 58.2416 11.284C58.4576 11.42 58.7096 11.488 58.9976 11.488ZM64.0278 13V6.628H65.8518L65.9118 7.924L65.5278 8.068C65.6158 7.78 65.7718 7.52 65.9958 7.288C66.2278 7.048 66.5038 6.856 66.8238 6.712C67.1438 6.568 67.4798 6.496 67.8318 6.496C68.3118 6.496 68.7158 6.596 69.0438 6.796C69.3718 6.988 69.6198 7.28 69.7878 7.672C69.9558 8.056 70.0398 8.528 70.0398 9.088V13H68.1078V9.244C68.1078 8.988 68.0718 8.776 67.9998 8.608C67.9278 8.44 67.8158 8.316 67.6638 8.236C67.5198 8.148 67.3398 8.108 67.1238 8.116C66.9558 8.116 66.7998 8.144 66.6558 8.2C66.5118 8.248 66.3878 8.324 66.2838 8.428C66.1798 8.524 66.0958 8.636 66.0318 8.764C65.9758 8.892 65.9478 9.032 65.9478 9.184V13H64.9998C64.7758 13 64.5838 13 64.4238 13C64.2638 13 64.1318 13 64.0278 13ZM73.817 13.132C73.345 13.132 72.941 13.032 72.605 12.832C72.277 12.624 72.021 12.328 71.837 11.944C71.661 11.56 71.573 11.1 71.573 10.564V6.628H73.505V10.3C73.505 10.556 73.545 10.776 73.625 10.96C73.705 11.144 73.825 11.288 73.985 11.392C74.145 11.488 74.337 11.536 74.561 11.536C74.729 11.536 74.881 11.508 75.017 11.452C75.161 11.396 75.281 11.32 75.377 11.224C75.481 11.12 75.561 11.004 75.617 10.876C75.673 10.74 75.701 10.592 75.701 10.432V6.628H77.633V13H75.821L75.737 11.692L76.097 11.548C76.001 11.852 75.841 12.124 75.617 12.364C75.393 12.596 75.125 12.784 74.813 12.928C74.501 13.064 74.169 13.132 73.817 13.132ZM79.8722 13V5.02H81.7922V13H79.8722ZM78.7442 8.308V6.628H83.0282V8.308H78.7442ZM87.1028 13.12C86.3988 13.12 85.7868 12.98 85.2668 12.7C84.7468 12.412 84.3428 12.024 84.0548 11.536C83.7668 11.04 83.6228 10.476 83.6228 9.844C83.6228 9.356 83.7028 8.908 83.8628 8.5C84.0228 8.092 84.2468 7.74 84.5348 7.444C84.8228 7.14 85.1628 6.908 85.5548 6.748C85.9548 6.58 86.3908 6.496 86.8628 6.496C87.3108 6.496 87.7188 6.576 88.0868 6.736C88.4628 6.896 88.7868 7.12 89.0588 7.408C89.3308 7.696 89.5388 8.036 89.6828 8.428C89.8268 8.82 89.8908 9.248 89.8748 9.712L89.8628 10.228H84.7868L84.5108 9.148H88.3028L88.0988 9.376V9.136C88.0828 8.936 88.0188 8.76 87.9068 8.608C87.8028 8.448 87.6628 8.324 87.4868 8.236C87.3108 8.148 87.1108 8.104 86.8868 8.104C86.5748 8.104 86.3068 8.168 86.0828 8.296C85.8668 8.416 85.7028 8.596 85.5908 8.836C85.4788 9.068 85.4228 9.356 85.4228 9.7C85.4228 10.052 85.4948 10.36 85.6388 10.624C85.7908 10.88 86.0068 11.08 86.2868 11.224C86.5748 11.368 86.9148 11.44 87.3068 11.44C87.5788 11.44 87.8188 11.4 88.0268 11.32C88.2428 11.24 88.4748 11.104 88.7228 10.912L89.6228 12.184C89.3748 12.4 89.1108 12.576 88.8308 12.712C88.5508 12.848 88.2628 12.948 87.9668 13.012C87.6788 13.084 87.3908 13.12 87.1028 13.12ZM91.0981 13V6.628H92.9221L92.9821 7.924L92.5981 8.068C92.6861 7.78 92.8421 7.52 93.0661 7.288C93.2981 7.048 93.5741 6.856 93.8941 6.712C94.2141 6.568 94.5501 6.496 94.9021 6.496C95.3821 6.496 95.7861 6.596 96.1141 6.796C96.4421 6.988 96.6901 7.28 96.8581 7.672C97.0261 8.056 97.1101 8.528 97.1101 9.088V13H95.1781V9.244C95.1781 8.988 95.1421 8.776 95.0701 8.608C94.9981 8.44 94.8861 8.316 94.7341 8.236C94.5901 8.148 94.4101 8.108 94.1941 8.116C94.0261 8.116 93.8701 8.144 93.7261 8.2C93.5821 8.248 93.4581 8.324 93.3541 8.428C93.2501 8.524 93.1661 8.636 93.1021 8.764C93.0461 8.892 93.0181 9.032 93.0181 9.184V13H92.0701C91.8461 13 91.6541 13 91.4941 13C91.3341 13 91.2021 13 91.0981 13ZM101.511 13.12C100.895 13.12 100.343 12.976 99.8553 12.688C99.3673 12.4 98.9793 12.008 98.6913 11.512C98.4113 11.008 98.2713 10.44 98.2713 9.808C98.2713 9.176 98.4113 8.612 98.6913 8.116C98.9793 7.612 99.3673 7.216 99.8553 6.928C100.343 6.64 100.895 6.496 101.511 6.496C102.079 6.496 102.599 6.596 103.071 6.796C103.551 6.996 103.931 7.276 104.211 7.636L103.167 8.884C103.055 8.756 102.923 8.636 102.771 8.524C102.619 8.412 102.451 8.324 102.267 8.26C102.083 8.196 101.891 8.164 101.691 8.164C101.387 8.164 101.119 8.236 100.887 8.38C100.655 8.516 100.475 8.708 100.347 8.956C100.219 9.204 100.155 9.488 100.155 9.808C100.155 10.112 100.219 10.388 100.347 10.636C100.483 10.884 100.667 11.08 100.899 11.224C101.131 11.368 101.395 11.44 101.691 11.44C101.899 11.44 102.091 11.416 102.267 11.368C102.443 11.312 102.603 11.232 102.747 11.128C102.899 11.024 103.039 10.896 103.167 10.744L104.199 12.004C103.927 12.348 103.547 12.62 103.059 12.82C102.579 13.02 102.063 13.12 101.511 13.12ZM100.335 15.952L100.215 15.052C100.383 15.052 100.555 15.032 100.731 14.992C100.915 14.952 101.067 14.892 101.187 14.812C101.315 14.74 101.379 14.66 101.379 14.572C101.379 14.476 101.331 14.4 101.235 14.344C101.147 14.288 101.039 14.244 100.911 14.212C100.783 14.188 100.655 14.176 100.527 14.176L100.323 14.008L101.151 12.712H102.135L101.583 13.516C101.999 13.564 102.307 13.692 102.507 13.9C102.715 14.116 102.819 14.372 102.819 14.668C102.819 14.916 102.739 15.12 102.579 15.28C102.427 15.448 102.227 15.584 101.979 15.688C101.731 15.792 101.463 15.864 101.175 15.904C100.887 15.944 100.607 15.96 100.335 15.952ZM107.606 13.108C107.07 13.108 106.59 12.968 106.166 12.688C105.75 12.4 105.418 12.008 105.17 11.512C104.922 11.008 104.798 10.44 104.798 9.808C104.798 9.16 104.922 8.588 105.17 8.092C105.418 7.596 105.758 7.208 106.19 6.928C106.622 6.64 107.114 6.496 107.666 6.496C107.97 6.496 108.246 6.54 108.494 6.628C108.75 6.716 108.974 6.84 109.166 7C109.358 7.152 109.522 7.332 109.658 7.54C109.794 7.74 109.894 7.956 109.958 8.188L109.562 8.14V6.628H111.47V13H109.526V11.464L109.958 11.452C109.894 11.676 109.79 11.888 109.646 12.088C109.502 12.288 109.326 12.464 109.118 12.616C108.91 12.768 108.678 12.888 108.422 12.976C108.166 13.064 107.894 13.108 107.606 13.108ZM108.134 11.488C108.43 11.488 108.686 11.42 108.902 11.284C109.118 11.148 109.286 10.956 109.406 10.708C109.526 10.452 109.586 10.152 109.586 9.808C109.586 9.464 109.526 9.168 109.406 8.92C109.286 8.664 109.118 8.468 108.902 8.332C108.686 8.188 108.43 8.116 108.134 8.116C107.846 8.116 107.594 8.188 107.378 8.332C107.17 8.468 107.006 8.664 106.886 8.92C106.766 9.168 106.706 9.464 106.706 9.808C106.706 10.152 106.766 10.452 106.886 10.708C107.006 10.956 107.17 11.148 107.378 11.284C107.594 11.42 107.846 11.488 108.134 11.488ZM109.19 5.632C109.054 5.632 108.914 5.608 108.77 5.56C108.626 5.512 108.462 5.424 108.278 5.296C108.142 5.184 108.03 5.108 107.942 5.068C107.854 5.02 107.782 4.996 107.726 4.996C107.614 4.996 107.514 5.044 107.426 5.14C107.338 5.228 107.282 5.372 107.258 5.572L106.19 5.416C106.198 4.968 106.326 4.584 106.574 4.264C106.822 3.944 107.154 3.784 107.57 3.784C107.706 3.784 107.842 3.808 107.978 3.856C108.114 3.904 108.274 3.988 108.458 4.108C108.562 4.196 108.658 4.272 108.746 4.336C108.842 4.392 108.934 4.42 109.022 4.42C109.134 4.42 109.23 4.372 109.31 4.276C109.398 4.172 109.45 4.028 109.466 3.844L110.546 4C110.538 4.28 110.478 4.548 110.366 4.804C110.254 5.052 110.094 5.252 109.886 5.404C109.686 5.556 109.454 5.632 109.19 5.632ZM116.165 13.12C115.501 13.12 114.909 12.976 114.389 12.688C113.877 12.4 113.469 12.008 113.165 11.512C112.869 11.016 112.721 10.448 112.721 9.808C112.721 9.168 112.869 8.6 113.165 8.104C113.469 7.608 113.877 7.216 114.389 6.928C114.909 6.64 115.501 6.496 116.165 6.496C116.829 6.496 117.417 6.64 117.929 6.928C118.449 7.216 118.857 7.608 119.153 8.104C119.449 8.6 119.597 9.168 119.597 9.808C119.597 10.448 119.449 11.016 119.153 11.512C118.857 12.008 118.449 12.4 117.929 12.688C117.417 12.976 116.829 13.12 116.165 13.12ZM116.165 11.464C116.453 11.464 116.709 11.392 116.933 11.248C117.157 11.104 117.333 10.908 117.461 10.66C117.589 10.412 117.649 10.128 117.641 9.808C117.649 9.488 117.589 9.204 117.461 8.956C117.333 8.7 117.157 8.5 116.933 8.356C116.709 8.212 116.453 8.14 116.165 8.14C115.877 8.14 115.617 8.212 115.385 8.356C115.161 8.5 114.985 8.7 114.857 8.956C114.729 9.204 114.669 9.488 114.677 9.808C114.669 10.128 114.729 10.412 114.857 10.66C114.985 10.908 115.161 11.104 115.385 11.248C115.617 11.392 115.877 11.464 116.165 11.464Z" fill="#43A3D5"/>
</svg>
