<svg width="25" height="24" viewBox="0 0 25 24" fill="none" xmlns="http://www.w3.org/2000/svg">
<path d="M8.25187 16.8592C8.24616 17.8374 8.57464 18.2801 9.258 18.6293C9.88139 18.9484 10.5012 18.8642 11.131 18.7621C14.0309 18.2908 16.7065 17.2669 19.0708 15.4948C19.7292 15.0014 20.3197 14.433 20.8017 13.7626C20.861 13.6805 20.8888 13.527 20.8553 13.4341C20.3197 11.964 19.7806 10.4946 19.2236 9.03226C18.7994 7.91841 18.1339 7.57926 16.9636 7.84272C15.9546 8.06978 15.0727 8.56816 14.2372 9.15008C12.1179 10.6252 10.3748 12.4588 9.05806 14.6851C8.62533 15.4184 8.28258 16.1881 8.25187 16.8592ZM9.96993 17.509C9.96065 17.4854 9.95208 17.4611 9.9428 17.4376C9.60147 17.4447 9.47365 17.3498 9.55506 17.0106C9.67431 16.5144 9.81927 16.0096 10.0492 15.5576C10.8183 14.0482 11.9308 12.7994 13.1604 11.6527C14.153 10.7266 15.2148 9.88908 16.473 9.34643C16.8186 9.19792 17.1978 9.10795 17.5705 9.04655C17.864 8.99871 17.9854 9.12009 17.934 9.41712C17.8662 9.80625 17.7719 10.2025 17.6119 10.5624C16.9964 11.9483 16.0431 13.0985 14.9949 14.1731C13.9209 15.2734 12.7577 16.2666 11.3731 16.9599C10.9261 17.1848 10.4391 17.3291 9.96993 17.509Z" fill="#E1DDF4"/>
<path d="M21.4487 15.0292C19.0022 17.6182 15.9124 18.9413 12.552 19.8224C12.622 19.8581 12.6706 19.8902 12.7241 19.9102C13.7652 20.2965 14.8056 20.687 15.8518 21.0598C16.0253 21.1219 16.2345 21.1419 16.4166 21.114C17.8733 20.8905 19.295 20.545 20.6011 19.8302C21.328 19.4325 21.9699 18.9313 22.4377 18.2358C22.4948 18.1509 22.5462 18.0116 22.5162 17.9274C22.1727 16.9656 21.8128 16.0096 21.4487 15.0292Z" fill="#E1DDF4"/>
<path d="M10.4591 1.91645C10.2406 2.23133 10.0563 2.48194 9.88853 2.74327C9.63432 3.13812 9.4965 3.56295 9.62361 4.03563C9.79427 4.67181 10.2784 5.06666 10.9768 5.14091C11.2681 5.17162 11.5616 5.18732 11.8808 5.21231C11.8458 5.27372 11.8165 5.33227 11.7815 5.38653C11.6373 5.61073 11.4738 5.82493 11.3488 6.05913C10.9611 6.78385 11.1232 7.53356 11.778 8.02765C12.3521 8.46106 13.0347 8.59529 13.7288 8.67098C13.9523 8.69525 14.098 8.55531 14.1451 8.33682C14.2022 8.07621 14.2558 7.81488 14.2944 7.5507C14.3443 7.21154 14.2265 7.05517 13.8902 6.9802C13.5717 6.9088 13.254 6.83811 12.9005 6.75957C13.1097 6.45755 13.2925 6.20693 13.4603 5.94632C13.721 5.54433 13.8638 5.11235 13.7302 4.62968C13.5567 4.00492 13.0797 3.61436 12.3935 3.53868C12.095 3.50583 11.7951 3.48941 11.4652 3.46371C11.6202 3.23165 11.7723 3.01816 11.9101 2.79539C12.4749 1.87932 12.2428 0.9304 11.2724 0.46915C10.784 0.237097 10.2284 0.137136 9.69501 0.013612C9.43366 -0.0470788 9.27228 0.092153 9.21087 0.354194C9.15018 0.614094 9.09948 0.876135 9.06092 1.1396C9.01379 1.46519 9.12947 1.61942 9.45366 1.69296C9.77285 1.76651 10.092 1.83576 10.4591 1.91645Z" fill="#E1DDF4"/>
<path d="M5.7262 11.3828C5.67907 10.9808 5.66764 10.5959 5.5841 10.2268C5.36702 9.26717 4.42087 8.80664 3.53399 9.23576C3.15411 9.41926 2.81206 9.6813 2.4129 9.93263C2.34435 9.6356 2.26865 9.35428 2.2151 9.06939C2.1287 8.61028 1.96731 8.49176 1.51388 8.57958C1.29537 8.62171 1.07544 8.65741 0.859787 8.70882C0.59201 8.77237 0.471331 8.92159 0.504892 9.1872C0.577013 9.7627 0.693409 10.3289 0.987608 10.8401C1.50103 11.7319 2.38505 11.9626 3.26122 11.4299C3.494 11.2885 3.71465 11.1286 3.96029 10.9644C3.98528 11.28 4.00242 11.5699 4.03241 11.8583C4.15666 13.0586 5.24277 13.6319 6.29674 13.0443C6.61379 12.8679 6.90442 12.6444 7.25288 12.4117C7.32429 12.7151 7.40212 12.9936 7.45425 13.2763C7.5428 13.7547 7.69847 13.869 8.17047 13.7761C8.37969 13.7347 8.59106 13.7019 8.79885 13.654C9.08091 13.5884 9.2023 13.4391 9.16589 13.1585C9.09305 12.5923 8.97809 12.0347 8.69174 11.5299C8.1769 10.6245 7.28716 10.3917 6.40028 10.9337C6.17392 11.0715 5.95756 11.2278 5.7262 11.3828Z" fill="#E1DDF4"/>
<path d="M1.41534 4.36978C1.41462 4.89172 1.35321 4.95099 1.98017 5.01311C4.12025 5.22445 5.90115 6.23263 7.46925 7.63281C8.10192 8.1983 8.6389 8.87161 9.20516 9.50922C9.43652 9.76984 9.47936 9.79483 9.77499 9.59705C9.91566 9.5028 10.0571 9.41069 10.1963 9.31501C10.4355 9.15079 10.4576 9.04226 10.2891 8.81306C9.01379 7.07659 7.42426 5.7057 5.49984 4.73321C4.40302 4.17914 3.24479 3.82214 2.01373 3.72004C1.94304 3.71432 1.87163 3.7079 1.80094 3.70576C1.50674 3.69647 1.42034 3.78001 1.41534 4.07633C1.41391 4.17343 1.41534 4.27196 1.41534 4.36978Z" fill="#E1DDF4"/>
<path d="M23.0982 19.5082C21.86 20.8634 20.2683 21.5496 18.4753 22.0365C18.9137 22.2007 19.2729 22.3357 19.6328 22.4699C20.9231 22.9512 22.2156 23.4281 23.5038 23.9172C23.8037 24.0307 24.0764 24.0557 24.3171 23.813C24.5584 23.5702 24.527 23.2967 24.4135 22.9983C24.0058 21.9266 23.6123 20.8498 23.2124 19.776C23.1817 19.6931 23.1439 19.6132 23.0982 19.5082Z" fill="#E1DDF4"/>
<path d="M15.5269 2.83609C15.5269 3.08528 15.529 3.33447 15.5261 3.58295C15.524 3.80286 15.6254 3.91353 15.8482 3.91139C16.0617 3.90925 16.2752 3.90925 16.4887 3.91139C16.7115 3.91353 16.8115 3.80215 16.81 3.58223C16.8072 3.08385 16.8086 2.58619 16.8093 2.08781C16.8093 1.88075 16.7115 1.77293 16.5016 1.77293C16.2795 1.77293 16.0567 1.77293 15.8346 1.77293C15.6247 1.77293 15.5261 1.88146 15.5269 2.08781C15.5276 2.33771 15.5269 2.5869 15.5269 2.83609Z" fill="#E1DDF4"/>
<path d="M5.06854 16.3109C5.30847 16.3109 5.54911 16.3087 5.78904 16.3116C6.00826 16.3144 6.12108 16.2145 6.11894 15.991C6.11751 15.7689 6.11965 15.5462 6.11751 15.3241C6.11537 15.1285 6.01326 15.0292 5.81831 15.0292C5.30275 15.0285 4.78648 15.0271 4.27092 15.0299C4.07383 15.0314 3.98171 15.1413 3.981 15.3341C3.981 15.5562 3.981 15.7789 3.981 16.001C3.981 16.2095 4.0874 16.3109 4.29448 16.3102C4.55298 16.3109 4.81076 16.3109 5.06854 16.3109Z" fill="#E1DDF4"/>
<path d="M2.36505 0.985379C2.3979 1.04321 2.42075 1.1139 2.46717 1.16103C2.83492 1.53517 3.20552 1.90717 3.57898 2.27559C3.71751 2.41197 3.86175 2.40269 3.99957 2.26417C4.15595 2.10637 4.31305 1.94929 4.47086 1.79221C4.62081 1.64298 4.61082 1.49732 4.46514 1.35238C4.10668 0.993947 3.75535 0.626946 3.38261 0.284222C3.30906 0.216391 3.10555 0.181404 3.03985 0.232099C2.81706 0.404889 2.62783 0.621234 2.43075 0.826155C2.3979 0.861141 2.39076 0.921118 2.36505 0.985379Z" fill="#E1DDF4"/>
</svg>
