<svg width="24" height="24" viewBox="0 0 24 24" fill="none" xmlns="http://www.w3.org/2000/svg">
<path d="M7.75187 16.8592C7.74616 17.8374 8.07463 18.2801 8.758 18.6293C9.38139 18.9484 10.0012 18.8642 10.631 18.7621C13.5309 18.2908 16.2065 17.2669 18.5708 15.4948C19.2292 15.0014 19.8197 14.433 20.3017 13.7626C20.361 13.6805 20.3888 13.527 20.3553 13.4341C19.8197 11.964 19.2806 10.4946 18.7236 9.03226C18.2994 7.91841 17.6339 7.57925 16.4636 7.84272C15.4546 8.06978 14.5727 8.56816 13.7372 9.15007C11.6179 10.6252 9.87481 12.4588 8.55806 14.6851C8.12533 15.4184 7.78258 16.1881 7.75187 16.8592ZM9.46993 17.509C9.46065 17.4854 9.45208 17.4611 9.4428 17.4376C9.10147 17.4447 8.97365 17.3498 9.05506 17.0106C9.17431 16.5144 9.31926 16.0096 9.5492 15.5576C10.3183 14.0482 11.4308 12.7994 12.6604 11.6527C13.653 10.7266 14.7148 9.88908 15.973 9.34643C16.3186 9.19791 16.6978 9.10795 17.0705 9.04654C17.364 8.99871 17.4854 9.12009 17.434 9.41712C17.3662 9.80625 17.2719 10.2025 17.1119 10.5624C16.4964 11.9483 15.5431 13.0985 14.4949 14.1731C13.4209 15.2734 12.2577 16.2666 10.8731 16.9599C10.4261 17.1848 9.93908 17.3291 9.46993 17.509Z" fill="#9C60DA"/>
<path d="M20.9487 15.0292C18.5022 17.6182 15.4124 18.9413 12.052 19.8224C12.122 19.8581 12.1706 19.8902 12.2241 19.9102C13.2652 20.2965 14.3056 20.687 15.3518 21.0598C15.5253 21.1219 15.7345 21.1419 15.9166 21.114C17.3733 20.8905 18.795 20.545 20.1011 19.8302C20.828 19.4325 21.4699 18.9313 21.9377 18.2358C21.9948 18.1509 22.0462 18.0116 22.0162 17.9274C21.6727 16.9656 21.3128 16.0096 20.9487 15.0292Z" fill="#9C60DA"/>
<path d="M9.95907 1.91645C9.74057 2.23133 9.55634 2.48194 9.38853 2.74327C9.13432 3.13812 8.9965 3.56295 9.12361 4.03563C9.29427 4.67181 9.77841 5.06666 10.4768 5.14091C10.7681 5.17162 11.0616 5.18732 11.3808 5.21231C11.3458 5.27372 11.3165 5.33227 11.2815 5.38653C11.1373 5.61073 10.9738 5.82493 10.8488 6.05913C10.4611 6.78385 10.6232 7.53356 11.278 8.02765C11.8521 8.46106 12.5347 8.59529 13.2288 8.67098C13.4523 8.69525 13.598 8.55531 13.6451 8.33682C13.7022 8.07621 13.7558 7.81488 13.7944 7.5507C13.8443 7.21154 13.7265 7.05517 13.3902 6.9802C13.0717 6.9088 12.754 6.83811 12.4005 6.75957C12.6097 6.45755 12.7925 6.20693 12.9603 5.94632C13.221 5.54433 13.3638 5.11235 13.2302 4.62968C13.0567 4.00492 12.5797 3.61436 11.8935 3.53868C11.595 3.50583 11.2951 3.48941 10.9652 3.46371C11.1202 3.23165 11.2723 3.01816 11.4101 2.79539C11.9749 1.87932 11.7428 0.9304 10.7724 0.46915C10.284 0.237097 9.72843 0.137136 9.19501 0.013612C8.93366 -0.0470788 8.77228 0.092153 8.71087 0.354194C8.65018 0.614094 8.59948 0.876135 8.56092 1.1396C8.51379 1.46519 8.62947 1.61942 8.95366 1.69296C9.27285 1.76651 9.59204 1.83576 9.95907 1.91645Z" fill="#9C60DA"/>
<path d="M5.22619 11.3828C5.17907 10.9808 5.16764 10.5959 5.0841 10.2268C4.86702 9.26717 3.92087 8.80664 3.03399 9.23576C2.6541 9.41926 2.31206 9.6813 1.9129 9.93263C1.84434 9.6356 1.76865 9.35428 1.7151 9.06939C1.62869 8.61028 1.46731 8.49176 1.01388 8.57958C0.795368 8.62171 0.575434 8.65741 0.359785 8.70882C0.0920067 8.77236 -0.0286713 8.92159 0.00489044 9.1872C0.0770111 9.7627 0.193407 10.3289 0.487606 10.8401C1.00102 11.7319 1.88504 11.9626 2.76121 11.4299C2.994 11.2885 3.21465 11.1286 3.46029 10.9644C3.48528 11.28 3.50242 11.5699 3.53241 11.8583C3.65666 13.0586 4.74277 13.6319 5.79674 13.0443C6.11379 12.8679 6.40441 12.6444 6.75288 12.4117C6.82429 12.7151 6.90212 12.9936 6.95425 13.2763C7.0428 13.7547 7.19847 13.869 7.67047 13.7761C7.87969 13.7347 8.09106 13.7019 8.29885 13.654C8.58091 13.5884 8.7023 13.4391 8.66588 13.1585C8.59305 12.5923 8.47808 12.0347 8.19174 11.5299C7.67689 10.6245 6.78716 10.3917 5.90028 10.9337C5.67392 11.0715 5.45755 11.2278 5.22619 11.3828Z" fill="#9C60DA"/>
<path d="M0.915335 4.36978C0.914619 4.89172 0.85321 4.95099 1.48017 5.01311C3.62024 5.22445 5.40114 6.23263 6.96925 7.63281C7.60192 8.1983 8.1389 8.87161 8.70516 9.50922C8.93652 9.76984 8.97936 9.79483 9.27499 9.59705C9.41566 9.5028 9.55705 9.41069 9.69629 9.31501C9.93551 9.15079 9.95764 9.04226 9.78912 8.81306C8.51379 7.07659 6.92426 5.7057 4.99983 4.73321C3.90302 4.17914 2.74479 3.82214 1.51373 3.72003C1.44304 3.71432 1.37163 3.7079 1.30093 3.70575C1.00673 3.69647 0.920332 3.78001 0.915335 4.07633C0.913906 4.17343 0.915335 4.27196 0.915335 4.36978Z" fill="#9C60DA"/>
<path d="M22.5982 19.5082C21.36 20.8634 19.7683 21.5496 17.9753 22.0365C18.4137 22.2007 18.7729 22.3357 19.1328 22.4699C20.4231 22.9512 21.7156 23.4281 23.0038 23.9172C23.3037 24.0307 23.5764 24.0557 23.8171 23.813C24.0584 23.5702 24.027 23.2967 23.9135 22.9983C23.5058 21.9266 23.1123 20.8498 22.7124 19.776C22.6817 19.6931 22.6439 19.6132 22.5982 19.5082Z" fill="#9C60DA"/>
<path d="M15.0268 2.83609C15.0268 3.08528 15.029 3.33447 15.0261 3.58295C15.024 3.80286 15.1254 3.91353 15.3482 3.91139C15.5617 3.90925 15.7752 3.90925 15.9887 3.91139C16.2115 3.91353 16.3115 3.80215 16.31 3.58223C16.3072 3.08385 16.3086 2.58619 16.3093 2.08781C16.3093 1.88075 16.2115 1.77293 16.0016 1.77293C15.7795 1.77293 15.5567 1.77293 15.3346 1.77293C15.1247 1.77293 15.0261 1.88146 15.0268 2.08781C15.0276 2.33771 15.0268 2.5869 15.0268 2.83609Z" fill="#9C60DA"/>
<path d="M4.56853 16.3109C4.80846 16.3109 5.0491 16.3087 5.28903 16.3116C5.50826 16.3144 5.62108 16.2145 5.61893 15.991C5.61751 15.7689 5.61965 15.5462 5.61751 15.3241C5.61537 15.1285 5.51325 15.0292 5.31831 15.0292C4.80275 15.0285 4.28647 15.0271 3.77091 15.0299C3.57383 15.0314 3.48171 15.1413 3.481 15.3341C3.481 15.5562 3.481 15.7789 3.481 16.001C3.481 16.2095 3.5874 16.3109 3.79448 16.3102C4.05297 16.3109 4.31075 16.3109 4.56853 16.3109Z" fill="#9C60DA"/>
<path d="M1.86505 0.985379C1.8979 1.04321 1.92075 1.1139 1.96716 1.16103C2.33491 1.53517 2.70551 1.90717 3.07898 2.27559C3.2175 2.41197 3.36175 2.40269 3.49957 2.26417C3.65595 2.10637 3.81304 1.94929 3.97085 1.79221C4.12081 1.64298 4.11081 1.49732 3.96514 1.35238C3.60668 0.993947 3.25535 0.626946 2.8826 0.284222C2.80906 0.216391 2.60555 0.181404 2.53985 0.232099C2.31706 0.404889 2.12783 0.621234 1.93075 0.826155C1.8979 0.861141 1.89076 0.921118 1.86505 0.985379Z" fill="#9C60DA"/>
</svg>
