<svg width="202" height="40" viewBox="0 0 202 40" fill="none" xmlns="http://www.w3.org/2000/svg">
<rect x="0.5" y="0.5" width="201" height="39" rx="19.5" stroke="#E1DDF4"/>
<g clip-path="url(#clip0_925_6056)">
<path d="M24.0002 27.9997L32.0002 27.9997C32.3538 27.9997 32.6929 27.8592 32.943 27.6091C33.193 27.3591 33.3335 27.02 33.3335 26.6663L33.3335 18.6663C33.3335 18.3127 33.193 17.9736 32.943 17.7235C32.6929 17.4735 32.3538 17.333 32.0002 17.333L30.0002 17.333L30.0002 18.6663L32.0002 18.6663L32.0002 26.6663L24.0002 26.6663L24.0002 18.6663L26.0002 18.6663L26.0002 17.333L24.0002 17.333C23.6465 17.333 23.3074 17.4735 23.0574 17.7235C22.8073 17.9736 22.6668 18.3127 22.6668 18.6663L22.6668 26.6663C22.6668 27.02 22.8073 27.3591 23.0574 27.6091C23.3074 27.8592 23.6465 27.9997 24.0002 27.9997Z" fill="#E1DDF4"/>
<path d="M28.6665 14.6667L28.6665 22L27.3332 22L27.3332 14.6667L25.3332 14.6667L27.9998 12L30.6665 14.6667L28.6665 14.6667Z" fill="#E1DDF4"/>
</g>
<path d="M42.7964 26V14.8H49.5804V16.016H44.0444V24.784H49.5484V26H42.7964ZM43.3724 20.848V19.632H48.6844V20.848H43.3724ZM57.5746 26L54.6786 22.272L54.5346 22.096L51.0626 17.648H52.5826L55.4306 21.312L55.5906 21.52L59.0786 26H57.5746ZM50.9986 26L54.4066 21.6L55.1266 22.464L52.4386 26H50.9986ZM55.6706 21.904L54.9826 21.056L57.4146 17.648H58.8706L55.6706 21.904ZM60.5039 29.52V17.648H61.7039L61.7359 19.68L61.5119 19.712C61.6079 19.3067 61.8159 18.9387 62.1359 18.608C62.4559 18.2667 62.8453 17.9947 63.3039 17.792C63.7626 17.5893 64.2479 17.488 64.7599 17.488C65.5066 17.488 66.1733 17.6747 66.7599 18.048C67.3573 18.4213 67.8319 18.9333 68.1839 19.584C68.5359 20.2347 68.7119 20.9813 68.7119 21.824C68.7119 22.656 68.5413 23.3973 68.1999 24.048C67.8586 24.6987 67.3893 25.216 66.7919 25.6C66.1946 25.9733 65.5226 26.16 64.7759 26.16C64.2533 26.16 63.7573 26.0533 63.2879 25.84C62.8186 25.6267 62.4186 25.3493 62.0879 25.008C61.7573 24.656 61.5386 24.2773 61.4319 23.872H61.7199V29.52H60.5039ZM64.5839 25.008C65.1493 25.008 65.6506 24.8693 66.0879 24.592C66.5253 24.3147 66.8719 23.936 67.1279 23.456C67.3839 22.976 67.5119 22.432 67.5119 21.824C67.5119 21.2053 67.3839 20.656 67.1279 20.176C66.8719 19.696 66.5253 19.3173 66.0879 19.04C65.6506 18.7627 65.1493 18.624 64.5839 18.624C64.0186 18.624 63.5119 18.7627 63.0639 19.04C62.6266 19.3067 62.2799 19.68 62.0239 20.16C61.7679 20.64 61.6399 21.1893 61.6399 21.808C61.6399 22.4267 61.7679 22.976 62.0239 23.456C62.2799 23.936 62.6266 24.3147 63.0639 24.592C63.5119 24.8693 64.0186 25.008 64.5839 25.008ZM74.1531 26.16C73.3211 26.16 72.5797 25.9733 71.9291 25.6C71.2891 25.2267 70.7824 24.7093 70.4091 24.048C70.0464 23.3867 69.8651 22.6347 69.8651 21.792C69.8651 20.96 70.0464 20.2187 70.4091 19.568C70.7824 18.9173 71.2891 18.4053 71.9291 18.032C72.5797 17.6587 73.3211 17.472 74.1531 17.472C74.9744 17.472 75.7051 17.6587 76.3451 18.032C76.9957 18.4053 77.5024 18.9173 77.8651 19.568C78.2384 20.2187 78.4251 20.96 78.4251 21.792C78.4251 22.6347 78.2384 23.3867 77.8651 24.048C77.5024 24.7093 76.9957 25.2267 76.3451 25.6C75.7051 25.9733 74.9744 26.16 74.1531 26.16ZM74.1531 25.024C74.7397 25.024 75.2624 24.8853 75.7211 24.608C76.1797 24.32 76.5371 23.936 76.7931 23.456C77.0491 22.9653 77.1771 22.4107 77.1771 21.792C77.1771 21.1733 77.0491 20.624 76.7931 20.144C76.5371 19.664 76.1797 19.2907 75.7211 19.024C75.2624 18.7467 74.7397 18.608 74.1531 18.608C73.5664 18.608 73.0384 18.7467 72.5691 19.024C72.1104 19.2907 71.7477 19.6693 71.4811 20.16C71.2251 20.64 71.1024 21.184 71.1131 21.792C71.1024 22.4107 71.2251 22.9653 71.4811 23.456C71.7477 23.936 72.1104 24.32 72.5691 24.608C73.0384 24.8853 73.5664 25.024 74.1531 25.024ZM80.1758 26V17.648H81.3758L81.4078 19.872L81.2798 19.568C81.3971 19.1947 81.5838 18.848 81.8398 18.528C82.1065 18.208 82.4211 17.952 82.7838 17.76C83.1465 17.568 83.5465 17.472 83.9838 17.472C84.1651 17.472 84.3358 17.488 84.4958 17.52C84.6558 17.5413 84.7891 17.5733 84.8958 17.616L84.5598 18.96C84.4211 18.896 84.2771 18.8533 84.1278 18.832C83.9891 18.8 83.8558 18.784 83.7278 18.784C83.3651 18.784 83.0398 18.848 82.7518 18.976C82.4638 19.104 82.2185 19.2853 82.0158 19.52C81.8131 19.744 81.6585 20.0053 81.5518 20.304C81.4451 20.6027 81.3918 20.9227 81.3918 21.264V26H80.1758ZM87.6091 26V15.456H88.8091V26H87.6091ZM85.7211 18.8V17.648H90.9211V18.8H85.7211ZM95.5804 26.16C94.8551 26.16 94.1991 25.9733 93.6124 25.6C93.0258 25.216 92.5618 24.6987 92.2204 24.048C91.8791 23.3867 91.7084 22.64 91.7084 21.808C91.7084 20.9653 91.8844 20.2187 92.2364 19.568C92.5884 18.9173 93.0578 18.4053 93.6444 18.032C94.2418 17.6587 94.9084 17.472 95.6444 17.472C96.0818 17.472 96.4871 17.536 96.8604 17.664C97.2338 17.792 97.5644 17.9733 97.8524 18.208C98.1511 18.432 98.3964 18.6987 98.5884 19.008C98.7911 19.3067 98.9298 19.632 99.0044 19.984L98.6524 19.808L98.7004 17.648H99.9004V26H98.6844V23.952L99.0044 23.744C98.9298 24.064 98.7858 24.3733 98.5724 24.672C98.3591 24.96 98.0978 25.216 97.7884 25.44C97.4898 25.664 97.1484 25.84 96.7644 25.968C96.3911 26.096 95.9964 26.16 95.5804 26.16ZM95.8524 25.008C96.4071 25.008 96.9031 24.8747 97.3404 24.608C97.7778 24.3307 98.1191 23.952 98.3644 23.472C98.6204 22.9813 98.7484 22.4267 98.7484 21.808C98.7484 21.1893 98.6204 20.64 98.3644 20.16C98.1191 19.68 97.7778 19.3013 97.3404 19.024C96.9031 18.7467 96.4071 18.608 95.8524 18.608C95.2871 18.608 94.7858 18.7467 94.3484 19.024C93.9218 19.3013 93.5804 19.68 93.3244 20.16C93.0791 20.64 92.9564 21.1893 92.9564 21.808C92.9564 22.416 93.0791 22.9653 93.3244 23.456C93.5698 23.936 93.9111 24.3147 94.3484 24.592C94.7858 24.8693 95.2871 25.008 95.8524 25.008ZM102.238 26V17.648H103.438L103.47 19.872L103.342 19.568C103.46 19.1947 103.646 18.848 103.902 18.528C104.169 18.208 104.484 17.952 104.846 17.76C105.209 17.568 105.609 17.472 106.046 17.472C106.228 17.472 106.398 17.488 106.558 17.52C106.718 17.5413 106.852 17.5733 106.958 17.616L106.622 18.96C106.484 18.896 106.34 18.8533 106.19 18.832C106.052 18.8 105.918 18.784 105.79 18.784C105.428 18.784 105.102 18.848 104.814 18.976C104.526 19.104 104.281 19.2853 104.078 19.52C103.876 19.744 103.721 20.0053 103.614 20.304C103.508 20.6027 103.454 20.9227 103.454 21.264V26H102.238ZM113.171 26V14.8H114.387L118.691 21.792L118.115 21.776L122.467 14.8H123.603V26H122.355V20.88C122.355 19.92 122.371 19.056 122.403 18.288C122.435 17.52 122.494 16.7573 122.579 16L122.803 16.448L118.787 22.752H117.923L114.019 16.528L114.195 16C114.281 16.7147 114.339 17.4507 114.371 18.208C114.403 18.9547 114.419 19.8453 114.419 20.88V26H113.171ZM129.69 26.16C128.964 26.16 128.308 25.9733 127.722 25.6C127.135 25.216 126.671 24.6987 126.33 24.048C125.988 23.3867 125.818 22.64 125.818 21.808C125.818 20.9653 125.994 20.2187 126.346 19.568C126.698 18.9173 127.167 18.4053 127.754 18.032C128.351 17.6587 129.018 17.472 129.754 17.472C130.191 17.472 130.596 17.536 130.97 17.664C131.343 17.792 131.674 17.9733 131.962 18.208C132.26 18.432 132.506 18.6987 132.698 19.008C132.9 19.3067 133.039 19.632 133.114 19.984L132.762 19.808L132.81 17.648H134.01V26H132.794V23.952L133.114 23.744C133.039 24.064 132.895 24.3733 132.682 24.672C132.468 24.96 132.207 25.216 131.898 25.44C131.599 25.664 131.258 25.84 130.874 25.968C130.5 26.096 130.106 26.16 129.69 26.16ZM129.962 25.008C130.516 25.008 131.012 24.8747 131.45 24.608C131.887 24.3307 132.228 23.952 132.474 23.472C132.73 22.9813 132.858 22.4267 132.858 21.808C132.858 21.1893 132.73 20.64 132.474 20.16C132.228 19.68 131.887 19.3013 131.45 19.024C131.012 18.7467 130.516 18.608 129.962 18.608C129.396 18.608 128.895 18.7467 128.458 19.024C128.031 19.3013 127.69 19.68 127.434 20.16C127.188 20.64 127.066 21.1893 127.066 21.808C127.066 22.416 127.188 22.9653 127.434 23.456C127.679 23.936 128.02 24.3147 128.458 24.592C128.895 24.8693 129.396 25.008 129.962 25.008ZM137.5 26V15.456H138.7V26H137.5ZM135.612 18.8V17.648H140.812V18.8H135.612ZM145.887 26.16C145.055 26.16 144.314 25.9787 143.663 25.616C143.023 25.2533 142.522 24.7467 142.159 24.096C141.796 23.4453 141.615 22.6987 141.615 21.856C141.615 21.2053 141.716 20.6187 141.919 20.096C142.122 19.5627 142.404 19.0987 142.767 18.704C143.14 18.3093 143.583 18.0053 144.095 17.792C144.607 17.568 145.162 17.456 145.759 17.456C146.324 17.456 146.836 17.5573 147.295 17.76C147.764 17.9627 148.164 18.2453 148.495 18.608C148.836 18.96 149.092 19.3813 149.263 19.872C149.434 20.3627 149.508 20.9013 149.487 21.488L149.471 22.048H142.511L142.335 21.04H148.559L148.271 21.312V20.928C148.25 20.544 148.138 20.176 147.935 19.824C147.732 19.4613 147.444 19.168 147.071 18.944C146.708 18.72 146.271 18.608 145.759 18.608C145.162 18.608 144.644 18.7307 144.207 18.976C143.77 19.2107 143.434 19.5627 143.199 20.032C142.964 20.5013 142.847 21.0827 142.847 21.776C142.847 22.4373 142.975 23.0133 143.231 23.504C143.487 23.984 143.85 24.3573 144.319 24.624C144.799 24.8907 145.375 25.024 146.047 25.024C146.442 25.024 146.831 24.96 147.215 24.832C147.61 24.6933 148.042 24.4267 148.511 24.032L149.135 24.896C148.89 25.1413 148.596 25.36 148.255 25.552C147.914 25.7333 147.54 25.8827 147.135 26C146.73 26.1067 146.314 26.16 145.887 26.16ZM151.191 26V17.648H152.391L152.423 19.872L152.295 19.568C152.413 19.1947 152.599 18.848 152.855 18.528C153.122 18.208 153.437 17.952 153.799 17.76C154.162 17.568 154.562 17.472 154.999 17.472C155.181 17.472 155.351 17.488 155.511 17.52C155.671 17.5413 155.805 17.5733 155.911 17.616L155.575 18.96C155.437 18.896 155.293 18.8533 155.143 18.832C155.005 18.8 154.871 18.784 154.743 18.784C154.381 18.784 154.055 18.848 153.767 18.976C153.479 19.104 153.234 19.2853 153.031 19.52C152.829 19.744 152.674 20.0053 152.567 20.304C152.461 20.6027 152.407 20.9227 152.407 21.264V26H151.191ZM157.48 26V17.648H158.68V26H157.48ZM158.072 15.84C157.774 15.84 157.544 15.7653 157.384 15.616C157.235 15.456 157.16 15.2427 157.16 14.976C157.16 14.7093 157.24 14.496 157.4 14.336C157.56 14.176 157.784 14.096 158.072 14.096C158.36 14.096 158.584 14.176 158.744 14.336C158.904 14.4853 158.984 14.6987 158.984 14.976C158.984 15.232 158.904 15.44 158.744 15.6C158.584 15.76 158.36 15.84 158.072 15.84ZM164.565 26.16C163.839 26.16 163.183 25.9733 162.597 25.6C162.01 25.216 161.546 24.6987 161.205 24.048C160.863 23.3867 160.693 22.64 160.693 21.808C160.693 20.9653 160.869 20.2187 161.221 19.568C161.573 18.9173 162.042 18.4053 162.629 18.032C163.226 17.6587 163.893 17.472 164.629 17.472C165.066 17.472 165.471 17.536 165.845 17.664C166.218 17.792 166.549 17.9733 166.837 18.208C167.135 18.432 167.381 18.6987 167.573 19.008C167.775 19.3067 167.914 19.632 167.989 19.984L167.637 19.808L167.685 17.648H168.885V26H167.669V23.952L167.989 23.744C167.914 24.064 167.77 24.3733 167.557 24.672C167.343 24.96 167.082 25.216 166.773 25.44C166.474 25.664 166.133 25.84 165.749 25.968C165.375 26.096 164.981 26.16 164.565 26.16ZM164.837 25.008C165.391 25.008 165.887 24.8747 166.325 24.608C166.762 24.3307 167.103 23.952 167.349 23.472C167.605 22.9813 167.733 22.4267 167.733 21.808C167.733 21.1893 167.605 20.64 167.349 20.16C167.103 19.68 166.762 19.3013 166.325 19.024C165.887 18.7467 165.391 18.608 164.837 18.608C164.271 18.608 163.77 18.7467 163.333 19.024C162.906 19.3013 162.565 19.68 162.309 20.16C162.063 20.64 161.941 21.1893 161.941 21.808C161.941 22.416 162.063 22.9653 162.309 23.456C162.554 23.936 162.895 24.3147 163.333 24.592C163.77 24.8693 164.271 25.008 164.837 25.008ZM171.543 26V17.648H172.743V26H171.543ZM172.135 15.84C171.836 15.84 171.607 15.7653 171.447 15.616C171.297 15.456 171.223 15.2427 171.223 14.976C171.223 14.7093 171.303 14.496 171.463 14.336C171.623 14.176 171.847 14.096 172.135 14.096C172.423 14.096 172.647 14.176 172.807 14.336C172.967 14.4853 173.047 14.6987 173.047 14.976C173.047 15.232 172.967 15.44 172.807 15.6C172.647 15.76 172.423 15.84 172.135 15.84ZM178.099 26.16C177.385 26.16 176.745 26.0267 176.179 25.76C175.614 25.4933 175.166 25.1413 174.835 24.704L175.683 23.968C175.993 24.3413 176.355 24.624 176.771 24.816C177.198 25.008 177.673 25.104 178.195 25.104C178.462 25.104 178.702 25.0773 178.915 25.024C179.129 24.96 179.315 24.8693 179.475 24.752C179.635 24.6347 179.758 24.496 179.843 24.336C179.929 24.176 179.971 24 179.971 23.808C179.971 23.456 179.817 23.1627 179.507 22.928C179.369 22.832 179.171 22.736 178.915 22.64C178.659 22.5333 178.35 22.432 177.987 22.336C177.39 22.1653 176.894 21.9947 176.499 21.824C176.105 21.6427 175.795 21.4347 175.571 21.2C175.411 21.008 175.289 20.8 175.203 20.576C175.129 20.352 175.091 20.1067 175.091 19.84C175.091 19.4987 175.161 19.184 175.299 18.896C175.449 18.608 175.651 18.3573 175.907 18.144C176.174 17.92 176.483 17.7547 176.835 17.648C177.198 17.5307 177.587 17.472 178.003 17.472C178.398 17.472 178.787 17.5253 179.171 17.632C179.555 17.7387 179.913 17.8933 180.243 18.096C180.574 18.2987 180.857 18.5387 181.091 18.816L180.355 19.616C180.153 19.4027 179.929 19.2107 179.683 19.04C179.438 18.8693 179.177 18.736 178.899 18.64C178.633 18.544 178.355 18.496 178.067 18.496C177.811 18.496 177.571 18.528 177.347 18.592C177.134 18.656 176.947 18.7467 176.787 18.864C176.638 18.9707 176.521 19.104 176.435 19.264C176.361 19.424 176.323 19.6 176.323 19.792C176.323 19.952 176.355 20.096 176.419 20.224C176.483 20.352 176.574 20.464 176.691 20.56C176.841 20.6773 177.049 20.7893 177.315 20.896C177.593 20.992 177.934 21.0933 178.339 21.2C178.809 21.328 179.203 21.4613 179.523 21.6C179.854 21.728 180.126 21.8827 180.339 22.064C180.627 22.2773 180.83 22.5227 180.947 22.8C181.075 23.0773 181.139 23.392 181.139 23.744C181.139 24.2133 181.006 24.6293 180.739 24.992C180.483 25.3547 180.126 25.6427 179.667 25.856C179.209 26.0587 178.686 26.16 178.099 26.16Z" fill="white"/>
<defs>
<clipPath id="clip0_925_6056">
<rect width="16" height="16" fill="white" transform="translate(36 12) rotate(90)"/>
</clipPath>
</defs>
</svg>
