<svg width="86" height="16" viewBox="0 0 86 16" fill="none" xmlns="http://www.w3.org/2000/svg">
    <path fill-rule="evenodd" clip-rule="evenodd" d="M3.33333 1.33334C2.22876 1.33334 1.33333 2.22877 1.33333 3.33334V12.6667C1.33333 13.7712 2.22876 14.6667 3.33333 14.6667H12.6667C13.7712 14.6667 14.6667 13.7712 14.6667 12.6667V3.33334C14.6667 2.22877 13.7712 1.33334 12.6667 1.33334H3.33333ZM7.0721 8.04268L7.41343 9.44001H8.33077L8.43743 9.03468C8.75743 8.94223 9.04899 8.81067 9.3121 8.64001C9.57521 8.46934 9.80276 8.27379 9.99477 8.05334C10.1939 7.82579 10.3468 7.58401 10.4534 7.32801C10.5672 7.07201 10.6241 6.81245 10.6241 6.54934C10.6241 6.1369 10.5139 5.76712 10.2934 5.44001C10.073 5.10579 9.77432 4.84623 9.39743 4.66134C9.02054 4.46934 8.59743 4.37334 8.1281 4.37334C7.64454 4.37334 7.17877 4.50845 6.73077 4.77868C6.28988 5.0489 5.90943 5.42934 5.58943 5.92001L6.7521 6.99734C6.95121 6.62756 7.1681 6.3609 7.40277 6.19734C7.63743 6.02668 7.8721 5.94134 8.10677 5.94134C8.27032 5.94134 8.41254 5.96979 8.53343 6.02668C8.65432 6.08356 8.75032 6.16534 8.82143 6.27201C8.89254 6.37156 8.9281 6.49245 8.9281 6.63468C8.9281 6.7769 8.8961 6.91201 8.8321 7.04001C8.7681 7.1609 8.67921 7.27468 8.56543 7.38134C8.45877 7.4809 8.32721 7.56979 8.17076 7.64801C8.01432 7.72623 7.84365 7.8009 7.65877 7.87201C7.47388 7.93601 7.27832 7.9929 7.0721 8.04268ZM7.28543 10.4747C7.11477 10.6525 7.02943 10.8836 7.02943 11.168C7.02943 11.4738 7.10765 11.7085 7.2641 11.872C7.42765 12.0356 7.65521 12.1173 7.94676 12.1173C8.2241 12.1173 8.4481 12.0285 8.61877 11.8507C8.78943 11.6729 8.87477 11.4453 8.87477 11.168C8.87477 10.8622 8.79299 10.6276 8.62943 10.464C8.46588 10.2933 8.23832 10.208 7.94676 10.208C7.67654 10.208 7.4561 10.2969 7.28543 10.4747Z" fill="#E5DD00"/>
    <path d="M19.7552 12.5V4.1H25.6112V5.84H21.7352V10.76H25.7312V12.5H19.7552ZM20.7152 9.056V7.4H25.0712V9.056H20.7152ZM31.2096 12.5L29.8536 10.448L29.2296 9.572L26.7096 6.128H29.0136L30.3216 8.084L31.0056 9.02L33.4896 12.5H31.2096ZM26.6496 12.5L29.2176 8.924L30.2496 10.16L28.9176 12.5H26.6496ZM30.8616 9.728L29.8416 8.504L31.1016 6.128H33.3696L30.8616 9.728ZM35.0909 12.5V4.52H37.0109V12.5H35.0909ZM33.9629 7.808V6.128H38.2469V7.808H33.9629ZM39.3442 12.5V6.128H41.1682L41.2522 8.204L40.8922 7.808C40.9882 7.464 41.1442 7.156 41.3602 6.884C41.5842 6.612 41.8442 6.396 42.1402 6.236C42.4362 6.076 42.7522 5.996 43.0882 5.996C43.2322 5.996 43.3642 6.008 43.4842 6.032C43.6122 6.056 43.7282 6.084 43.8322 6.116L43.3042 8.24C43.2162 8.184 43.0962 8.14 42.9442 8.108C42.8002 8.068 42.6482 8.048 42.4882 8.048C42.3122 8.048 42.1482 8.08 41.9962 8.144C41.8442 8.2 41.7162 8.284 41.6122 8.396C41.5082 8.508 41.4242 8.64 41.3602 8.792C41.3042 8.944 41.2762 9.116 41.2762 9.308V12.5H39.3442ZM46.8876 12.608C46.3516 12.608 45.8716 12.468 45.4476 12.188C45.0316 11.9 44.6996 11.508 44.4516 11.012C44.2036 10.508 44.0796 9.94 44.0796 9.308C44.0796 8.66 44.2036 8.088 44.4516 7.592C44.6996 7.096 45.0396 6.708 45.4716 6.428C45.9036 6.14 46.3956 5.996 46.9476 5.996C47.2516 5.996 47.5276 6.04 47.7756 6.128C48.0316 6.216 48.2556 6.34 48.4476 6.5C48.6396 6.652 48.8036 6.832 48.9396 7.04C49.0756 7.24 49.1756 7.456 49.2396 7.688L48.8436 7.64V6.128H50.7516V12.5H48.8076V10.964L49.2396 10.952C49.1756 11.176 49.0716 11.388 48.9276 11.588C48.7836 11.788 48.6076 11.964 48.3996 12.116C48.1916 12.268 47.9596 12.388 47.7036 12.476C47.4476 12.564 47.1756 12.608 46.8876 12.608ZM47.4156 10.988C47.7116 10.988 47.9676 10.92 48.1836 10.784C48.3996 10.648 48.5676 10.456 48.6876 10.208C48.8076 9.952 48.8676 9.652 48.8676 9.308C48.8676 8.964 48.8076 8.668 48.6876 8.42C48.5676 8.164 48.3996 7.968 48.1836 7.832C47.9676 7.688 47.7116 7.616 47.4156 7.616C47.1276 7.616 46.8756 7.688 46.6596 7.832C46.4516 7.968 46.2876 8.164 46.1676 8.42C46.0476 8.668 45.9876 8.964 45.9876 9.308C45.9876 9.652 46.0476 9.952 46.1676 10.208C46.2876 10.456 46.4516 10.648 46.6596 10.784C46.8756 10.92 47.1276 10.988 47.4156 10.988ZM54.2611 12.5L51.5971 6.128H53.7211L55.3051 10.892L54.8371 10.94L56.4691 6.128H58.5691L55.7731 12.5H54.2611ZM59.6788 12.5V6.128H61.5988V12.5H59.6788ZM60.6388 4.868C60.2788 4.868 59.9948 4.784 59.7868 4.616C59.5868 4.44 59.4868 4.192 59.4868 3.872C59.4868 3.584 59.5908 3.348 59.7988 3.164C60.0068 2.98 60.2868 2.888 60.6388 2.888C60.9988 2.888 61.2788 2.976 61.4788 3.152C61.6788 3.32 61.7788 3.56 61.7788 3.872C61.7788 4.168 61.6748 4.408 61.4668 4.592C61.2668 4.776 60.9908 4.868 60.6388 4.868ZM65.7548 12.608C65.2188 12.608 64.7388 12.468 64.3148 12.188C63.8988 11.9 63.5668 11.508 63.3188 11.012C63.0708 10.508 62.9468 9.94 62.9468 9.308C62.9468 8.66 63.0708 8.088 63.3188 7.592C63.5668 7.096 63.9068 6.708 64.3388 6.428C64.7708 6.14 65.2628 5.996 65.8148 5.996C66.1188 5.996 66.3948 6.04 66.6428 6.128C66.8988 6.216 67.1228 6.34 67.3148 6.5C67.5068 6.652 67.6708 6.832 67.8068 7.04C67.9428 7.24 68.0428 7.456 68.1068 7.688L67.7108 7.64V6.128H69.6188V12.5H67.6748V10.964L68.1068 10.952C68.0428 11.176 67.9388 11.388 67.7948 11.588C67.6508 11.788 67.4748 11.964 67.2668 12.116C67.0588 12.268 66.8268 12.388 66.5708 12.476C66.3148 12.564 66.0428 12.608 65.7548 12.608ZM66.2828 10.988C66.5788 10.988 66.8348 10.92 67.0508 10.784C67.2668 10.648 67.4348 10.456 67.5548 10.208C67.6748 9.952 67.7348 9.652 67.7348 9.308C67.7348 8.964 67.6748 8.668 67.5548 8.42C67.4348 8.164 67.2668 7.968 67.0508 7.832C66.8348 7.688 66.5788 7.616 66.2828 7.616C65.9948 7.616 65.7428 7.688 65.5268 7.832C65.3188 7.968 65.1548 8.164 65.0348 8.42C64.9148 8.668 64.8548 8.964 64.8548 9.308C64.8548 9.652 64.9148 9.952 65.0348 10.208C65.1548 10.456 65.3188 10.648 65.5268 10.784C65.7428 10.92 65.9948 10.988 66.2828 10.988ZM73.7249 12.632C73.1729 12.632 72.6809 12.492 72.2489 12.212C71.8249 11.924 71.4889 11.532 71.2409 11.036C70.9929 10.532 70.8689 9.96 70.8689 9.32C70.8689 8.68 70.9929 8.112 71.2409 7.616C71.4889 7.112 71.8289 6.716 72.2609 6.428C72.6929 6.14 73.1889 5.996 73.7489 5.996C74.0369 5.996 74.3129 6.04 74.5769 6.128C74.8409 6.216 75.0809 6.336 75.2969 6.488C75.5129 6.64 75.6889 6.816 75.8249 7.016C75.9609 7.208 76.0409 7.408 76.0649 7.616L75.6089 7.724V3.62H77.5409V12.5H75.7529L75.6449 11.048L76.0289 11.108C76.0049 11.308 75.9249 11.5 75.7889 11.684C75.6609 11.868 75.4929 12.032 75.2849 12.176C75.0769 12.312 74.8369 12.42 74.5649 12.5C74.3009 12.588 74.0209 12.632 73.7249 12.632ZM74.2169 11.036C74.5129 11.036 74.7689 10.964 74.9849 10.82C75.2009 10.676 75.3649 10.476 75.4769 10.22C75.5969 9.964 75.6569 9.664 75.6569 9.32C75.6569 8.968 75.5969 8.664 75.4769 8.408C75.3649 8.152 75.2009 7.952 74.9849 7.808C74.7689 7.664 74.5129 7.592 74.2169 7.592C73.9209 7.592 73.6649 7.664 73.4489 7.808C73.2409 7.952 73.0769 8.152 72.9569 8.408C72.8369 8.664 72.7769 8.968 72.7769 9.32C72.7769 9.664 72.8369 9.964 72.9569 10.22C73.0769 10.476 73.2409 10.676 73.4489 10.82C73.6649 10.964 73.9209 11.036 74.2169 11.036ZM82.1645 12.62C81.5005 12.62 80.9085 12.476 80.3885 12.188C79.8765 11.9 79.4685 11.508 79.1645 11.012C78.8685 10.516 78.7205 9.948 78.7205 9.308C78.7205 8.668 78.8685 8.1 79.1645 7.604C79.4685 7.108 79.8765 6.716 80.3885 6.428C80.9085 6.14 81.5005 5.996 82.1645 5.996C82.8285 5.996 83.4165 6.14 83.9285 6.428C84.4485 6.716 84.8565 7.108 85.1525 7.604C85.4485 8.1 85.5965 8.668 85.5965 9.308C85.5965 9.948 85.4485 10.516 85.1525 11.012C84.8565 11.508 84.4485 11.9 83.9285 12.188C83.4165 12.476 82.8285 12.62 82.1645 12.62ZM82.1645 10.964C82.4525 10.964 82.7085 10.892 82.9325 10.748C83.1565 10.604 83.3325 10.408 83.4605 10.16C83.5885 9.912 83.6485 9.628 83.6405 9.308C83.6485 8.988 83.5885 8.704 83.4605 8.456C83.3325 8.2 83.1565 8 82.9325 7.856C82.7085 7.712 82.4525 7.64 82.1645 7.64C81.8765 7.64 81.6165 7.712 81.3845 7.856C81.1605 8 80.9845 8.2 80.8565 8.456C80.7285 8.704 80.6685 8.988 80.6765 9.308C80.6685 9.628 80.7285 9.912 80.8565 10.16C80.9845 10.408 81.1605 10.604 81.3845 10.748C81.6165 10.892 81.8765 10.964 82.1645 10.964Z" fill="#E5DD00"/>
    </svg>
    