<svg width="17" height="16" viewBox="0 0 17 16" fill="none" xmlns="http://www.w3.org/2000/svg">
<path fill-rule="evenodd" clip-rule="evenodd" d="M3.83301 1.33325C2.72844 1.33325 1.83301 2.22868 1.83301 3.33325V12.6666C1.83301 13.7712 2.72844 14.6666 3.83301 14.6666H13.1663C14.2709 14.6666 15.1663 13.7712 15.1663 12.6666V3.33325C15.1663 2.22868 14.2709 1.33325 13.1663 1.33325H3.83301ZM7.57178 8.04258L7.91311 9.43992H8.83045L8.93711 9.03458C9.25711 8.94214 9.54867 8.81058 9.81178 8.63992C10.0749 8.46925 10.3024 8.27369 10.4944 8.05325C10.6936 7.8257 10.8464 7.58392 10.9531 7.32792C11.0669 7.07192 11.1238 6.81236 11.1238 6.54925C11.1238 6.13681 11.0136 5.76703 10.7931 5.43992C10.5727 5.10569 10.274 4.84614 9.89711 4.66125C9.52022 4.46925 9.09711 4.37325 8.62778 4.37325C8.14422 4.37325 7.67844 4.50836 7.23044 4.77858C6.78956 5.04881 6.40911 5.42925 6.08911 5.91992L7.25178 6.99725C7.45089 6.62747 7.66778 6.36081 7.90244 6.19725C8.13711 6.02658 8.37178 5.94125 8.60644 5.94125C8.77 5.94125 8.91222 5.9697 9.03311 6.02658C9.154 6.08347 9.25 6.16525 9.32111 6.27192C9.39222 6.37147 9.42778 6.49236 9.42778 6.63458C9.42778 6.77681 9.39578 6.91192 9.33178 7.03992C9.26778 7.16081 9.17889 7.27458 9.06511 7.38125C8.95845 7.48081 8.82689 7.5697 8.67044 7.64792C8.514 7.72614 8.34333 7.80081 8.15844 7.87192C7.97356 7.93592 7.778 7.99281 7.57178 8.04258ZM7.78511 10.4746C7.61444 10.6524 7.52911 10.8835 7.52911 11.1679C7.52911 11.4737 7.60733 11.7084 7.76378 11.8719C7.92733 12.0355 8.15489 12.1173 8.44644 12.1173C8.72378 12.1173 8.94778 12.0284 9.11845 11.8506C9.28911 11.6728 9.37444 11.4453 9.37444 11.1679C9.37444 10.8621 9.29267 10.6275 9.12911 10.4639C8.96556 10.2933 8.738 10.2079 8.44644 10.2079C8.17622 10.2079 7.95578 10.2968 7.78511 10.4746Z" fill="#E5DD00"/>
</svg>
