<svg width="16" height="16" viewBox="0 0 16 16" fill="none" xmlns="http://www.w3.org/2000/svg">
<path d="M5.66784 1.77947C5.43216 1.77947 5.20613 1.8731 5.03948 2.03975C4.87282 2.2064 4.7792 2.43243 4.7792 2.66812C4.7792 2.9038 4.87282 3.12983 5.03948 3.29649C5.20613 3.46314 5.43216 3.55677 5.66784 3.55677C5.90353 3.55677 6.12956 3.46314 6.29621 3.29649C6.46287 3.12983 6.55649 2.9038 6.55649 2.66812C6.55649 2.43243 6.46287 2.2064 6.29621 2.03975C6.12956 1.8731 5.90353 1.77947 5.66784 1.77947ZM3.15297 1.77947C3.33657 1.25914 3.67704 0.808566 4.12746 0.489858C4.57788 0.17115 5.11607 0 5.66784 0C6.21962 0 6.7578 0.17115 7.20822 0.489858C7.65864 0.808566 7.99912 1.25914 8.18271 1.77947H14.5543C14.79 1.77947 15.016 1.8731 15.1827 2.03975C15.3493 2.2064 15.443 2.43243 15.443 2.66812C15.443 2.9038 15.3493 3.12983 15.1827 3.29649C15.016 3.46314 14.79 3.55677 14.5543 3.55677H8.18271C7.99912 4.0771 7.65864 4.52767 7.20822 4.84638C6.7578 5.16509 6.21962 5.33624 5.66784 5.33624C5.11607 5.33624 4.57788 5.16509 4.12746 4.84638C3.67704 4.52767 3.33657 4.0771 3.15297 3.55677H2.11326C1.87757 3.55677 1.65154 3.46314 1.48489 3.29649C1.31823 3.12983 1.22461 2.9038 1.22461 2.66812C1.22461 2.43243 1.31823 2.2064 1.48489 2.03975C1.65154 1.8731 1.87757 1.77947 2.11326 1.77947H3.15297ZM10.9997 7.11135C10.764 7.11135 10.538 7.20498 10.3714 7.37163C10.2047 7.53828 10.1111 7.76432 10.1111 8C10.1111 8.23568 10.2047 8.46171 10.3714 8.62837C10.538 8.79502 10.764 8.88865 10.9997 8.88865C11.2354 8.88865 11.4614 8.79502 11.6281 8.62837C11.7947 8.46171 11.8884 8.23568 11.8884 8C11.8884 7.76432 11.7947 7.53828 11.6281 7.37163C11.4614 7.20498 11.2354 7.11135 10.9997 7.11135ZM8.48485 7.11135C8.66845 6.59102 9.00892 6.14045 9.45934 5.82174C9.90976 5.50303 10.448 5.33188 10.9997 5.33188C11.5515 5.33188 12.0897 5.50303 12.5401 5.82174C12.9905 6.14045 13.331 6.59102 13.5146 7.11135H14.5543C14.79 7.11135 15.016 7.20498 15.1827 7.37163C15.3493 7.53828 15.443 7.76432 15.443 8C15.443 8.23568 15.3493 8.46171 15.1827 8.62837C15.016 8.79502 14.79 8.88865 14.5543 8.88865H13.5146C13.331 9.40898 12.9905 9.85955 12.5401 10.1783C12.0897 10.497 11.5515 10.6681 10.9997 10.6681C10.448 10.6681 9.90976 10.497 9.45934 10.1783C9.00892 9.85955 8.66845 9.40898 8.48485 8.88865H2.11326C1.87757 8.88865 1.65154 8.79502 1.48489 8.62837C1.31823 8.46171 1.22461 8.23568 1.22461 8C1.22461 7.76432 1.31823 7.53828 1.48489 7.37163C1.65154 7.20498 1.87757 7.11135 2.11326 7.11135H8.48485ZM5.66784 12.4432C5.43216 12.4432 5.20613 12.5369 5.03948 12.7035C4.87282 12.8702 4.7792 13.0962 4.7792 13.3319C4.7792 13.5676 4.87282 13.7936 5.03948 13.9603C5.20613 14.1269 5.43216 14.2205 5.66784 14.2205C5.90353 14.2205 6.12956 14.1269 6.29621 13.9603C6.46287 13.7936 6.55649 13.5676 6.55649 13.3319C6.55649 13.0962 6.46287 12.8702 6.29621 12.7035C6.12956 12.5369 5.90353 12.4432 5.66784 12.4432ZM3.15297 12.4432C3.33657 11.9229 3.67704 11.4723 4.12746 11.1536C4.57788 10.8349 5.11607 10.6638 5.66784 10.6638C6.21962 10.6638 6.7578 10.8349 7.20822 11.1536C7.65864 11.4723 7.99912 11.9229 8.18271 12.4432H14.5543C14.79 12.4432 15.016 12.5369 15.1827 12.7035C15.3493 12.8702 15.443 13.0962 15.443 13.3319C15.443 13.5676 15.3493 13.7936 15.1827 13.9603C15.016 14.1269 14.79 14.2205 14.5543 14.2205H8.18271C7.99912 14.7409 7.65864 15.1914 7.20822 15.5101C6.7578 15.8288 6.21962 16 5.66784 16C5.11607 16 4.57788 15.8288 4.12746 15.5101C3.67704 15.1914 3.33657 14.7409 3.15297 14.2205H2.11326C1.87757 14.2205 1.65154 14.1269 1.48489 13.9603C1.31823 13.7936 1.22461 13.5676 1.22461 13.3319C1.22461 13.0962 1.31823 12.8702 1.48489 12.7035C1.65154 12.5369 1.87757 12.4432 2.11326 12.4432H3.15297Z" fill="#E1DDF4"/>
</svg>
