<svg width="17" height="16" viewBox="0 0 17 16" fill="none" xmlns="http://www.w3.org/2000/svg">
<path d="M6.16736 1.77947C5.93167 1.77947 5.70564 1.8731 5.53899 2.03975C5.37233 2.2064 5.27871 2.43243 5.27871 2.66812C5.27871 2.9038 5.37233 3.12983 5.53899 3.29649C5.70564 3.46314 5.93167 3.55677 6.16736 3.55677C6.40304 3.55677 6.62907 3.46314 6.79572 3.29649C6.96238 3.12983 7.056 2.9038 7.056 2.66812C7.056 2.43243 6.96238 2.2064 6.79572 2.03975C6.62907 1.8731 6.40304 1.77947 6.16736 1.77947ZM3.65248 1.77947C3.83608 1.25914 4.17655 0.808566 4.62697 0.489858C5.07739 0.17115 5.61558 0 6.16736 0C6.71913 0 7.25732 0.17115 7.70774 0.489858C8.15816 0.808566 8.49863 1.25914 8.68223 1.77947H15.0538C15.2895 1.77947 15.5155 1.8731 15.6822 2.03975C15.8488 2.2064 15.9425 2.43243 15.9425 2.66812C15.9425 2.9038 15.8488 3.12983 15.6822 3.29649C15.5155 3.46314 15.2895 3.55677 15.0538 3.55677H8.68223C8.49863 4.0771 8.15816 4.52767 7.70774 4.84638C7.25732 5.16509 6.71913 5.33624 6.16736 5.33624C5.61558 5.33624 5.07739 5.16509 4.62697 4.84638C4.17655 4.52767 3.83608 4.0771 3.65248 3.55677H2.61277C2.37708 3.55677 2.15105 3.46314 1.9844 3.29649C1.81775 3.12983 1.72412 2.9038 1.72412 2.66812C1.72412 2.43243 1.81775 2.2064 1.9844 2.03975C2.15105 1.8731 2.37708 1.77947 2.61277 1.77947H3.65248ZM11.4992 7.11135C11.2636 7.11135 11.0375 7.20498 10.8709 7.37163C10.7042 7.53828 10.6106 7.76432 10.6106 8C10.6106 8.23568 10.7042 8.46171 10.8709 8.62837C11.0375 8.79502 11.2636 8.88865 11.4992 8.88865C11.7349 8.88865 11.961 8.79502 12.1276 8.62837C12.2943 8.46171 12.3879 8.23568 12.3879 8C12.3879 7.76432 12.2943 7.53828 12.1276 7.37163C11.961 7.20498 11.7349 7.11135 11.4992 7.11135ZM8.98437 7.11135C9.16796 6.59102 9.50844 6.14045 9.95886 5.82174C10.4093 5.50303 10.9475 5.33188 11.4992 5.33188C12.051 5.33188 12.5892 5.50303 13.0396 5.82174C13.49 6.14045 13.8305 6.59102 14.0141 7.11135H15.0538C15.2895 7.11135 15.5155 7.20498 15.6822 7.37163C15.8488 7.53828 15.9425 7.76432 15.9425 8C15.9425 8.23568 15.8488 8.46171 15.6822 8.62837C15.5155 8.79502 15.2895 8.88865 15.0538 8.88865H14.0141C13.8305 9.40898 13.49 9.85955 13.0396 10.1783C12.5892 10.497 12.051 10.6681 11.4992 10.6681C10.9475 10.6681 10.4093 10.497 9.95886 10.1783C9.50844 9.85955 9.16796 9.40898 8.98437 8.88865H2.61277C2.37708 8.88865 2.15105 8.79502 1.9844 8.62837C1.81775 8.46171 1.72412 8.23568 1.72412 8C1.72412 7.76432 1.81775 7.53828 1.9844 7.37163C2.15105 7.20498 2.37708 7.11135 2.61277 7.11135H8.98437ZM6.16736 12.4432C5.93167 12.4432 5.70564 12.5369 5.53899 12.7035C5.37233 12.8702 5.27871 13.0962 5.27871 13.3319C5.27871 13.5676 5.37233 13.7936 5.53899 13.9603C5.70564 14.1269 5.93167 14.2205 6.16736 14.2205C6.40304 14.2205 6.62907 14.1269 6.79572 13.9603C6.96238 13.7936 7.056 13.5676 7.056 13.3319C7.056 13.0962 6.96238 12.8702 6.79572 12.7035C6.62907 12.5369 6.40304 12.4432 6.16736 12.4432ZM3.65248 12.4432C3.83608 11.9229 4.17655 11.4723 4.62697 11.1536C5.07739 10.8349 5.61558 10.6638 6.16736 10.6638C6.71913 10.6638 7.25732 10.8349 7.70774 11.1536C8.15816 11.4723 8.49863 11.9229 8.68223 12.4432H15.0538C15.2895 12.4432 15.5155 12.5369 15.6822 12.7035C15.8488 12.8702 15.9425 13.0962 15.9425 13.3319C15.9425 13.5676 15.8488 13.7936 15.6822 13.9603C15.5155 14.1269 15.2895 14.2205 15.0538 14.2205H8.68223C8.49863 14.7409 8.15816 15.1914 7.70774 15.5101C7.25732 15.8288 6.71913 16 6.16736 16C5.61558 16 5.07739 15.8288 4.62697 15.5101C4.17655 15.1914 3.83608 14.7409 3.65248 14.2205H2.61277C2.37708 14.2205 2.15105 14.1269 1.9844 13.9603C1.81775 13.7936 1.72412 13.5676 1.72412 13.3319C1.72412 13.0962 1.81775 12.8702 1.9844 12.7035C2.15105 12.5369 2.37708 12.4432 2.61277 12.4432H3.65248Z" fill="#E1DDF4"/>
</svg>
