<svg width="140" height="40" viewBox="0 0 140 40" fill="none" xmlns="http://www.w3.org/2000/svg">
<path d="M120 0.5C130.77 0.5 139.5 9.23045 139.5 20C139.5 30.7696 130.77 39.5 120 39.5H0.5V0.5H120Z" stroke="#E1DDF4"/>
<path d="M27.3199 26V14.8H28.5679V26H27.3199ZM27.9439 21.008V19.776H33.6079V21.008H27.9439ZM27.9439 16.016V14.8H34.3599V16.016H27.9439ZM36.6443 26V17.648H37.8443V26H36.6443ZM37.2363 15.84C36.9376 15.84 36.7083 15.7653 36.5483 15.616C36.3989 15.456 36.3243 15.2427 36.3243 14.976C36.3243 14.7093 36.4043 14.496 36.5643 14.336C36.7243 14.176 36.9483 14.096 37.2363 14.096C37.5243 14.096 37.7483 14.176 37.9083 14.336C38.0683 14.4853 38.1483 14.6987 38.1483 14.976C38.1483 15.232 38.0683 15.44 37.9083 15.6C37.7483 15.76 37.5243 15.84 37.2363 15.84ZM40.4649 26V17.648H41.6489L41.6969 19.392L41.5049 19.472C41.6115 19.1093 41.8195 18.7787 42.1289 18.48C42.4382 18.1813 42.8062 17.9413 43.2329 17.76C43.6702 17.568 44.1182 17.472 44.5769 17.472C45.1955 17.472 45.7129 17.5947 46.1289 17.84C46.5449 18.0853 46.8595 18.464 47.0729 18.976C47.2862 19.488 47.3929 20.1387 47.3929 20.928V26H46.1769V20.992C46.1769 20.4373 46.1022 19.984 45.9529 19.632C45.8142 19.2693 45.5955 19.0027 45.2969 18.832C44.9982 18.6613 44.6302 18.5813 44.1929 18.592C43.8302 18.592 43.4942 18.656 43.1849 18.784C42.8755 18.9013 42.6089 19.0667 42.3849 19.28C42.1609 19.4933 41.9849 19.7387 41.8569 20.016C41.7289 20.2933 41.6649 20.592 41.6649 20.912V26H41.0729C40.9982 26 40.9129 26 40.8169 26C40.7209 26 40.6035 26 40.4649 26ZM52.9476 26.16C52.2223 26.16 51.5663 25.9733 50.9796 25.6C50.393 25.216 49.929 24.6987 49.5876 24.048C49.2463 23.3867 49.0756 22.64 49.0756 21.808C49.0756 20.9653 49.2516 20.2187 49.6036 19.568C49.9556 18.9173 50.425 18.4053 51.0116 18.032C51.609 17.6587 52.2756 17.472 53.0116 17.472C53.449 17.472 53.8543 17.536 54.2276 17.664C54.601 17.792 54.9316 17.9733 55.2196 18.208C55.5183 18.432 55.7636 18.6987 55.9556 19.008C56.1583 19.3067 56.297 19.632 56.3716 19.984L56.0196 19.808L56.0676 17.648H57.2676V26H56.0516V23.952L56.3716 23.744C56.297 24.064 56.153 24.3733 55.9396 24.672C55.7263 24.96 55.465 25.216 55.1556 25.44C54.857 25.664 54.5156 25.84 54.1316 25.968C53.7583 26.096 53.3636 26.16 52.9476 26.16ZM53.2196 25.008C53.7743 25.008 54.2703 24.8747 54.7076 24.608C55.145 24.3307 55.4863 23.952 55.7316 23.472C55.9876 22.9813 56.1156 22.4267 56.1156 21.808C56.1156 21.1893 55.9876 20.64 55.7316 20.16C55.4863 19.68 55.145 19.3013 54.7076 19.024C54.2703 18.7467 53.7743 18.608 53.2196 18.608C52.6543 18.608 52.153 18.7467 51.7156 19.024C51.289 19.3013 50.9476 19.68 50.6916 20.16C50.4463 20.64 50.3236 21.1893 50.3236 21.808C50.3236 22.416 50.4463 22.9653 50.6916 23.456C50.937 23.936 51.2783 24.3147 51.7156 24.592C52.153 24.8693 52.6543 25.008 53.2196 25.008ZM59.6375 26V14.16H60.8375V26H59.6375ZM63.5193 26V17.648H64.7193V26H63.5193ZM64.1113 15.84C63.8126 15.84 63.5833 15.7653 63.4233 15.616C63.2739 15.456 63.1993 15.2427 63.1993 14.976C63.1993 14.7093 63.2793 14.496 63.4393 14.336C63.5993 14.176 63.8233 14.096 64.1113 14.096C64.3993 14.096 64.6233 14.176 64.7833 14.336C64.9433 14.4853 65.0233 14.6987 65.0233 14.976C65.0233 15.232 64.9433 15.44 64.7833 15.6C64.6233 15.76 64.3993 15.84 64.1113 15.84ZM66.8759 26V24.96L71.4839 18.464L71.6279 18.72H66.8759V17.648H72.7479V18.672L68.1559 25.152L67.9959 24.912H72.9239V26H66.8759ZM77.8695 26.16C77.1442 26.16 76.4882 25.9733 75.9015 25.6C75.3148 25.216 74.8508 24.6987 74.5095 24.048C74.1682 23.3867 73.9975 22.64 73.9975 21.808C73.9975 20.9653 74.1735 20.2187 74.5255 19.568C74.8775 18.9173 75.3468 18.4053 75.9335 18.032C76.5308 17.6587 77.1975 17.472 77.9335 17.472C78.3708 17.472 78.7762 17.536 79.1495 17.664C79.5228 17.792 79.8535 17.9733 80.1415 18.208C80.4402 18.432 80.6855 18.6987 80.8775 19.008C81.0802 19.3067 81.2188 19.632 81.2935 19.984L80.9415 19.808L80.9895 17.648H82.1895V26H80.9735V23.952L81.2935 23.744C81.2188 24.064 81.0748 24.3733 80.8615 24.672C80.6482 24.96 80.3868 25.216 80.0775 25.44C79.7788 25.664 79.4375 25.84 79.0535 25.968C78.6802 26.096 78.2855 26.16 77.8695 26.16ZM78.1415 25.008C78.6962 25.008 79.1922 24.8747 79.6295 24.608C80.0668 24.3307 80.4082 23.952 80.6535 23.472C80.9095 22.9813 81.0375 22.4267 81.0375 21.808C81.0375 21.1893 80.9095 20.64 80.6535 20.16C80.4082 19.68 80.0668 19.3013 79.6295 19.024C79.1922 18.7467 78.6962 18.608 78.1415 18.608C77.5762 18.608 77.0748 18.7467 76.6375 19.024C76.2108 19.3013 75.8695 19.68 75.6135 20.16C75.3682 20.64 75.2455 21.1893 75.2455 21.808C75.2455 22.416 75.3682 22.9653 75.6135 23.456C75.8588 23.936 76.2002 24.3147 76.6375 24.592C77.0748 24.8693 77.5762 25.008 78.1415 25.008ZM84.5274 26V17.648H85.7274L85.7594 19.872L85.6314 19.568C85.7487 19.1947 85.9354 18.848 86.1914 18.528C86.458 18.208 86.7727 17.952 87.1354 17.76C87.498 17.568 87.898 17.472 88.3354 17.472C88.5167 17.472 88.6874 17.488 88.8474 17.52C89.0074 17.5413 89.1407 17.5733 89.2474 17.616L88.9114 18.96C88.7727 18.896 88.6287 18.8533 88.4794 18.832C88.3407 18.8 88.2074 18.784 88.0794 18.784C87.7167 18.784 87.3914 18.848 87.1034 18.976C86.8154 19.104 86.57 19.2853 86.3674 19.52C86.1647 19.744 86.01 20.0053 85.9034 20.304C85.7967 20.6027 85.7434 20.9227 85.7434 21.264V26H84.5274Z" fill="#E1DDF4"/>
<path d="M113 19.1339C113.667 19.5189 113.667 20.4811 113 20.866L101 27.7942C100.333 28.1791 99.5 27.698 99.5 26.9282L99.5 13.0718C99.5 12.302 100.333 11.8208 101 12.2057L113 19.1339Z" fill="#E1DDF4"/>
</svg>
