<svg width="16" height="16" viewBox="0 0 16 16" fill="none" xmlns="http://www.w3.org/2000/svg">
<g clip-path="url(#clip0_785_185)">
<path d="M13.6884 1.01781C13.6711 0.979241 13.643 0.946521 13.6075 0.923636C13.572 0.900751 13.5306 0.888689 13.4884 0.888919H7.29727C7.26009 0.888981 7.22351 0.898372 7.1909 0.916231C7.15829 0.93409 7.13068 0.959847 7.1106 0.991141L2.3506 8.5467C2.32769 8.5796 2.3143 8.61818 2.31191 8.65821C2.30952 8.69823 2.31823 8.73813 2.33708 8.77352C2.35592 8.80891 2.38417 8.83841 2.41871 8.85878C2.45325 8.87914 2.49273 8.88957 2.53282 8.88892H5.94171L2.93282 14.7778C2.91555 14.8128 2.90743 14.8517 2.90922 14.8907C2.91102 14.9297 2.92267 14.9676 2.94308 15.0009C2.9635 15.0342 2.99202 15.0617 3.02597 15.081C3.05993 15.1003 3.09822 15.1107 3.13727 15.1111H4.4706C4.50145 15.1114 4.532 15.1051 4.56031 15.0929C4.58862 15.0806 4.61407 15.0626 4.63505 15.04L12.4439 6.60003C12.4749 6.56843 12.4958 6.5283 12.5038 6.48476C12.5119 6.44123 12.5067 6.39629 12.4891 6.35571C12.4714 6.31512 12.442 6.28073 12.4047 6.25695C12.3673 6.23318 12.3237 6.22109 12.2795 6.22225H9.28393L13.6528 1.25336C13.681 1.2218 13.6994 1.18271 13.7057 1.14088C13.712 1.09905 13.706 1.05628 13.6884 1.01781Z" fill="#E1DDF4"/>
</g>
<defs>
<clipPath id="clip0_785_185">
<rect width="16" height="16" fill="white"/>
</clipPath>
</defs>
</svg>
