<svg width="140" height="40" viewBox="0 0 140 40" fill="none" xmlns="http://www.w3.org/2000/svg">
<rect x="0.5" y="0.5" width="139" height="39" rx="19.5" stroke="#E1DDF4"/>
<path d="M23.3334 26.3333C24.2539 26.3333 25.0001 25.5871 25.0001 24.6667C25.0001 23.7462 24.2539 23 23.3334 23C22.4129 23 21.6667 23.7462 21.6667 24.6667C21.6667 25.5871 22.4129 26.3333 23.3334 26.3333Z" fill="#E1DDF4"/>
<path d="M27.9999 26.3333C28.9204 26.3333 29.6666 25.5871 29.6666 24.6667C29.6666 23.7462 28.9204 23 27.9999 23C27.0794 23 26.3333 23.7462 26.3333 24.6667C26.3333 25.5871 27.0794 26.3333 27.9999 26.3333Z" fill="#E1DDF4"/>
<path d="M32.6667 26.3333C33.5871 26.3333 34.3333 25.5871 34.3333 24.6667C34.3333 23.7462 33.5871 23 32.6667 23C31.7462 23 31 23.7462 31 24.6667C31 25.5871 31.7462 26.3333 32.6667 26.3333Z" fill="#E1DDF4"/>
<path d="M23.3334 21.6667C24.2539 21.6667 25.0001 20.9205 25.0001 20C25.0001 19.0796 24.2539 18.3334 23.3334 18.3334C22.4129 18.3334 21.6667 19.0796 21.6667 20C21.6667 20.9205 22.4129 21.6667 23.3334 21.6667Z" fill="#E1DDF4"/>
<path d="M27.9999 21.6667C28.9204 21.6667 29.6666 20.9205 29.6666 20C29.6666 19.0796 28.9204 18.3334 27.9999 18.3334C27.0794 18.3334 26.3333 19.0796 26.3333 20C26.3333 20.9205 27.0794 21.6667 27.9999 21.6667Z" fill="#E1DDF4"/>
<path d="M32.6667 21.6667C33.5871 21.6667 34.3333 20.9205 34.3333 20C34.3333 19.0796 33.5871 18.3334 32.6667 18.3334C31.7462 18.3334 31 19.0796 31 20C31 20.9205 31.7462 21.6667 32.6667 21.6667Z" fill="#E1DDF4"/>
<path d="M23.3334 17C24.2539 17 25.0001 16.2538 25.0001 15.3333C25.0001 14.4128 24.2539 13.6666 23.3334 13.6666C22.4129 13.6666 21.6667 14.4128 21.6667 15.3333C21.6667 16.2538 22.4129 17 23.3334 17Z" fill="#E1DDF4"/>
<path d="M27.9999 17C28.9204 17 29.6666 16.2538 29.6666 15.3333C29.6666 14.4128 28.9204 13.6666 27.9999 13.6666C27.0794 13.6666 26.3333 14.4128 26.3333 15.3333C26.3333 16.2538 27.0794 17 27.9999 17Z" fill="#E1DDF4"/>
<path d="M32.6667 17C33.5871 17 34.3333 16.2538 34.3333 15.3333C34.3333 14.4128 33.5871 13.6666 32.6667 13.6666C31.7462 13.6666 31 14.4128 31 15.3333C31 16.2538 31.7462 17 32.6667 17Z" fill="#E1DDF4"/>
<path d="M52.8736 26.16C52.0523 26.16 51.2896 26.016 50.5856 25.728C49.8816 25.44 49.263 25.04 48.7296 24.528C48.1963 24.016 47.7803 23.4133 47.4816 22.72C47.1936 22.016 47.0496 21.2533 47.0496 20.432C47.0496 19.6107 47.1936 18.8533 47.4816 18.16C47.7803 17.456 48.1856 16.848 48.6976 16.336C49.2203 15.824 49.8283 15.4293 50.5216 15.152C51.2256 14.864 51.9776 14.72 52.7776 14.72C53.343 14.72 53.8976 14.8 54.4416 14.96C54.9963 15.12 55.4976 15.344 55.9456 15.632C56.3936 15.92 56.7563 16.2453 57.0336 16.608L56.2016 17.456C55.903 17.1467 55.567 16.88 55.1936 16.656C54.8203 16.432 54.4256 16.256 54.0096 16.128C53.6043 16 53.199 15.936 52.7936 15.936C52.1643 15.936 51.5776 16.048 51.0336 16.272C50.5003 16.496 50.031 16.8107 49.6256 17.216C49.2203 17.6107 48.9056 18.0853 48.6816 18.64C48.4576 19.184 48.3456 19.7813 48.3456 20.432C48.3456 21.0613 48.4576 21.6533 48.6816 22.208C48.9163 22.752 49.2416 23.232 49.6576 23.648C50.0843 24.0533 50.575 24.368 51.1296 24.592C51.6843 24.816 52.2816 24.928 52.9216 24.928C53.423 24.928 53.8923 24.8533 54.3296 24.704C54.7776 24.5547 55.167 24.3467 55.4976 24.08C55.8283 23.8027 56.0843 23.4827 56.2656 23.12C56.447 22.7573 56.5376 22.368 56.5376 21.952V21.392L56.7936 21.712H52.8576V20.48H57.7856C57.7963 20.5653 57.807 20.6667 57.8176 20.784C57.8283 20.8907 57.8336 21.0027 57.8336 21.12C57.8443 21.2267 57.8496 21.328 57.8496 21.424C57.8496 22.1173 57.7216 22.7573 57.4656 23.344C57.2096 23.92 56.8523 24.4213 56.3936 24.848C55.9456 25.264 55.423 25.5893 54.8256 25.824C54.2283 26.048 53.5776 26.16 52.8736 26.16ZM63.3324 26.16C62.5004 26.16 61.759 25.9787 61.1084 25.616C60.4684 25.2533 59.967 24.7467 59.6044 24.096C59.2417 23.4453 59.0604 22.6987 59.0604 21.856C59.0604 21.2053 59.1617 20.6187 59.3644 20.096C59.567 19.5627 59.8497 19.0987 60.2124 18.704C60.5857 18.3093 61.0284 18.0053 61.5404 17.792C62.0524 17.568 62.607 17.456 63.2044 17.456C63.7697 17.456 64.2817 17.5573 64.7404 17.76C65.2097 17.9627 65.6097 18.2453 65.9404 18.608C66.2817 18.96 66.5377 19.3813 66.7084 19.872C66.879 20.3627 66.9537 20.9013 66.9324 21.488L66.9164 22.048H59.9564L59.7804 21.04H66.0044L65.7164 21.312V20.928C65.695 20.544 65.583 20.176 65.3804 19.824C65.1777 19.4613 64.8897 19.168 64.5164 18.944C64.1537 18.72 63.7164 18.608 63.2044 18.608C62.607 18.608 62.0897 18.7307 61.6524 18.976C61.215 19.2107 60.879 19.5627 60.6444 20.032C60.4097 20.5013 60.2924 21.0827 60.2924 21.776C60.2924 22.4373 60.4204 23.0133 60.6764 23.504C60.9324 23.984 61.295 24.3573 61.7644 24.624C62.2444 24.8907 62.8204 25.024 63.4924 25.024C63.887 25.024 64.2764 24.96 64.6604 24.832C65.055 24.6933 65.487 24.4267 65.9564 24.032L66.5804 24.896C66.335 25.1413 66.0417 25.36 65.7004 25.552C65.359 25.7333 64.9857 25.8827 64.5804 26C64.175 26.1067 63.759 26.16 63.3324 26.16ZM68.6368 26V17.648H69.8368L69.8688 19.872L69.7408 19.568C69.8581 19.1947 70.0448 18.848 70.3008 18.528C70.5674 18.208 70.8821 17.952 71.2448 17.76C71.6074 17.568 72.0074 17.472 72.4448 17.472C72.6261 17.472 72.7968 17.488 72.9568 17.52C73.1168 17.5413 73.2501 17.5733 73.3568 17.616L73.0208 18.96C72.8821 18.896 72.7381 18.8533 72.5888 18.832C72.4501 18.8 72.3168 18.784 72.1888 18.784C71.8261 18.784 71.5008 18.848 71.2128 18.976C70.9248 19.104 70.6794 19.2853 70.4768 19.52C70.2741 19.744 70.1194 20.0053 70.0128 20.304C69.9061 20.6027 69.8528 20.9227 69.8528 21.264V26H68.6368ZM77.9261 26.16C77.0941 26.16 76.3528 25.9787 75.7021 25.616C75.0621 25.2533 74.5608 24.7467 74.1981 24.096C73.8355 23.4453 73.6541 22.6987 73.6541 21.856C73.6541 21.2053 73.7555 20.6187 73.9581 20.096C74.1608 19.5627 74.4435 19.0987 74.8061 18.704C75.1795 18.3093 75.6221 18.0053 76.1341 17.792C76.6461 17.568 77.2008 17.456 77.7981 17.456C78.3635 17.456 78.8755 17.5573 79.3341 17.76C79.8035 17.9627 80.2035 18.2453 80.5341 18.608C80.8755 18.96 81.1315 19.3813 81.3021 19.872C81.4728 20.3627 81.5475 20.9013 81.5261 21.488L81.5101 22.048H74.5501L74.3741 21.04H80.5981L80.3101 21.312V20.928C80.2888 20.544 80.1768 20.176 79.9741 19.824C79.7715 19.4613 79.4835 19.168 79.1101 18.944C78.7475 18.72 78.3101 18.608 77.7981 18.608C77.2008 18.608 76.6835 18.7307 76.2461 18.976C75.8088 19.2107 75.4728 19.5627 75.2381 20.032C75.0035 20.5013 74.8861 21.0827 74.8861 21.776C74.8861 22.4373 75.0141 23.0133 75.2701 23.504C75.5261 23.984 75.8888 24.3573 76.3581 24.624C76.8381 24.8907 77.4141 25.024 78.0861 25.024C78.4808 25.024 78.8701 24.96 79.2541 24.832C79.6488 24.6933 80.0808 24.4267 80.5501 24.032L81.1741 24.896C80.9288 25.1413 80.6355 25.36 80.2941 25.552C79.9528 25.7333 79.5795 25.8827 79.1741 26C78.7688 26.1067 78.3528 26.16 77.9261 26.16ZM83.2305 26V17.648H84.4145L84.4625 19.392L84.2705 19.472C84.3772 19.1093 84.5852 18.7787 84.8945 18.48C85.2038 18.1813 85.5718 17.9413 85.9985 17.76C86.4358 17.568 86.8838 17.472 87.3425 17.472C87.9612 17.472 88.4785 17.5947 88.8945 17.84C89.3105 18.0853 89.6252 18.464 89.8385 18.976C90.0518 19.488 90.1585 20.1387 90.1585 20.928V26H88.9425V20.992C88.9425 20.4373 88.8678 19.984 88.7185 19.632C88.5798 19.2693 88.3612 19.0027 88.0625 18.832C87.7638 18.6613 87.3958 18.5813 86.9585 18.592C86.5958 18.592 86.2598 18.656 85.9505 18.784C85.6412 18.9013 85.3745 19.0667 85.1505 19.28C84.9265 19.4933 84.7505 19.7387 84.6225 20.016C84.4945 20.2933 84.4305 20.592 84.4305 20.912V26H83.8385C83.7638 26 83.6785 26 83.5825 26C83.4865 26 83.3692 26 83.2305 26ZM95.9693 26.16C95.1799 26.16 94.4759 25.9733 93.8573 25.6C93.2386 25.216 92.7479 24.6987 92.3853 24.048C92.0333 23.3867 91.8573 22.64 91.8573 21.808C91.8573 20.976 92.0333 20.2347 92.3853 19.584C92.7479 18.9227 93.2386 18.4053 93.8573 18.032C94.4759 17.6587 95.1853 17.472 95.9852 17.472C96.6999 17.472 97.3506 17.616 97.9373 17.904C98.5239 18.1813 98.9933 18.5707 99.3453 19.072L98.6413 19.936C98.4386 19.6693 98.1933 19.4347 97.9053 19.232C97.6279 19.0293 97.3239 18.8747 96.9933 18.768C96.6733 18.6507 96.3533 18.592 96.0333 18.592C95.4679 18.592 94.9613 18.736 94.5133 19.024C94.0653 19.3013 93.7079 19.68 93.4413 20.16C93.1853 20.64 93.0573 21.1893 93.0573 21.808C93.0573 22.4267 93.1853 22.9813 93.4413 23.472C93.7079 23.952 94.0653 24.3307 94.5133 24.608C94.9613 24.8853 95.4626 25.024 96.0173 25.024C96.3373 25.024 96.6519 24.976 96.9613 24.88C97.2706 24.7733 97.5639 24.624 97.8413 24.432C98.1186 24.24 98.3746 24 98.6093 23.712L99.3133 24.576C98.9506 25.056 98.4653 25.44 97.8573 25.728C97.2493 26.016 96.6199 26.16 95.9693 26.16ZM101.191 26V17.648H102.391V26H101.191ZM101.783 15.84C101.484 15.84 101.255 15.7653 101.095 15.616C100.946 15.456 100.871 15.2427 100.871 14.976C100.871 14.7093 100.951 14.496 101.111 14.336C101.271 14.176 101.495 14.096 101.783 14.096C102.071 14.096 102.295 14.176 102.455 14.336C102.615 14.4853 102.695 14.6987 102.695 14.976C102.695 15.232 102.615 15.44 102.455 15.6C102.295 15.76 102.071 15.84 101.783 15.84ZM108.276 26.16C107.55 26.16 106.894 25.9733 106.308 25.6C105.721 25.216 105.257 24.6987 104.916 24.048C104.574 23.3867 104.404 22.64 104.404 21.808C104.404 20.9653 104.58 20.2187 104.932 19.568C105.284 18.9173 105.753 18.4053 106.34 18.032C106.937 17.6587 107.604 17.472 108.34 17.472C108.777 17.472 109.182 17.536 109.556 17.664C109.929 17.792 110.26 17.9733 110.548 18.208C110.846 18.432 111.092 18.6987 111.284 19.008C111.486 19.3067 111.625 19.632 111.7 19.984L111.348 19.808L111.396 17.648H112.596V26H111.38V23.952L111.7 23.744C111.625 24.064 111.481 24.3733 111.268 24.672C111.054 24.96 110.793 25.216 110.484 25.44C110.185 25.664 109.844 25.84 109.46 25.968C109.086 26.096 108.692 26.16 108.276 26.16ZM108.548 25.008C109.102 25.008 109.598 24.8747 110.036 24.608C110.473 24.3307 110.814 23.952 111.06 23.472C111.316 22.9813 111.444 22.4267 111.444 21.808C111.444 21.1893 111.316 20.64 111.06 20.16C110.814 19.68 110.473 19.3013 110.036 19.024C109.598 18.7467 109.102 18.608 108.548 18.608C107.982 18.608 107.481 18.7467 107.044 19.024C106.617 19.3013 106.276 19.68 106.02 20.16C105.774 20.64 105.652 21.1893 105.652 21.808C105.652 22.416 105.774 22.9653 106.02 23.456C106.265 23.936 106.606 24.3147 107.044 24.592C107.481 24.8693 107.982 25.008 108.548 25.008ZM114.934 26V17.648H116.134L116.166 19.872L116.038 19.568C116.155 19.1947 116.342 18.848 116.598 18.528C116.864 18.208 117.179 17.952 117.542 17.76C117.904 17.568 118.304 17.472 118.742 17.472C118.923 17.472 119.094 17.488 119.254 17.52C119.414 17.5413 119.547 17.5733 119.654 17.616L119.318 18.96C119.179 18.896 119.035 18.8533 118.886 18.832C118.747 18.8 118.614 18.784 118.486 18.784C118.123 18.784 117.798 18.848 117.51 18.976C117.222 19.104 116.976 19.2853 116.774 19.52C116.571 19.744 116.416 20.0053 116.31 20.304C116.203 20.6027 116.15 20.9227 116.15 21.264V26H114.934Z" fill="#E1DDF4"/>
</svg>
