<svg width="25" height="24" viewBox="0 0 25 24" fill="none" xmlns="http://www.w3.org/2000/svg">
<path d="M22.1449 11.8443L13.002 2.70808C12.9362 2.64212 12.858 2.58979 12.7719 2.55408C12.6858 2.51838 12.5935 2.5 12.5003 2.5C12.4072 2.5 12.3149 2.51838 12.2288 2.55408C12.1427 2.58979 12.0645 2.64212 11.9987 2.70808L2.85578 11.8443C2.58942 12.1107 2.43848 12.4725 2.43848 12.8499C2.43848 13.6334 3.07553 14.2705 3.85908 14.2705H4.82243V20.7897C4.82243 21.1826 5.13984 21.5 5.53273 21.5H11.0797V16.5279H13.5658V21.5H19.468C19.8608 21.5 20.1783 21.1826 20.1783 20.7897V14.2705H21.1416C21.519 14.2705 21.8808 14.1217 22.1471 13.8532C22.6998 13.2982 22.6998 12.3993 22.1449 11.8443Z" fill="#E1DDF4"/>
</svg>
