<svg width="219" height="32" viewBox="0 0 219 32" fill="none" xmlns="http://www.w3.org/2000/svg">
<path d="M15.8187 28.4374C21.9247 28.4374 26.8746 23.4874 26.8746 17.3814C26.8746 11.2754 21.9247 6.32544 15.8187 6.32544C9.71262 6.32544 4.7627 11.2754 4.7627 17.3814C4.7627 23.4874 9.71262 28.4374 15.8187 28.4374Z" stroke="#9C60DA" stroke-width="3.15884"/>
<path d="M6.28655 3.38135C5.21507 3.66831 4.23804 4.23233 3.45369 5.01668C2.66934 5.80103 2.10533 6.77806 1.81836 7.84953M25.3502 3.38135C26.4216 3.66831 27.3987 4.23233 28.183 5.01668C28.9674 5.80103 29.5314 6.77806 29.8184 7.84953M15.8184 11.0637V16.9865C15.8184 17.2045 15.9953 17.3813 16.2132 17.3813H20.5566" stroke="#9C60DA" stroke-width="3.15884" stroke-linecap="round"/>
<path d="M55.704 25V8.2H57.576V25H55.704ZM44.472 25V8.2H46.344V25H44.472ZM45.384 17.536V15.712H56.496V17.536H45.384ZM67.3429 25.24C66.0949 25.24 64.9829 24.96 64.0069 24.4C63.0469 23.84 62.2869 23.064 61.7269 22.072C61.1829 21.08 60.9109 19.952 60.9109 18.688C60.9109 17.44 61.1829 16.328 61.7269 15.352C62.2869 14.376 63.0469 13.608 64.0069 13.048C64.9829 12.488 66.0949 12.208 67.3429 12.208C68.5749 12.208 69.6709 12.488 70.6309 13.048C71.6069 13.608 72.3669 14.376 72.9109 15.352C73.4709 16.328 73.7509 17.44 73.7509 18.688C73.7509 19.952 73.4709 21.08 72.9109 22.072C72.3669 23.064 71.6069 23.84 70.6309 24.4C69.6709 24.96 68.5749 25.24 67.3429 25.24ZM67.3429 23.536C68.2229 23.536 69.0069 23.328 69.6949 22.912C70.3829 22.48 70.9189 21.904 71.3029 21.184C71.6869 20.448 71.8789 19.616 71.8789 18.688C71.8789 17.76 71.6869 16.936 71.3029 16.216C70.9189 15.496 70.3829 14.936 69.6949 14.536C69.0069 14.12 68.2229 13.912 67.3429 13.912C66.4629 13.912 65.6709 14.12 64.9669 14.536C64.2789 14.936 63.7349 15.504 63.3349 16.24C62.9509 16.96 62.7669 17.776 62.7829 18.688C62.7669 19.616 62.9509 20.448 63.3349 21.184C63.7349 21.904 64.2789 22.48 64.9669 22.912C65.6709 23.328 66.4629 23.536 67.3429 23.536ZM76.377 25V12.472H78.177L78.225 15.808L78.033 15.352C78.209 14.792 78.489 14.272 78.873 13.792C79.273 13.312 79.745 12.928 80.289 12.64C80.833 12.352 81.433 12.208 82.089 12.208C82.361 12.208 82.617 12.232 82.857 12.28C83.097 12.312 83.297 12.36 83.457 12.424L82.953 14.44C82.745 14.344 82.529 14.28 82.305 14.248C82.097 14.2 81.897 14.176 81.705 14.176C81.161 14.176 80.673 14.272 80.241 14.464C79.809 14.656 79.441 14.928 79.137 15.28C78.833 15.616 78.601 16.008 78.441 16.456C78.281 16.904 78.201 17.384 78.201 17.896V25H76.377ZM89.6871 25.24C88.5991 25.24 87.6151 24.96 86.7351 24.4C85.8551 23.824 85.1591 23.048 84.6471 22.072C84.1351 21.08 83.8791 19.96 83.8791 18.712C83.8791 17.448 84.1431 16.328 84.6711 15.352C85.1991 14.376 85.9031 13.608 86.7831 13.048C87.6791 12.488 88.6791 12.208 89.7831 12.208C90.4391 12.208 91.0471 12.304 91.6071 12.496C92.1671 12.688 92.6631 12.96 93.0951 13.312C93.5431 13.648 93.9111 14.048 94.1991 14.512C94.5031 14.96 94.7111 15.448 94.8231 15.976L94.2951 15.712L94.3671 12.472H96.1671V25H94.3431V21.928L94.8231 21.616C94.7111 22.096 94.4951 22.56 94.1751 23.008C93.8551 23.44 93.4631 23.824 92.9991 24.16C92.5511 24.496 92.0391 24.76 91.4631 24.952C90.9031 25.144 90.3111 25.24 89.6871 25.24ZM90.0951 23.512C90.9271 23.512 91.6711 23.312 92.3271 22.912C92.9831 22.496 93.4951 21.928 93.8631 21.208C94.2471 20.472 94.4391 19.64 94.4391 18.712C94.4391 17.784 94.2471 16.96 93.8631 16.24C93.4951 15.52 92.9831 14.952 92.3271 14.536C91.6711 14.12 90.9271 13.912 90.0951 13.912C89.2471 13.912 88.4951 14.12 87.8391 14.536C87.1991 14.952 86.6871 15.52 86.3031 16.24C85.9351 16.96 85.7511 17.784 85.7511 18.712C85.7511 19.624 85.9351 20.448 86.3031 21.184C86.6711 21.904 87.1831 22.472 87.8391 22.888C88.4951 23.304 89.2471 23.512 90.0951 23.512ZM111.488 25.24C110.352 25.24 109.328 24.96 108.416 24.4C107.52 23.84 106.808 23.072 106.28 22.096C105.768 21.104 105.512 19.984 105.512 18.736C105.512 17.472 105.776 16.352 106.304 15.376C106.832 14.384 107.544 13.608 108.44 13.048C109.336 12.488 110.344 12.208 111.464 12.208C112.088 12.208 112.688 12.304 113.264 12.496C113.856 12.688 114.384 12.96 114.848 13.312C115.312 13.648 115.696 14.04 116 14.488C116.304 14.92 116.488 15.376 116.552 15.856L116 15.664V7.24H117.8V25H116.024L115.976 21.88L116.432 21.712C116.368 22.16 116.184 22.6 115.88 23.032C115.592 23.448 115.224 23.824 114.776 24.16C114.328 24.496 113.816 24.76 113.24 24.952C112.68 25.144 112.096 25.24 111.488 25.24ZM111.752 23.584C112.584 23.584 113.328 23.376 113.984 22.96C114.64 22.544 115.152 21.968 115.52 21.232C115.904 20.496 116.096 19.656 116.096 18.712C116.096 17.768 115.904 16.936 115.52 16.216C115.152 15.48 114.64 14.904 113.984 14.488C113.328 14.056 112.584 13.84 111.752 13.84C110.888 13.84 110.128 14.056 109.472 14.488C108.832 14.904 108.32 15.48 107.936 16.216C107.568 16.936 107.384 17.768 107.384 18.712C107.384 19.64 107.568 20.472 107.936 21.208C108.304 21.944 108.816 22.528 109.472 22.96C110.128 23.376 110.888 23.584 111.752 23.584ZM126.851 25.24C125.603 25.24 124.491 24.96 123.515 24.4C122.555 23.84 121.795 23.064 121.235 22.072C120.691 21.08 120.419 19.952 120.419 18.688C120.419 17.44 120.691 16.328 121.235 15.352C121.795 14.376 122.555 13.608 123.515 13.048C124.491 12.488 125.603 12.208 126.851 12.208C128.083 12.208 129.179 12.488 130.139 13.048C131.115 13.608 131.875 14.376 132.419 15.352C132.979 16.328 133.259 17.44 133.259 18.688C133.259 19.952 132.979 21.08 132.419 22.072C131.875 23.064 131.115 23.84 130.139 24.4C129.179 24.96 128.083 25.24 126.851 25.24ZM126.851 23.536C127.731 23.536 128.515 23.328 129.203 22.912C129.891 22.48 130.427 21.904 130.811 21.184C131.195 20.448 131.387 19.616 131.387 18.688C131.387 17.76 131.195 16.936 130.811 16.216C130.427 15.496 129.891 14.936 129.203 14.536C128.515 14.12 127.731 13.912 126.851 13.912C125.971 13.912 125.179 14.12 124.475 14.536C123.787 14.936 123.243 15.504 122.843 16.24C122.459 16.96 122.275 17.776 122.291 18.688C122.275 19.616 122.459 20.448 122.843 21.184C123.243 21.904 123.787 22.48 124.475 22.912C125.179 23.328 125.971 23.536 126.851 23.536ZM143.331 25V8.2H153.507V10.024H145.203V23.176H153.459V25H143.331ZM144.195 17.272V15.448H152.163V17.272H144.195ZM160.515 25L155.235 12.472H157.227L161.403 22.72L160.923 22.984L165.507 12.472H167.427L161.811 25H160.515ZM174.71 25.24C173.462 25.24 172.35 24.968 171.374 24.424C170.414 23.88 169.662 23.12 169.118 22.144C168.574 21.168 168.302 20.048 168.302 18.784C168.302 17.808 168.454 16.928 168.758 16.144C169.062 15.344 169.486 14.648 170.03 14.056C170.59 13.464 171.254 13.008 172.022 12.688C172.79 12.352 173.622 12.184 174.518 12.184C175.366 12.184 176.134 12.336 176.822 12.64C177.526 12.944 178.126 13.368 178.622 13.912C179.134 14.44 179.518 15.072 179.773 15.808C180.03 16.544 180.142 17.352 180.109 18.232L180.086 19.072H169.646L169.382 17.56H178.718L178.286 17.968V17.392C178.254 16.816 178.086 16.264 177.782 15.736C177.478 15.192 177.046 14.752 176.486 14.416C175.942 14.08 175.286 13.912 174.518 13.912C173.622 13.912 172.846 14.096 172.19 14.464C171.534 14.816 171.03 15.344 170.678 16.048C170.326 16.752 170.15 17.624 170.15 18.664C170.15 19.656 170.342 20.52 170.726 21.256C171.11 21.976 171.654 22.536 172.358 22.936C173.078 23.336 173.942 23.536 174.95 23.536C175.542 23.536 176.126 23.44 176.702 23.248C177.294 23.04 177.942 22.64 178.646 22.048L179.582 23.344C179.214 23.712 178.774 24.04 178.262 24.328C177.75 24.6 177.19 24.824 176.582 25C175.974 25.16 175.35 25.24 174.71 25.24ZM182.666 25V12.472H184.442L184.514 15.088L184.226 15.208C184.386 14.664 184.698 14.168 185.162 13.72C185.626 13.272 186.178 12.912 186.818 12.64C187.474 12.352 188.146 12.208 188.834 12.208C189.762 12.208 190.538 12.392 191.162 12.76C191.786 13.128 192.258 13.696 192.578 14.464C192.898 15.232 193.058 16.208 193.058 17.392V25H191.234V17.488C191.234 16.656 191.122 15.976 190.898 15.448C190.69 14.904 190.362 14.504 189.914 14.248C189.466 13.992 188.914 13.872 188.258 13.888C187.714 13.888 187.21 13.984 186.746 14.176C186.282 14.352 185.882 14.6 185.546 14.92C185.21 15.24 184.946 15.608 184.754 16.024C184.562 16.44 184.466 16.888 184.466 17.368V25H183.578C183.466 25 183.338 25 183.194 25C183.05 25 182.874 25 182.666 25ZM198.222 25V9.184H200.022V25H198.222ZM195.39 14.2V12.472H203.19V14.2H195.39ZM210.827 25.24C209.579 25.24 208.467 24.96 207.491 24.4C206.531 23.84 205.771 23.064 205.211 22.072C204.667 21.08 204.395 19.952 204.395 18.688C204.395 17.44 204.667 16.328 205.211 15.352C205.771 14.376 206.531 13.608 207.491 13.048C208.467 12.488 209.579 12.208 210.827 12.208C212.059 12.208 213.155 12.488 214.115 13.048C215.091 13.608 215.851 14.376 216.395 15.352C216.955 16.328 217.235 17.44 217.235 18.688C217.235 19.952 216.955 21.08 216.395 22.072C215.851 23.064 215.091 23.84 214.115 24.4C213.155 24.96 212.059 25.24 210.827 25.24ZM210.827 23.536C211.707 23.536 212.491 23.328 213.179 22.912C213.867 22.48 214.403 21.904 214.787 21.184C215.171 20.448 215.363 19.616 215.363 18.688C215.363 17.76 215.171 16.936 214.787 16.216C214.403 15.496 213.867 14.936 213.179 14.536C212.491 14.12 211.707 13.912 210.827 13.912C209.947 13.912 209.155 14.12 208.451 14.536C207.763 14.936 207.219 15.504 206.819 16.24C206.435 16.96 206.251 17.776 206.267 18.688C206.251 19.616 206.435 20.448 206.819 21.184C207.219 21.904 207.763 22.48 208.451 22.912C209.155 23.328 209.947 23.536 210.827 23.536Z" fill="url(#paint0_linear_925_5195)"/>
<defs>
<linearGradient id="paint0_linear_925_5195" x1="219" y1="16" x2="42" y2="16" gradientUnits="userSpaceOnUse">
<stop stop-color="#43A3D5"/>
<stop offset="1" stop-color="#9C60DA"/>
</linearGradient>
</defs>
</svg>
