<svg width="16" height="16" viewBox="0 0 16 16" fill="none" xmlns="http://www.w3.org/2000/svg">
<path d="M3.33333 14C2.96667 14 2.65289 13.8696 2.392 13.6087C2.13111 13.3478 2.00044 13.0338 2 12.6667V8.26667L3.53333 9.8C3.66667 9.93333 3.82222 10 4 10C4.17778 10 4.33333 9.93333 4.46667 9.8L6.66667 7.6L8.86667 9.8C9 9.93333 9.15555 10 9.33333 10C9.51111 10 9.66667 9.93333 9.8 9.8L12 7.6L14 9.6V12.6667C14 13.0333 13.8696 13.3473 13.6087 13.6087C13.3478 13.87 13.0338 14.0004 12.6667 14H3.33333ZM3.33333 2H12.6667C13.0333 2 13.3473 2.13067 13.6087 2.392C13.87 2.65333 14.0004 2.96711 14 3.33333V7.71667L12.4667 6.18333C12.3333 6.05 12.1778 5.98333 12 5.98333C11.8222 5.98333 11.6667 6.05 11.5333 6.18333L9.33333 8.38333L7.13333 6.18333C7 6.05 6.84444 5.98333 6.66667 5.98333C6.48889 5.98333 6.33333 6.05 6.2 6.18333L4 8.38333L2 6.38333V3.33333C2 2.96667 2.13067 2.65289 2.392 2.392C2.65333 2.13111 2.96711 2.00044 3.33333 2Z" fill="#E50000"/>
</svg>
