<svg width="18" height="16" viewBox="0 0 18 16" fill="none" xmlns="http://www.w3.org/2000/svg">
<path d="M15.4285 2H2.57136C1.86154 2 1.28564 2.57589 1.28564 3.28571V3.71429H16.7142V3.28571C16.7142 2.57589 16.1383 2 15.4285 2ZM1.28564 12.7143C1.28564 13.4241 1.86154 14 2.57136 14H15.4285C16.1383 14 16.7142 13.4241 16.7142 12.7143V4.57143H1.28564V12.7143ZM10.7142 6.5C10.7142 6.38214 10.8106 6.28571 10.9285 6.28571H14.7856C14.9035 6.28571 14.9999 6.38214 14.9999 6.5V6.92857C14.9999 7.04643 14.9035 7.14286 14.7856 7.14286H10.9285C10.8106 7.14286 10.7142 7.04643 10.7142 6.92857V6.5ZM10.7142 8.21429C10.7142 8.09643 10.8106 8 10.9285 8H14.7856C14.9035 8 14.9999 8.09643 14.9999 8.21429V8.64286C14.9999 8.76071 14.9035 8.85714 14.7856 8.85714H10.9285C10.8106 8.85714 10.7142 8.76071 10.7142 8.64286V8.21429ZM10.7142 9.92857C10.7142 9.81071 10.8106 9.71429 10.9285 9.71429H14.7856C14.9035 9.71429 14.9999 9.81071 14.9999 9.92857V10.3571C14.9999 10.475 14.9035 10.5714 14.7856 10.5714H10.9285C10.8106 10.5714 10.7142 10.475 10.7142 10.3571V9.92857ZM5.99993 6.28571C6.94547 6.28571 7.71422 7.05446 7.71422 8C7.71422 8.94554 6.94547 9.71429 5.99993 9.71429C5.05439 9.71429 4.28564 8.94554 4.28564 8C4.28564 7.05446 5.05439 6.28571 5.99993 6.28571ZM3.08297 11.7554C3.30797 11.067 3.9535 10.5714 4.71422 10.5714H4.93386C5.26332 10.708 5.62225 10.7857 5.99993 10.7857C6.37761 10.7857 6.73922 10.708 7.066 10.5714H7.28564C8.04636 10.5714 8.69189 11.067 8.91689 11.7554C9.00261 12.0205 8.77761 12.2857 8.49904 12.2857H3.50082C3.22225 12.2857 2.99725 12.0179 3.08297 11.7554Z" fill="#E1DDF4"/>
</svg>
