<svg width="16" height="16" viewBox="0 0 16 16" fill="none" xmlns="http://www.w3.org/2000/svg">
<path d="M8.33282 14.8558C8.82694 14.8558 9.3215 14.8536 9.81563 14.8567C10.0499 14.858 10.2202 15.0713 10.2363 15.3722C10.2554 15.7265 10.0816 15.9946 9.82215 15.9976C9.43841 16.002 9.0551 15.999 8.67136 15.999C8.06642 15.999 7.46147 16.0003 6.85609 15.9981C6.62533 15.9972 6.45366 15.7949 6.43107 15.5067C6.40238 15.144 6.57578 14.8598 6.83784 14.8571C7.33631 14.8528 7.83478 14.8563 8.33282 14.8558Z" fill="#9C60DA"/>
<path d="M8.33243 12.851C9.0256 12.851 9.71876 12.8488 10.4119 12.8519C10.7405 12.8532 10.9791 13.0665 11.0017 13.3674C11.0286 13.7217 10.7848 13.9897 10.4211 13.9928C9.88304 13.9972 9.34545 13.9941 8.80743 13.9941C7.95912 13.9941 7.11037 13.9954 6.26206 13.9932C5.93872 13.9924 5.69796 13.79 5.6658 13.5018C5.62539 13.1392 5.86876 12.8549 6.23598 12.8523C6.93523 12.8475 7.63361 12.851 8.33243 12.851Z" fill="#9C60DA"/>
<path d="M8.32379 12.0301C7.50763 12.0301 6.69148 12.0323 5.87576 12.0262C5.80579 12.0257 5.70236 11.9907 5.67107 11.9377C5.06699 10.9111 4.34862 9.96546 3.66067 8.99708C2.89797 7.92446 2.56855 6.7095 2.65373 5.38986C2.75933 3.75487 3.44164 2.40326 4.67456 1.34247C5.48593 0.64476 6.42942 0.215538 7.48764 0.0648718C9.13386 -0.169449 10.621 0.229991 11.9135 1.27983C13.0569 2.20836 13.7457 3.42157 13.9595 4.891C14.199 6.53869 13.7826 8.01513 12.774 9.32644C12.1412 10.1494 11.5515 11.0022 11.0274 11.8996C10.9691 11.9999 10.9018 12.0327 10.7888 12.0323C9.96739 12.0279 9.14559 12.0301 8.32379 12.0301Z" fill="#9C60DA"/>
</svg>
