<svg width="32" height="32" viewBox="0 0 32 32" fill="none" xmlns="http://www.w3.org/2000/svg">
<rect width="32" height="32" rx="16" fill="#1D1933"/>
<path d="M11.625 24C11.1437 24 10.7319 23.8261 10.3895 23.4782C10.0471 23.1304 9.87558 22.7117 9.875 22.2222V10.6667H9V8.88889H13.375V8H18.625V8.88889H23V10.6667H22.125V22.2222C22.125 22.7111 21.9538 23.1298 21.6114 23.4782C21.269 23.8267 20.8568 24.0006 20.375 24H11.625ZM20.375 10.6667H11.625V22.2222H20.375V10.6667ZM13.375 20.4444H15.125V12.4444H13.375V20.4444ZM16.875 20.4444H18.625V12.4444H16.875V20.4444Z" fill="#E1DDF4"/>
</svg>
