<svg width="94" height="34" viewBox="0 0 94 34" fill="none" xmlns="http://www.w3.org/2000/svg">
<g clip-path="url(#clip0_672_558)">
<path d="M15.3266 0.000138181C15.3266 0.64978 15.3266 1.30005 15.3266 1.94969C15.3266 3.49517 15.3266 5.04066 15.3266 6.58614C15.3266 8.4223 15.3266 10.2585 15.3266 12.0946C15.3266 13.6163 15.3266 15.1386 15.3266 16.6603C15.3266 17.8362 15.4361 19.0227 14.8372 20.0908C14.4686 20.7486 13.9502 21.3945 13.3671 21.8756C11.617 23.3202 9.31956 23.4392 8.76094 23.4562C8.18722 23.4768 6.16787 23.4812 4.26743 22.046C2.25437 20.5262 1.75237 18.4319 1.64102 17.8982C1.52653 17.3055 1.28496 15.6417 2.11283 13.7911C2.9753 11.8628 4.46747 10.9206 4.98521 10.6243C5.61932 10.3192 7.79593 9.37014 10.479 10.0317C12.453 10.5184 13.7168 11.6342 14.2591 12.1773C14.6145 11.7889 14.9706 11.4011 15.326 11.0127C14.8555 10.521 14.1421 9.88509 13.1513 9.33756C11.9088 8.65033 10.7551 8.39223 10.0015 8.2851C9.14594 8.16796 7.5248 8.06459 5.6621 8.70421C3.30494 9.5136 1.92222 11.0453 1.37366 11.7281C0.952811 12.4129 -0.404112 14.8103 0.116136 17.9063C0.424385 19.74 1.26169 21.0493 1.78382 21.7396C2.25186 22.3241 3.00361 23.1128 4.11142 23.7744C4.45678 23.9805 6.2635 25.0248 8.84209 25.0085C10.7249 24.9966 12.0982 24.4253 12.5046 24.2455C14.7831 23.2363 16.6653 21.3187 16.8779 18.7389C16.9062 18.3975 16.8849 18.0592 16.8849 17.7171C16.8849 16.015 16.8849 14.3129 16.8849 12.6115C16.8849 9.20726 16.8849 5.80369 16.8849 2.39949C16.8849 1.5995 16.8849 0.799504 16.8849 -0.000488281L15.3266 0.000138181Z" fill="#E1DDF4"/>
<path d="M36.3782 16.8971H34.9005C34.9212 17.5518 34.8709 19.0872 33.8738 20.5958C32.1992 23.1329 29.296 23.3929 28.9915 23.4161C27.4522 23.5276 26.2487 23.044 25.6668 22.7614C28.0473 18.3762 30.4277 13.991 32.8081 9.60321C32.2992 9.25427 31.5733 8.83642 30.6315 8.54199C29.1261 8.06963 27.8133 8.14982 27.0571 8.25444C26.2827 8.4004 24.8987 8.76563 23.4921 9.78739C21.8263 10.999 21.0198 12.4843 20.6808 13.2192C20.3807 14.0561 19.9649 15.5721 20.1838 17.4472C20.3348 18.7433 20.7254 19.6648 20.8355 19.9142C21.8622 22.2477 23.6884 23.4098 24.2923 23.7826C24.8736 24.1415 25.7945 24.6201 27.037 24.9152C27.4509 24.9967 27.99 25.0693 28.6222 25.0687C28.6222 25.0687 29.3507 25.0674 30.061 24.9384C30.6718 24.8275 33.8266 24.0989 35.4754 21.127C36.4342 19.3998 36.4373 17.7184 36.3782 16.8971ZM22.7756 20.3928C22.234 19.6185 21.9811 18.9413 21.8207 18.3618C21.6835 17.8669 21.3709 16.6841 21.6653 15.1844C21.9723 13.6213 22.7624 12.6096 23.1512 12.1235C23.4776 11.7156 24.0784 11.0146 25.0937 10.4007C25.5656 10.1157 26.7023 9.51989 28.253 9.54057C29.5225 9.55873 30.4799 9.98097 30.9612 10.2366C28.8009 14.0699 26.4884 18.1375 24.3282 21.9727C23.9136 21.7748 23.3135 21.1614 22.7756 20.3928Z" fill="#E1DDF4"/>
<path d="M88.4439 16.8971H86.9662C86.9869 17.5518 86.9366 19.0872 85.9395 20.5958C84.2649 23.1329 81.3617 23.3929 81.0572 23.4161C79.5179 23.5276 78.3144 23.044 77.7326 22.7614C80.113 18.3762 82.4934 13.991 84.8738 9.60321C84.3649 9.25427 83.639 8.83642 82.6972 8.54199C81.1918 8.06963 79.879 8.14982 79.1228 8.25444C78.3484 8.4004 76.9644 8.76563 75.5578 9.78739C73.892 10.999 73.0855 12.4843 72.7465 13.2192C72.4464 14.0561 72.0306 15.5721 72.2495 17.4472C72.4005 18.7433 72.7911 19.6648 72.9012 19.9142C73.9279 22.2477 75.7541 23.4098 76.358 23.7826C76.9393 24.1415 77.8602 24.6201 79.1027 24.9152C79.5166 24.9967 80.0557 25.0693 80.688 25.0687C80.688 25.0687 81.4164 25.0674 82.1267 24.9384C82.7375 24.8275 85.8923 24.0989 87.5411 21.127C88.4992 19.3998 88.5024 17.7184 88.4439 16.8971ZM74.8407 20.3928C74.299 19.6185 74.0461 18.9413 73.8857 18.3618C73.7486 17.8669 73.4359 16.6841 73.7303 15.1844C74.0373 13.6213 74.8275 12.6096 75.2162 12.1235C75.5427 11.7156 76.1435 11.0146 77.1588 10.4007C77.6306 10.1157 78.7674 9.51989 80.3181 9.54057C81.5875 9.55873 82.545 9.98097 83.0262 10.2366C80.866 14.0699 78.5541 18.1375 76.3932 21.9727C75.9793 21.7748 75.3785 21.1614 74.8407 20.3928Z" fill="#E1DDF4"/>
<path d="M39.8658 24.5193V8.66352H41.5895V12.1373C41.9908 11.4958 42.8042 10.385 44.2184 9.48481C45.8854 8.42421 47.4996 8.22061 48.2785 8.17425C48.8585 8.15233 51.5905 8.11098 53.9005 10.1758C55.3927 11.5102 56.447 13.4816 56.4238 15.5082C56.3955 17.9521 56.4036 20.4003 56.4036 22.846C56.4036 23.4042 56.4036 23.9617 56.4036 24.5199H54.9266C54.9266 22.2277 54.9266 19.9361 54.9266 17.6439C54.9266 17.0894 54.9266 16.5356 54.9266 15.9812C54.9266 15.2927 54.9913 14.6243 54.7083 13.9772C54.5422 13.5975 54.3333 13.2279 54.1062 12.8815C53.4671 11.9061 52.5983 11.0879 51.5616 10.5442C49.7071 9.57126 47.7261 9.60572 45.8477 10.4815C43.1659 11.7313 41.9474 14.0837 41.5492 14.9576C41.5492 18.145 41.5492 21.3325 41.5492 24.5199L39.8658 24.5193Z" fill="#E1DDF4"/>
<path d="M60.4662 8.66352V10.3393H67.4012L59.7271 24.5193H69.8483V23.0484C67.3773 23.0484 64.9063 23.0484 62.4359 23.0484C65.0214 18.2534 67.6063 13.4585 70.1918 8.66352H60.4662Z" fill="#E1DDF4"/>
<path d="M93.4998 0.000169504H91.8378V25.0098H93.4998V0.000169504Z" fill="#E1DDF4"/>
<path d="M1.78467 25.541V34.0001H47.1815V25.541H1.78467ZM10.7717 32.9577C9.00398 32.9577 7.57094 31.5306 7.57094 29.7703C7.57094 28.0099 9.00398 26.5828 10.7717 26.5828C12.5394 26.5828 13.9724 28.0099 13.9724 29.7703C13.9724 31.5306 12.5394 32.9577 10.7717 32.9577ZM20.0871 32.9577C18.3194 32.9577 16.8863 31.5306 16.8863 29.7703C16.8863 28.0099 18.3194 26.5828 20.0871 26.5828C21.8548 26.5828 23.2878 28.0099 23.2878 29.7703C23.2878 31.5306 21.8548 32.9577 20.0871 32.9577ZM29.0942 32.9577C27.3265 32.9577 25.8935 31.5306 25.8935 29.7703C25.8935 28.0099 27.3265 26.5828 29.0942 26.5828C30.862 26.5828 32.295 28.0099 32.295 29.7703C32.295 31.5306 30.862 32.9577 29.0942 32.9577ZM38.1939 32.9577C36.4262 32.9577 34.9931 31.5306 34.9931 29.7703C34.9931 28.0099 36.4262 26.5828 38.1939 26.5828C39.9616 26.5828 41.3946 28.0099 41.3946 29.7703C41.3946 31.5306 39.9616 32.9577 38.1939 32.9577Z" fill="#E1DDF4"/>
<path d="M72.3862 28.3294C71.832 28.3476 71.7193 28.714 71.7193 29.3931V30.0979H73.053V29.3931C73.053 28.714 72.941 28.3476 72.3862 28.3294Z" fill="#E1DDF4"/>
<path d="M82.3565 28.3294C81.8022 28.3476 81.6896 28.714 81.6896 29.3931V31.4385C81.6896 32.1182 81.8016 32.4841 82.3565 32.5023C82.9107 32.4841 83.0233 32.1176 83.0233 31.4385V29.3931C83.0233 28.714 82.9107 28.3476 82.3565 28.3294Z" fill="#E1DDF4"/>
<path d="M78.9726 28.3294C78.4184 28.3476 78.3058 28.714 78.3058 29.3931V30.0979H79.6395V29.3931C79.6395 28.714 79.5268 28.3476 78.9726 28.3294Z" fill="#E1DDF4"/>
<path d="M47.1821 25.541V34.0001H92.5154V25.541H47.1821ZM53.3163 32.9784H52.8281V27.8401H53.3163V32.9784ZM56.5472 32.9784H54.3568V27.8401H54.8449V32.5029H56.5472V32.9784ZM59.7272 31.4836C59.7272 32.4603 59.2963 32.9577 58.5722 32.9784C57.8482 32.9577 57.4172 32.4603 57.4172 31.4836V27.8401H57.9054V31.436C57.9054 32.1139 58.0174 32.4785 58.5722 32.4973C59.1265 32.4791 59.2391 32.1139 59.2391 31.436V27.8401H59.7272V31.4836ZM65.0455 32.9784H64.5736V28.8049L62.9884 30.8929L61.4031 28.8049V32.9784H60.9313V27.8401H61.3572L62.9884 30.049L64.6196 27.8401H65.0455V32.9784ZM66.571 32.9784H66.0828V27.8401H66.571V32.9784ZM70.2316 32.9157H69.9944L68.2556 29.4389L68.2613 29.7696V32.9151H67.8644V27.9028H68.099L69.6214 31.2825L69.7573 31.5945L69.7415 31.2569V27.9028H70.2316V32.9157ZM73.5412 32.9853H73.053V30.5853H71.7193V32.9853H71.2312V29.3455C71.2312 28.3664 71.6621 27.8677 72.3862 27.847C73.1102 27.8677 73.5412 28.3664 73.5412 29.3455V32.9853ZM75.814 32.4966C76.2217 32.4828 76.389 32.2824 76.4507 31.9078H76.9363C76.8287 32.5856 76.4437 32.9414 75.8618 32.9759C75.8046 33.0811 75.731 33.1951 75.6442 33.311C75.5844 33.3887 75.5228 33.4614 75.463 33.5253C75.4127 33.4933 75.3623 33.4639 75.3095 33.4319C75.3441 33.3524 75.3806 33.2565 75.4083 33.1469C75.429 33.0673 75.4429 32.9897 75.4517 32.9207C74.9478 32.7635 74.659 32.2843 74.659 31.483V29.3474C74.659 28.3707 75.09 27.8733 75.814 27.8527C76.4236 27.8708 76.8268 28.2267 76.9369 28.9227H76.4513C76.3896 28.5487 76.2223 28.3476 75.8147 28.3338C75.2604 28.352 75.1478 28.7172 75.1478 29.395V31.4348C75.1478 32.1132 75.2598 32.4785 75.814 32.4966ZM80.127 32.9853H79.6388V30.5853H78.3052V32.9853H77.817V29.3455C77.817 28.3664 78.2479 27.8677 78.972 27.847C79.6961 27.8677 80.127 28.3664 80.127 29.3455V32.9853ZM79.8571 27.1786C79.776 27.2018 79.6948 27.213 79.6137 27.213C79.3941 27.213 79.172 27.1247 78.9481 26.9481C78.6587 26.7213 78.4197 26.6079 78.2303 26.6079H78.2014C78.0083 26.6192 77.8736 26.7808 77.7963 27.0921H77.3911C77.4761 26.5966 77.6692 26.3047 77.9699 26.2163C78.051 26.1932 78.1322 26.1819 78.2133 26.1819C78.4335 26.1819 78.6549 26.2683 78.8789 26.4412C79.1683 26.6718 79.4073 26.787 79.5967 26.787H79.6256C79.8187 26.7751 79.9534 26.6141 80.0307 26.3028H80.4302C80.3491 26.7983 80.1578 27.0903 79.8571 27.1786ZM83.5114 31.4861C83.5114 32.4653 83.0805 32.964 82.3565 32.9846C81.6324 32.964 81.2015 32.4653 81.2015 31.4861V29.3455C81.2015 28.3664 81.6324 27.8677 82.3565 27.847C83.0805 27.8677 83.5114 28.3664 83.5114 29.3455V31.4861Z" fill="#E1DDF4"/>
</g>
<defs>
<clipPath id="clip0_672_558">
<rect width="93.5" height="34" fill="white"/>
</clipPath>
</defs>
</svg>
