<svg width="16" height="17" viewBox="0 0 16 17" fill="none" xmlns="http://www.w3.org/2000/svg">
<path fill-rule="evenodd" clip-rule="evenodd" d="M7.99966 1.8335C11.6755 1.8335 14.6664 4.82434 14.6664 8.50015C14.6664 12.176 11.6755 15.1668 7.99966 15.1668C4.32385 15.1668 1.33301 12.176 1.33301 8.50015C1.33301 4.82434 4.32385 1.8335 7.99966 1.8335ZM8.02823 5.44125C7.39591 4.96031 6.56935 4.79446 5.97698 4.92843L7.0026 5.95406L6.48979 6.97968L5.46416 7.49253L4.43851 6.4669C4.30454 7.05928 4.47038 7.88584 4.95132 8.51815C5.60701 9.02246 6.41363 9.19259 7.00257 9.03096L9.34226 11.2521C9.78593 11.6435 10.2296 11.6174 10.6733 11.1738C11.1447 10.7024 11.1447 10.231 10.6733 9.75956C9.23162 8.34512 8.52088 7.58944 8.54107 7.49253C8.70263 6.90362 8.53251 6.09696 8.02826 5.44128" fill="#43A3D5"/>
</svg>
