<svg width="16" height="16" viewBox="0 0 16 16" fill="none" xmlns="http://www.w3.org/2000/svg">
<path d="M8.04856 0.912584L8 0.885604L7.95144 0.912584L1.95144 4.2459L1.9 4.27447V4.33331V11V11.0588L1.95144 11.0874L7.95144 14.4207L8 14.4477L8.04856 14.4207L14.0486 11.0874L14.1 11.0588V11V4.33331V4.27447L14.0486 4.2459L8.04856 0.912584ZM8.76666 12.2504V7.98374L12.5667 5.78986V10.0643L8.76666 12.2504ZM3.43334 10.0651V5.8272L7.23334 8.02105V12.2504L3.43334 10.0651ZM11.5251 4.62081L7.968 6.67453L6.155 5.62773L4.44229 4.63883L7.99999 2.59286L11.5251 4.62081Z" fill="#E1DDF4" stroke="#E1DDF4" stroke-width="0.2"/>
</svg>
