<svg width="32" height="32" viewBox="0 0 32 32" fill="none" xmlns="http://www.w3.org/2000/svg">
<g id="ix:maintenance" clip-path="url(#clip0_512_700)">
<path id="Vector" fill-rule="evenodd" clip-rule="evenodd" d="M10.6665 0.820312C16.1043 0.820312 20.5126 5.22862 20.5126 10.6665C20.5126 11.6612 20.3651 12.6214 20.0908 13.5265L30.3588 23.7947C32.1714 25.6073 32.1714 28.5462 30.3588 30.3588C28.5462 32.1714 25.6072 32.1714 23.7947 30.3588L13.5265 20.0908C12.6214 20.3651 11.6612 20.5126 10.6665 20.5126C5.22862 20.5126 0.820312 16.1043 0.820312 10.6665C0.820312 9.61708 0.984466 8.60601 1.28854 7.65762L5.94608 12.3075L10.5625 10.77L10.7687 10.5639L12.3075 5.9517L7.64454 1.29285C8.5967 0.986082 9.61224 0.820312 10.6665 0.820312Z" fill="#9C60DA"/>
</g>
<defs>
<clipPath id="clip0_512_700">
<rect width="32" height="32" fill="white"/>
</clipPath>
</defs>
</svg>
