<svg width="163" height="40" viewBox="0 0 163 40" fill="none" xmlns="http://www.w3.org/2000/svg">
<rect x="0.5" y="0.5" width="162" height="39" rx="19.5" stroke="#E1DDF4"/>
<g clip-path="url(#clip0_3092_2379)">
<path d="M32.5601 13.3334L34.6667 15.44L33.0608 17.0466L30.9542 14.94L32.5601 13.3334ZM24.8444 23.1557H26.951L32.0679 18.0388L29.9613 15.9322L24.8444 21.0491V23.1557Z" fill="#E1DDF4"/>
<path d="M32.5685 25.2623H24.9553C24.9371 25.2623 24.9181 25.2693 24.8998 25.2693C24.8767 25.2693 24.8535 25.263 24.8296 25.2623H22.7378V15.4315H27.5457L28.9501 14.0271H22.7378C21.9632 14.0271 21.3334 14.6563 21.3334 15.4315V25.2623C21.3334 26.0375 21.9632 26.6667 22.7378 26.6667H32.5685C32.941 26.6667 33.2982 26.5187 33.5616 26.2554C33.825 25.992 33.9729 25.6348 33.9729 25.2623V19.1757L32.5685 20.5801V25.2623Z" fill="#E1DDF4"/>
</g>
<path d="M42.648 26V14.8H43.864L48.168 21.792L47.592 21.776L51.944 14.8H53.08V26H51.832V20.88C51.832 19.92 51.848 19.056 51.88 18.288C51.912 17.52 51.9707 16.7573 52.056 16L52.28 16.448L48.264 22.752H47.4L43.496 16.528L43.672 16C43.7573 16.7147 43.816 17.4507 43.848 18.208C43.88 18.9547 43.896 19.8453 43.896 20.88V26H42.648ZM58.8624 26.16C58.2224 26.16 57.6784 26.032 57.2304 25.776C56.793 25.5093 56.457 25.1253 56.2224 24.624C55.9984 24.1227 55.8864 23.4987 55.8864 22.752V17.648H57.1024V22.512C57.1024 23.0773 57.177 23.552 57.3264 23.936C57.4864 24.3093 57.721 24.592 58.0304 24.784C58.3504 24.976 58.7397 25.072 59.1984 25.072C59.5504 25.072 59.8757 25.0133 60.1744 24.896C60.473 24.768 60.7344 24.5973 60.9584 24.384C61.1824 24.1707 61.3584 23.92 61.4864 23.632C61.6144 23.344 61.6784 23.04 61.6784 22.72V17.648H62.8784V26H61.6944L61.6464 24.24L61.8384 24.144C61.7104 24.5173 61.497 24.8587 61.1984 25.168C60.8997 25.4667 60.5424 25.7067 60.1264 25.888C59.721 26.0693 59.2997 26.16 58.8624 26.16ZM68.6069 26.16C67.8495 26.16 67.1669 25.9733 66.5589 25.6C65.9615 25.2267 65.4869 24.7147 65.1349 24.064C64.7935 23.4027 64.6229 22.656 64.6229 21.824C64.6229 20.9813 64.7989 20.2347 65.1509 19.584C65.5029 18.9227 65.9775 18.4053 66.5749 18.032C67.1722 17.6587 67.8442 17.472 68.5909 17.472C69.0069 17.472 69.4069 17.536 69.7909 17.664C70.1855 17.792 70.5375 17.9733 70.8469 18.208C71.1562 18.432 71.4122 18.6933 71.6149 18.992C71.8175 19.28 71.9402 19.584 71.9829 19.904L71.6149 19.776V14.16H72.8149V26H71.6309L71.5989 23.92L71.9029 23.808C71.8602 24.1067 71.7375 24.4 71.5349 24.688C71.3429 24.9653 71.0975 25.216 70.7989 25.44C70.5002 25.664 70.1589 25.84 69.7749 25.968C69.4015 26.096 69.0122 26.16 68.6069 26.16ZM68.7829 25.056C69.3375 25.056 69.8335 24.9173 70.2709 24.64C70.7082 24.3627 71.0495 23.9787 71.2949 23.488C71.5509 22.9973 71.6789 22.4373 71.6789 21.808C71.6789 21.1787 71.5509 20.624 71.2949 20.144C71.0495 19.6533 70.7082 19.2693 70.2709 18.992C69.8335 18.704 69.3375 18.56 68.7829 18.56C68.2069 18.56 67.7002 18.704 67.2629 18.992C66.8362 19.2693 66.4949 19.6533 66.2389 20.144C65.9935 20.624 65.8709 21.1787 65.8709 21.808C65.8709 22.4267 65.9935 22.9813 66.2389 23.472C66.4842 23.9627 66.8255 24.352 67.2629 24.64C67.7002 24.9173 68.2069 25.056 68.7829 25.056ZM78.4164 26.16C77.691 26.16 77.035 25.9733 76.4484 25.6C75.8617 25.216 75.3977 24.6987 75.0564 24.048C74.715 23.3867 74.5444 22.64 74.5444 21.808C74.5444 20.9653 74.7204 20.2187 75.0724 19.568C75.4244 18.9173 75.8937 18.4053 76.4804 18.032C77.0777 17.6587 77.7444 17.472 78.4804 17.472C78.9177 17.472 79.323 17.536 79.6964 17.664C80.0697 17.792 80.4004 17.9733 80.6884 18.208C80.987 18.432 81.2324 18.6987 81.4244 19.008C81.627 19.3067 81.7657 19.632 81.8404 19.984L81.4884 19.808L81.5364 17.648H82.7364V26H81.5204V23.952L81.8404 23.744C81.7657 24.064 81.6217 24.3733 81.4084 24.672C81.195 24.96 80.9337 25.216 80.6244 25.44C80.3257 25.664 79.9844 25.84 79.6004 25.968C79.227 26.096 78.8324 26.16 78.4164 26.16ZM78.6884 25.008C79.243 25.008 79.739 24.8747 80.1764 24.608C80.6137 24.3307 80.955 23.952 81.2004 23.472C81.4564 22.9813 81.5844 22.4267 81.5844 21.808C81.5844 21.1893 81.4564 20.64 81.2004 20.16C80.955 19.68 80.6137 19.3013 80.1764 19.024C79.739 18.7467 79.243 18.608 78.6884 18.608C78.123 18.608 77.6217 18.7467 77.1844 19.024C76.7577 19.3013 76.4164 19.68 76.1604 20.16C75.915 20.64 75.7924 21.1893 75.7924 21.808C75.7924 22.416 75.915 22.9653 76.1604 23.456C76.4057 23.936 76.747 24.3147 77.1844 24.592C77.6217 24.8693 78.123 25.008 78.6884 25.008ZM85.0743 26V17.648H86.2743L86.3063 19.872L86.1783 19.568C86.2956 19.1947 86.4823 18.848 86.7383 18.528C87.0049 18.208 87.3196 17.952 87.6823 17.76C88.0449 17.568 88.4449 17.472 88.8823 17.472C89.0636 17.472 89.2343 17.488 89.3943 17.52C89.5543 17.5413 89.6876 17.5733 89.7943 17.616L89.4583 18.96C89.3196 18.896 89.1756 18.8533 89.0263 18.832C88.8876 18.8 88.7543 18.784 88.6263 18.784C88.2636 18.784 87.9383 18.848 87.6503 18.976C87.3623 19.104 87.1169 19.2853 86.9143 19.52C86.7116 19.744 86.5569 20.0053 86.4503 20.304C86.3436 20.6027 86.2903 20.9227 86.2903 21.264V26H85.0743ZM99.2714 26.16C98.706 26.16 98.1727 26.08 97.6714 25.92C97.17 25.76 96.7114 25.52 96.2954 25.2C95.8794 24.88 95.5114 24.4853 95.1914 24.016L96.0554 23.056C96.5567 23.7707 97.0687 24.272 97.5914 24.56C98.1247 24.848 98.722 24.992 99.3834 24.992C99.8634 24.992 100.301 24.912 100.695 24.752C101.09 24.592 101.399 24.368 101.623 24.08C101.847 23.792 101.959 23.4613 101.959 23.088C101.959 22.8427 101.917 22.624 101.831 22.432C101.757 22.24 101.639 22.0693 101.479 21.92C101.319 21.7707 101.122 21.6373 100.887 21.52C100.653 21.4027 100.381 21.296 100.071 21.2C99.7727 21.104 99.4367 21.008 99.0634 20.912C98.5194 20.784 98.0394 20.6347 97.6234 20.464C97.218 20.2827 96.8714 20.064 96.5834 19.808C96.306 19.552 96.0927 19.2587 95.9434 18.928C95.8047 18.5867 95.7354 18.1867 95.7354 17.728C95.7354 17.2907 95.826 16.8853 96.0074 16.512C96.1994 16.1387 96.4607 15.8187 96.7914 15.552C97.122 15.2747 97.5114 15.0613 97.9594 14.912C98.4074 14.7627 98.8874 14.688 99.3994 14.688C99.9754 14.688 100.487 14.768 100.935 14.928C101.394 15.0773 101.799 15.3013 102.151 15.6C102.503 15.8987 102.807 16.256 103.063 16.672L102.183 17.536C101.959 17.184 101.703 16.88 101.415 16.624C101.138 16.368 100.829 16.176 100.487 16.048C100.157 15.9093 99.7887 15.84 99.3834 15.84C98.914 15.84 98.498 15.92 98.1354 16.08C97.7834 16.24 97.506 16.464 97.3034 16.752C97.1007 17.0293 96.9994 17.3493 96.9994 17.712C96.9994 17.9787 97.0474 18.2187 97.1434 18.432C97.2394 18.6347 97.3887 18.816 97.5914 18.976C97.8047 19.1253 98.0767 19.264 98.4074 19.392C98.7487 19.5093 99.154 19.6213 99.6234 19.728C100.178 19.856 100.674 20.0107 101.111 20.192C101.559 20.3733 101.938 20.592 102.247 20.848C102.567 21.0933 102.807 21.3813 102.967 21.712C103.138 22.0427 103.223 22.4213 103.223 22.848C103.223 23.5093 103.058 24.0907 102.727 24.592C102.397 25.0827 101.933 25.4667 101.335 25.744C100.749 26.0213 100.061 26.16 99.2714 26.16ZM106.414 26V15.456H107.614V26H106.414ZM104.526 18.8V17.648H109.726V18.8H104.526ZM114.385 26.16C113.66 26.16 113.004 25.9733 112.417 25.6C111.83 25.216 111.366 24.6987 111.025 24.048C110.684 23.3867 110.513 22.64 110.513 21.808C110.513 20.9653 110.689 20.2187 111.041 19.568C111.393 18.9173 111.862 18.4053 112.449 18.032C113.046 17.6587 113.713 17.472 114.449 17.472C114.886 17.472 115.292 17.536 115.665 17.664C116.038 17.792 116.369 17.9733 116.657 18.208C116.956 18.432 117.201 18.6987 117.393 19.008C117.596 19.3067 117.734 19.632 117.809 19.984L117.457 19.808L117.505 17.648H118.705V26H117.489V23.952L117.809 23.744C117.734 24.064 117.59 24.3733 117.377 24.672C117.164 24.96 116.902 25.216 116.593 25.44C116.294 25.664 115.953 25.84 115.569 25.968C115.196 26.096 114.801 26.16 114.385 26.16ZM114.657 25.008C115.212 25.008 115.708 24.8747 116.145 24.608C116.582 24.3307 116.924 23.952 117.169 23.472C117.425 22.9813 117.553 22.4267 117.553 21.808C117.553 21.1893 117.425 20.64 117.169 20.16C116.924 19.68 116.582 19.3013 116.145 19.024C115.708 18.7467 115.212 18.608 114.657 18.608C114.092 18.608 113.59 18.7467 113.153 19.024C112.726 19.3013 112.385 19.68 112.129 20.16C111.884 20.64 111.761 21.1893 111.761 21.808C111.761 22.416 111.884 22.9653 112.129 23.456C112.374 23.936 112.716 24.3147 113.153 24.592C113.59 24.8693 114.092 25.008 114.657 25.008ZM122.195 26V15.456H123.395V26H122.195ZM120.307 18.8V17.648H125.507V18.8H120.307ZM129.941 26.16C129.301 26.16 128.757 26.032 128.309 25.776C127.871 25.5093 127.535 25.1253 127.301 24.624C127.077 24.1227 126.965 23.4987 126.965 22.752V17.648H128.181V22.512C128.181 23.0773 128.255 23.552 128.405 23.936C128.565 24.3093 128.799 24.592 129.109 24.784C129.429 24.976 129.818 25.072 130.277 25.072C130.629 25.072 130.954 25.0133 131.253 24.896C131.551 24.768 131.813 24.5973 132.037 24.384C132.261 24.1707 132.437 23.92 132.565 23.632C132.693 23.344 132.757 23.04 132.757 22.72V17.648H133.957V26H132.773L132.725 24.24L132.917 24.144C132.789 24.5173 132.575 24.8587 132.277 25.168C131.978 25.4667 131.621 25.7067 131.205 25.888C130.799 26.0693 130.378 26.16 129.941 26.16ZM139.029 26.16C138.314 26.16 137.674 26.0267 137.109 25.76C136.544 25.4933 136.096 25.1413 135.765 24.704L136.613 23.968C136.922 24.3413 137.285 24.624 137.701 24.816C138.128 25.008 138.602 25.104 139.125 25.104C139.392 25.104 139.632 25.0773 139.845 25.024C140.058 24.96 140.245 24.8693 140.405 24.752C140.565 24.6347 140.688 24.496 140.773 24.336C140.858 24.176 140.901 24 140.901 23.808C140.901 23.456 140.746 23.1627 140.437 22.928C140.298 22.832 140.101 22.736 139.845 22.64C139.589 22.5333 139.28 22.432 138.917 22.336C138.32 22.1653 137.824 21.9947 137.429 21.824C137.034 21.6427 136.725 21.4347 136.501 21.2C136.341 21.008 136.218 20.8 136.133 20.576C136.058 20.352 136.021 20.1067 136.021 19.84C136.021 19.4987 136.09 19.184 136.229 18.896C136.378 18.608 136.581 18.3573 136.837 18.144C137.104 17.92 137.413 17.7547 137.765 17.648C138.128 17.5307 138.517 17.472 138.933 17.472C139.328 17.472 139.717 17.5253 140.101 17.632C140.485 17.7387 140.842 17.8933 141.173 18.096C141.504 18.2987 141.786 18.5387 142.021 18.816L141.285 19.616C141.082 19.4027 140.858 19.2107 140.613 19.04C140.368 18.8693 140.106 18.736 139.829 18.64C139.562 18.544 139.285 18.496 138.997 18.496C138.741 18.496 138.501 18.528 138.277 18.592C138.064 18.656 137.877 18.7467 137.717 18.864C137.568 18.9707 137.45 19.104 137.365 19.264C137.29 19.424 137.253 19.6 137.253 19.792C137.253 19.952 137.285 20.096 137.349 20.224C137.413 20.352 137.504 20.464 137.621 20.56C137.77 20.6773 137.978 20.7893 138.245 20.896C138.522 20.992 138.864 21.0933 139.269 21.2C139.738 21.328 140.133 21.4613 140.453 21.6C140.784 21.728 141.056 21.8827 141.269 22.064C141.557 22.2773 141.76 22.5227 141.877 22.8C142.005 23.0773 142.069 23.392 142.069 23.744C142.069 24.2133 141.936 24.6293 141.669 24.992C141.413 25.3547 141.056 25.6427 140.597 25.856C140.138 26.0587 139.616 26.16 139.029 26.16Z" fill="#E1DDF4"/>
<defs>
<clipPath id="clip0_3092_2379">
<rect width="13.3333" height="13.3333" fill="white" transform="translate(21.3334 13.3334)"/>
</clipPath>
</defs>
</svg>
