<svg width="321" height="60" viewBox="0 0 321 60" fill="none" xmlns="http://www.w3.org/2000/svg">
<path d="M16.0701 35.7807C8.6647 35.7807 2.66663 38.7797 2.66663 42.4825V45.8333H29.4736V42.4825C29.4736 38.7797 23.4756 35.7807 16.0701 35.7807ZM9.36838 25.7281C9.36838 27.5055 10.0745 29.2101 11.3313 30.4669C12.5881 31.7238 14.2927 32.4298 16.0701 32.4298C17.8476 32.4298 19.5522 31.7238 20.809 30.4669C22.0658 29.2101 22.7719 27.5055 22.7719 25.7281M15.2324 14C14.7298 14 14.3947 14.3518 14.3947 14.8377V19.864H12.7193V15.6754C12.7193 15.6754 8.94952 17.1163 8.94952 21.9583C8.94952 21.9583 7.69294 22.1929 7.69294 24.0526H24.4473C24.3636 22.1929 23.1908 21.9583 23.1908 21.9583C23.1908 17.1163 19.421 15.6754 19.421 15.6754V19.864H17.7456V14.8377C17.7456 14.3518 17.4272 14 16.9079 14H15.2324Z" fill="#9C60DA"/>
<path d="M45.296 42V19.6H47.568L62.224 38.992L61.776 39.568C61.712 39.2267 61.6587 38.7147 61.616 38.032C61.5947 37.3493 61.5627 36.5813 61.52 35.728C61.4987 34.8533 61.4773 33.9467 61.456 33.008C61.4347 32.0693 61.4133 31.152 61.392 30.256C61.392 29.36 61.392 28.5493 61.392 27.824V19.6H63.888V42H61.552L46.96 22.864L47.344 22.192C47.408 23.0453 47.4613 23.888 47.504 24.72C47.568 25.552 47.6107 26.352 47.632 27.12C47.6747 27.888 47.7067 28.592 47.728 29.232C47.7493 29.872 47.76 30.416 47.76 30.864C47.7813 31.312 47.792 31.632 47.792 31.824V42H45.296ZM76.9155 42.32C75.2515 42.32 73.7688 41.9467 72.4675 41.2C71.1875 40.4533 70.1742 39.4187 69.4275 38.096C68.7022 36.7733 68.3395 35.2693 68.3395 33.584C68.3395 31.92 68.7022 30.4373 69.4275 29.136C70.1742 27.8347 71.1875 26.8107 72.4675 26.064C73.7688 25.3173 75.2515 24.944 76.9155 24.944C78.5582 24.944 80.0195 25.3173 81.2995 26.064C82.6008 26.8107 83.6142 27.8347 84.3395 29.136C85.0862 30.4373 85.4595 31.92 85.4595 33.584C85.4595 35.2693 85.0862 36.7733 84.3395 38.096C83.6142 39.4187 82.6008 40.4533 81.2995 41.2C80.0195 41.9467 78.5582 42.32 76.9155 42.32ZM76.9155 40.048C78.0888 40.048 79.1342 39.7707 80.0515 39.216C80.9688 38.64 81.6835 37.872 82.1955 36.912C82.7075 35.9307 82.9635 34.8213 82.9635 33.584C82.9635 32.3467 82.7075 31.248 82.1955 30.288C81.6835 29.328 80.9688 28.5813 80.0515 28.048C79.1342 27.4933 78.0888 27.216 76.9155 27.216C75.7422 27.216 74.6862 27.4933 73.7475 28.048C72.8302 28.5813 72.1048 29.3387 71.5715 30.32C71.0595 31.28 70.8142 32.368 70.8355 33.584C70.8142 34.8213 71.0595 35.9307 71.5715 36.912C72.1048 37.872 72.8302 38.64 73.7475 39.216C74.6862 39.7707 75.7422 40.048 76.9155 40.048ZM93.6763 42L86.6363 25.296H89.2923L94.8603 38.96L94.2203 39.312L100.332 25.296H102.892L95.4043 42H93.6763ZM112.634 42.32C110.97 42.32 109.488 41.9467 108.186 41.2C106.906 40.4533 105.893 39.4187 105.146 38.096C104.421 36.7733 104.058 35.2693 104.058 33.584C104.058 31.92 104.421 30.4373 105.146 29.136C105.893 27.8347 106.906 26.8107 108.186 26.064C109.488 25.3173 110.97 24.944 112.634 24.944C114.277 24.944 115.738 25.3173 117.018 26.064C118.32 26.8107 119.333 27.8347 120.058 29.136C120.805 30.4373 121.178 31.92 121.178 33.584C121.178 35.2693 120.805 36.7733 120.058 38.096C119.333 39.4187 118.32 40.4533 117.018 41.2C115.738 41.9467 114.277 42.32 112.634 42.32ZM112.634 40.048C113.808 40.048 114.853 39.7707 115.77 39.216C116.688 38.64 117.402 37.872 117.914 36.912C118.426 35.9307 118.682 34.8213 118.682 33.584C118.682 32.3467 118.426 31.248 117.914 30.288C117.402 29.328 116.688 28.5813 115.77 28.048C114.853 27.4933 113.808 27.216 112.634 27.216C111.461 27.216 110.405 27.4933 109.466 28.048C108.549 28.5813 107.824 29.3387 107.29 30.32C106.778 31.28 106.533 32.368 106.554 33.584C106.533 34.8213 106.778 35.9307 107.29 36.912C107.824 37.872 108.549 38.64 109.466 39.216C110.405 39.7707 111.461 40.048 112.634 40.048ZM143.889 42.32C142.289 42.32 140.817 42.0427 139.473 41.488C138.129 40.912 136.966 40.112 135.985 39.088C135.003 38.0427 134.235 36.816 133.681 35.408C133.147 34 132.881 32.464 132.881 30.8C132.881 29.1573 133.147 27.6533 133.681 26.288C134.235 24.9013 135.014 23.696 136.016 22.672C137.019 21.6267 138.182 20.8267 139.505 20.272C140.827 19.7173 142.278 19.44 143.857 19.44C144.902 19.44 145.937 19.6107 146.961 19.952C147.985 20.272 148.923 20.72 149.777 21.296C150.651 21.872 151.366 22.5333 151.921 23.28L150.193 25.072C149.659 24.432 149.041 23.8773 148.337 23.408C147.654 22.9387 146.929 22.576 146.161 22.32C145.393 22.064 144.625 21.936 143.857 21.936C142.662 21.936 141.542 22.16 140.497 22.608C139.473 23.0347 138.587 23.6427 137.841 24.432C137.094 25.2213 136.507 26.16 136.081 27.248C135.675 28.336 135.473 29.52 135.473 30.8C135.473 32.1227 135.675 33.3387 136.081 34.448C136.507 35.5573 137.105 36.5173 137.873 37.328C138.662 38.1173 139.579 38.736 140.625 39.184C141.691 39.6107 142.875 39.824 144.177 39.824C144.945 39.824 145.713 39.7173 146.481 39.504C147.249 39.2693 147.953 38.9493 148.593 38.544C149.233 38.1387 149.777 37.68 150.225 37.168L151.505 39.248C151.014 39.8453 150.353 40.3787 149.521 40.848C148.71 41.296 147.814 41.6587 146.833 41.936C145.851 42.192 144.87 42.32 143.889 42.32ZM162.666 42.32C161.002 42.32 159.519 41.9467 158.218 41.2C156.938 40.4533 155.924 39.4187 155.178 38.096C154.452 36.7733 154.09 35.2693 154.09 33.584C154.09 31.92 154.452 30.4373 155.178 29.136C155.924 27.8347 156.938 26.8107 158.218 26.064C159.519 25.3173 161.002 24.944 162.666 24.944C164.308 24.944 165.77 25.3173 167.05 26.064C168.351 26.8107 169.364 27.8347 170.09 29.136C170.836 30.4373 171.21 31.92 171.21 33.584C171.21 35.2693 170.836 36.7733 170.09 38.096C169.364 39.4187 168.351 40.4533 167.05 41.2C165.77 41.9467 164.308 42.32 162.666 42.32ZM162.666 40.048C163.839 40.048 164.884 39.7707 165.802 39.216C166.719 38.64 167.434 37.872 167.946 36.912C168.458 35.9307 168.714 34.8213 168.714 33.584C168.714 32.3467 168.458 31.248 167.946 30.288C167.434 29.328 166.719 28.5813 165.802 28.048C164.884 27.4933 163.839 27.216 162.666 27.216C161.492 27.216 160.436 27.4933 159.498 28.048C158.58 28.5813 157.855 29.3387 157.322 30.32C156.81 31.28 156.564 32.368 156.586 33.584C156.564 34.8213 156.81 35.9307 157.322 36.912C157.855 37.872 158.58 38.64 159.498 39.216C160.436 39.7707 161.492 40.048 162.666 40.048ZM174.775 42V18.32H177.175V42H174.775ZM188.114 42.32C186.663 42.32 185.351 41.9467 184.178 41.2C183.005 40.432 182.077 39.3973 181.394 38.096C180.711 36.7733 180.37 35.28 180.37 33.616C180.37 31.9307 180.722 30.4373 181.426 29.136C182.13 27.8347 183.069 26.8107 184.242 26.064C185.437 25.3173 186.77 24.944 188.242 24.944C189.117 24.944 189.927 25.072 190.674 25.328C191.421 25.584 192.082 25.9467 192.658 26.416C193.255 26.864 193.746 27.3973 194.13 28.016C194.535 28.6133 194.813 29.264 194.962 29.968L194.258 29.616L194.354 25.296H196.754V42H194.322V37.904L194.962 37.488C194.813 38.128 194.525 38.7467 194.098 39.344C193.671 39.92 193.149 40.432 192.53 40.88C191.933 41.328 191.25 41.68 190.482 41.936C189.735 42.192 188.946 42.32 188.114 42.32ZM188.658 40.016C189.767 40.016 190.759 39.7493 191.634 39.216C192.509 38.6613 193.191 37.904 193.682 36.944C194.194 35.9627 194.45 34.8533 194.45 33.616C194.45 32.3787 194.194 31.28 193.682 30.32C193.191 29.36 192.509 28.6027 191.634 28.048C190.759 27.4933 189.767 27.216 188.658 27.216C187.527 27.216 186.525 27.4933 185.65 28.048C184.797 28.6027 184.114 29.36 183.602 30.32C183.111 31.28 182.866 32.3787 182.866 33.616C182.866 34.832 183.111 35.9307 183.602 36.912C184.093 37.872 184.775 38.6293 185.65 39.184C186.525 39.7387 187.527 40.016 188.658 40.016ZM209.91 42.32C209.12 42.32 208.352 42.2027 207.606 41.968C206.859 41.712 206.176 41.3707 205.558 40.944C204.96 40.5173 204.448 40.0267 204.022 39.472C203.616 38.9173 203.339 38.3413 203.19 37.744L203.894 37.776L203.798 41.968H201.43V18.32H203.83V29.296L203.35 29.424C203.499 28.8267 203.766 28.2613 204.15 27.728C204.555 27.1733 205.056 26.6933 205.654 26.288C206.251 25.8613 206.902 25.5307 207.606 25.296C208.331 25.0613 209.078 24.944 209.846 24.944C211.339 24.944 212.672 25.3173 213.846 26.064C215.04 26.8107 215.99 27.8347 216.694 29.136C217.398 30.4373 217.75 31.9307 217.75 33.616C217.75 35.3013 217.408 36.8053 216.726 38.128C216.043 39.4293 215.104 40.4533 213.91 41.2C212.736 41.9467 211.403 42.32 209.91 42.32ZM209.526 40.048C210.656 40.048 211.659 39.7707 212.534 39.216C213.408 38.64 214.091 37.872 214.582 36.912C215.094 35.9307 215.35 34.832 215.35 33.616C215.35 32.3787 215.094 31.28 214.582 30.32C214.091 29.36 213.408 28.6027 212.534 28.048C211.659 27.4933 210.656 27.216 209.526 27.216C208.395 27.216 207.392 27.4933 206.518 28.048C205.643 28.6027 204.95 29.36 204.438 30.32C203.947 31.28 203.702 32.3787 203.702 33.616C203.702 34.8533 203.947 35.9627 204.438 36.944C204.95 37.904 205.643 38.6613 206.518 39.216C207.392 39.7707 208.395 40.048 209.526 40.048ZM228.634 42.32C226.97 42.32 225.488 41.9467 224.186 41.2C222.906 40.4533 221.893 39.4187 221.146 38.096C220.421 36.7733 220.058 35.2693 220.058 33.584C220.058 31.92 220.421 30.4373 221.146 29.136C221.893 27.8347 222.906 26.8107 224.186 26.064C225.488 25.3173 226.97 24.944 228.634 24.944C230.277 24.944 231.738 25.3173 233.018 26.064C234.32 26.8107 235.333 27.8347 236.058 29.136C236.805 30.4373 237.178 31.92 237.178 33.584C237.178 35.2693 236.805 36.7733 236.058 38.096C235.333 39.4187 234.32 40.4533 233.018 41.2C231.738 41.9467 230.277 42.32 228.634 42.32ZM228.634 40.048C229.808 40.048 230.853 39.7707 231.77 39.216C232.688 38.64 233.402 37.872 233.914 36.912C234.426 35.9307 234.682 34.8213 234.682 33.584C234.682 32.3467 234.426 31.248 233.914 30.288C233.402 29.328 232.688 28.5813 231.77 28.048C230.853 27.4933 229.808 27.216 228.634 27.216C227.461 27.216 226.405 27.4933 225.466 28.048C224.549 28.5813 223.824 29.3387 223.29 30.32C222.778 31.28 222.533 32.368 222.554 33.584C222.533 34.8213 222.778 35.9307 223.29 36.912C223.824 37.872 224.549 38.64 225.466 39.216C226.405 39.7707 227.461 40.048 228.634 40.048ZM240.68 42V25.296H243.08L243.144 29.744L242.888 29.136C243.122 28.3893 243.496 27.696 244.008 27.056C244.541 26.416 245.17 25.904 245.896 25.52C246.621 25.136 247.421 24.944 248.296 24.944C248.658 24.944 249 24.976 249.32 25.04C249.64 25.0827 249.906 25.1467 250.12 25.232L249.448 27.92C249.17 27.792 248.882 27.7067 248.584 27.664C248.306 27.6 248.04 27.568 247.784 27.568C247.058 27.568 246.408 27.696 245.832 27.952C245.256 28.208 244.765 28.5707 244.36 29.04C243.954 29.488 243.645 30.0107 243.432 30.608C243.218 31.2053 243.112 31.8453 243.112 32.528V42H240.68ZM258.427 42.32C256.976 42.32 255.664 41.9467 254.491 41.2C253.317 40.432 252.389 39.3973 251.707 38.096C251.024 36.7733 250.683 35.28 250.683 33.616C250.683 31.9307 251.035 30.4373 251.739 29.136C252.443 27.8347 253.381 26.8107 254.555 26.064C255.749 25.3173 257.083 24.944 258.555 24.944C259.429 24.944 260.24 25.072 260.987 25.328C261.733 25.584 262.395 25.9467 262.971 26.416C263.568 26.864 264.059 27.3973 264.443 28.016C264.848 28.6133 265.125 29.264 265.275 29.968L264.571 29.616L264.667 25.296H267.067V42H264.635V37.904L265.275 37.488C265.125 38.128 264.837 38.7467 264.411 39.344C263.984 39.92 263.461 40.432 262.843 40.88C262.245 41.328 261.563 41.68 260.795 41.936C260.048 42.192 259.259 42.32 258.427 42.32ZM258.97 40.016C260.08 40.016 261.072 39.7493 261.947 39.216C262.821 38.6613 263.504 37.904 263.995 36.944C264.507 35.9627 264.763 34.8533 264.763 33.616C264.763 32.3787 264.507 31.28 263.995 30.32C263.504 29.36 262.821 28.6027 261.947 28.048C261.072 27.4933 260.08 27.216 258.97 27.216C257.84 27.216 256.837 27.4933 255.963 28.048C255.109 28.6027 254.427 29.36 253.915 30.32C253.424 31.28 253.179 32.3787 253.179 33.616C253.179 34.832 253.424 35.9307 253.915 36.912C254.405 37.872 255.088 38.6293 255.963 39.184C256.837 39.7387 257.84 40.016 258.97 40.016ZM278.526 42.32C277.012 42.32 275.646 41.9467 274.43 41.2C273.236 40.4533 272.286 39.4293 271.582 38.128C270.9 36.8053 270.558 35.312 270.558 33.648C270.558 31.9627 270.91 30.4693 271.614 29.168C272.318 27.8453 273.268 26.8107 274.462 26.064C275.657 25.3173 277.001 24.944 278.494 24.944C279.326 24.944 280.126 25.072 280.894 25.328C281.684 25.584 282.388 25.9467 283.006 26.416C283.625 26.864 284.137 27.3867 284.542 27.984C284.948 28.56 285.193 29.168 285.278 29.808L284.542 29.552V18.32H286.942V42H284.574L284.51 37.84L285.118 37.616C285.033 38.2133 284.788 38.8 284.382 39.376C283.998 39.9307 283.508 40.432 282.91 40.88C282.313 41.328 281.63 41.68 280.862 41.936C280.116 42.192 279.337 42.32 278.526 42.32ZM278.878 40.112C279.988 40.112 280.98 39.8347 281.854 39.28C282.729 38.7253 283.412 37.9573 283.902 36.976C284.414 35.9947 284.67 34.8747 284.67 33.616C284.67 32.3573 284.414 31.248 283.902 30.288C283.412 29.3067 282.729 28.5387 281.854 27.984C280.98 27.408 279.988 27.12 278.878 27.12C277.726 27.12 276.713 27.408 275.838 27.984C274.985 28.5387 274.302 29.3067 273.79 30.288C273.3 31.248 273.054 32.3573 273.054 33.616C273.054 34.8533 273.3 35.9627 273.79 36.944C274.281 37.9253 274.964 38.704 275.838 39.28C276.713 39.8347 277.726 40.112 278.878 40.112ZM299.009 42.32C297.345 42.32 295.863 41.9467 294.561 41.2C293.281 40.4533 292.268 39.4187 291.521 38.096C290.796 36.7733 290.433 35.2693 290.433 33.584C290.433 31.92 290.796 30.4373 291.521 29.136C292.268 27.8347 293.281 26.8107 294.561 26.064C295.863 25.3173 297.345 24.944 299.009 24.944C300.652 24.944 302.113 25.3173 303.393 26.064C304.695 26.8107 305.708 27.8347 306.433 29.136C307.18 30.4373 307.553 31.92 307.553 33.584C307.553 35.2693 307.18 36.7733 306.433 38.096C305.708 39.4187 304.695 40.4533 303.393 41.2C302.113 41.9467 300.652 42.32 299.009 42.32ZM299.009 40.048C300.183 40.048 301.228 39.7707 302.145 39.216C303.063 38.64 303.777 37.872 304.289 36.912C304.801 35.9307 305.057 34.8213 305.057 33.584C305.057 32.3467 304.801 31.248 304.289 30.288C303.777 29.328 303.063 28.5813 302.145 28.048C301.228 27.4933 300.183 27.216 299.009 27.216C297.836 27.216 296.78 27.4933 295.841 28.048C294.924 28.5813 294.199 29.3387 293.665 30.32C293.153 31.28 292.908 32.368 292.929 33.584C292.908 34.8213 293.153 35.9307 293.665 36.912C294.199 37.872 294.924 38.64 295.841 39.216C296.78 39.7707 297.836 40.048 299.009 40.048ZM311.055 42V25.296H313.455L313.519 29.744L313.263 29.136C313.497 28.3893 313.871 27.696 314.383 27.056C314.916 26.416 315.545 25.904 316.271 25.52C316.996 25.136 317.796 24.944 318.671 24.944C319.033 24.944 319.375 24.976 319.695 25.04C320.015 25.0827 320.281 25.1467 320.495 25.232L319.823 27.92C319.545 27.792 319.257 27.7067 318.959 27.664C318.681 27.6 318.415 27.568 318.159 27.568C317.433 27.568 316.783 27.696 316.207 27.952C315.631 28.208 315.14 28.5707 314.735 29.04C314.329 29.488 314.02 30.0107 313.807 30.608C313.593 31.2053 313.487 31.8453 313.487 32.528V42H311.055Z" fill="url(#paint0_linear_2382_9389)"/>
<defs>
<linearGradient id="paint0_linear_2382_9389" x1="321" y1="30" x2="42" y2="30" gradientUnits="userSpaceOnUse">
<stop stop-color="#43A3D5"/>
<stop offset="1" stop-color="#9C60DA"/>
</linearGradient>
</defs>
</svg>
