<svg width="32" height="32" viewBox="0 0 32 32" fill="none" xmlns="http://www.w3.org/2000/svg">
<path d="M9.77778 23.7778C10.2185 23.7778 10.5882 23.6284 10.8869 23.3298C11.1856 23.0311 11.3344 22.6619 11.3333 22.2222C11.3323 21.7825 11.183 21.4133 10.8853 21.1147C10.5877 20.816 10.2185 20.6667 9.77778 20.6667C9.33704 20.6667 8.96785 20.816 8.67022 21.1147C8.37259 21.4133 8.22326 21.7825 8.22222 22.2222C8.22118 22.6619 8.37052 23.0316 8.67022 23.3313C8.96992 23.631 9.33911 23.7798 9.77778 23.7778ZM9.77778 17.5556C10.2185 17.5556 10.5882 17.4062 10.8869 17.1076C11.1856 16.8089 11.3344 16.4397 11.3333 16C11.3323 15.5603 11.183 15.1911 10.8853 14.8924C10.5877 14.5938 10.2185 14.4444 9.77778 14.4444C9.33704 14.4444 8.96785 14.5938 8.67022 14.8924C8.37259 15.1911 8.22326 15.5603 8.22222 16C8.22118 16.4397 8.37052 16.8094 8.67022 17.1091C8.96992 17.4088 9.33911 17.5576 9.77778 17.5556ZM9.77778 11.3333C10.2185 11.3333 10.5882 11.184 10.8869 10.8853C11.1856 10.5867 11.3344 10.2175 11.3333 9.77778C11.3323 9.33807 11.183 8.96889 10.8853 8.67022C10.5877 8.37155 10.2185 8.22222 9.77778 8.22222C9.33704 8.22222 8.96785 8.37155 8.67022 8.67022C8.37259 8.96889 8.22326 9.33807 8.22222 9.77778C8.22118 10.2175 8.37052 10.5872 8.67022 10.8869C8.96992 11.1866 9.33911 11.3354 9.77778 11.3333ZM14.4444 23.7778H23.7778V20.6667H14.4444V23.7778ZM14.4444 17.5556H23.7778V14.4444H14.4444V17.5556ZM14.4444 11.3333H23.7778V8.22222H14.4444V11.3333ZM5.11111 30C4.25556 30 3.52341 29.6956 2.91467 29.0869C2.30593 28.4781 2.00104 27.7455 2 26.8889V5.11111C2 4.25556 2.30489 3.52341 2.91467 2.91467C3.52444 2.30593 4.25659 2.00104 5.11111 2H26.8889C27.7444 2 28.4771 2.30489 29.0869 2.91467C29.6967 3.52444 30.001 4.25659 30 5.11111V26.8889C30 27.7444 29.6956 28.4771 29.0869 29.0869C28.4781 29.6967 27.7455 30.001 26.8889 30H5.11111ZM5.11111 26.8889H26.8889V5.11111H5.11111V26.8889Z" fill="#9C60DA"/>
</svg>
