<svg width="16" height="16" viewBox="0 0 16 16" fill="none" xmlns="http://www.w3.org/2000/svg">
<g id="fa6-solid:user-tie">
<path id="Vector" d="M4 4C4 5.06087 4.42143 6.07828 5.17157 6.82843C5.92172 7.57857 6.93913 8 8 8C9.06087 8 10.0783 7.57857 10.8284 6.82843C11.5786 6.07828 12 5.06087 12 4C12 2.93913 11.5786 1.92172 10.8284 1.17157C10.0783 0.421427 9.06087 0 8 0C6.93913 0 5.92172 0.421427 5.17157 1.17157C4.42143 1.92172 4 2.93913 4 4ZM6.95312 10.2563L7.53438 11.225L6.49375 15.0969L5.36875 10.5063C5.30625 10.2531 5.0625 10.0875 4.80938 10.1531C2.62188 10.7 1 12.6812 1 15.0406C1 15.5719 1.43125 16 1.95938 16H14.0406C14.5719 16 15 15.5687 15 15.0406C15 12.6812 13.3781 10.7 11.1906 10.1531C10.9375 10.0906 10.6938 10.2563 10.6313 10.5063L9.50625 15.0969L8.46562 11.225L9.04688 10.2563C9.24687 9.92188 9.00625 9.5 8.61875 9.5H7.38438C6.99688 9.5 6.75625 9.925 6.95625 10.2563H6.95312Z" fill="#E1DDF4"/>
</g>
</svg>
