<svg width="168" height="40" viewBox="0 0 168 40" fill="none" xmlns="http://www.w3.org/2000/svg">
<path d="M0.5 20C0.5 9.23045 9.23045 0.5 20 0.5H167.5V39.5H20C9.23045 39.5 0.5 30.7696 0.5 20Z" fill="url(#paint0_linear_481_123)"/>
<path d="M0.5 20C0.5 9.23045 9.23045 0.5 20 0.5H167.5V39.5H20C9.23045 39.5 0.5 30.7696 0.5 20Z" stroke="url(#paint1_linear_481_123)"/>
<g clip-path="url(#clip0_481_123)">
<path d="M28 20C26.9 20 25.9583 19.6083 25.175 18.825C24.3917 18.0417 24 17.1 24 16C24 14.9 24.3917 13.9583 25.175 13.175C25.9583 12.3917 26.9 12 28 12C29.1 12 30.0417 12.3917 30.825 13.175C31.6083 13.9583 32 14.9 32 16C32 17.1 31.6083 18.0417 30.825 18.825C30.0417 19.6083 29.1 20 28 20ZM20 28V25.2C20 24.6333 20.146 24.1127 20.438 23.638C20.73 23.1633 21.1173 22.8007 21.6 22.55C22.6333 22.0333 23.6833 21.646 24.75 21.388C25.8167 21.13 26.9 21.0007 28 21C29.1 20.9993 30.1833 21.1287 31.25 21.388C32.3167 21.6473 33.3667 22.0347 34.4 22.55C34.8833 22.8 35.271 23.1627 35.563 23.638C35.855 24.1133 36.0007 24.634 36 25.2V28H20Z" fill="#E1DDF4"/>
</g>
<path d="M47.9605 26V14.8H52.3925C52.9792 14.8 53.5072 14.944 53.9765 15.232C54.4458 15.52 54.8192 15.92 55.0965 16.432C55.3738 16.9333 55.5125 17.4987 55.5125 18.128C55.5125 18.7893 55.3738 19.3813 55.0965 19.904C54.8192 20.416 54.4458 20.8267 53.9765 21.136C53.5072 21.4347 52.9792 21.584 52.3925 21.584H49.2085V26H47.9605ZM49.2085 20.368H52.4565C52.7872 20.368 53.0805 20.272 53.3365 20.08C53.6032 19.8773 53.8165 19.6107 53.9765 19.28C54.1365 18.9387 54.2165 18.5493 54.2165 18.112C54.2165 17.7173 54.1365 17.3653 53.9765 17.056C53.8165 16.736 53.6032 16.4853 53.3365 16.304C53.0805 16.112 52.7872 16.016 52.4565 16.016H49.2085V20.368ZM60.9574 26.16C60.1254 26.16 59.384 25.9787 58.7334 25.616C58.0934 25.2533 57.592 24.7467 57.2294 24.096C56.8667 23.4453 56.6854 22.6987 56.6854 21.856C56.6854 21.2053 56.7867 20.6187 56.9894 20.096C57.192 19.5627 57.4747 19.0987 57.8374 18.704C58.2107 18.3093 58.6534 18.0053 59.1654 17.792C59.6774 17.568 60.232 17.456 60.8294 17.456C61.3947 17.456 61.9067 17.5573 62.3654 17.76C62.8347 17.9627 63.2347 18.2453 63.5654 18.608C63.9067 18.96 64.1627 19.3813 64.3334 19.872C64.504 20.3627 64.5787 20.9013 64.5574 21.488L64.5414 22.048H57.5814L57.4054 21.04H63.6294L63.3414 21.312V20.928C63.32 20.544 63.208 20.176 63.0054 19.824C62.8027 19.4613 62.5147 19.168 62.1414 18.944C61.7787 18.72 61.3414 18.608 60.8294 18.608C60.232 18.608 59.7147 18.7307 59.2774 18.976C58.84 19.2107 58.504 19.5627 58.2694 20.032C58.0347 20.5013 57.9174 21.0827 57.9174 21.776C57.9174 22.4373 58.0454 23.0133 58.3014 23.504C58.5574 23.984 58.92 24.3573 59.3894 24.624C59.8694 24.8907 60.4454 25.024 61.1174 25.024C61.512 25.024 61.9014 24.96 62.2854 24.832C62.68 24.6933 63.112 24.4267 63.5814 24.032L64.2054 24.896C63.96 25.1413 63.6667 25.36 63.3254 25.552C62.984 25.7333 62.6107 25.8827 62.2054 26C61.8 26.1067 61.384 26.16 60.9574 26.16ZM68.9978 26.16C68.2831 26.16 67.6431 26.0267 67.0778 25.76C66.5124 25.4933 66.0644 25.1413 65.7338 24.704L66.5818 23.968C66.8911 24.3413 67.2538 24.624 67.6698 24.816C68.0964 25.008 68.5711 25.104 69.0938 25.104C69.3604 25.104 69.6004 25.0773 69.8138 25.024C70.0271 24.96 70.2138 24.8693 70.3738 24.752C70.5338 24.6347 70.6564 24.496 70.7418 24.336C70.8271 24.176 70.8698 24 70.8698 23.808C70.8698 23.456 70.7151 23.1627 70.4058 22.928C70.2671 22.832 70.0698 22.736 69.8138 22.64C69.5578 22.5333 69.2484 22.432 68.8858 22.336C68.2884 22.1653 67.7924 21.9947 67.3978 21.824C67.0031 21.6427 66.6938 21.4347 66.4698 21.2C66.3098 21.008 66.1871 20.8 66.1018 20.576C66.0271 20.352 65.9898 20.1067 65.9898 19.84C65.9898 19.4987 66.0591 19.184 66.1978 18.896C66.3471 18.608 66.5498 18.3573 66.8058 18.144C67.0724 17.92 67.3818 17.7547 67.7338 17.648C68.0964 17.5307 68.4858 17.472 68.9018 17.472C69.2964 17.472 69.6858 17.5253 70.0698 17.632C70.4538 17.7387 70.8111 17.8933 71.1418 18.096C71.4724 18.2987 71.7551 18.5387 71.9898 18.816L71.2538 19.616C71.0511 19.4027 70.8271 19.2107 70.5818 19.04C70.3364 18.8693 70.0751 18.736 69.7977 18.64C69.5311 18.544 69.2538 18.496 68.9658 18.496C68.7098 18.496 68.4698 18.528 68.2458 18.592C68.0324 18.656 67.8458 18.7467 67.6858 18.864C67.5364 18.9707 67.4191 19.104 67.3338 19.264C67.2591 19.424 67.2218 19.6 67.2218 19.792C67.2218 19.952 67.2538 20.096 67.3178 20.224C67.3818 20.352 67.4724 20.464 67.5898 20.56C67.7391 20.6773 67.9471 20.7893 68.2138 20.896C68.4911 20.992 68.8324 21.0933 69.2378 21.2C69.7071 21.328 70.1018 21.4613 70.4218 21.6C70.7524 21.728 71.0244 21.8827 71.2378 22.064C71.5258 22.2773 71.7284 22.5227 71.8458 22.8C71.9738 23.0773 72.0378 23.392 72.0378 23.744C72.0378 24.2133 71.9044 24.6293 71.6378 24.992C71.3818 25.3547 71.0244 25.6427 70.5658 25.856C70.1071 26.0587 69.5844 26.16 68.9978 26.16ZM76.654 26.16C75.9393 26.16 75.2993 26.0267 74.734 25.76C74.1687 25.4933 73.7207 25.1413 73.39 24.704L74.238 23.968C74.5473 24.3413 74.91 24.624 75.326 24.816C75.7527 25.008 76.2273 25.104 76.75 25.104C77.0167 25.104 77.2567 25.0773 77.47 25.024C77.6833 24.96 77.87 24.8693 78.03 24.752C78.19 24.6347 78.3127 24.496 78.398 24.336C78.4833 24.176 78.526 24 78.526 23.808C78.526 23.456 78.3713 23.1627 78.062 22.928C77.9233 22.832 77.726 22.736 77.47 22.64C77.214 22.5333 76.9047 22.432 76.542 22.336C75.9447 22.1653 75.4487 21.9947 75.054 21.824C74.6593 21.6427 74.35 21.4347 74.126 21.2C73.966 21.008 73.8433 20.8 73.758 20.576C73.6833 20.352 73.646 20.1067 73.646 19.84C73.646 19.4987 73.7153 19.184 73.854 18.896C74.0033 18.608 74.206 18.3573 74.462 18.144C74.7287 17.92 75.038 17.7547 75.39 17.648C75.7527 17.5307 76.142 17.472 76.558 17.472C76.9527 17.472 77.342 17.5253 77.726 17.632C78.11 17.7387 78.4673 17.8933 78.798 18.096C79.1287 18.2987 79.4113 18.5387 79.646 18.816L78.91 19.616C78.7073 19.4027 78.4833 19.2107 78.238 19.04C77.9927 18.8693 77.7313 18.736 77.454 18.64C77.1873 18.544 76.91 18.496 76.622 18.496C76.366 18.496 76.126 18.528 75.902 18.592C75.6887 18.656 75.502 18.7467 75.342 18.864C75.1927 18.9707 75.0753 19.104 74.99 19.264C74.9153 19.424 74.878 19.6 74.878 19.792C74.878 19.952 74.91 20.096 74.974 20.224C75.038 20.352 75.1287 20.464 75.246 20.56C75.3953 20.6773 75.6033 20.7893 75.87 20.896C76.1473 20.992 76.4887 21.0933 76.894 21.2C77.3633 21.328 77.758 21.4613 78.078 21.6C78.4087 21.728 78.6807 21.8827 78.894 22.064C79.182 22.2773 79.3847 22.5227 79.502 22.8C79.63 23.0773 79.694 23.392 79.694 23.744C79.694 24.2133 79.5607 24.6293 79.294 24.992C79.038 25.3547 78.6807 25.6427 78.222 25.856C77.7633 26.0587 77.2407 26.16 76.654 26.16ZM85.2703 26.16C84.4383 26.16 83.6969 25.9733 83.0463 25.6C82.4063 25.2267 81.8996 24.7093 81.5263 24.048C81.1636 23.3867 80.9823 22.6347 80.9823 21.792C80.9823 20.96 81.1636 20.2187 81.5263 19.568C81.8996 18.9173 82.4063 18.4053 83.0463 18.032C83.6969 17.6587 84.4383 17.472 85.2703 17.472C86.0916 17.472 86.8223 17.6587 87.4623 18.032C88.1129 18.4053 88.6196 18.9173 88.9823 19.568C89.3556 20.2187 89.5423 20.96 89.5423 21.792C89.5423 22.6347 89.3556 23.3867 88.9823 24.048C88.6196 24.7093 88.1129 25.2267 87.4623 25.6C86.8223 25.9733 86.0916 26.16 85.2703 26.16ZM85.2703 25.024C85.8569 25.024 86.3796 24.8853 86.8383 24.608C87.2969 24.32 87.6543 23.936 87.9103 23.456C88.1663 22.9653 88.2943 22.4107 88.2943 21.792C88.2943 21.1733 88.1663 20.624 87.9103 20.144C87.6543 19.664 87.2969 19.2907 86.8383 19.024C86.3796 18.7467 85.8569 18.608 85.2703 18.608C84.6836 18.608 84.1556 18.7467 83.6863 19.024C83.2276 19.2907 82.8649 19.6693 82.5983 20.16C82.3423 20.64 82.2196 21.184 82.2303 21.792C82.2196 22.4107 82.3423 22.9653 82.5983 23.456C82.8649 23.936 83.2276 24.32 83.6863 24.608C84.1556 24.8853 84.6836 25.024 85.2703 25.024ZM94.557 26.16C93.8317 26.16 93.1757 25.9733 92.589 25.6C92.0023 25.216 91.5383 24.6987 91.197 24.048C90.8557 23.3867 90.685 22.64 90.685 21.808C90.685 20.9653 90.861 20.2187 91.213 19.568C91.565 18.9173 92.0343 18.4053 92.621 18.032C93.2183 17.6587 93.885 17.472 94.621 17.472C95.0583 17.472 95.4637 17.536 95.837 17.664C96.2103 17.792 96.541 17.9733 96.829 18.208C97.1277 18.432 97.373 18.6987 97.565 19.008C97.7677 19.3067 97.9063 19.632 97.981 19.984L97.629 19.808L97.677 17.648H98.877V26H97.661V23.952L97.981 23.744C97.9063 24.064 97.7623 24.3733 97.549 24.672C97.3357 24.96 97.0743 25.216 96.765 25.44C96.4663 25.664 96.125 25.84 95.741 25.968C95.3677 26.096 94.973 26.16 94.557 26.16ZM94.829 25.008C95.3837 25.008 95.8797 24.8747 96.317 24.608C96.7543 24.3307 97.0957 23.952 97.341 23.472C97.597 22.9813 97.725 22.4267 97.725 21.808C97.725 21.1893 97.597 20.64 97.341 20.16C97.0957 19.68 96.7543 19.3013 96.317 19.024C95.8797 18.7467 95.3837 18.608 94.829 18.608C94.2637 18.608 93.7623 18.7467 93.325 19.024C92.8983 19.3013 92.557 19.68 92.301 20.16C92.0557 20.64 91.933 21.1893 91.933 21.808C91.933 22.416 92.0557 22.9653 92.301 23.456C92.5463 23.936 92.8877 24.3147 93.325 24.592C93.7623 24.8693 94.2637 25.008 94.829 25.008ZM106.179 26V14.8H107.427V26H106.179ZM106.803 21.008V19.776H112.467V21.008H106.803ZM106.803 16.016V14.8H113.219V16.016H106.803ZM115.184 26V17.648H116.384V26H115.184ZM114.752 16.416L114.32 15.76L116.592 13.856L117.376 14.864L114.752 16.416ZM121.451 26.16C120.736 26.16 120.096 26.0267 119.531 25.76C118.966 25.4933 118.518 25.1413 118.187 24.704L119.035 23.968C119.344 24.3413 119.707 24.624 120.123 24.816C120.55 25.008 121.024 25.104 121.547 25.104C121.814 25.104 122.054 25.0773 122.267 25.024C122.48 24.96 122.667 24.8693 122.827 24.752C122.987 24.6347 123.11 24.496 123.195 24.336C123.28 24.176 123.323 24 123.323 23.808C123.323 23.456 123.168 23.1627 122.859 22.928C122.72 22.832 122.523 22.736 122.267 22.64C122.011 22.5333 121.702 22.432 121.339 22.336C120.742 22.1653 120.246 21.9947 119.851 21.824C119.456 21.6427 119.147 21.4347 118.923 21.2C118.763 21.008 118.64 20.8 118.555 20.576C118.48 20.352 118.443 20.1067 118.443 19.84C118.443 19.4987 118.512 19.184 118.651 18.896C118.8 18.608 119.003 18.3573 119.259 18.144C119.526 17.92 119.835 17.7547 120.187 17.648C120.55 17.5307 120.939 17.472 121.355 17.472C121.75 17.472 122.139 17.5253 122.523 17.632C122.907 17.7387 123.264 17.8933 123.595 18.096C123.926 18.2987 124.208 18.5387 124.443 18.816L123.707 19.616C123.504 19.4027 123.28 19.2107 123.035 19.04C122.79 18.8693 122.528 18.736 122.251 18.64C121.984 18.544 121.707 18.496 121.419 18.496C121.163 18.496 120.923 18.528 120.699 18.592C120.486 18.656 120.299 18.7467 120.139 18.864C119.99 18.9707 119.872 19.104 119.787 19.264C119.712 19.424 119.675 19.6 119.675 19.792C119.675 19.952 119.707 20.096 119.771 20.224C119.835 20.352 119.926 20.464 120.043 20.56C120.192 20.6773 120.4 20.7893 120.667 20.896C120.944 20.992 121.286 21.0933 121.691 21.2C122.16 21.328 122.555 21.4613 122.875 21.6C123.206 21.728 123.478 21.8827 123.691 22.064C123.979 22.2773 124.182 22.5227 124.299 22.8C124.427 23.0773 124.491 23.392 124.491 23.744C124.491 24.2133 124.358 24.6293 124.091 24.992C123.835 25.3547 123.478 25.6427 123.019 25.856C122.56 26.0587 122.038 26.16 121.451 26.16ZM126.691 26V17.648H127.891V26H126.691ZM127.283 15.84C126.984 15.84 126.755 15.7653 126.595 15.616C126.446 15.456 126.371 15.2427 126.371 14.976C126.371 14.7093 126.451 14.496 126.611 14.336C126.771 14.176 126.995 14.096 127.283 14.096C127.571 14.096 127.795 14.176 127.955 14.336C128.115 14.4853 128.195 14.6987 128.195 14.976C128.195 15.232 128.115 15.44 127.955 15.6C127.795 15.76 127.571 15.84 127.283 15.84ZM134.032 26.16C133.242 26.16 132.538 25.9733 131.92 25.6C131.301 25.216 130.81 24.6987 130.448 24.048C130.096 23.3867 129.92 22.64 129.92 21.808C129.92 20.976 130.096 20.2347 130.448 19.584C130.81 18.9227 131.301 18.4053 131.92 18.032C132.538 17.6587 133.248 17.472 134.048 17.472C134.762 17.472 135.413 17.616 136 17.904C136.586 18.1813 137.056 18.5707 137.408 19.072L136.704 19.936C136.501 19.6693 136.256 19.4347 135.968 19.232C135.69 19.0293 135.386 18.8747 135.056 18.768C134.736 18.6507 134.416 18.592 134.096 18.592C133.53 18.592 133.024 18.736 132.576 19.024C132.128 19.3013 131.77 19.68 131.504 20.16C131.248 20.64 131.12 21.1893 131.12 21.808C131.12 22.4267 131.248 22.9813 131.504 23.472C131.77 23.952 132.128 24.3307 132.576 24.608C133.024 24.8853 133.525 25.024 134.08 25.024C134.4 25.024 134.714 24.976 135.024 24.88C135.333 24.7733 135.626 24.624 135.904 24.432C136.181 24.24 136.437 24 136.672 23.712L137.376 24.576C137.013 25.056 136.528 25.44 135.92 25.728C135.312 26.016 134.682 26.16 134.032 26.16ZM142.198 26.16C141.472 26.16 140.816 25.9733 140.23 25.6C139.643 25.216 139.179 24.6987 138.838 24.048C138.496 23.3867 138.326 22.64 138.326 21.808C138.326 20.9653 138.502 20.2187 138.854 19.568C139.206 18.9173 139.675 18.4053 140.262 18.032C140.859 17.6587 141.526 17.472 142.262 17.472C142.699 17.472 143.104 17.536 143.478 17.664C143.851 17.792 144.182 17.9733 144.47 18.208C144.768 18.432 145.014 18.6987 145.206 19.008C145.408 19.3067 145.547 19.632 145.622 19.984L145.27 19.808L145.318 17.648H146.518V26H145.302V23.952L145.622 23.744C145.547 24.064 145.403 24.3733 145.19 24.672C144.976 24.96 144.715 25.216 144.406 25.44C144.107 25.664 143.766 25.84 143.382 25.968C143.008 26.096 142.614 26.16 142.198 26.16ZM142.47 25.008C143.024 25.008 143.52 24.8747 143.958 24.608C144.395 24.3307 144.736 23.952 144.982 23.472C145.238 22.9813 145.366 22.4267 145.366 21.808C145.366 21.1893 145.238 20.64 144.982 20.16C144.736 19.68 144.395 19.3013 143.958 19.024C143.52 18.7467 143.024 18.608 142.47 18.608C141.904 18.608 141.403 18.7467 140.966 19.024C140.539 19.3013 140.198 19.68 139.942 20.16C139.696 20.64 139.574 21.1893 139.574 21.808C139.574 22.416 139.696 22.9653 139.942 23.456C140.187 23.936 140.528 24.3147 140.966 24.592C141.403 24.8693 141.904 25.008 142.47 25.008Z" fill="#E1DDF4"/>
<defs>
<linearGradient id="paint0_linear_481_123" x1="168" y1="20" x2="0" y2="20" gradientUnits="userSpaceOnUse">
<stop stop-color="#43A3D5"/>
<stop offset="1" stop-color="#9C60DA"/>
</linearGradient>
<linearGradient id="paint1_linear_481_123" x1="168" y1="20" x2="0" y2="20" gradientUnits="userSpaceOnUse">
<stop stop-color="#43A3D5"/>
<stop offset="1" stop-color="#9C60DA"/>
</linearGradient>
<clipPath id="clip0_481_123">
<rect width="16" height="16" fill="white" transform="translate(20 12)"/>
</clipPath>
</defs>
</svg>
