<svg width="185" height="40" viewBox="0 0 185 40" fill="none" xmlns="http://www.w3.org/2000/svg">
<path d="M0.5 0.5H165C175.77 0.5 184.5 9.23045 184.5 20C184.5 30.7696 175.77 39.5 165 39.5H0.5V0.5Z" fill="url(#paint0_linear_481_136)"/>
<path d="M0.5 0.5H165C175.77 0.5 184.5 9.23045 184.5 20C184.5 30.7696 175.77 39.5 165 39.5H0.5V0.5Z" stroke="url(#paint1_linear_481_136)"/>
<path d="M24 16C24 17.0609 24.4214 18.0783 25.1716 18.8284C25.9217 19.5786 26.9391 20 28 20C29.0609 20 30.0783 19.5786 30.8284 18.8284C31.5786 18.0783 32 17.0609 32 16C32 14.9391 31.5786 13.9217 30.8284 13.1716C30.0783 12.4214 29.0609 12 28 12C26.9391 12 25.9217 12.4214 25.1716 13.1716C24.4214 13.9217 24 14.9391 24 16ZM26.9531 22.2563L27.5344 23.225L26.4938 27.0969L25.3688 22.5063C25.3063 22.2531 25.0625 22.0875 24.8094 22.1531C22.6219 22.7 21 24.6812 21 27.0406C21 27.5719 21.4313 28 21.9594 28H34.0406C34.5719 28 35 27.5687 35 27.0406C35 24.6812 33.3781 22.7 31.1906 22.1531C30.9375 22.0906 30.6938 22.2563 30.6313 22.5063L29.5063 27.0969L28.4656 23.225L29.0469 22.2563C29.2469 21.9219 29.0063 21.5 28.6188 21.5H27.3844C26.9969 21.5 26.7563 21.925 26.9563 22.2563H26.9531Z" fill="#E1DDF4"/>
<path d="M47.7652 26V14.8H52.1972C52.7839 14.8 53.3119 14.944 53.7812 15.232C54.2505 15.52 54.6239 15.92 54.9012 16.432C55.1785 16.9333 55.3172 17.4987 55.3172 18.128C55.3172 18.7893 55.1785 19.3813 54.9012 19.904C54.6239 20.416 54.2505 20.8267 53.7812 21.136C53.3119 21.4347 52.7839 21.584 52.1972 21.584H49.0132V26H47.7652ZM49.0132 20.368H52.2612C52.5919 20.368 52.8852 20.272 53.1412 20.08C53.4079 19.8773 53.6212 19.6107 53.7812 19.28C53.9412 18.9387 54.0212 18.5493 54.0212 18.112C54.0212 17.7173 53.9412 17.3653 53.7812 17.056C53.6212 16.736 53.4079 16.4853 53.1412 16.304C52.8852 16.112 52.5919 16.016 52.2612 16.016H49.0132V20.368ZM60.7621 26.16C59.9301 26.16 59.1887 25.9787 58.5381 25.616C57.8981 25.2533 57.3967 24.7467 57.0341 24.096C56.6714 23.4453 56.4901 22.6987 56.4901 21.856C56.4901 21.2053 56.5914 20.6187 56.7941 20.096C56.9967 19.5627 57.2794 19.0987 57.6421 18.704C58.0154 18.3093 58.4581 18.0053 58.9701 17.792C59.4821 17.568 60.0367 17.456 60.6341 17.456C61.1994 17.456 61.7114 17.5573 62.1701 17.76C62.6394 17.9627 63.0394 18.2453 63.3701 18.608C63.7114 18.96 63.9674 19.3813 64.1381 19.872C64.3087 20.3627 64.3834 20.9013 64.3621 21.488L64.3461 22.048H57.3861L57.2101 21.04H63.4341L63.1461 21.312V20.928C63.1247 20.544 63.0127 20.176 62.8101 19.824C62.6074 19.4613 62.3194 19.168 61.9461 18.944C61.5834 18.72 61.1461 18.608 60.6341 18.608C60.0367 18.608 59.5194 18.7307 59.0821 18.976C58.6447 19.2107 58.3087 19.5627 58.0741 20.032C57.8394 20.5013 57.7221 21.0827 57.7221 21.776C57.7221 22.4373 57.8501 23.0133 58.1061 23.504C58.3621 23.984 58.7247 24.3573 59.1941 24.624C59.6741 24.8907 60.2501 25.024 60.9221 25.024C61.3167 25.024 61.7061 24.96 62.0901 24.832C62.4847 24.6933 62.9167 24.4267 63.3861 24.032L64.0101 24.896C63.7647 25.1413 63.4714 25.36 63.1301 25.552C62.7887 25.7333 62.4154 25.8827 62.0101 26C61.6047 26.1067 61.1887 26.16 60.7621 26.16ZM68.8024 26.16C68.0878 26.16 67.4478 26.0267 66.8824 25.76C66.3171 25.4933 65.8691 25.1413 65.5384 24.704L66.3864 23.968C66.6958 24.3413 67.0584 24.624 67.4744 24.816C67.9011 25.008 68.3758 25.104 68.8984 25.104C69.1651 25.104 69.4051 25.0773 69.6184 25.024C69.8318 24.96 70.0184 24.8693 70.1784 24.752C70.3384 24.6347 70.4611 24.496 70.5464 24.336C70.6318 24.176 70.6744 24 70.6744 23.808C70.6744 23.456 70.5198 23.1627 70.2104 22.928C70.0718 22.832 69.8744 22.736 69.6184 22.64C69.3624 22.5333 69.0531 22.432 68.6904 22.336C68.0931 22.1653 67.5971 21.9947 67.2024 21.824C66.8078 21.6427 66.4984 21.4347 66.2744 21.2C66.1144 21.008 65.9918 20.8 65.9064 20.576C65.8318 20.352 65.7944 20.1067 65.7944 19.84C65.7944 19.4987 65.8638 19.184 66.0024 18.896C66.1518 18.608 66.3544 18.3573 66.6104 18.144C66.8771 17.92 67.1864 17.7547 67.5384 17.648C67.9011 17.5307 68.2904 17.472 68.7064 17.472C69.1011 17.472 69.4904 17.5253 69.8744 17.632C70.2584 17.7387 70.6158 17.8933 70.9464 18.096C71.2771 18.2987 71.5598 18.5387 71.7944 18.816L71.0584 19.616C70.8558 19.4027 70.6318 19.2107 70.3864 19.04C70.1411 18.8693 69.8798 18.736 69.6024 18.64C69.3358 18.544 69.0584 18.496 68.7704 18.496C68.5144 18.496 68.2744 18.528 68.0504 18.592C67.8371 18.656 67.6504 18.7467 67.4904 18.864C67.3411 18.9707 67.2238 19.104 67.1384 19.264C67.0638 19.424 67.0264 19.6 67.0264 19.792C67.0264 19.952 67.0584 20.096 67.1224 20.224C67.1864 20.352 67.2771 20.464 67.3944 20.56C67.5438 20.6773 67.7518 20.7893 68.0184 20.896C68.2958 20.992 68.6371 21.0933 69.0424 21.2C69.5118 21.328 69.9064 21.4613 70.2264 21.6C70.5571 21.728 70.8291 21.8827 71.0424 22.064C71.3304 22.2773 71.5331 22.5227 71.6504 22.8C71.7784 23.0773 71.8424 23.392 71.8424 23.744C71.8424 24.2133 71.7091 24.6293 71.4424 24.992C71.1864 25.3547 70.8291 25.6427 70.3704 25.856C69.9118 26.0587 69.3891 26.16 68.8024 26.16ZM76.4587 26.16C75.744 26.16 75.104 26.0267 74.5387 25.76C73.9734 25.4933 73.5254 25.1413 73.1947 24.704L74.0427 23.968C74.352 24.3413 74.7147 24.624 75.1307 24.816C75.5574 25.008 76.032 25.104 76.5547 25.104C76.8214 25.104 77.0614 25.0773 77.2747 25.024C77.488 24.96 77.6747 24.8693 77.8347 24.752C77.9947 24.6347 78.1174 24.496 78.2027 24.336C78.288 24.176 78.3307 24 78.3307 23.808C78.3307 23.456 78.176 23.1627 77.8667 22.928C77.728 22.832 77.5307 22.736 77.2747 22.64C77.0187 22.5333 76.7094 22.432 76.3467 22.336C75.7494 22.1653 75.2534 21.9947 74.8587 21.824C74.464 21.6427 74.1547 21.4347 73.9307 21.2C73.7707 21.008 73.648 20.8 73.5627 20.576C73.488 20.352 73.4507 20.1067 73.4507 19.84C73.4507 19.4987 73.52 19.184 73.6587 18.896C73.808 18.608 74.0107 18.3573 74.2667 18.144C74.5334 17.92 74.8427 17.7547 75.1947 17.648C75.5574 17.5307 75.9467 17.472 76.3627 17.472C76.7574 17.472 77.1467 17.5253 77.5307 17.632C77.9147 17.7387 78.272 17.8933 78.6027 18.096C78.9334 18.2987 79.216 18.5387 79.4507 18.816L78.7147 19.616C78.512 19.4027 78.288 19.2107 78.0427 19.04C77.7974 18.8693 77.536 18.736 77.2587 18.64C76.992 18.544 76.7147 18.496 76.4267 18.496C76.1707 18.496 75.9307 18.528 75.7067 18.592C75.4934 18.656 75.3067 18.7467 75.1467 18.864C74.9974 18.9707 74.88 19.104 74.7947 19.264C74.72 19.424 74.6827 19.6 74.6827 19.792C74.6827 19.952 74.7147 20.096 74.7787 20.224C74.8427 20.352 74.9334 20.464 75.0507 20.56C75.2 20.6773 75.408 20.7893 75.6747 20.896C75.952 20.992 76.2934 21.0933 76.6987 21.2C77.168 21.328 77.5627 21.4613 77.8827 21.6C78.2134 21.728 78.4854 21.8827 78.6987 22.064C78.9867 22.2773 79.1894 22.5227 79.3067 22.8C79.4347 23.0773 79.4987 23.392 79.4987 23.744C79.4987 24.2133 79.3654 24.6293 79.0987 24.992C78.8427 25.3547 78.4854 25.6427 78.0267 25.856C77.568 26.0587 77.0454 26.16 76.4587 26.16ZM85.0749 26.16C84.2429 26.16 83.5016 25.9733 82.8509 25.6C82.2109 25.2267 81.7043 24.7093 81.3309 24.048C80.9683 23.3867 80.7869 22.6347 80.7869 21.792C80.7869 20.96 80.9683 20.2187 81.3309 19.568C81.7043 18.9173 82.2109 18.4053 82.8509 18.032C83.5016 17.6587 84.2429 17.472 85.0749 17.472C85.8963 17.472 86.6269 17.6587 87.2669 18.032C87.9176 18.4053 88.4243 18.9173 88.7869 19.568C89.1603 20.2187 89.3469 20.96 89.3469 21.792C89.3469 22.6347 89.1603 23.3867 88.7869 24.048C88.4243 24.7093 87.9176 25.2267 87.2669 25.6C86.6269 25.9733 85.8963 26.16 85.0749 26.16ZM85.0749 25.024C85.6616 25.024 86.1843 24.8853 86.6429 24.608C87.1016 24.32 87.4589 23.936 87.7149 23.456C87.9709 22.9653 88.0989 22.4107 88.0989 21.792C88.0989 21.1733 87.9709 20.624 87.7149 20.144C87.4589 19.664 87.1016 19.2907 86.6429 19.024C86.1843 18.7467 85.6616 18.608 85.0749 18.608C84.4883 18.608 83.9603 18.7467 83.4909 19.024C83.0323 19.2907 82.6696 19.6693 82.4029 20.16C82.1469 20.64 82.0243 21.184 82.0349 21.792C82.0243 22.4107 82.1469 22.9653 82.4029 23.456C82.6696 23.936 83.0323 24.32 83.4909 24.608C83.9603 24.8853 84.4883 25.024 85.0749 25.024ZM94.3617 26.16C93.6364 26.16 92.9804 25.9733 92.3937 25.6C91.807 25.216 91.343 24.6987 91.0017 24.048C90.6604 23.3867 90.4897 22.64 90.4897 21.808C90.4897 20.9653 90.6657 20.2187 91.0177 19.568C91.3697 18.9173 91.839 18.4053 92.4257 18.032C93.023 17.6587 93.6897 17.472 94.4257 17.472C94.863 17.472 95.2684 17.536 95.6417 17.664C96.015 17.792 96.3457 17.9733 96.6337 18.208C96.9324 18.432 97.1777 18.6987 97.3697 19.008C97.5724 19.3067 97.711 19.632 97.7857 19.984L97.4337 19.808L97.4817 17.648H98.6817V26H97.4657V23.952L97.7857 23.744C97.711 24.064 97.567 24.3733 97.3537 24.672C97.1404 24.96 96.879 25.216 96.5697 25.44C96.271 25.664 95.9297 25.84 95.5457 25.968C95.1724 26.096 94.7777 26.16 94.3617 26.16ZM94.6337 25.008C95.1884 25.008 95.6844 24.8747 96.1217 24.608C96.559 24.3307 96.9004 23.952 97.1457 23.472C97.4017 22.9813 97.5297 22.4267 97.5297 21.808C97.5297 21.1893 97.4017 20.64 97.1457 20.16C96.9004 19.68 96.559 19.3013 96.1217 19.024C95.6844 18.7467 95.1884 18.608 94.6337 18.608C94.0684 18.608 93.567 18.7467 93.1297 19.024C92.703 19.3013 92.3617 19.68 92.1057 20.16C91.8604 20.64 91.7377 21.1893 91.7377 21.808C91.7377 22.416 91.8604 22.9653 92.1057 23.456C92.351 23.936 92.6924 24.3147 93.1297 24.592C93.567 24.8693 94.0684 25.008 94.6337 25.008ZM108.544 26.16C108.181 26.16 107.84 26.112 107.52 26.016C107.2 25.9307 106.901 25.8027 106.624 25.632C106.347 25.4507 106.096 25.232 105.872 24.976C105.648 24.72 105.451 24.4373 105.28 24.128L106.112 23.264C106.304 23.584 106.496 23.8507 106.688 24.064C106.891 24.2773 107.088 24.448 107.28 24.576C107.483 24.704 107.685 24.7947 107.888 24.848C108.101 24.9013 108.32 24.928 108.544 24.928C108.981 24.928 109.365 24.8267 109.696 24.624C110.037 24.4107 110.299 24.1227 110.48 23.76C110.672 23.3867 110.768 22.9653 110.768 22.496V15.984H108.736V14.8H113.696V15.984H112.048V22.592C112.048 23.104 111.963 23.5787 111.792 24.016C111.621 24.4533 111.381 24.832 111.072 25.152C110.763 25.472 110.395 25.7227 109.968 25.904C109.541 26.0747 109.067 26.16 108.544 26.16ZM117.776 26.16C117.136 26.16 116.592 26.032 116.144 25.776C115.707 25.5093 115.371 25.1253 115.136 24.624C114.912 24.1227 114.8 23.4987 114.8 22.752V17.648H116.016V22.512C116.016 23.0773 116.091 23.552 116.24 23.936C116.4 24.3093 116.635 24.592 116.944 24.784C117.264 24.976 117.654 25.072 118.112 25.072C118.464 25.072 118.79 25.0133 119.088 24.896C119.387 24.768 119.648 24.5973 119.872 24.384C120.096 24.1707 120.272 23.92 120.4 23.632C120.528 23.344 120.592 23.04 120.592 22.72V17.648H121.792V26H120.608L120.56 24.24L120.752 24.144C120.624 24.5173 120.411 24.8587 120.112 25.168C119.814 25.4667 119.456 25.7067 119.04 25.888C118.635 26.0693 118.214 26.16 117.776 26.16ZM124.129 26V17.648H125.329L125.361 19.872L125.233 19.568C125.35 19.1947 125.537 18.848 125.793 18.528C126.06 18.208 126.374 17.952 126.737 17.76C127.1 17.568 127.5 17.472 127.937 17.472C128.118 17.472 128.289 17.488 128.449 17.52C128.609 17.5413 128.742 17.5733 128.849 17.616L128.513 18.96C128.374 18.896 128.23 18.8533 128.081 18.832C127.942 18.8 127.809 18.784 127.681 18.784C127.318 18.784 126.993 18.848 126.705 18.976C126.417 19.104 126.172 19.2853 125.969 19.52C125.766 19.744 125.612 20.0053 125.505 20.304C125.398 20.6027 125.345 20.9227 125.345 21.264V26H124.129ZM130.098 26V17.648H131.298V26H130.098ZM129.666 16.416L129.234 15.76L131.506 13.856L132.29 14.864L129.666 16.416ZM137.021 26.16C136.264 26.16 135.581 25.9733 134.973 25.6C134.376 25.2267 133.901 24.7147 133.549 24.064C133.208 23.4027 133.037 22.656 133.037 21.824C133.037 20.9813 133.213 20.2347 133.565 19.584C133.917 18.9227 134.392 18.4053 134.989 18.032C135.586 17.6587 136.258 17.472 137.005 17.472C137.421 17.472 137.821 17.536 138.205 17.664C138.6 17.792 138.952 17.9733 139.261 18.208C139.57 18.432 139.826 18.6933 140.029 18.992C140.232 19.28 140.354 19.584 140.397 19.904L140.029 19.776V14.16H141.229V26H140.045L140.013 23.92L140.317 23.808C140.274 24.1067 140.152 24.4 139.949 24.688C139.757 24.9653 139.512 25.216 139.213 25.44C138.914 25.664 138.573 25.84 138.189 25.968C137.816 26.096 137.426 26.16 137.021 26.16ZM137.197 25.056C137.752 25.056 138.248 24.9173 138.685 24.64C139.122 24.3627 139.464 23.9787 139.709 23.488C139.965 22.9973 140.093 22.4373 140.093 21.808C140.093 21.1787 139.965 20.624 139.709 20.144C139.464 19.6533 139.122 19.2693 138.685 18.992C138.248 18.704 137.752 18.56 137.197 18.56C136.621 18.56 136.114 18.704 135.677 18.992C135.25 19.2693 134.909 19.6533 134.653 20.144C134.408 20.624 134.285 21.1787 134.285 21.808C134.285 22.4267 134.408 22.9813 134.653 23.472C134.898 23.9627 135.24 24.352 135.677 24.64C136.114 24.9173 136.621 25.056 137.197 25.056ZM143.886 26V17.648H145.086V26H143.886ZM144.478 15.84C144.18 15.84 143.95 15.7653 143.79 15.616C143.641 15.456 143.566 15.2427 143.566 14.976C143.566 14.7093 143.646 14.496 143.806 14.336C143.966 14.176 144.19 14.096 144.478 14.096C144.766 14.096 144.99 14.176 145.15 14.336C145.31 14.4853 145.39 14.6987 145.39 14.976C145.39 15.232 145.31 15.44 145.15 15.6C144.99 15.76 144.766 15.84 144.478 15.84ZM151.227 26.16C150.438 26.16 149.734 25.9733 149.115 25.6C148.496 25.216 148.006 24.6987 147.643 24.048C147.291 23.3867 147.115 22.64 147.115 21.808C147.115 20.976 147.291 20.2347 147.643 19.584C148.006 18.9227 148.496 18.4053 149.115 18.032C149.734 17.6587 150.443 17.472 151.243 17.472C151.958 17.472 152.608 17.616 153.195 17.904C153.782 18.1813 154.251 18.5707 154.603 19.072L153.899 19.936C153.696 19.6693 153.451 19.4347 153.163 19.232C152.886 19.0293 152.582 18.8747 152.251 18.768C151.931 18.6507 151.611 18.592 151.291 18.592C150.726 18.592 150.219 18.736 149.771 19.024C149.323 19.3013 148.966 19.68 148.699 20.16C148.443 20.64 148.315 21.1893 148.315 21.808C148.315 22.4267 148.443 22.9813 148.699 23.472C148.966 23.952 149.323 24.3307 149.771 24.608C150.219 24.8853 150.72 25.024 151.275 25.024C151.595 25.024 151.91 24.976 152.219 24.88C152.528 24.7733 152.822 24.624 153.099 24.432C153.376 24.24 153.632 24 153.867 23.712L154.571 24.576C154.208 25.056 153.723 25.44 153.115 25.728C152.507 26.016 151.878 26.16 151.227 26.16ZM159.393 26.16C158.668 26.16 158.012 25.9733 157.425 25.6C156.838 25.216 156.374 24.6987 156.033 24.048C155.692 23.3867 155.521 22.64 155.521 21.808C155.521 20.9653 155.697 20.2187 156.049 19.568C156.401 18.9173 156.87 18.4053 157.457 18.032C158.054 17.6587 158.721 17.472 159.457 17.472C159.894 17.472 160.3 17.536 160.673 17.664C161.046 17.792 161.377 17.9733 161.665 18.208C161.964 18.432 162.209 18.6987 162.401 19.008C162.604 19.3067 162.742 19.632 162.817 19.984L162.465 19.808L162.513 17.648H163.713V26H162.497V23.952L162.817 23.744C162.742 24.064 162.598 24.3733 162.385 24.672C162.172 24.96 161.91 25.216 161.601 25.44C161.302 25.664 160.961 25.84 160.577 25.968C160.204 26.096 159.809 26.16 159.393 26.16ZM159.665 25.008C160.22 25.008 160.716 24.8747 161.153 24.608C161.59 24.3307 161.932 23.952 162.177 23.472C162.433 22.9813 162.561 22.4267 162.561 21.808C162.561 21.1893 162.433 20.64 162.177 20.16C161.932 19.68 161.59 19.3013 161.153 19.024C160.716 18.7467 160.22 18.608 159.665 18.608C159.1 18.608 158.598 18.7467 158.161 19.024C157.734 19.3013 157.393 19.68 157.137 20.16C156.892 20.64 156.769 21.1893 156.769 21.808C156.769 22.416 156.892 22.9653 157.137 23.456C157.382 23.936 157.724 24.3147 158.161 24.592C158.598 24.8693 159.1 25.008 159.665 25.008Z" fill="#E1DDF4"/>
<defs>
<linearGradient id="paint0_linear_481_136" x1="185" y1="20" x2="0" y2="20" gradientUnits="userSpaceOnUse">
<stop stop-color="#43A3D5"/>
<stop offset="1" stop-color="#9C60DA"/>
</linearGradient>
<linearGradient id="paint1_linear_481_136" x1="185" y1="20" x2="0" y2="20" gradientUnits="userSpaceOnUse">
<stop stop-color="#43A3D5"/>
<stop offset="1" stop-color="#9C60DA"/>
</linearGradient>
</defs>
</svg>
