<svg width="25" height="25" viewBox="0 0 25 25" fill="none" xmlns="http://www.w3.org/2000/svg">
<g clip-path="url(#clip0_669_96)">
<path d="M12.5526 16.8355C6.99855 16.8355 2.5 19.0848 2.5 21.8618V24.375H22.6053V21.8618C22.6053 19.0848 18.1067 16.8355 12.5526 16.8355ZM7.52632 9.29605C7.52632 10.6291 8.05587 11.9076 8.99849 12.8502C9.94111 13.7928 11.2196 14.3224 12.5526 14.3224C13.8857 14.3224 15.1642 13.7928 16.1068 12.8502C17.0494 11.9076 17.5789 10.6291 17.5789 9.29605M11.9243 0.5C11.5474 0.5 11.2961 0.763882 11.2961 1.12829V4.89803H10.0395V1.75658C10.0395 1.75658 7.21217 2.83724 7.21217 6.46875C7.21217 6.46875 6.26974 6.64467 6.26974 8.03947H18.8355C18.7727 6.64467 17.8931 6.46875 17.8931 6.46875C17.8931 2.83724 15.0658 1.75658 15.0658 1.75658V4.89803H13.8092V1.12829C13.8092 0.763882 13.5705 0.5 13.1809 0.5H11.9243Z" fill="#E1DDF4"/>
</g>
<defs>
<clipPath id="clip0_669_96">
<rect width="24" height="24" fill="white" transform="translate(0.5 0.5)"/>
</clipPath>
</defs>
</svg>
