<svg width="32" height="32" viewBox="0 0 32 32" fill="none" xmlns="http://www.w3.org/2000/svg">
<g id="lets-icons:clock">
<g id="Group">
<path id="Vector" d="M15.8187 28.4371C21.9247 28.4371 26.8746 23.4872 26.8746 17.3812C26.8746 11.2751 21.9247 6.3252 15.8187 6.3252C9.71262 6.3252 4.7627 11.2751 4.7627 17.3812C4.7627 23.4872 9.71262 28.4371 15.8187 28.4371Z" stroke="#9C60DA" stroke-width="3.15884"/>
<path id="Vector_2" d="M6.28703 3.38086C5.21556 3.66783 4.23853 4.23184 3.45418 5.01619C2.66983 5.80054 2.10581 6.77757 1.81885 7.84905M25.3507 3.38086C26.4221 3.66783 27.3992 4.23184 28.1835 5.01619C28.9679 5.80054 29.5319 6.77757 29.8188 7.84905M15.8188 11.0632V16.986C15.8188 17.204 15.9957 17.3809 16.2137 17.3809H20.5571" stroke="#9C60DA" stroke-width="3.15884" stroke-linecap="round"/>
</g>
</g>
</svg>
