<svg width="24" height="24" viewBox="0 0 24 24" fill="none" xmlns="http://www.w3.org/2000/svg">
<path d="M11.8642 21.3281C16.4438 21.3281 20.1562 17.6156 20.1562 13.0361C20.1562 8.45658 16.4438 4.74414 11.8642 4.74414C7.28471 4.74414 3.57227 8.45658 3.57227 13.0361C3.57227 17.6156 7.28471 21.3281 11.8642 21.3281Z" stroke="#E1DDF4" stroke-width="2.36913"/>
<path d="M4.7154 2.53613C3.91179 2.75136 3.17902 3.17437 2.59076 3.76263C2.00249 4.35089 1.57948 5.08367 1.36426 5.88727M19.0131 2.53613C19.8167 2.75136 20.5495 3.17437 21.1378 3.76263C21.726 4.35089 22.149 5.08367 22.3643 5.88727M11.8643 8.29787V12.74C11.8643 12.9035 11.9969 13.0361 12.1604 13.0361H15.418" stroke="#E1DDF4" stroke-width="2.36913" stroke-linecap="round"/>
</svg>
