<svg width="16" height="16" viewBox="0 0 16 16" fill="none" xmlns="http://www.w3.org/2000/svg">
<g clip-path="url(#clip0_1127_4120)">
<path fill-rule="evenodd" clip-rule="evenodd" d="M5.33323 0.410156C8.05216 0.410156 10.2563 2.61431 10.2563 5.33323C10.2563 5.83058 10.1825 6.31069 10.0454 6.76327L15.1794 11.8974C16.0857 12.8037 16.0857 14.2731 15.1794 15.1794C14.2731 16.0857 12.8036 16.0857 11.8973 15.1794L6.76327 10.0454C6.31069 10.1825 5.83058 10.2563 5.33323 10.2563C2.61431 10.2563 0.410156 8.05216 0.410156 5.33323C0.410156 4.80854 0.492233 4.303 0.644272 3.82881L2.97304 6.15373L5.28127 5.385L5.38435 5.28193L6.15373 2.97585L3.82227 0.646426C4.29835 0.493041 4.80612 0.410156 5.33323 0.410156Z" fill="#E1DDF4"/>
</g>
<defs>
<clipPath id="clip0_1127_4120">
<rect width="16" height="16" fill="white"/>
</clipPath>
</defs>
</svg>
