<svg width="140" height="40" viewBox="0 0 140 40" fill="none" xmlns="http://www.w3.org/2000/svg">
<path d="M120 0.5C130.77 0.5 139.5 9.23045 139.5 20C139.5 30.7696 130.77 39.5 120 39.5H0.5V0.5H120Z" stroke="#E1DDF4"/>
<path d="M31.4605 26V14.8H35.8445C36.4952 14.8 37.0818 14.9547 37.6045 15.264C38.1378 15.5627 38.5592 15.9733 38.8685 16.496C39.1778 17.0187 39.3325 17.6107 39.3325 18.272C39.3325 18.8907 39.1832 19.4507 38.8845 19.952C38.5858 20.4533 38.1805 20.8533 37.6685 21.152C37.1565 21.44 36.5805 21.584 35.9405 21.584H32.7085V26H31.4605ZM38.2925 26L35.4765 21.072L36.6765 20.656L39.7805 26H38.2925ZM32.7085 20.368H36.0525C36.4472 20.368 36.7938 20.2773 37.0925 20.096C37.3912 19.9147 37.6258 19.6693 37.7965 19.36C37.9672 19.04 38.0525 18.6773 38.0525 18.272C38.0525 17.8347 37.9512 17.4453 37.7485 17.104C37.5458 16.7627 37.2632 16.496 36.9005 16.304C36.5485 16.112 36.1432 16.016 35.6845 16.016H32.7085V20.368ZM44.9105 26.16C44.0785 26.16 43.3372 25.9787 42.6865 25.616C42.0465 25.2533 41.5452 24.7467 41.1825 24.096C40.8198 23.4453 40.6385 22.6987 40.6385 21.856C40.6385 21.2053 40.7398 20.6187 40.9425 20.096C41.1452 19.5627 41.4278 19.0987 41.7905 18.704C42.1638 18.3093 42.6065 18.0053 43.1185 17.792C43.6305 17.568 44.1852 17.456 44.7825 17.456C45.3478 17.456 45.8598 17.5573 46.3185 17.76C46.7878 17.9627 47.1878 18.2453 47.5185 18.608C47.8598 18.96 48.1158 19.3813 48.2865 19.872C48.4572 20.3627 48.5318 20.9013 48.5105 21.488L48.4945 22.048H41.5345L41.3585 21.04H47.5825L47.2945 21.312V20.928C47.2732 20.544 47.1612 20.176 46.9585 19.824C46.7558 19.4613 46.4678 19.168 46.0945 18.944C45.7318 18.72 45.2945 18.608 44.7825 18.608C44.1852 18.608 43.6678 18.7307 43.2305 18.976C42.7932 19.2107 42.4572 19.5627 42.2225 20.032C41.9878 20.5013 41.8705 21.0827 41.8705 21.776C41.8705 22.4373 41.9985 23.0133 42.2545 23.504C42.5105 23.984 42.8732 24.3573 43.3425 24.624C43.8225 24.8907 44.3985 25.024 45.0705 25.024C45.4652 25.024 45.8545 24.96 46.2385 24.832C46.6332 24.6933 47.0652 24.4267 47.5345 24.032L48.1585 24.896C47.9132 25.1413 47.6198 25.36 47.2785 25.552C46.9372 25.7333 46.5638 25.8827 46.1585 26C45.7532 26.1067 45.3372 26.16 44.9105 26.16ZM52.6506 26L49.1306 17.648H50.4586L53.2426 24.48L52.9226 24.656L55.9786 17.648H57.2586L53.5146 26H52.6506ZM58.988 26V17.648H60.188V26H58.988ZM59.58 15.84C59.2813 15.84 59.052 15.7653 58.892 15.616C58.7427 15.456 58.668 15.2427 58.668 14.976C58.668 14.7093 58.748 14.496 58.908 14.336C59.068 14.176 59.292 14.096 59.58 14.096C59.868 14.096 60.092 14.176 60.252 14.336C60.412 14.4853 60.492 14.6987 60.492 14.976C60.492 15.232 60.412 15.44 60.252 15.6C60.092 15.76 59.868 15.84 59.58 15.84ZM65.5446 26.16C64.83 26.16 64.19 26.0267 63.6246 25.76C63.0593 25.4933 62.6113 25.1413 62.2806 24.704L63.1286 23.968C63.438 24.3413 63.8006 24.624 64.2166 24.816C64.6433 25.008 65.118 25.104 65.6406 25.104C65.9073 25.104 66.1473 25.0773 66.3606 25.024C66.574 24.96 66.7606 24.8693 66.9206 24.752C67.0806 24.6347 67.2033 24.496 67.2886 24.336C67.374 24.176 67.4166 24 67.4166 23.808C67.4166 23.456 67.262 23.1627 66.9526 22.928C66.814 22.832 66.6166 22.736 66.3606 22.64C66.1046 22.5333 65.7953 22.432 65.4326 22.336C64.8353 22.1653 64.3393 21.9947 63.9446 21.824C63.55 21.6427 63.2406 21.4347 63.0166 21.2C62.8566 21.008 62.734 20.8 62.6486 20.576C62.574 20.352 62.5366 20.1067 62.5366 19.84C62.5366 19.4987 62.606 19.184 62.7446 18.896C62.894 18.608 63.0966 18.3573 63.3526 18.144C63.6193 17.92 63.9286 17.7547 64.2806 17.648C64.6433 17.5307 65.0326 17.472 65.4486 17.472C65.8433 17.472 66.2326 17.5253 66.6166 17.632C67.0006 17.7387 67.358 17.8933 67.6886 18.096C68.0193 18.2987 68.302 18.5387 68.5366 18.816L67.8006 19.616C67.598 19.4027 67.374 19.2107 67.1286 19.04C66.8833 18.8693 66.622 18.736 66.3446 18.64C66.078 18.544 65.8006 18.496 65.5126 18.496C65.2566 18.496 65.0166 18.528 64.7926 18.592C64.5793 18.656 64.3926 18.7467 64.2326 18.864C64.0833 18.9707 63.966 19.104 63.8806 19.264C63.806 19.424 63.7686 19.6 63.7686 19.792C63.7686 19.952 63.8006 20.096 63.8646 20.224C63.9286 20.352 64.0193 20.464 64.1366 20.56C64.286 20.6773 64.494 20.7893 64.7606 20.896C65.038 20.992 65.3793 21.0933 65.7846 21.2C66.254 21.328 66.6486 21.4613 66.9686 21.6C67.2993 21.728 67.5713 21.8827 67.7846 22.064C68.0726 22.2773 68.2753 22.5227 68.3926 22.8C68.5206 23.0773 68.5846 23.392 68.5846 23.744C68.5846 24.2133 68.4513 24.6293 68.1846 24.992C67.9286 25.3547 67.5713 25.6427 67.1126 25.856C66.654 26.0587 66.1313 26.16 65.5446 26.16ZM73.7289 26.16C73.0035 26.16 72.3475 25.9733 71.7609 25.6C71.1742 25.216 70.7102 24.6987 70.3689 24.048C70.0275 23.3867 69.8569 22.64 69.8569 21.808C69.8569 20.9653 70.0329 20.2187 70.3849 19.568C70.7369 18.9173 71.2062 18.4053 71.7929 18.032C72.3902 17.6587 73.0569 17.472 73.7929 17.472C74.2302 17.472 74.6355 17.536 75.0089 17.664C75.3822 17.792 75.7129 17.9733 76.0009 18.208C76.2995 18.432 76.5449 18.6987 76.7369 19.008C76.9395 19.3067 77.0782 19.632 77.1529 19.984L76.8009 19.808L76.8489 17.648H78.0489V26H76.8329V23.952L77.1529 23.744C77.0782 24.064 76.9342 24.3733 76.7209 24.672C76.5075 24.96 76.2462 25.216 75.9369 25.44C75.6382 25.664 75.2969 25.84 74.9129 25.968C74.5395 26.096 74.1449 26.16 73.7289 26.16ZM74.0009 25.008C74.5555 25.008 75.0515 24.8747 75.4889 24.608C75.9262 24.3307 76.2675 23.952 76.5129 23.472C76.7689 22.9813 76.8969 22.4267 76.8969 21.808C76.8969 21.1893 76.7689 20.64 76.5129 20.16C76.2675 19.68 75.9262 19.3013 75.4889 19.024C75.0515 18.7467 74.5555 18.608 74.0009 18.608C73.4355 18.608 72.9342 18.7467 72.4969 19.024C72.0702 19.3013 71.7289 19.68 71.4729 20.16C71.2275 20.64 71.1049 21.1893 71.1049 21.808C71.1049 22.416 71.2275 22.9653 71.4729 23.456C71.7182 23.936 72.0595 24.3147 72.4969 24.592C72.9342 24.8693 73.4355 25.008 74.0009 25.008ZM80.3868 26V17.648H81.5868L81.6188 19.872L81.4908 19.568C81.6081 19.1947 81.7948 18.848 82.0508 18.528C82.3174 18.208 82.6321 17.952 82.9948 17.76C83.3574 17.568 83.7574 17.472 84.1948 17.472C84.3761 17.472 84.5468 17.488 84.7068 17.52C84.8668 17.5413 85.0001 17.5733 85.1068 17.616L84.7708 18.96C84.6321 18.896 84.4881 18.8533 84.3388 18.832C84.2001 18.8 84.0668 18.784 83.9388 18.784C83.5761 18.784 83.2508 18.848 82.9628 18.976C82.6748 19.104 82.4294 19.2853 82.2268 19.52C82.0241 19.744 81.8694 20.0053 81.7628 20.304C81.6561 20.6027 81.6028 20.9227 81.6028 21.264V26H80.3868Z" fill="#E1DDF4"/>
<path d="M109 19.1339C109.667 19.5189 109.667 20.4811 109 20.866L97 27.7942C96.3333 28.1791 95.5 27.698 95.5 26.9282L95.5 13.0718C95.5 12.302 96.3333 11.8208 97 12.2057L109 19.1339Z" fill="#E1DDF4"/>
</svg>
