<svg width="15" height="14" viewBox="0 0 15 14" fill="none" xmlns="http://www.w3.org/2000/svg">
<path d="M10.8493 0.192627C9.65834 1.51157 9.32386 3.55646 9.32386 5.2982C9.32386 9.52094 8.63208 11.8663 8.24184 12.8475C7.98844 13.4857 7.40056 13.8075 6.83801 13.8075H0.809643C0.518234 13.8075 0.247097 13.6426 0.105193 13.3767C-0.0367101 13.1108 -0.0367101 12.7837 0.115329 12.5205C0.363661 12.0498 0.505564 11.5047 0.634798 10.9861C0.918605 9.84004 1.21508 7.99725 1.21508 5.2982C1.21508 2.4795 2.3047 0.192627 3.64771 0.192627H10.8493ZM12.5674 10.4038C11.2244 10.4038 10.1347 8.11691 10.1347 5.2982C10.1347 2.4795 11.2244 0.192627 12.5674 0.192627C13.9104 0.192627 15 2.4795 15 5.2982C15 8.11691 13.9104 10.4038 12.5674 10.4038ZM12.5674 7.00006C13.0159 7.00006 13.3782 6.23689 13.3782 5.2982C13.3782 4.35952 13.0159 3.59635 12.5674 3.59635C12.1189 3.59635 11.7565 4.35952 11.7565 5.2982C11.7565 6.23689 12.1189 7.00006 12.5674 7.00006ZM3.24228 5.72367C3.24228 5.61083 3.19956 5.50261 3.12353 5.42282C3.04749 5.34303 2.94437 5.2982 2.83684 5.2982C2.72931 5.2982 2.62618 5.34303 2.55015 5.42282C2.47411 5.50261 2.4314 5.61083 2.4314 5.72367C2.4314 5.83651 2.47411 5.94473 2.55015 6.02452C2.62618 6.10431 2.72931 6.14913 2.83684 6.14913C2.94437 6.14913 3.04749 6.10431 3.12353 6.02452C3.19956 5.94473 3.24228 5.83651 3.24228 5.72367ZM4.86403 5.72367C4.86403 5.61083 4.82131 5.50261 4.74528 5.42282C4.66925 5.34303 4.56612 5.2982 4.45859 5.2982C4.35106 5.2982 4.24794 5.34303 4.1719 5.42282C4.09587 5.50261 4.05315 5.61083 4.05315 5.72367C4.05315 5.83651 4.09587 5.94473 4.1719 6.02452C4.24794 6.10431 4.35106 6.14913 4.45859 6.14913C4.56612 6.14913 4.66925 6.10431 4.74528 6.02452C4.82131 5.94473 4.86403 5.83651 4.86403 5.72367ZM6.08035 6.14913C6.18788 6.14913 6.291 6.10431 6.36704 6.02452C6.44307 5.94473 6.48579 5.83651 6.48579 5.72367C6.48579 5.61083 6.44307 5.50261 6.36704 5.42282C6.291 5.34303 6.18788 5.2982 6.08035 5.2982C5.97282 5.2982 5.86969 5.34303 5.79366 5.42282C5.71762 5.50261 5.67491 5.61083 5.67491 5.72367C5.67491 5.83651 5.71762 5.94473 5.79366 6.02452C5.86969 6.10431 5.97282 6.14913 6.08035 6.14913ZM8.10754 5.72367C8.10754 5.61083 8.06483 5.50261 7.98879 5.42282C7.91276 5.34303 7.80963 5.2982 7.7021 5.2982C7.59457 5.2982 7.49145 5.34303 7.41541 5.42282C7.33938 5.50261 7.29666 5.61083 7.29666 5.72367C7.29666 5.83651 7.33938 5.94473 7.41541 6.02452C7.49145 6.10431 7.59457 6.14913 7.7021 6.14913C7.80963 6.14913 7.91276 6.10431 7.98879 6.02452C8.06483 5.94473 8.10754 5.83651 8.10754 5.72367Z" fill="#E1DDF4"/>
</svg>
