<svg width="306" height="27" viewBox="0 0 306 27" fill="none" xmlns="http://www.w3.org/2000/svg">
<path d="M1.11426 13.1145L6.5434 15.4407L11.9725 13.1145M6.5434 4.63731L11.9708 6.96531M11.9708 6.96531L17.4 4.63903M11.9708 6.96531L11.9709 13.1778M11.9708 13.1144L17.3999 15.4407L22.8291 13.1144M6.54343 15.4441V21.6584M17.4034 15.4441V21.6584M1.11426 19.3321V13.1264L6.5434 10.8001L11.9725 13.1281V19.3321L6.5434 21.6567L1.11426 19.3321ZM6.54686 10.7966V4.59093L11.9743 2.26465L17.4034 4.59093V10.7966L11.9743 13.1229L6.54686 10.7966ZM11.9709 19.3321V13.1264L17.4 10.8001L22.8291 13.1281V19.3321L17.4 21.6567L11.9709 19.3321Z" stroke="#9C60DA" stroke-width="1.95" stroke-linecap="round" stroke-linejoin="round"/>
<path d="M41.368 21.24C40.52 21.24 39.72 21.12 38.968 20.88C38.216 20.64 37.528 20.28 36.904 19.8C36.28 19.32 35.728 18.728 35.248 18.024L36.544 16.584C37.296 17.656 38.064 18.408 38.848 18.84C39.648 19.272 40.544 19.488 41.536 19.488C42.256 19.488 42.912 19.368 43.504 19.128C44.096 18.888 44.56 18.552 44.896 18.12C45.232 17.688 45.4 17.192 45.4 16.632C45.4 16.264 45.336 15.936 45.208 15.648C45.096 15.36 44.92 15.104 44.68 14.88C44.44 14.656 44.144 14.456 43.792 14.28C43.44 14.104 43.032 13.944 42.568 13.8C42.12 13.656 41.616 13.512 41.056 13.368C40.24 13.176 39.52 12.952 38.896 12.696C38.288 12.424 37.768 12.096 37.336 11.712C36.92 11.328 36.6 10.888 36.376 10.392C36.168 9.88 36.064 9.28 36.064 8.592C36.064 7.936 36.2 7.328 36.472 6.768C36.76 6.208 37.152 5.728 37.648 5.328C38.144 4.912 38.728 4.592 39.4 4.368C40.072 4.144 40.792 4.032 41.56 4.032C42.424 4.032 43.192 4.152 43.864 4.392C44.552 4.616 45.16 4.952 45.688 5.4C46.216 5.848 46.672 6.384 47.056 7.008L45.736 8.304C45.4 7.776 45.016 7.32 44.584 6.936C44.168 6.552 43.704 6.264 43.192 6.072C42.696 5.864 42.144 5.76 41.536 5.76C40.832 5.76 40.208 5.88 39.664 6.12C39.136 6.36 38.72 6.696 38.416 7.128C38.112 7.544 37.96 8.024 37.96 8.568C37.96 8.968 38.032 9.328 38.176 9.648C38.32 9.952 38.544 10.224 38.848 10.464C39.168 10.688 39.576 10.896 40.072 11.088C40.584 11.264 41.192 11.432 41.896 11.592C42.728 11.784 43.472 12.016 44.128 12.288C44.8 12.56 45.368 12.888 45.832 13.272C46.312 13.64 46.672 14.072 46.912 14.568C47.168 15.064 47.296 15.632 47.296 16.272C47.296 17.264 47.048 18.136 46.552 18.888C46.056 19.624 45.36 20.2 44.464 20.616C43.584 21.032 42.552 21.24 41.368 21.24ZM55.8976 21.24C54.6496 21.24 53.5376 20.96 52.5616 20.4C51.6016 19.84 50.8416 19.064 50.2816 18.072C49.7376 17.08 49.4656 15.952 49.4656 14.688C49.4656 13.44 49.7376 12.328 50.2816 11.352C50.8416 10.376 51.6016 9.608 52.5616 9.048C53.5376 8.488 54.6496 8.208 55.8976 8.208C57.1296 8.208 58.2256 8.488 59.1856 9.048C60.1616 9.608 60.9216 10.376 61.4656 11.352C62.0256 12.328 62.3056 13.44 62.3056 14.688C62.3056 15.952 62.0256 17.08 61.4656 18.072C60.9216 19.064 60.1616 19.84 59.1856 20.4C58.2256 20.96 57.1296 21.24 55.8976 21.24ZM55.8976 19.536C56.7776 19.536 57.5616 19.328 58.2496 18.912C58.9376 18.48 59.4736 17.904 59.8576 17.184C60.2416 16.448 60.4336 15.616 60.4336 14.688C60.4336 13.76 60.2416 12.936 59.8576 12.216C59.4736 11.496 58.9376 10.936 58.2496 10.536C57.5616 10.12 56.7776 9.912 55.8976 9.912C55.0176 9.912 54.2256 10.12 53.5216 10.536C52.8336 10.936 52.2896 11.504 51.8896 12.24C51.5056 12.96 51.3216 13.776 51.3376 14.688C51.3216 15.616 51.5056 16.448 51.8896 17.184C52.2896 17.904 52.8336 18.48 53.5216 18.912C54.2256 19.328 55.0176 19.536 55.8976 19.536ZM64.9797 21V3.24H66.7797V21H64.9797ZM70.8023 21V8.472H72.6023V21H70.8023ZM71.6903 5.76C71.2423 5.76 70.8983 5.648 70.6583 5.424C70.4343 5.184 70.3223 4.864 70.3223 4.464C70.3223 4.064 70.4423 3.744 70.6823 3.504C70.9223 3.264 71.2583 3.144 71.6903 3.144C72.1223 3.144 72.4583 3.264 72.6983 3.504C72.9383 3.728 73.0583 4.048 73.0583 4.464C73.0583 4.848 72.9383 5.16 72.6983 5.4C72.4583 5.64 72.1223 5.76 71.6903 5.76ZM81.8133 21.24C80.6293 21.24 79.5733 20.96 78.6453 20.4C77.7173 19.824 76.9813 19.048 76.4373 18.072C75.9093 17.08 75.6453 15.96 75.6453 14.712C75.6453 13.464 75.9093 12.352 76.4373 11.376C76.9813 10.384 77.7173 9.608 78.6453 9.048C79.5733 8.488 80.6373 8.208 81.8372 8.208C82.9093 8.208 83.8853 8.424 84.7653 8.856C85.6453 9.272 86.3493 9.856 86.8773 10.608L85.8213 11.904C85.5173 11.504 85.1493 11.152 84.7173 10.848C84.3013 10.544 83.8453 10.312 83.3493 10.152C82.8693 9.976 82.3893 9.888 81.9093 9.888C81.0613 9.888 80.3013 10.104 79.6293 10.536C78.9573 10.952 78.4213 11.52 78.0213 12.24C77.6373 12.96 77.4453 13.784 77.4453 14.712C77.4453 15.64 77.6373 16.472 78.0213 17.208C78.4213 17.928 78.9573 18.496 79.6293 18.912C80.3013 19.328 81.0533 19.536 81.8853 19.536C82.3653 19.536 82.8373 19.464 83.3013 19.32C83.7653 19.16 84.2053 18.936 84.6213 18.648C85.0373 18.36 85.4213 18 85.7733 17.568L86.8293 18.864C86.2853 19.584 85.5573 20.16 84.6453 20.592C83.7333 21.024 82.7893 21.24 81.8133 21.24ZM89.6461 21V8.472H91.4461V21H89.6461ZM90.5341 5.76C90.0861 5.76 89.7421 5.648 89.5021 5.424C89.2781 5.184 89.1661 4.864 89.1661 4.464C89.1661 4.064 89.2861 3.744 89.5261 3.504C89.7661 3.264 90.1021 3.144 90.5341 3.144C90.9661 3.144 91.3021 3.264 91.5421 3.504C91.7821 3.728 91.9021 4.048 91.9021 4.464C91.9021 4.848 91.7821 5.16 91.5421 5.4C91.3021 5.64 90.9661 5.76 90.5341 5.76ZM97.105 21V5.184H98.905V21H97.105ZM94.273 10.2V8.472H102.073V10.2H94.273ZM109.062 21.24C107.974 21.24 106.99 20.96 106.11 20.4C105.23 19.824 104.534 19.048 104.022 18.072C103.51 17.08 103.254 15.96 103.254 14.712C103.254 13.448 103.518 12.328 104.046 11.352C104.574 10.376 105.278 9.608 106.158 9.048C107.054 8.488 108.054 8.208 109.158 8.208C109.814 8.208 110.422 8.304 110.982 8.496C111.542 8.688 112.038 8.96 112.47 9.312C112.918 9.648 113.286 10.048 113.574 10.512C113.878 10.96 114.086 11.448 114.198 11.976L113.67 11.712L113.742 8.472H115.542V21H113.718V17.928L114.198 17.616C114.086 18.096 113.87 18.56 113.55 19.008C113.23 19.44 112.838 19.824 112.374 20.16C111.926 20.496 111.414 20.76 110.838 20.952C110.278 21.144 109.686 21.24 109.062 21.24ZM109.47 19.512C110.302 19.512 111.046 19.312 111.702 18.912C112.358 18.496 112.87 17.928 113.238 17.208C113.622 16.472 113.814 15.64 113.814 14.712C113.814 13.784 113.622 12.96 113.238 12.24C112.87 11.52 112.358 10.952 111.702 10.536C111.046 10.12 110.302 9.912 109.47 9.912C108.622 9.912 107.87 10.12 107.214 10.536C106.574 10.952 106.062 11.52 105.678 12.24C105.31 12.96 105.126 13.784 105.126 14.712C105.126 15.624 105.31 16.448 105.678 17.184C106.046 17.904 106.558 18.472 107.214 18.888C107.87 19.304 108.622 19.512 109.47 19.512ZM124.329 21.24C123.145 21.24 122.089 20.96 121.161 20.4C120.233 19.824 119.497 19.048 118.953 18.072C118.425 17.08 118.161 15.96 118.161 14.712C118.161 13.464 118.425 12.352 118.953 11.376C119.497 10.384 120.233 9.608 121.161 9.048C122.089 8.488 123.153 8.208 124.353 8.208C125.425 8.208 126.401 8.424 127.281 8.856C128.161 9.272 128.865 9.856 129.393 10.608L128.337 11.904C128.033 11.504 127.665 11.152 127.233 10.848C126.817 10.544 126.361 10.312 125.865 10.152C125.385 9.976 124.905 9.888 124.425 9.888C123.577 9.888 122.817 10.104 122.145 10.536C121.473 10.952 120.937 11.52 120.537 12.24C120.153 12.96 119.961 13.784 119.961 14.712C119.961 15.64 120.153 16.472 120.537 17.208C120.937 17.928 121.473 18.496 122.145 18.912C122.817 19.328 123.569 19.536 124.401 19.536C124.881 19.536 125.353 19.464 125.817 19.32C126.281 19.16 126.721 18.936 127.137 18.648C127.553 18.36 127.937 18 128.289 17.568L129.345 18.864C128.801 19.584 128.073 20.16 127.161 20.592C126.249 21.024 125.305 21.24 124.329 21.24ZM122.121 26.688L121.953 25.656C122.385 25.64 122.809 25.576 123.225 25.464C123.657 25.352 124.009 25.192 124.281 24.984C124.569 24.792 124.713 24.576 124.713 24.336C124.713 24.08 124.585 23.88 124.329 23.736C124.073 23.592 123.769 23.488 123.417 23.424C123.081 23.376 122.785 23.352 122.529 23.352L122.217 23.112L123.801 20.64H125.025L123.993 22.272C124.761 22.416 125.337 22.656 125.721 22.992C126.105 23.344 126.297 23.776 126.297 24.288C126.297 24.704 126.169 25.064 125.913 25.368C125.657 25.688 125.321 25.944 124.905 26.136C124.505 26.328 124.057 26.464 123.561 26.544C123.081 26.64 122.601 26.688 122.121 26.688ZM136.578 21.24C135.49 21.24 134.506 20.96 133.626 20.4C132.746 19.824 132.05 19.048 131.538 18.072C131.026 17.08 130.77 15.96 130.77 14.712C130.77 13.448 131.034 12.328 131.562 11.352C132.09 10.376 132.794 9.608 133.674 9.048C134.57 8.488 135.57 8.208 136.674 8.208C137.33 8.208 137.938 8.304 138.498 8.496C139.058 8.688 139.554 8.96 139.986 9.312C140.434 9.648 140.802 10.048 141.09 10.512C141.394 10.96 141.602 11.448 141.714 11.976L141.186 11.712L141.258 8.472H143.058V21H141.234V17.928L141.714 17.616C141.602 18.096 141.386 18.56 141.066 19.008C140.746 19.44 140.354 19.824 139.89 20.16C139.442 20.496 138.93 20.76 138.354 20.952C137.794 21.144 137.202 21.24 136.578 21.24ZM136.986 19.512C137.818 19.512 138.562 19.312 139.218 18.912C139.874 18.496 140.386 17.928 140.754 17.208C141.138 16.472 141.33 15.64 141.33 14.712C141.33 13.784 141.138 12.96 140.754 12.24C140.386 11.52 139.874 10.952 139.218 10.536C138.562 10.12 137.818 9.912 136.986 9.912C136.138 9.912 135.386 10.12 134.73 10.536C134.09 10.952 133.578 11.52 133.194 12.24C132.826 12.96 132.642 13.784 132.642 14.712C132.642 15.624 132.826 16.448 133.194 17.184C133.562 17.904 134.074 18.472 134.73 18.888C135.386 19.304 136.138 19.512 136.986 19.512ZM138.786 6.288C138.45 6.288 138.154 6.216 137.898 6.072C137.658 5.928 137.378 5.712 137.058 5.424C136.834 5.216 136.642 5.064 136.482 4.968C136.338 4.872 136.186 4.824 136.026 4.824C135.754 4.824 135.522 4.944 135.33 5.184C135.138 5.408 135.01 5.752 134.946 6.216L133.65 6.048C133.714 5.328 133.97 4.72 134.418 4.224C134.866 3.712 135.442 3.456 136.146 3.456C136.45 3.456 136.722 3.52 136.962 3.648C137.202 3.776 137.482 3.984 137.802 4.272C138.042 4.464 138.234 4.616 138.378 4.728C138.522 4.84 138.682 4.896 138.858 4.896C139.098 4.896 139.298 4.784 139.458 4.56C139.634 4.336 139.746 4.032 139.794 3.648L141.114 3.816C141.082 4.264 140.962 4.68 140.754 5.064C140.562 5.432 140.298 5.728 139.962 5.952C139.626 6.176 139.234 6.288 138.786 6.288ZM152.109 21.24C150.861 21.24 149.749 20.96 148.773 20.4C147.813 19.84 147.053 19.064 146.493 18.072C145.949 17.08 145.677 15.952 145.677 14.688C145.677 13.44 145.949 12.328 146.493 11.352C147.053 10.376 147.813 9.608 148.773 9.048C149.749 8.488 150.861 8.208 152.109 8.208C153.341 8.208 154.437 8.488 155.397 9.048C156.373 9.608 157.133 10.376 157.677 11.352C158.237 12.328 158.517 13.44 158.517 14.688C158.517 15.952 158.237 17.08 157.677 18.072C157.133 19.064 156.373 19.84 155.397 20.4C154.437 20.96 153.341 21.24 152.109 21.24ZM152.109 19.536C152.989 19.536 153.773 19.328 154.461 18.912C155.149 18.48 155.685 17.904 156.069 17.184C156.453 16.448 156.645 15.616 156.645 14.688C156.645 13.76 156.453 12.936 156.069 12.216C155.685 11.496 155.149 10.936 154.461 10.536C153.773 10.12 152.989 9.912 152.109 9.912C151.229 9.912 150.437 10.12 149.733 10.536C149.045 10.936 148.501 11.504 148.101 12.24C147.717 12.96 147.533 13.776 147.549 14.688C147.533 15.616 147.717 16.448 148.101 17.184C148.501 17.904 149.045 18.48 149.733 18.912C150.437 19.328 151.229 19.536 152.109 19.536ZM172.957 21.24C171.821 21.24 170.797 20.96 169.885 20.4C168.989 19.84 168.277 19.072 167.749 18.096C167.237 17.104 166.981 15.984 166.981 14.736C166.981 13.472 167.245 12.352 167.773 11.376C168.301 10.384 169.013 9.608 169.909 9.048C170.805 8.488 171.813 8.208 172.933 8.208C173.557 8.208 174.157 8.304 174.733 8.496C175.325 8.688 175.853 8.96 176.317 9.312C176.781 9.648 177.165 10.04 177.469 10.488C177.773 10.92 177.957 11.376 178.021 11.856L177.469 11.664V3.24H179.269V21H177.493L177.445 17.88L177.901 17.712C177.837 18.16 177.653 18.6 177.349 19.032C177.061 19.448 176.693 19.824 176.245 20.16C175.797 20.496 175.285 20.76 174.709 20.952C174.149 21.144 173.565 21.24 172.957 21.24ZM173.221 19.584C174.053 19.584 174.797 19.376 175.453 18.96C176.109 18.544 176.621 17.968 176.989 17.232C177.373 16.496 177.565 15.656 177.565 14.712C177.565 13.768 177.373 12.936 176.989 12.216C176.621 11.48 176.109 10.904 175.453 10.488C174.797 10.056 174.053 9.84 173.221 9.84C172.357 9.84 171.597 10.056 170.941 10.488C170.301 10.904 169.789 11.48 169.405 12.216C169.037 12.936 168.853 13.768 168.853 14.712C168.853 15.64 169.037 16.472 169.405 17.208C169.773 17.944 170.285 18.528 170.941 18.96C171.597 19.376 172.357 19.584 173.221 19.584ZM188.295 21.24C187.047 21.24 185.935 20.968 184.959 20.424C183.999 19.88 183.247 19.12 182.703 18.144C182.159 17.168 181.887 16.048 181.887 14.784C181.887 13.808 182.039 12.928 182.343 12.144C182.647 11.344 183.071 10.648 183.615 10.056C184.175 9.464 184.839 9.008 185.607 8.688C186.375 8.352 187.207 8.184 188.103 8.184C188.951 8.184 189.719 8.336 190.407 8.64C191.111 8.944 191.711 9.368 192.207 9.912C192.719 10.44 193.103 11.072 193.359 11.808C193.615 12.544 193.727 13.352 193.695 14.232L193.671 15.072H183.231L182.967 13.56H192.303L191.871 13.968V13.392C191.839 12.816 191.671 12.264 191.367 11.736C191.063 11.192 190.631 10.752 190.071 10.416C189.527 10.08 188.871 9.912 188.103 9.912C187.207 9.912 186.431 10.096 185.775 10.464C185.119 10.816 184.615 11.344 184.263 12.048C183.911 12.752 183.735 13.624 183.735 14.664C183.735 15.656 183.927 16.52 184.311 17.256C184.695 17.976 185.239 18.536 185.943 18.936C186.663 19.336 187.527 19.536 188.535 19.536C189.127 19.536 189.711 19.44 190.287 19.248C190.879 19.04 191.527 18.64 192.231 18.048L193.167 19.344C192.799 19.712 192.359 20.04 191.847 20.328C191.335 20.6 190.775 20.824 190.167 21C189.559 21.16 188.935 21.24 188.295 21.24ZM203.699 21V4.2H205.523L211.979 14.688L211.115 14.664L217.643 4.2H219.347V21H217.475V13.32C217.475 11.88 217.499 10.584 217.547 9.432C217.595 8.28 217.683 7.136 217.811 6L218.147 6.672L212.123 16.128H210.827L204.971 6.792L205.235 6C205.363 7.072 205.451 8.176 205.499 9.312C205.547 10.432 205.571 11.768 205.571 13.32V21H203.699ZM228.476 21.24C227.388 21.24 226.404 20.96 225.524 20.4C224.644 19.824 223.948 19.048 223.436 18.072C222.924 17.08 222.668 15.96 222.668 14.712C222.668 13.448 222.932 12.328 223.46 11.352C223.988 10.376 224.692 9.608 225.572 9.048C226.468 8.488 227.468 8.208 228.572 8.208C229.228 8.208 229.836 8.304 230.396 8.496C230.956 8.688 231.452 8.96 231.884 9.312C232.332 9.648 232.7 10.048 232.988 10.512C233.292 10.96 233.5 11.448 233.612 11.976L233.084 11.712L233.156 8.472H234.956V21H233.132V17.928L233.612 17.616C233.5 18.096 233.284 18.56 232.964 19.008C232.644 19.44 232.252 19.824 231.788 20.16C231.34 20.496 230.828 20.76 230.252 20.952C229.692 21.144 229.1 21.24 228.476 21.24ZM228.884 19.512C229.716 19.512 230.46 19.312 231.116 18.912C231.772 18.496 232.284 17.928 232.652 17.208C233.036 16.472 233.228 15.64 233.228 14.712C233.228 13.784 233.036 12.96 232.652 12.24C232.284 11.52 231.772 10.952 231.116 10.536C230.46 10.12 229.716 9.912 228.884 9.912C228.036 9.912 227.284 10.12 226.628 10.536C225.988 10.952 225.476 11.52 225.092 12.24C224.724 12.96 224.54 13.784 224.54 14.712C224.54 15.624 224.724 16.448 225.092 17.184C225.46 17.904 225.972 18.472 226.628 18.888C227.284 19.304 228.036 19.512 228.884 19.512ZM240.191 21V5.184H241.991V21H240.191ZM237.359 10.2V8.472H245.159V10.2H237.359ZM252.772 21.24C251.524 21.24 250.412 20.968 249.436 20.424C248.476 19.88 247.724 19.12 247.18 18.144C246.636 17.168 246.364 16.048 246.364 14.784C246.364 13.808 246.516 12.928 246.82 12.144C247.124 11.344 247.548 10.648 248.092 10.056C248.652 9.464 249.316 9.008 250.084 8.688C250.852 8.352 251.684 8.184 252.58 8.184C253.428 8.184 254.196 8.336 254.884 8.64C255.588 8.944 256.188 9.368 256.684 9.912C257.196 10.44 257.58 11.072 257.836 11.808C258.092 12.544 258.204 13.352 258.172 14.232L258.148 15.072H247.708L247.444 13.56H256.78L256.348 13.968V13.392C256.316 12.816 256.148 12.264 255.844 11.736C255.54 11.192 255.108 10.752 254.548 10.416C254.004 10.08 253.348 9.912 252.58 9.912C251.684 9.912 250.908 10.096 250.252 10.464C249.596 10.816 249.092 11.344 248.74 12.048C248.388 12.752 248.212 13.624 248.212 14.664C248.212 15.656 248.404 16.52 248.788 17.256C249.172 17.976 249.716 18.536 250.42 18.936C251.14 19.336 252.004 19.536 253.012 19.536C253.604 19.536 254.188 19.44 254.764 19.248C255.356 19.04 256.004 18.64 256.708 18.048L257.644 19.344C257.276 19.712 256.836 20.04 256.324 20.328C255.812 20.6 255.252 20.824 254.644 21C254.036 21.16 253.412 21.24 252.772 21.24ZM260.729 21V8.472H262.529L262.577 11.808L262.385 11.352C262.561 10.792 262.841 10.272 263.225 9.792C263.625 9.312 264.097 8.928 264.641 8.64C265.185 8.352 265.785 8.208 266.441 8.208C266.713 8.208 266.969 8.232 267.209 8.28C267.449 8.312 267.649 8.36 267.809 8.424L267.305 10.44C267.097 10.344 266.881 10.28 266.657 10.248C266.449 10.2 266.249 10.176 266.057 10.176C265.513 10.176 265.025 10.272 264.593 10.464C264.161 10.656 263.793 10.928 263.489 11.28C263.185 11.616 262.953 12.008 262.793 12.456C262.633 12.904 262.553 13.384 262.553 13.896V21H260.729ZM270.162 21V8.472H271.962V21H270.162ZM271.05 5.76C270.602 5.76 270.258 5.648 270.018 5.424C269.794 5.184 269.682 4.864 269.682 4.464C269.682 4.064 269.802 3.744 270.042 3.504C270.282 3.264 270.618 3.144 271.05 3.144C271.482 3.144 271.818 3.264 272.058 3.504C272.298 3.728 272.418 4.048 272.418 4.464C272.418 4.848 272.298 5.16 272.058 5.4C271.818 5.64 271.482 5.76 271.05 5.76ZM280.789 21.24C279.701 21.24 278.717 20.96 277.837 20.4C276.957 19.824 276.261 19.048 275.749 18.072C275.237 17.08 274.981 15.96 274.981 14.712C274.981 13.448 275.245 12.328 275.773 11.352C276.301 10.376 277.005 9.608 277.885 9.048C278.781 8.488 279.781 8.208 280.885 8.208C281.541 8.208 282.149 8.304 282.709 8.496C283.269 8.688 283.765 8.96 284.197 9.312C284.645 9.648 285.013 10.048 285.301 10.512C285.605 10.96 285.813 11.448 285.925 11.976L285.397 11.712L285.469 8.472H287.269V21H285.445V17.928L285.925 17.616C285.813 18.096 285.597 18.56 285.277 19.008C284.957 19.44 284.565 19.824 284.101 20.16C283.653 20.496 283.141 20.76 282.565 20.952C282.005 21.144 281.413 21.24 280.789 21.24ZM281.197 19.512C282.029 19.512 282.773 19.312 283.429 18.912C284.085 18.496 284.597 17.928 284.965 17.208C285.349 16.472 285.541 15.64 285.541 14.712C285.541 13.784 285.349 12.96 284.965 12.24C284.597 11.52 284.085 10.952 283.429 10.536C282.773 10.12 282.029 9.912 281.197 9.912C280.349 9.912 279.597 10.12 278.941 10.536C278.301 10.952 277.789 11.52 277.405 12.24C277.037 12.96 276.853 13.784 276.853 14.712C276.853 15.624 277.037 16.448 277.405 17.184C277.773 17.904 278.285 18.472 278.941 18.888C279.597 19.304 280.349 19.512 281.197 19.512ZM291.255 21V8.472H293.055V21H291.255ZM292.143 5.76C291.695 5.76 291.351 5.648 291.111 5.424C290.887 5.184 290.775 4.864 290.775 4.464C290.775 4.064 290.895 3.744 291.135 3.504C291.375 3.264 291.711 3.144 292.143 3.144C292.575 3.144 292.911 3.264 293.151 3.504C293.391 3.728 293.511 4.048 293.511 4.464C293.511 4.848 293.391 5.16 293.151 5.4C292.911 5.64 292.575 5.76 292.143 5.76ZM301.09 21.24C300.018 21.24 299.058 21.04 298.21 20.64C297.362 20.24 296.69 19.712 296.194 19.056L297.466 17.952C297.93 18.512 298.474 18.936 299.098 19.224C299.738 19.512 300.45 19.656 301.234 19.656C301.634 19.656 301.994 19.616 302.314 19.536C302.634 19.44 302.914 19.304 303.154 19.128C303.394 18.952 303.578 18.744 303.706 18.504C303.834 18.264 303.898 18 303.898 17.712C303.898 17.184 303.666 16.744 303.202 16.392C302.994 16.248 302.698 16.104 302.314 15.96C301.93 15.8 301.466 15.648 300.922 15.504C300.026 15.248 299.282 14.992 298.69 14.736C298.098 14.464 297.634 14.152 297.298 13.8C297.058 13.512 296.874 13.2 296.746 12.864C296.634 12.528 296.578 12.16 296.578 11.76C296.578 11.248 296.682 10.776 296.89 10.344C297.114 9.912 297.418 9.536 297.802 9.216C298.202 8.88 298.666 8.632 299.194 8.472C299.738 8.296 300.322 8.208 300.946 8.208C301.538 8.208 302.122 8.288 302.698 8.448C303.274 8.608 303.81 8.84 304.306 9.144C304.802 9.448 305.226 9.808 305.578 10.224L304.474 11.424C304.17 11.104 303.834 10.816 303.466 10.56C303.098 10.304 302.706 10.104 302.29 9.96C301.89 9.816 301.474 9.744 301.042 9.744C300.658 9.744 300.298 9.792 299.962 9.888C299.642 9.984 299.362 10.12 299.122 10.296C298.898 10.456 298.722 10.656 298.594 10.896C298.482 11.136 298.426 11.4 298.426 11.688C298.426 11.928 298.474 12.144 298.57 12.336C298.666 12.528 298.802 12.696 298.978 12.84C299.202 13.016 299.514 13.184 299.914 13.344C300.33 13.488 300.842 13.64 301.45 13.8C302.154 13.992 302.746 14.192 303.226 14.4C303.722 14.592 304.13 14.824 304.45 15.096C304.882 15.416 305.186 15.784 305.362 16.2C305.554 16.616 305.65 17.088 305.65 17.616C305.65 18.32 305.45 18.944 305.05 19.488C304.666 20.032 304.13 20.464 303.442 20.784C302.754 21.088 301.97 21.24 301.09 21.24Z" fill="url(#paint0_linear_300_135)"/>
<defs>
<linearGradient id="paint0_linear_300_135" x1="307" y1="12" x2="34" y2="12" gradientUnits="userSpaceOnUse">
<stop stop-color="#43A3D5"/>
<stop offset="1" stop-color="#9C60DA"/>
</linearGradient>
</defs>
</svg>
