<svg width="120" height="16" viewBox="0 0 120 16" fill="none" xmlns="http://www.w3.org/2000/svg">
<path fill-rule="evenodd" clip-rule="evenodd" d="M7.99966 1.3335C11.6755 1.3335 14.6664 4.32434 14.6664 8.00015C14.6664 11.676 11.6755 14.6668 7.99966 14.6668C4.32385 14.6668 1.33301 11.676 1.33301 8.00015C1.33301 4.32434 4.32385 1.3335 7.99966 1.3335ZM8.02823 4.94125C7.39591 4.46031 6.56935 4.29446 5.97698 4.42843L7.0026 5.45406L6.48979 6.47968L5.46416 6.99253L4.43851 5.9669C4.30454 6.55928 4.47038 7.38584 4.95132 8.01815C5.60701 8.52246 6.41363 8.69259 7.00257 8.53096L9.34226 10.7521C9.78592 11.1435 10.2296 11.1174 10.6733 10.6738C11.1447 10.2024 11.1447 9.73098 10.6733 9.25956C9.23162 7.84512 8.52088 7.08944 8.54107 6.99253C8.70263 6.40362 8.53251 5.59696 8.02826 4.94128" fill="#43A3D5"/>
<path d="M22.6654 12.5V4.1H28.5214V5.84H24.6454V10.76H28.6414V12.5H22.6654ZM23.6254 9.056V7.4H27.9814V9.056H23.6254ZM30.1838 12.5V6.128H32.0078L32.0678 7.28L31.8158 7.292C31.9118 7.084 32.0318 6.9 32.1758 6.74C32.3278 6.58 32.4958 6.448 32.6798 6.344C32.8718 6.232 33.0678 6.148 33.2678 6.092C33.4758 6.036 33.6838 6.008 33.8918 6.008C34.2038 6.008 34.4878 6.056 34.7438 6.152C34.9998 6.248 35.2238 6.404 35.4158 6.62C35.6078 6.828 35.7598 7.112 35.8718 7.472L35.5718 7.448L35.6678 7.256C35.7718 7.064 35.9038 6.892 36.0638 6.74C36.2318 6.58 36.4158 6.448 36.6158 6.344C36.8158 6.232 37.0238 6.148 37.2398 6.092C37.4558 6.036 37.6638 6.008 37.8638 6.008C38.3678 6.008 38.7878 6.108 39.1238 6.308C39.4598 6.5 39.7118 6.792 39.8798 7.184C40.0558 7.576 40.1438 8.052 40.1438 8.612V12.5H38.2118V8.768C38.2118 8.512 38.1758 8.3 38.1038 8.132C38.0318 7.964 37.9238 7.84 37.7798 7.76C37.6438 7.672 37.4718 7.628 37.2638 7.628C37.0958 7.628 36.9398 7.656 36.7958 7.712C36.6598 7.768 36.5398 7.844 36.4358 7.94C36.3398 8.036 36.2638 8.148 36.2078 8.276C36.1518 8.404 36.1237 8.548 36.1237 8.708V12.5H34.1918V8.756C34.1918 8.516 34.1558 8.312 34.0838 8.144C34.0118 7.976 33.9038 7.848 33.7598 7.76C33.6158 7.672 33.4478 7.628 33.2558 7.628C33.0878 7.628 32.9318 7.656 32.7878 7.712C32.6518 7.768 32.5318 7.844 32.4277 7.94C32.3318 8.036 32.2558 8.148 32.1998 8.276C32.1438 8.404 32.1158 8.544 32.1158 8.696V12.5H30.1838ZM45.7865 12.5V4.1H47.6105L50.6705 9.08L49.3625 9.068L52.4585 4.1H54.2105V12.5H52.2305V9.884C52.2305 9.164 52.2465 8.516 52.2785 7.94C52.3185 7.364 52.3825 6.792 52.4705 6.224L52.6985 6.848L50.3705 10.46H49.5785L47.2985 6.872L47.5265 6.224C47.6145 6.76 47.6745 7.312 47.7065 7.88C47.7465 8.44 47.7665 9.108 47.7665 9.884V12.5H45.7865ZM58.4696 12.608C57.9336 12.608 57.4536 12.468 57.0296 12.188C56.6136 11.9 56.2816 11.508 56.0336 11.012C55.7856 10.508 55.6616 9.94 55.6616 9.308C55.6616 8.66 55.7856 8.088 56.0336 7.592C56.2816 7.096 56.6216 6.708 57.0536 6.428C57.4856 6.14 57.9776 5.996 58.5296 5.996C58.8336 5.996 59.1096 6.04 59.3576 6.128C59.6136 6.216 59.8376 6.34 60.0296 6.5C60.2216 6.652 60.3856 6.832 60.5216 7.04C60.6576 7.24 60.7576 7.456 60.8216 7.688L60.4256 7.64V6.128H62.3336V12.5H60.3896V10.964L60.8216 10.952C60.7576 11.176 60.6536 11.388 60.5096 11.588C60.3656 11.788 60.1896 11.964 59.9816 12.116C59.7736 12.268 59.5416 12.388 59.2856 12.476C59.0296 12.564 58.7576 12.608 58.4696 12.608ZM58.9976 10.988C59.2936 10.988 59.5496 10.92 59.7656 10.784C59.9816 10.648 60.1496 10.456 60.2696 10.208C60.3896 9.952 60.4496 9.652 60.4496 9.308C60.4496 8.964 60.3896 8.668 60.2696 8.42C60.1496 8.164 59.9816 7.968 59.7656 7.832C59.5496 7.688 59.2936 7.616 58.9976 7.616C58.7096 7.616 58.4576 7.688 58.2416 7.832C58.0336 7.968 57.8696 8.164 57.7496 8.42C57.6296 8.668 57.5696 8.964 57.5696 9.308C57.5696 9.652 57.6296 9.952 57.7496 10.208C57.8696 10.456 58.0336 10.648 58.2416 10.784C58.4576 10.92 58.7096 10.988 58.9976 10.988ZM64.0278 12.5V6.128H65.8518L65.9118 7.424L65.5278 7.568C65.6158 7.28 65.7718 7.02 65.9958 6.788C66.2278 6.548 66.5038 6.356 66.8238 6.212C67.1438 6.068 67.4798 5.996 67.8318 5.996C68.3118 5.996 68.7158 6.096 69.0438 6.296C69.3718 6.488 69.6198 6.78 69.7878 7.172C69.9558 7.556 70.0398 8.028 70.0398 8.588V12.5H68.1078V8.744C68.1078 8.488 68.0718 8.276 67.9998 8.108C67.9278 7.94 67.8158 7.816 67.6638 7.736C67.5198 7.648 67.3398 7.608 67.1238 7.616C66.9558 7.616 66.7998 7.644 66.6558 7.7C66.5118 7.748 66.3878 7.824 66.2838 7.928C66.1798 8.024 66.0958 8.136 66.0318 8.264C65.9758 8.392 65.9478 8.532 65.9478 8.684V12.5H64.9998C64.7758 12.5 64.5838 12.5 64.4238 12.5C64.2638 12.5 64.1318 12.5 64.0278 12.5ZM73.817 12.632C73.345 12.632 72.941 12.532 72.605 12.332C72.277 12.124 72.021 11.828 71.837 11.444C71.661 11.06 71.573 10.6 71.573 10.064V6.128H73.505V9.8C73.505 10.056 73.545 10.276 73.625 10.46C73.705 10.644 73.825 10.788 73.985 10.892C74.145 10.988 74.337 11.036 74.561 11.036C74.729 11.036 74.881 11.008 75.017 10.952C75.161 10.896 75.281 10.82 75.377 10.724C75.481 10.62 75.561 10.504 75.617 10.376C75.673 10.24 75.701 10.092 75.701 9.932V6.128H77.633V12.5H75.821L75.737 11.192L76.097 11.048C76.001 11.352 75.841 11.624 75.617 11.864C75.393 12.096 75.125 12.284 74.813 12.428C74.501 12.564 74.169 12.632 73.817 12.632ZM79.8722 12.5V4.52H81.7922V12.5H79.8722ZM78.7442 7.808V6.128H83.0282V7.808H78.7442ZM87.1028 12.62C86.3988 12.62 85.7868 12.48 85.2668 12.2C84.7468 11.912 84.3428 11.524 84.0548 11.036C83.7668 10.54 83.6228 9.976 83.6228 9.344C83.6228 8.856 83.7028 8.408 83.8628 8C84.0228 7.592 84.2468 7.24 84.5348 6.944C84.8228 6.64 85.1628 6.408 85.5548 6.248C85.9548 6.08 86.3908 5.996 86.8628 5.996C87.3108 5.996 87.7188 6.076 88.0868 6.236C88.4628 6.396 88.7868 6.62 89.0588 6.908C89.3308 7.196 89.5388 7.536 89.6828 7.928C89.8268 8.32 89.8908 8.748 89.8748 9.212L89.8628 9.728H84.7868L84.5108 8.648H88.3028L88.0988 8.876V8.636C88.0828 8.436 88.0188 8.26 87.9068 8.108C87.8028 7.948 87.6628 7.824 87.4868 7.736C87.3108 7.648 87.1108 7.604 86.8868 7.604C86.5748 7.604 86.3068 7.668 86.0828 7.796C85.8668 7.916 85.7028 8.096 85.5908 8.336C85.4788 8.568 85.4228 8.856 85.4228 9.2C85.4228 9.552 85.4948 9.86 85.6388 10.124C85.7908 10.38 86.0068 10.58 86.2868 10.724C86.5748 10.868 86.9148 10.94 87.3068 10.94C87.5788 10.94 87.8188 10.9 88.0268 10.82C88.2428 10.74 88.4748 10.604 88.7228 10.412L89.6228 11.684C89.3748 11.9 89.1108 12.076 88.8308 12.212C88.5508 12.348 88.2628 12.448 87.9668 12.512C87.6788 12.584 87.3908 12.62 87.1028 12.62ZM91.0981 12.5V6.128H92.9221L92.9821 7.424L92.5981 7.568C92.6861 7.28 92.8421 7.02 93.0661 6.788C93.2981 6.548 93.5741 6.356 93.8941 6.212C94.2141 6.068 94.5501 5.996 94.9021 5.996C95.3821 5.996 95.7861 6.096 96.1141 6.296C96.4421 6.488 96.6901 6.78 96.8581 7.172C97.0261 7.556 97.1101 8.028 97.1101 8.588V12.5H95.1781V8.744C95.1781 8.488 95.1421 8.276 95.0701 8.108C94.9981 7.94 94.8861 7.816 94.7341 7.736C94.5901 7.648 94.4101 7.608 94.1941 7.616C94.0261 7.616 93.8701 7.644 93.7261 7.7C93.5821 7.748 93.4581 7.824 93.3541 7.928C93.2501 8.024 93.1661 8.136 93.1021 8.264C93.0461 8.392 93.0181 8.532 93.0181 8.684V12.5H92.0701C91.8461 12.5 91.6541 12.5 91.4941 12.5C91.3341 12.5 91.2021 12.5 91.0981 12.5ZM101.511 12.62C100.895 12.62 100.343 12.476 99.8553 12.188C99.3673 11.9 98.9793 11.508 98.6913 11.012C98.4113 10.508 98.2713 9.94 98.2713 9.308C98.2713 8.676 98.4113 8.112 98.6913 7.616C98.9793 7.112 99.3673 6.716 99.8553 6.428C100.343 6.14 100.895 5.996 101.511 5.996C102.079 5.996 102.599 6.096 103.071 6.296C103.551 6.496 103.931 6.776 104.211 7.136L103.167 8.384C103.055 8.256 102.923 8.136 102.771 8.024C102.619 7.912 102.451 7.824 102.267 7.76C102.083 7.696 101.891 7.664 101.691 7.664C101.387 7.664 101.119 7.736 100.887 7.88C100.655 8.016 100.475 8.208 100.347 8.456C100.219 8.704 100.155 8.988 100.155 9.308C100.155 9.612 100.219 9.888 100.347 10.136C100.483 10.384 100.667 10.58 100.899 10.724C101.131 10.868 101.395 10.94 101.691 10.94C101.899 10.94 102.091 10.916 102.267 10.868C102.443 10.812 102.603 10.732 102.747 10.628C102.899 10.524 103.039 10.396 103.167 10.244L104.199 11.504C103.927 11.848 103.547 12.12 103.059 12.32C102.579 12.52 102.063 12.62 101.511 12.62ZM100.335 15.452L100.215 14.552C100.383 14.552 100.555 14.532 100.731 14.492C100.915 14.452 101.067 14.392 101.187 14.312C101.315 14.24 101.379 14.16 101.379 14.072C101.379 13.976 101.331 13.9 101.235 13.844C101.147 13.788 101.039 13.744 100.911 13.712C100.783 13.688 100.655 13.676 100.527 13.676L100.323 13.508L101.151 12.212H102.135L101.583 13.016C101.999 13.064 102.307 13.192 102.507 13.4C102.715 13.616 102.819 13.872 102.819 14.168C102.819 14.416 102.739 14.62 102.579 14.78C102.427 14.948 102.227 15.084 101.979 15.188C101.731 15.292 101.463 15.364 101.175 15.404C100.887 15.444 100.607 15.46 100.335 15.452ZM107.606 12.608C107.07 12.608 106.59 12.468 106.166 12.188C105.75 11.9 105.418 11.508 105.17 11.012C104.922 10.508 104.798 9.94 104.798 9.308C104.798 8.66 104.922 8.088 105.17 7.592C105.418 7.096 105.758 6.708 106.19 6.428C106.622 6.14 107.114 5.996 107.666 5.996C107.97 5.996 108.246 6.04 108.494 6.128C108.75 6.216 108.974 6.34 109.166 6.5C109.358 6.652 109.522 6.832 109.658 7.04C109.794 7.24 109.894 7.456 109.958 7.688L109.562 7.64V6.128H111.47V12.5H109.526V10.964L109.958 10.952C109.894 11.176 109.79 11.388 109.646 11.588C109.502 11.788 109.326 11.964 109.118 12.116C108.91 12.268 108.678 12.388 108.422 12.476C108.166 12.564 107.894 12.608 107.606 12.608ZM108.134 10.988C108.43 10.988 108.686 10.92 108.902 10.784C109.118 10.648 109.286 10.456 109.406 10.208C109.526 9.952 109.586 9.652 109.586 9.308C109.586 8.964 109.526 8.668 109.406 8.42C109.286 8.164 109.118 7.968 108.902 7.832C108.686 7.688 108.43 7.616 108.134 7.616C107.846 7.616 107.594 7.688 107.378 7.832C107.17 7.968 107.006 8.164 106.886 8.42C106.766 8.668 106.706 8.964 106.706 9.308C106.706 9.652 106.766 9.952 106.886 10.208C107.006 10.456 107.17 10.648 107.378 10.784C107.594 10.92 107.846 10.988 108.134 10.988ZM109.19 5.132C109.054 5.132 108.914 5.108 108.77 5.06C108.626 5.012 108.462 4.924 108.278 4.796C108.142 4.684 108.03 4.608 107.942 4.568C107.854 4.52 107.782 4.496 107.726 4.496C107.614 4.496 107.514 4.544 107.426 4.64C107.338 4.728 107.282 4.872 107.258 5.072L106.19 4.916C106.198 4.468 106.326 4.084 106.574 3.764C106.822 3.444 107.154 3.284 107.57 3.284C107.706 3.284 107.842 3.308 107.978 3.356C108.114 3.404 108.274 3.488 108.458 3.608C108.562 3.696 108.658 3.772 108.746 3.836C108.842 3.892 108.934 3.92 109.022 3.92C109.134 3.92 109.23 3.872 109.31 3.776C109.398 3.672 109.45 3.528 109.466 3.344L110.546 3.5C110.538 3.78 110.478 4.048 110.366 4.304C110.254 4.552 110.094 4.752 109.886 4.904C109.686 5.056 109.454 5.132 109.19 5.132ZM116.165 12.62C115.501 12.62 114.909 12.476 114.389 12.188C113.877 11.9 113.469 11.508 113.165 11.012C112.869 10.516 112.721 9.948 112.721 9.308C112.721 8.668 112.869 8.1 113.165 7.604C113.469 7.108 113.877 6.716 114.389 6.428C114.909 6.14 115.501 5.996 116.165 5.996C116.829 5.996 117.417 6.14 117.929 6.428C118.449 6.716 118.857 7.108 119.153 7.604C119.449 8.1 119.597 8.668 119.597 9.308C119.597 9.948 119.449 10.516 119.153 11.012C118.857 11.508 118.449 11.9 117.929 12.188C117.417 12.476 116.829 12.62 116.165 12.62ZM116.165 10.964C116.453 10.964 116.709 10.892 116.933 10.748C117.157 10.604 117.333 10.408 117.461 10.16C117.589 9.912 117.649 9.628 117.641 9.308C117.649 8.988 117.589 8.704 117.461 8.456C117.333 8.2 117.157 8 116.933 7.856C116.709 7.712 116.453 7.64 116.165 7.64C115.877 7.64 115.617 7.712 115.385 7.856C115.161 8 114.985 8.2 114.857 8.456C114.729 8.704 114.669 8.988 114.677 9.308C114.669 9.628 114.729 9.912 114.857 10.16C114.985 10.408 115.161 10.604 115.385 10.748C115.617 10.892 115.877 10.964 116.165 10.964Z" fill="#43A3D5"/>
</svg>
