<svg width="170" height="40" viewBox="0 0 170 40" fill="none" xmlns="http://www.w3.org/2000/svg">
<path d="M9.20472 20.5C11.803 20.5 13.9093 18.3937 13.9093 15.7955C13.9093 13.1972 11.803 11.0909 9.20472 11.0909C6.60647 11.0909 4.50018 13.1972 4.50018 15.7955C4.50018 18.3937 6.60647 20.5 9.20472 20.5Z" fill="#9C60DA"/>
<path d="M14.5627 23.1136C12.7227 22.1793 10.6919 21.8068 9.20472 21.8068C6.29182 21.8068 0.318359 23.5932 0.318359 27.1648V29.9091H10.1195V28.8591C10.1195 27.6176 10.6422 26.3728 11.557 25.3352C12.2869 24.5067 13.3088 23.7376 14.5627 23.1136Z" fill="#9C60DA"/>
<path d="M21.4888 22.5909C18.0865 22.5909 11.2956 24.6923 11.2956 28.8636V32H31.682V28.8636C31.682 24.6923 24.8911 22.5909 21.4888 22.5909Z" fill="#9C60DA"/>
<path d="M21.4888 20.5C24.6644 20.5 27.2388 17.9256 27.2388 14.75C27.2388 11.5744 24.6644 9 21.4888 9C18.3132 9 15.7388 11.5744 15.7388 14.75C15.7388 17.9256 18.3132 20.5 21.4888 20.5Z" fill="#9C60DA"/>
<path d="M63.5448 32.32C61.9448 32.32 60.4728 32.0427 59.1288 31.488C57.7848 30.912 56.6221 30.112 55.6408 29.088C54.6594 28.0427 53.8914 26.816 53.3368 25.408C52.8034 24 52.5368 22.464 52.5368 20.8C52.5368 19.1573 52.8034 17.6533 53.3368 16.288C53.8914 14.9013 54.6701 13.696 55.6727 12.672C56.6754 11.6267 57.8381 10.8267 59.1608 10.272C60.4834 9.71733 61.9341 9.44 63.5128 9.44C64.5581 9.44 65.5928 9.61067 66.6168 9.952C67.6408 10.272 68.5794 10.72 69.4328 11.296C70.3074 11.872 71.0221 12.5333 71.5768 13.28L69.8488 15.072C69.3154 14.432 68.6968 13.8773 67.9928 13.408C67.3101 12.9387 66.5848 12.576 65.8168 12.32C65.0488 12.064 64.2808 11.936 63.5128 11.936C62.3181 11.936 61.1981 12.16 60.1528 12.608C59.1288 13.0347 58.2434 13.6427 57.4968 14.432C56.7501 15.2213 56.1634 16.16 55.7368 17.248C55.3314 18.336 55.1288 19.52 55.1288 20.8C55.1288 22.1227 55.3314 23.3387 55.7368 24.448C56.1634 25.5573 56.7608 26.5173 57.5288 27.328C58.3181 28.1173 59.2354 28.736 60.2808 29.184C61.3474 29.6107 62.5314 29.824 63.8328 29.824C64.6008 29.824 65.3688 29.7173 66.1368 29.504C66.9048 29.2693 67.6088 28.9493 68.2488 28.544C68.8888 28.1387 69.4328 27.68 69.8808 27.168L71.1608 29.248C70.6701 29.8453 70.0088 30.3787 69.1768 30.848C68.3661 31.296 67.4701 31.6587 66.4888 31.936C65.5074 32.192 64.5261 32.32 63.5448 32.32ZM74.9938 32V8.32H77.3938V32H74.9938ZM82.7573 32V15.296H85.1573V32H82.7573ZM83.9413 11.68C83.3439 11.68 82.8853 11.5307 82.5653 11.232C82.2666 10.912 82.1173 10.4853 82.1173 9.952C82.1173 9.41867 82.2773 8.992 82.5973 8.672C82.9173 8.352 83.3653 8.192 83.9413 8.192C84.5173 8.192 84.9653 8.352 85.2853 8.672C85.6053 8.97067 85.7653 9.39733 85.7653 9.952C85.7653 10.464 85.6053 10.88 85.2853 11.2C84.9653 11.52 84.5173 11.68 83.9413 11.68ZM97.7585 32.32C96.0945 32.32 94.6118 31.9573 93.3105 31.232C92.0305 30.5067 91.0278 29.4933 90.3025 28.192C89.5772 26.8907 89.2145 25.3973 89.2145 23.712C89.2145 22.4107 89.4172 21.2373 89.8225 20.192C90.2278 19.1253 90.7932 18.1973 91.5185 17.408C92.2652 16.6187 93.1505 16.0107 94.1745 15.584C95.1985 15.136 96.3078 14.912 97.5025 14.912C98.6332 14.912 99.6572 15.1147 100.575 15.52C101.513 15.9253 102.313 16.4907 102.975 17.216C103.657 17.92 104.169 18.7627 104.51 19.744C104.852 20.7253 105.001 21.8027 104.958 22.976L104.927 24.096H91.0065L90.6545 22.08H103.103L102.527 22.624V21.856C102.484 21.088 102.26 20.352 101.855 19.648C101.449 18.9227 100.873 18.336 100.127 17.888C99.4012 17.44 98.5265 17.216 97.5025 17.216C96.3078 17.216 95.2732 17.4613 94.3985 17.952C93.5238 18.4213 92.8518 19.1253 92.3825 20.064C91.9132 21.0027 91.6785 22.1653 91.6785 23.552C91.6785 24.8747 91.9345 26.0267 92.4465 27.008C92.9585 27.968 93.6838 28.7147 94.6225 29.248C95.5825 29.7813 96.7345 30.048 98.0785 30.048C98.8678 30.048 99.6465 29.92 100.415 29.664C101.204 29.3867 102.068 28.8533 103.007 28.064L104.255 29.792C103.764 30.2827 103.177 30.72 102.495 31.104C101.812 31.4667 101.065 31.7653 100.255 32C99.4438 32.2133 98.6118 32.32 97.7585 32.32ZM108.367 32V15.296H110.735L110.831 18.784L110.447 18.944C110.661 18.2187 111.077 17.5573 111.695 16.96C112.314 16.3627 113.05 15.8827 113.903 15.52C114.778 15.136 115.674 14.944 116.591 14.944C117.829 14.944 118.863 15.1893 119.695 15.68C120.527 16.1707 121.157 16.928 121.583 17.952C122.01 18.976 122.223 20.2773 122.223 21.856V32H119.791V21.984C119.791 20.8747 119.642 19.968 119.343 19.264C119.066 18.5387 118.629 18.0053 118.031 17.664C117.434 17.3227 116.698 17.1627 115.823 17.184C115.098 17.184 114.426 17.312 113.807 17.568C113.189 17.8027 112.655 18.1333 112.207 18.56C111.759 18.9867 111.407 19.4773 111.151 20.032C110.895 20.5867 110.767 21.184 110.767 21.824V32H109.583C109.434 32 109.263 32 109.071 32C108.879 32 108.645 32 108.367 32ZM129.109 32V10.912H131.509V32H129.109ZM125.333 17.6V15.296H135.733V17.6H125.333ZM145.884 32.32C144.22 32.32 142.737 31.9573 141.436 31.232C140.156 30.5067 139.153 29.4933 138.428 28.192C137.702 26.8907 137.34 25.3973 137.34 23.712C137.34 22.4107 137.542 21.2373 137.948 20.192C138.353 19.1253 138.918 18.1973 139.644 17.408C140.39 16.6187 141.276 16.0107 142.3 15.584C143.324 15.136 144.433 14.912 145.628 14.912C146.758 14.912 147.782 15.1147 148.7 15.52C149.638 15.9253 150.438 16.4907 151.1 17.216C151.782 17.92 152.294 18.7627 152.635 19.744C152.977 20.7253 153.126 21.8027 153.083 22.976L153.052 24.096H139.132L138.78 22.08H151.228L150.652 22.624V21.856C150.609 21.088 150.385 20.352 149.98 19.648C149.574 18.9227 148.998 18.336 148.252 17.888C147.526 17.44 146.652 17.216 145.628 17.216C144.433 17.216 143.398 17.4613 142.524 17.952C141.649 18.4213 140.977 19.1253 140.508 20.064C140.038 21.0027 139.804 22.1653 139.804 23.552C139.804 24.8747 140.06 26.0267 140.572 27.008C141.084 27.968 141.809 28.7147 142.748 29.248C143.708 29.7813 144.86 30.048 146.204 30.048C146.993 30.048 147.772 29.92 148.54 29.664C149.329 29.3867 150.193 28.8533 151.132 28.064L152.38 29.792C151.889 30.2827 151.302 30.72 150.62 31.104C149.937 31.4667 149.19 31.7653 148.38 32C147.569 32.2133 146.737 32.32 145.884 32.32ZM161.964 32.32C160.535 32.32 159.255 32.0533 158.124 31.52C156.994 30.9867 156.098 30.2827 155.436 29.408L157.132 27.936C157.751 28.6827 158.476 29.248 159.308 29.632C160.162 30.016 161.111 30.208 162.156 30.208C162.69 30.208 163.17 30.1547 163.596 30.048C164.023 29.92 164.396 29.7387 164.716 29.504C165.036 29.2693 165.282 28.992 165.452 28.672C165.623 28.352 165.708 28 165.708 27.616C165.708 26.912 165.399 26.3253 164.78 25.856C164.503 25.664 164.108 25.472 163.596 25.28C163.084 25.0667 162.466 24.864 161.74 24.672C160.546 24.3307 159.554 23.9893 158.764 23.648C157.975 23.2853 157.356 22.8693 156.908 22.4C156.588 22.016 156.343 21.6 156.172 21.152C156.023 20.704 155.948 20.2133 155.948 19.68C155.948 18.9973 156.087 18.368 156.364 17.792C156.663 17.216 157.068 16.7147 157.58 16.288C158.114 15.84 158.732 15.5093 159.436 15.296C160.162 15.0613 160.94 14.944 161.772 14.944C162.562 14.944 163.34 15.0507 164.108 15.264C164.876 15.4773 165.591 15.7867 166.252 16.192C166.914 16.5973 167.479 17.0773 167.948 17.632L166.476 19.232C166.071 18.8053 165.623 18.4213 165.132 18.08C164.642 17.7387 164.119 17.472 163.564 17.28C163.031 17.088 162.476 16.992 161.9 16.992C161.388 16.992 160.908 17.056 160.46 17.184C160.034 17.312 159.66 17.4933 159.34 17.728C159.042 17.9413 158.807 18.208 158.636 18.528C158.487 18.848 158.412 19.2 158.412 19.584C158.412 19.904 158.476 20.192 158.604 20.448C158.732 20.704 158.914 20.928 159.148 21.12C159.447 21.3547 159.863 21.5787 160.396 21.792C160.951 21.984 161.634 22.1867 162.444 22.4C163.383 22.656 164.172 22.9227 164.812 23.2C165.474 23.456 166.018 23.7653 166.444 24.128C167.02 24.5547 167.426 25.0453 167.66 25.6C167.916 26.1547 168.044 26.784 168.044 27.488C168.044 28.4267 167.778 29.2587 167.244 29.984C166.732 30.7093 166.018 31.2853 165.1 31.712C164.183 32.1173 163.138 32.32 161.964 32.32Z" fill="url(#paint0_linear_470_4623)"/>
<defs>
<linearGradient id="paint0_linear_470_4623" x1="170" y1="20" x2="42" y2="20" gradientUnits="userSpaceOnUse">
<stop stop-color="#43A3D5"/>
<stop offset="1" stop-color="#9C60DA"/>
</linearGradient>
</defs>
</svg>
