<svg width="234" height="40" viewBox="0 0 234 40" fill="none" xmlns="http://www.w3.org/2000/svg">
<path d="M16 33.3332C16.8257 33.3342 17.6313 33.078 18.3047 32.6001C18.978 32.1221 19.4858 31.4463 19.7573 30.6665H12.2427C12.5142 31.4463 13.022 32.1221 13.6953 32.6001C14.3687 33.078 15.1743 33.3342 16 33.3332ZM25.3333 23.4478V17.3332C25.3333 13.0438 22.42 9.4305 18.4733 8.34384C18.0827 7.35984 17.128 6.6665 16 6.6665C14.872 6.6665 13.9173 7.35984 13.5267 8.34384C9.58 9.43184 6.66667 13.0438 6.66667 17.3332V23.4478L4.39067 25.7238C4.1406 25.9738 4.00008 26.3129 4 26.6665V27.9998C4 28.3535 4.14048 28.6926 4.39052 28.9426C4.64057 29.1927 4.97971 29.3332 5.33333 29.3332H26.6667C27.0203 29.3332 27.3594 29.1927 27.6095 28.9426C27.8595 28.6926 28 28.3535 28 27.9998V26.6665C27.9999 26.3129 27.8594 25.9738 27.6093 25.7238L25.3333 23.4478Z" fill="#9C60DA"/>
<path d="M45.296 32V9.6H47.568L62.224 28.992L61.776 29.568C61.712 29.2267 61.6587 28.7147 61.616 28.032C61.5947 27.3493 61.5627 26.5813 61.52 25.728C61.4987 24.8533 61.4773 23.9467 61.456 23.008C61.4347 22.0693 61.4133 21.152 61.392 20.256C61.392 19.36 61.392 18.5493 61.392 17.824V9.6H63.888V32H61.552L46.96 12.864L47.344 12.192C47.408 13.0453 47.4613 13.888 47.504 14.72C47.568 15.552 47.6107 16.352 47.632 17.12C47.6747 17.888 47.7067 18.592 47.728 19.232C47.7493 19.872 47.76 20.416 47.76 20.864C47.7813 21.312 47.792 21.632 47.792 21.824V32H45.296ZM76.9155 32.32C75.2515 32.32 73.7688 31.9467 72.4675 31.2C71.1875 30.4533 70.1742 29.4187 69.4275 28.096C68.7022 26.7733 68.3395 25.2693 68.3395 23.584C68.3395 21.92 68.7022 20.4373 69.4275 19.136C70.1742 17.8347 71.1875 16.8107 72.4675 16.064C73.7688 15.3173 75.2515 14.944 76.9155 14.944C78.5582 14.944 80.0195 15.3173 81.2995 16.064C82.6008 16.8107 83.6142 17.8347 84.3395 19.136C85.0862 20.4373 85.4595 21.92 85.4595 23.584C85.4595 25.2693 85.0862 26.7733 84.3395 28.096C83.6142 29.4187 82.6008 30.4533 81.2995 31.2C80.0195 31.9467 78.5582 32.32 76.9155 32.32ZM76.9155 30.048C78.0888 30.048 79.1342 29.7707 80.0515 29.216C80.9688 28.64 81.6835 27.872 82.1955 26.912C82.7075 25.9307 82.9635 24.8213 82.9635 23.584C82.9635 22.3467 82.7075 21.248 82.1955 20.288C81.6835 19.328 80.9688 18.5813 80.0515 18.048C79.1342 17.4933 78.0888 17.216 76.9155 17.216C75.7422 17.216 74.6862 17.4933 73.7475 18.048C72.8302 18.5813 72.1048 19.3387 71.5715 20.32C71.0595 21.28 70.8142 22.368 70.8355 23.584C70.8142 24.8213 71.0595 25.9307 71.5715 26.912C72.1048 27.872 72.8302 28.64 73.7475 29.216C74.6862 29.7707 75.7422 30.048 76.9155 30.048ZM91.265 32V10.912H93.665V32H91.265ZM87.489 17.6V15.296H97.889V17.6H87.489ZM101.476 32V15.296H103.876V32H101.476ZM102.66 11.68C102.063 11.68 101.604 11.5307 101.284 11.232C100.985 10.912 100.836 10.4853 100.836 9.952C100.836 9.41867 100.996 8.992 101.316 8.672C101.636 8.352 102.084 8.192 102.66 8.192C103.236 8.192 103.684 8.352 104.004 8.672C104.324 8.97067 104.484 9.39733 104.484 9.952C104.484 10.464 104.324 10.88 104.004 11.2C103.684 11.52 103.236 11.68 102.66 11.68ZM111.037 32V12.704C111.037 11.872 111.219 11.136 111.581 10.496C111.944 9.856 112.456 9.35467 113.117 8.992C113.8 8.608 114.589 8.416 115.485 8.416C116.168 8.416 116.776 8.544 117.309 8.8C117.864 9.03467 118.323 9.36533 118.685 9.792L117.853 11.68C117.512 11.3173 117.139 11.0613 116.733 10.912C116.349 10.7413 115.976 10.656 115.613 10.656C115.144 10.656 114.749 10.7413 114.429 10.912C114.109 11.0613 113.864 11.296 113.693 11.616C113.544 11.9147 113.469 12.2773 113.469 12.704V32H112.349C112.115 32 111.891 32 111.677 32C111.464 32 111.251 32 111.037 32ZM108.061 17.664V15.424H117.725V17.664H108.061ZM121.853 32V15.296H124.253V32H121.853ZM123.037 11.68C122.44 11.68 121.981 11.5307 121.661 11.232C121.363 10.912 121.213 10.4853 121.213 9.952C121.213 9.41867 121.373 8.992 121.693 8.672C122.013 8.352 122.461 8.192 123.037 8.192C123.613 8.192 124.061 8.352 124.381 8.672C124.701 8.97067 124.861 9.39733 124.861 9.952C124.861 10.464 124.701 10.88 124.381 11.2C124.061 11.52 123.613 11.68 123.037 11.68ZM136.532 32.32C134.954 32.32 133.546 31.9467 132.308 31.2C131.071 30.432 130.09 29.3973 129.364 28.096C128.66 26.7733 128.308 25.28 128.308 23.616C128.308 21.952 128.66 20.4693 129.364 19.168C130.09 17.8453 131.071 16.8107 132.308 16.064C133.546 15.3173 134.964 14.944 136.564 14.944C137.994 14.944 139.295 15.232 140.468 15.808C141.642 16.3627 142.58 17.1413 143.284 18.144L141.876 19.872C141.471 19.3387 140.98 18.8693 140.404 18.464C139.85 18.0587 139.242 17.7493 138.58 17.536C137.94 17.3013 137.3 17.184 136.66 17.184C135.53 17.184 134.516 17.472 133.62 18.048C132.724 18.6027 132.01 19.36 131.476 20.32C130.964 21.28 130.708 22.3787 130.708 23.616C130.708 24.8533 130.964 25.9627 131.476 26.944C132.01 27.904 132.724 28.6613 133.62 29.216C134.516 29.7707 135.519 30.048 136.628 30.048C137.268 30.048 137.898 29.952 138.516 29.76C139.135 29.5467 139.722 29.248 140.276 28.864C140.831 28.48 141.343 28 141.812 27.424L143.22 29.152C142.495 30.112 141.524 30.88 140.308 31.456C139.092 32.032 137.834 32.32 136.532 32.32ZM152.864 32.32C151.413 32.32 150.101 31.9467 148.928 31.2C147.755 30.432 146.827 29.3973 146.144 28.096C145.461 26.7733 145.12 25.28 145.12 23.616C145.12 21.9307 145.472 20.4373 146.176 19.136C146.88 17.8347 147.819 16.8107 148.992 16.064C150.187 15.3173 151.52 14.944 152.992 14.944C153.867 14.944 154.677 15.072 155.424 15.328C156.171 15.584 156.832 15.9467 157.408 16.416C158.005 16.864 158.496 17.3973 158.88 18.016C159.285 18.6133 159.563 19.264 159.712 19.968L159.008 19.616L159.104 15.296H161.504V32H159.072V27.904L159.712 27.488C159.563 28.128 159.275 28.7467 158.848 29.344C158.421 29.92 157.899 30.432 157.28 30.88C156.683 31.328 156 31.68 155.232 31.936C154.485 32.192 153.696 32.32 152.864 32.32ZM153.408 30.016C154.517 30.016 155.509 29.7493 156.384 29.216C157.259 28.6613 157.941 27.904 158.432 26.944C158.944 25.9627 159.2 24.8533 159.2 23.616C159.2 22.3787 158.944 21.28 158.432 20.32C157.941 19.36 157.259 18.6027 156.384 18.048C155.509 17.4933 154.517 17.216 153.408 17.216C152.277 17.216 151.275 17.4933 150.4 18.048C149.547 18.6027 148.864 19.36 148.352 20.32C147.861 21.28 147.616 22.3787 147.616 23.616C147.616 24.832 147.861 25.9307 148.352 26.912C148.843 27.872 149.525 28.6293 150.4 29.184C151.275 29.7387 152.277 30.016 153.408 30.016ZM173.22 32.32C171.641 32.32 170.233 31.9467 168.996 31.2C167.758 30.432 166.777 29.3973 166.052 28.096C165.348 26.7733 164.996 25.28 164.996 23.616C164.996 21.952 165.348 20.4693 166.052 19.168C166.777 17.8453 167.758 16.8107 168.996 16.064C170.233 15.3173 171.652 14.944 173.252 14.944C174.681 14.944 175.982 15.232 177.156 15.808C178.329 16.3627 179.268 17.1413 179.972 18.144L178.564 19.872C178.158 19.3387 177.668 18.8693 177.092 18.464C176.537 18.0587 175.929 17.7493 175.268 17.536C174.628 17.3013 173.988 17.184 173.348 17.184C172.217 17.184 171.204 17.472 170.308 18.048C169.412 18.6027 168.697 19.36 168.164 20.32C167.652 21.28 167.396 22.3787 167.396 23.616C167.396 24.8533 167.652 25.9627 168.164 26.944C168.697 27.904 169.412 28.6613 170.308 29.216C171.204 29.7707 172.206 30.048 173.316 30.048C173.956 30.048 174.585 29.952 175.204 29.76C175.822 29.5467 176.409 29.248 176.964 28.864C177.518 28.48 178.03 28 178.5 27.424L179.908 29.152C179.182 30.112 178.212 30.88 176.996 31.456C175.78 32.032 174.521 32.32 173.22 32.32ZM170.276 39.584L170.052 38.208C170.628 38.1867 171.193 38.1013 171.748 37.952C172.324 37.8027 172.793 37.5893 173.156 37.312C173.54 37.056 173.732 36.768 173.732 36.448C173.732 36.1067 173.561 35.84 173.22 35.648C172.878 35.456 172.473 35.3173 172.004 35.232C171.556 35.168 171.161 35.136 170.82 35.136L170.404 34.816L172.516 31.52H174.148L172.772 33.696C173.796 33.888 174.564 34.208 175.076 34.656C175.588 35.1253 175.844 35.7013 175.844 36.384C175.844 36.9387 175.673 37.4187 175.332 37.824C174.99 38.2507 174.542 38.592 173.988 38.848C173.454 39.104 172.857 39.2853 172.196 39.392C171.556 39.52 170.916 39.584 170.276 39.584ZM190.416 32.32C188.752 32.32 187.269 31.9467 185.968 31.2C184.688 30.4533 183.674 29.4187 182.928 28.096C182.202 26.7733 181.84 25.2693 181.84 23.584C181.84 21.92 182.202 20.4373 182.928 19.136C183.674 17.8347 184.688 16.8107 185.968 16.064C187.269 15.3173 188.752 14.944 190.416 14.944C192.058 14.944 193.52 15.3173 194.8 16.064C196.101 16.8107 197.114 17.8347 197.84 19.136C198.586 20.4373 198.96 21.92 198.96 23.584C198.96 25.2693 198.586 26.7733 197.84 28.096C197.114 29.4187 196.101 30.4533 194.8 31.2C193.52 31.9467 192.058 32.32 190.416 32.32ZM190.416 30.048C191.589 30.048 192.634 29.7707 193.552 29.216C194.469 28.64 195.184 27.872 195.696 26.912C196.208 25.9307 196.464 24.8213 196.464 23.584C196.464 22.3467 196.208 21.248 195.696 20.288C195.184 19.328 194.469 18.5813 193.552 18.048C192.634 17.4933 191.589 17.216 190.416 17.216C189.242 17.216 188.186 17.4933 187.248 18.048C186.33 18.5813 185.605 19.3387 185.072 20.32C184.56 21.28 184.314 22.368 184.336 23.584C184.314 24.8213 184.56 25.9307 185.072 26.912C185.605 27.872 186.33 28.64 187.248 29.216C188.186 29.7707 189.242 30.048 190.416 30.048ZM192.272 12.384C191.824 12.384 191.429 12.288 191.088 12.096C190.768 11.904 190.394 11.616 189.968 11.232C189.669 10.9547 189.413 10.752 189.2 10.624C189.008 10.496 188.805 10.432 188.592 10.432C188.229 10.432 187.92 10.592 187.664 10.912C187.408 11.2107 187.237 11.6693 187.152 12.288L185.424 12.064C185.509 11.104 185.85 10.2933 186.448 9.632C187.045 8.94933 187.813 8.608 188.752 8.608C189.157 8.608 189.52 8.69333 189.84 8.864C190.16 9.03467 190.533 9.312 190.96 9.696C191.28 9.952 191.536 10.1547 191.728 10.304C191.92 10.4533 192.133 10.528 192.368 10.528C192.688 10.528 192.954 10.3787 193.168 10.08C193.402 9.78133 193.552 9.376 193.616 8.864L195.376 9.088C195.333 9.68533 195.173 10.24 194.896 10.752C194.64 11.2427 194.288 11.6373 193.84 11.936C193.392 12.2347 192.869 12.384 192.272 12.384ZM209.821 32.32C208.157 32.32 206.674 31.9573 205.373 31.232C204.093 30.5067 203.09 29.4933 202.365 28.192C201.64 26.8907 201.277 25.3973 201.277 23.712C201.277 22.4107 201.48 21.2373 201.885 20.192C202.29 19.1253 202.856 18.1973 203.581 17.408C204.328 16.6187 205.213 16.0107 206.237 15.584C207.261 15.136 208.37 14.912 209.565 14.912C210.696 14.912 211.72 15.1147 212.637 15.52C213.576 15.9253 214.376 16.4907 215.037 17.216C215.72 17.92 216.232 18.7627 216.573 19.744C216.914 20.7253 217.064 21.8027 217.021 22.976L216.989 24.096H203.069L202.717 22.08H215.165L214.589 22.624V21.856C214.546 21.088 214.322 20.352 213.917 19.648C213.512 18.9227 212.936 18.336 212.189 17.888C211.464 17.44 210.589 17.216 209.565 17.216C208.37 17.216 207.336 17.4613 206.461 17.952C205.586 18.4213 204.914 19.1253 204.445 20.064C203.976 21.0027 203.741 22.1653 203.741 23.552C203.741 24.8747 203.997 26.0267 204.509 27.008C205.021 27.968 205.746 28.7147 206.685 29.248C207.645 29.7813 208.797 30.048 210.141 30.048C210.93 30.048 211.709 29.92 212.477 29.664C213.266 29.3867 214.13 28.8533 215.069 28.064L216.317 29.792C215.826 30.2827 215.24 30.72 214.557 31.104C213.874 31.4667 213.128 31.7653 212.317 32C211.506 32.2133 210.674 32.32 209.821 32.32ZM225.902 32.32C224.472 32.32 223.192 32.0533 222.062 31.52C220.931 30.9867 220.035 30.2827 219.374 29.408L221.07 27.936C221.688 28.6827 222.414 29.248 223.246 29.632C224.099 30.016 225.048 30.208 226.094 30.208C226.627 30.208 227.107 30.1547 227.534 30.048C227.96 29.92 228.334 29.7387 228.654 29.504C228.974 29.2693 229.219 28.992 229.39 28.672C229.56 28.352 229.646 28 229.646 27.616C229.646 26.912 229.336 26.3253 228.718 25.856C228.44 25.664 228.046 25.472 227.534 25.28C227.022 25.0667 226.403 24.864 225.678 24.672C224.483 24.3307 223.491 23.9893 222.702 23.648C221.912 23.2853 221.294 22.8693 220.846 22.4C220.526 22.016 220.28 21.6 220.11 21.152C219.96 20.704 219.886 20.2133 219.886 19.68C219.886 18.9973 220.024 18.368 220.302 17.792C220.6 17.216 221.006 16.7147 221.518 16.288C222.051 15.84 222.67 15.5093 223.374 15.296C224.099 15.0613 224.878 14.944 225.71 14.944C226.499 14.944 227.278 15.0507 228.046 15.264C228.814 15.4773 229.528 15.7867 230.19 16.192C230.851 16.5973 231.416 17.0773 231.886 17.632L230.414 19.232C230.008 18.8053 229.56 18.4213 229.07 18.08C228.579 17.7387 228.056 17.472 227.502 17.28C226.968 17.088 226.414 16.992 225.838 16.992C225.326 16.992 224.846 17.056 224.398 17.184C223.971 17.312 223.598 17.4933 223.278 17.728C222.979 17.9413 222.744 18.208 222.574 18.528C222.424 18.848 222.35 19.2 222.35 19.584C222.35 19.904 222.414 20.192 222.542 20.448C222.67 20.704 222.851 20.928 223.086 21.12C223.384 21.3547 223.8 21.5787 224.334 21.792C224.888 21.984 225.571 22.1867 226.382 22.4C227.32 22.656 228.11 22.9227 228.75 23.2C229.411 23.456 229.955 23.7653 230.382 24.128C230.958 24.5547 231.363 25.0453 231.598 25.6C231.854 26.1547 231.982 26.784 231.982 27.488C231.982 28.4267 231.715 29.2587 231.182 29.984C230.67 30.7093 229.955 31.2853 229.038 31.712C228.12 32.1173 227.075 32.32 225.902 32.32Z" fill="url(#paint0_linear_2373_7053)"/>
<defs>
<linearGradient id="paint0_linear_2373_7053" x1="234" y1="20" x2="42" y2="20" gradientUnits="userSpaceOnUse">
<stop stop-color="#43A3D5"/>
<stop offset="1" stop-color="#9C60DA"/>
</linearGradient>
</defs>
</svg>
