<svg width="16" height="15" viewBox="0 0 16 15" fill="none" xmlns="http://www.w3.org/2000/svg">
    <path d="M7.46667 7.49584C7.46667 6.90695 7.25833 6.40417 6.84167 5.98751C6.425 5.57084 5.92222 5.36251 5.33333 5.36251C4.74444 5.36251 4.24167 5.57084 3.825 5.98751C3.40833 6.40417 3.2 6.90695 3.2 7.49584C3.2 8.08473 3.40833 8.58751 3.825 9.00417C4.24167 9.42084 4.74444 9.62917 5.33333 9.62917C5.92222 9.62917 6.425 9.42084 6.84167 9.00417C7.25833 8.58751 7.46667 8.08473 7.46667 7.49584ZM13.8667 11.7625C13.8667 11.4736 13.7611 11.2236 13.55 11.0125C13.3389 10.8014 13.0889 10.6958 12.8 10.6958C12.5111 10.6958 12.2611 10.8014 12.05 11.0125C11.8389 11.2236 11.7333 11.4736 11.7333 11.7625C11.7333 12.057 11.8375 12.3083 12.0458 12.5167C12.2542 12.725 12.5056 12.8292 12.8 12.8292C13.0944 12.8292 13.3458 12.725 13.5542 12.5167C13.7625 12.3083 13.8667 12.057 13.8667 11.7625ZM13.8667 3.22917C13.8667 2.94028 13.7611 2.69028 13.55 2.47917C13.3389 2.26806 13.0889 2.16251 12.8 2.16251C12.5111 2.16251 12.2611 2.26806 12.05 2.47917C11.8389 2.69028 11.7333 2.94028 11.7333 3.22917C11.7333 3.52362 11.8375 3.77501 12.0458 3.98334C12.2542 4.19167 12.5056 4.29584 12.8 4.29584C13.0944 4.29584 13.3458 4.19167 13.5542 3.98334C13.7625 3.77501 13.8667 3.52362 13.8667 3.22917ZM10.6667 6.73751V8.27917C10.6667 8.33473 10.6472 8.3889 10.6083 8.44167C10.5694 8.49445 10.525 8.52362 10.475 8.52917L9.18333 8.72917C9.12222 8.92362 9.03333 9.13473 8.91667 9.36251C9.10556 9.62917 9.35556 9.94862 9.66667 10.3208C9.70556 10.382 9.725 10.4375 9.725 10.4875C9.725 10.5542 9.70556 10.6069 9.66667 10.6458C9.53889 10.8125 9.30972 11.0611 8.97917 11.3917C8.64861 11.7222 8.43056 11.8875 8.325 11.8875C8.26389 11.8875 8.20556 11.8681 8.15 11.8292L7.19167 11.0792C6.98611 11.1847 6.77222 11.2708 6.55 11.3375C6.48889 11.9375 6.425 12.3681 6.35833 12.6292C6.31944 12.7625 6.23611 12.8292 6.10833 12.8292H4.55833C4.49722 12.8292 4.44167 12.8083 4.39167 12.7667C4.34167 12.725 4.31389 12.6764 4.30833 12.6208L4.11667 11.3458C3.92778 11.2903 3.71944 11.2042 3.49167 11.0875L2.50833 11.8292C2.46944 11.8681 2.41389 11.8875 2.34167 11.8875C2.28056 11.8875 2.22222 11.8653 2.16667 11.8208C1.36667 11.082 0.966667 10.6375 0.966667 10.4875C0.966667 10.4375 0.986111 10.3847 1.025 10.3292C1.08056 10.2514 1.19444 10.1042 1.36667 9.88751C1.53889 9.67084 1.66944 9.50139 1.75833 9.37917C1.63056 9.13473 1.53333 8.90695 1.46667 8.69584L0.2 8.49584C0.144444 8.49028 0.0972222 8.46389 0.0583333 8.41667C0.0194444 8.36945 0 8.31528 0 8.25417V6.71251C0 6.65695 0.0194444 6.60278 0.0583333 6.55001C0.0972222 6.49723 0.141667 6.46806 0.191667 6.46251L1.48333 6.26251C1.54444 6.06806 1.63333 5.85695 1.75 5.62917C1.56111 5.36251 1.31111 5.04306 1 4.67084C0.961111 4.60973 0.941667 4.55417 0.941667 4.50417C0.941667 4.43751 0.961111 4.38195 1 4.33751C1.12222 4.17084 1.35 3.92362 1.68333 3.59584C2.01667 3.26806 2.23611 3.10417 2.34167 3.10417C2.40278 3.10417 2.46111 3.12362 2.51667 3.16251L3.475 3.91251C3.66389 3.81251 3.87778 3.72362 4.11667 3.64584C4.17778 3.04584 4.24167 2.61806 4.30833 2.36251C4.34722 2.22917 4.43056 2.16251 4.55833 2.16251H6.10833C6.16944 2.16251 6.225 2.18334 6.275 2.22501C6.325 2.26667 6.35278 2.31528 6.35833 2.37084L6.55 3.64584C6.73889 3.7014 6.94722 3.78751 7.175 3.90417L8.15833 3.16251C8.20278 3.12362 8.25833 3.10417 8.325 3.10417C8.38611 3.10417 8.44444 3.12639 8.5 3.17084C9.3 3.90973 9.7 4.35417 9.7 4.50417C9.7 4.54862 9.68056 4.6014 9.64167 4.66251C9.575 4.7514 9.45833 4.9014 9.29167 5.11251C9.125 5.32362 9 5.49028 8.91667 5.61251C9.04445 5.87917 9.13889 6.10695 9.2 6.29584L10.4667 6.48751C10.5222 6.49862 10.5694 6.52778 10.6083 6.57501C10.6472 6.62223 10.6667 6.67639 10.6667 6.73751ZM16 11.1792V12.3458C16 12.4347 15.5861 12.5208 14.7583 12.6042C14.6917 12.7542 14.6083 12.8986 14.5083 13.0375C14.7917 13.6653 14.9333 14.0486 14.9333 14.1875C14.9333 14.2097 14.9222 14.2292 14.9 14.2458C14.2222 14.6403 13.8778 14.8375 13.8667 14.8375C13.8222 14.8375 13.6944 14.707 13.4833 14.4458C13.2722 14.1847 13.1278 13.9958 13.05 13.8792C12.9389 13.8903 12.8556 13.8958 12.8 13.8958C12.7444 13.8958 12.6611 13.8903 12.55 13.8792C12.4722 13.9958 12.3278 14.1847 12.1167 14.4458C11.9056 14.707 11.7778 14.8375 11.7333 14.8375C11.7222 14.8375 11.3778 14.6403 10.7 14.2458C10.6778 14.2292 10.6667 14.2097 10.6667 14.1875C10.6667 14.0486 10.8083 13.6653 11.0917 13.0375C10.9917 12.8986 10.9083 12.7542 10.8417 12.6042C10.0139 12.5208 9.6 12.4347 9.6 12.3458V11.1792C9.6 11.0903 10.0139 11.0042 10.8417 10.9208C10.9139 10.7597 10.9972 10.6153 11.0917 10.4875C10.8083 9.85973 10.6667 9.4764 10.6667 9.33751C10.6667 9.31528 10.6778 9.29584 10.7 9.27917C10.7222 9.26806 10.8194 9.21251 10.9917 9.11251C11.1639 9.01251 11.3278 8.91806 11.4833 8.82917C11.6389 8.74028 11.7222 8.69584 11.7333 8.69584C11.7778 8.69584 11.9056 8.82501 12.1167 9.08334C12.3278 9.34167 12.4722 9.52917 12.55 9.64584C12.6611 9.63473 12.7444 9.62917 12.8 9.62917C12.8556 9.62917 12.9389 9.63473 13.05 9.64584C13.3333 9.25139 13.5889 8.94028 13.8167 8.71251L13.8667 8.69584C13.8889 8.69584 14.2333 8.89028 14.9 9.27917C14.9222 9.29584 14.9333 9.31528 14.9333 9.33751C14.9333 9.4764 14.7917 9.85973 14.5083 10.4875C14.6028 10.6153 14.6861 10.7597 14.7583 10.9208C15.5861 11.0042 16 11.0903 16 11.1792ZM16 2.64584V3.81251C16 3.9014 15.5861 3.98751 14.7583 4.07084C14.6917 4.22084 14.6083 4.36528 14.5083 4.50417C14.7917 5.13195 14.9333 5.51528 14.9333 5.65417C14.9333 5.67639 14.9222 5.69584 14.9 5.71251C14.2222 6.10695 13.8778 6.30417 13.8667 6.30417C13.8222 6.30417 13.6944 6.17362 13.4833 5.91251C13.2722 5.65139 13.1278 5.46251 13.05 5.34584C12.9389 5.35695 12.8556 5.36251 12.8 5.36251C12.7444 5.36251 12.6611 5.35695 12.55 5.34584C12.4722 5.46251 12.3278 5.65139 12.1167 5.91251C11.9056 6.17362 11.7778 6.30417 11.7333 6.30417C11.7222 6.30417 11.3778 6.10695 10.7 5.71251C10.6778 5.69584 10.6667 5.67639 10.6667 5.65417C10.6667 5.51528 10.8083 5.13195 11.0917 4.50417C10.9917 4.36528 10.9083 4.22084 10.8417 4.07084C10.0139 3.98751 9.6 3.9014 9.6 3.81251V2.64584C9.6 2.55695 10.0139 2.47084 10.8417 2.38751C10.9139 2.22639 10.9972 2.08195 11.0917 1.95417C10.8083 1.3264 10.6667 0.943062 10.6667 0.804173C10.6667 0.781951 10.6778 0.762506 10.7 0.745839C10.7222 0.734728 10.8194 0.679173 10.9917 0.579173C11.1639 0.479173 11.3278 0.384728 11.4833 0.295839C11.6389 0.206951 11.7222 0.162506 11.7333 0.162506C11.7778 0.162506 11.9056 0.291673 12.1167 0.550006C12.3278 0.808339 12.4722 0.995839 12.55 1.11251C12.6611 1.1014 12.7444 1.09584 12.8 1.09584C12.8556 1.09584 12.9389 1.1014 13.05 1.11251C13.3333 0.718062 13.5889 0.406951 13.8167 0.179173L13.8667 0.162506C13.8889 0.162506 14.2333 0.356951 14.9 0.745839C14.9222 0.762506 14.9333 0.781951 14.9333 0.804173C14.9333 0.943062 14.7917 1.3264 14.5083 1.95417C14.6028 2.08195 14.6861 2.22639 14.7583 2.38751C15.5861 2.47084 16 2.55695 16 2.64584Z" fill="#E1DDF4"/>
    </svg>
    