<svg width="280" height="40" viewBox="0 0 280 40" fill="none" xmlns="http://www.w3.org/2000/svg">
<path d="M9.77778 27.7778C10.2185 27.7778 10.5882 27.6284 10.8869 27.3298C11.1856 27.0311 11.3344 26.6619 11.3333 26.2222C11.3323 25.7825 11.183 25.4133 10.8853 25.1147C10.5877 24.816 10.2185 24.6667 9.77778 24.6667C9.33704 24.6667 8.96785 24.816 8.67022 25.1147C8.37259 25.4133 8.22326 25.7825 8.22222 26.2222C8.22118 26.6619 8.37052 27.0316 8.67022 27.3313C8.96992 27.631 9.33911 27.7798 9.77778 27.7778ZM9.77778 21.5556C10.2185 21.5556 10.5882 21.4062 10.8869 21.1076C11.1856 20.8089 11.3344 20.4397 11.3333 20C11.3323 19.5603 11.183 19.1911 10.8853 18.8924C10.5877 18.5938 10.2185 18.4444 9.77778 18.4444C9.33704 18.4444 8.96785 18.5938 8.67022 18.8924C8.37259 19.1911 8.22326 19.5603 8.22222 20C8.22118 20.4397 8.37052 20.8094 8.67022 21.1091C8.96992 21.4088 9.33911 21.5576 9.77778 21.5556ZM9.77778 15.3333C10.2185 15.3333 10.5882 15.184 10.8869 14.8853C11.1856 14.5867 11.3344 14.2175 11.3333 13.7778C11.3323 13.3381 11.183 12.9689 10.8853 12.6702C10.5877 12.3716 10.2185 12.2222 9.77778 12.2222C9.33704 12.2222 8.96785 12.3716 8.67022 12.6702C8.37259 12.9689 8.22326 13.3381 8.22222 13.7778C8.22118 14.2175 8.37052 14.5872 8.67022 14.8869C8.96992 15.1866 9.33911 15.3354 9.77778 15.3333ZM14.4444 27.7778H23.7778V24.6667H14.4444V27.7778ZM14.4444 21.5556H23.7778V18.4444H14.4444V21.5556ZM14.4444 15.3333H23.7778V12.2222H14.4444V15.3333ZM5.11111 34C4.25556 34 3.52341 33.6956 2.91467 33.0869C2.30593 32.4781 2.00104 31.7455 2 30.8889V9.11111C2 8.25556 2.30489 7.52341 2.91467 6.91467C3.52444 6.30593 4.25659 6.00104 5.11111 6H26.8889C27.7444 6 28.4771 6.30489 29.0869 6.91467C29.6967 7.52444 30.001 8.25659 30 9.11111V30.8889C30 31.7444 29.6956 32.4771 29.0869 33.0869C28.4781 33.6967 27.7455 34.001 26.8889 34H5.11111ZM5.11111 30.8889H26.8889V9.11111H5.11111V30.8889Z" fill="#9C60DA"/>
<path d="M45.296 32V9.6H54.16C55.3333 9.6 56.3893 9.888 57.328 10.464C58.2667 11.04 59.0133 11.84 59.568 12.864C60.1227 13.8667 60.4 14.9973 60.4 16.256C60.4 17.5787 60.1227 18.7627 59.568 19.808C59.0133 20.832 58.2667 21.6533 57.328 22.272C56.3893 22.8693 55.3333 23.168 54.16 23.168H47.792V32H45.296ZM47.792 20.736H54.288C54.9493 20.736 55.536 20.544 56.048 20.16C56.5813 19.7547 57.008 19.2213 57.328 18.56C57.648 17.8773 57.808 17.0987 57.808 16.224C57.808 15.4347 57.648 14.7307 57.328 14.112C57.008 13.472 56.5813 12.9707 56.048 12.608C55.536 12.224 54.9493 12.032 54.288 12.032H47.792V20.736ZM71.2898 32.32C69.6258 32.32 68.1431 31.9573 66.8418 31.232C65.5618 30.5067 64.5591 29.4933 63.8338 28.192C63.1084 26.8907 62.7458 25.3973 62.7458 23.712C62.7458 22.4107 62.9484 21.2373 63.3538 20.192C63.7591 19.1253 64.3244 18.1973 65.0498 17.408C65.7964 16.6187 66.6818 16.0107 67.7058 15.584C68.7298 15.136 69.8391 14.912 71.0338 14.912C72.1644 14.912 73.1884 15.1147 74.1058 15.52C75.0444 15.9253 75.8444 16.4907 76.5058 17.216C77.1884 17.92 77.7004 18.7627 78.0417 19.744C78.3831 20.7253 78.5324 21.8027 78.4897 22.976L78.4578 24.096H64.5378L64.1858 22.08H76.6338L76.0578 22.624V21.856C76.0151 21.088 75.7911 20.352 75.3858 19.648C74.9804 18.9227 74.4044 18.336 73.6578 17.888C72.9324 17.44 72.0578 17.216 71.0338 17.216C69.8391 17.216 68.8044 17.4613 67.9298 17.952C67.0551 18.4213 66.3831 19.1253 65.9138 20.064C65.4444 21.0027 65.2098 22.1653 65.2098 23.552C65.2098 24.8747 65.4658 26.0267 65.9778 27.008C66.4898 27.968 67.2151 28.7147 68.1538 29.248C69.1138 29.7813 70.2658 30.048 71.6098 30.048C72.3991 30.048 73.1778 29.92 73.9458 29.664C74.7351 29.3867 75.5991 28.8533 76.5378 28.064L77.7858 29.792C77.2951 30.2827 76.7084 30.72 76.0258 31.104C75.3431 31.4667 74.5964 31.7653 73.7858 32C72.9751 32.2133 72.1431 32.32 71.2898 32.32ZM81.8985 32V15.296H84.2985L84.3625 19.744L84.1065 19.136C84.3412 18.3893 84.7145 17.696 85.2265 17.056C85.7598 16.416 86.3892 15.904 87.1145 15.52C87.8398 15.136 88.6398 14.944 89.5145 14.944C89.8772 14.944 90.2185 14.976 90.5385 15.04C90.8585 15.0827 91.1252 15.1467 91.3385 15.232L90.6665 17.92C90.3892 17.792 90.1012 17.7067 89.8025 17.664C89.5252 17.6 89.2585 17.568 89.0025 17.568C88.2772 17.568 87.6265 17.696 87.0505 17.952C86.4745 18.208 85.9838 18.5707 85.5785 19.04C85.1732 19.488 84.8638 20.0107 84.6505 20.608C84.4372 21.2053 84.3305 21.8453 84.3305 22.528V32H81.8985ZM95.756 32V12.704C95.756 11.872 95.9373 11.136 96.3 10.496C96.6627 9.856 97.1747 9.35467 97.836 8.992C98.5187 8.608 99.308 8.416 100.204 8.416C100.887 8.416 101.495 8.544 102.028 8.8C102.583 9.03467 103.041 9.36533 103.404 9.792L102.572 11.68C102.231 11.3173 101.857 11.0613 101.452 10.912C101.068 10.7413 100.695 10.656 100.332 10.656C99.8627 10.656 99.468 10.7413 99.148 10.912C98.828 11.0613 98.5827 11.296 98.412 11.616C98.2627 11.9147 98.188 12.2773 98.188 12.704V32H97.068C96.8333 32 96.6093 32 96.396 32C96.1827 32 95.9693 32 95.756 32ZM92.78 17.664V15.424H102.444V17.664H92.78ZM106.572 32V15.296H108.972V32H106.572ZM107.756 11.68C107.159 11.68 106.7 11.5307 106.38 11.232C106.081 10.912 105.932 10.4853 105.932 9.952C105.932 9.41867 106.092 8.992 106.412 8.672C106.732 8.352 107.18 8.192 107.756 8.192C108.332 8.192 108.78 8.352 109.1 8.672C109.42 8.97067 109.58 9.39733 109.58 9.952C109.58 10.464 109.42 10.88 109.1 11.2C108.78 11.52 108.332 11.68 107.756 11.68ZM114.275 32V8.32H116.675V32H114.275ZM137.151 32.32C135.637 32.32 134.271 31.9467 133.055 31.2C131.861 30.4533 130.911 29.4293 130.207 28.128C129.525 26.8053 129.183 25.312 129.183 23.648C129.183 21.9627 129.535 20.4693 130.239 19.168C130.943 17.8453 131.893 16.8107 133.087 16.064C134.282 15.3173 135.626 14.944 137.119 14.944C137.951 14.944 138.751 15.072 139.519 15.328C140.309 15.584 141.013 15.9467 141.631 16.416C142.25 16.864 142.762 17.3867 143.167 17.984C143.573 18.56 143.818 19.168 143.903 19.808L143.167 19.552V8.32H145.567V32H143.199L143.135 27.84L143.743 27.616C143.658 28.2133 143.413 28.8 143.007 29.376C142.623 29.9307 142.133 30.432 141.535 30.88C140.938 31.328 140.255 31.68 139.487 31.936C138.741 32.192 137.962 32.32 137.151 32.32ZM137.503 30.112C138.613 30.112 139.605 29.8347 140.479 29.28C141.354 28.7253 142.037 27.9573 142.527 26.976C143.039 25.9947 143.295 24.8747 143.295 23.616C143.295 22.3573 143.039 21.248 142.527 20.288C142.037 19.3067 141.354 18.5387 140.479 17.984C139.605 17.408 138.613 17.12 137.503 17.12C136.351 17.12 135.338 17.408 134.463 17.984C133.61 18.5387 132.927 19.3067 132.415 20.288C131.925 21.248 131.679 22.3573 131.679 23.616C131.679 24.8533 131.925 25.9627 132.415 26.944C132.906 27.9253 133.589 28.704 134.463 29.28C135.338 29.8347 136.351 30.112 137.503 30.112ZM157.634 32.32C155.97 32.32 154.488 31.9467 153.186 31.2C151.906 30.4533 150.893 29.4187 150.146 28.096C149.421 26.7733 149.058 25.2693 149.058 23.584C149.058 21.92 149.421 20.4373 150.146 19.136C150.893 17.8347 151.906 16.8107 153.186 16.064C154.488 15.3173 155.97 14.944 157.634 14.944C159.277 14.944 160.738 15.3173 162.018 16.064C163.32 16.8107 164.333 17.8347 165.058 19.136C165.805 20.4373 166.178 21.92 166.178 23.584C166.178 25.2693 165.805 26.7733 165.058 28.096C164.333 29.4187 163.32 30.4533 162.018 31.2C160.738 31.9467 159.277 32.32 157.634 32.32ZM157.634 30.048C158.808 30.048 159.853 29.7707 160.77 29.216C161.688 28.64 162.402 27.872 162.914 26.912C163.426 25.9307 163.682 24.8213 163.682 23.584C163.682 22.3467 163.426 21.248 162.914 20.288C162.402 19.328 161.688 18.5813 160.77 18.048C159.853 17.4933 158.808 17.216 157.634 17.216C156.461 17.216 155.405 17.4933 154.466 18.048C153.549 18.5813 152.824 19.3387 152.29 20.32C151.778 21.28 151.533 22.368 151.554 23.584C151.533 24.8213 151.778 25.9307 152.29 26.912C152.824 27.872 153.549 28.64 154.466 29.216C155.405 29.7707 156.461 30.048 157.634 30.048ZM179.609 32V9.6H193.177V12.032H182.105V29.568H193.113V32H179.609ZM180.761 21.696V19.264H191.385V21.696H180.761ZM202.52 32L195.48 15.296H198.136L203.704 28.96L203.064 29.312L209.176 15.296H211.736L204.248 32H202.52ZM221.446 32.32C219.782 32.32 218.299 31.9573 216.998 31.232C215.718 30.5067 214.715 29.4933 213.99 28.192C213.265 26.8907 212.902 25.3973 212.902 23.712C212.902 22.4107 213.105 21.2373 213.51 20.192C213.915 19.1253 214.481 18.1973 215.206 17.408C215.953 16.6187 216.838 16.0107 217.862 15.584C218.886 15.136 219.995 14.912 221.19 14.912C222.321 14.912 223.345 15.1147 224.262 15.52C225.201 15.9253 226.001 16.4907 226.662 17.216C227.345 17.92 227.857 18.7627 228.198 19.744C228.539 20.7253 228.689 21.8027 228.646 22.976L228.614 24.096H214.694L214.342 22.08H226.79L226.214 22.624V21.856C226.171 21.088 225.947 20.352 225.542 19.648C225.137 18.9227 224.561 18.336 223.814 17.888C223.089 17.44 222.214 17.216 221.19 17.216C219.995 17.216 218.961 17.4613 218.086 17.952C217.211 18.4213 216.539 19.1253 216.07 20.064C215.601 21.0027 215.366 22.1653 215.366 23.552C215.366 24.8747 215.622 26.0267 216.134 27.008C216.646 27.968 217.371 28.7147 218.31 29.248C219.27 29.7813 220.422 30.048 221.766 30.048C222.555 30.048 223.334 29.92 224.102 29.664C224.891 29.3867 225.755 28.8533 226.694 28.064L227.942 29.792C227.451 30.2827 226.865 30.72 226.182 31.104C225.499 31.4667 224.753 31.7653 223.942 32C223.131 32.2133 222.299 32.32 221.446 32.32ZM232.055 32V15.296H234.423L234.519 18.784L234.135 18.944C234.348 18.2187 234.764 17.5573 235.383 16.96C236.001 16.3627 236.737 15.8827 237.591 15.52C238.465 15.136 239.361 14.944 240.279 14.944C241.516 14.944 242.551 15.1893 243.383 15.68C244.215 16.1707 244.844 16.928 245.271 17.952C245.697 18.976 245.911 20.2773 245.911 21.856V32H243.479V21.984C243.479 20.8747 243.329 19.968 243.031 19.264C242.753 18.5387 242.316 18.0053 241.719 17.664C241.121 17.3227 240.385 17.1627 239.511 17.184C238.785 17.184 238.113 17.312 237.495 17.568C236.876 17.8027 236.343 18.1333 235.895 18.56C235.447 18.9867 235.095 19.4773 234.839 20.032C234.583 20.5867 234.455 21.184 234.455 21.824V32H233.271C233.121 32 232.951 32 232.759 32C232.567 32 232.332 32 232.055 32ZM252.796 32V10.912H255.196V32H252.796ZM249.02 17.6V15.296H259.42V17.6H249.02ZM269.603 32.32C267.939 32.32 266.456 31.9467 265.155 31.2C263.875 30.4533 262.862 29.4187 262.115 28.096C261.39 26.7733 261.027 25.2693 261.027 23.584C261.027 21.92 261.39 20.4373 262.115 19.136C262.862 17.8347 263.875 16.8107 265.155 16.064C266.456 15.3173 267.939 14.944 269.603 14.944C271.246 14.944 272.707 15.3173 273.987 16.064C275.288 16.8107 276.302 17.8347 277.027 19.136C277.774 20.4373 278.147 21.92 278.147 23.584C278.147 25.2693 277.774 26.7733 277.027 28.096C276.302 29.4187 275.288 30.4533 273.987 31.2C272.707 31.9467 271.246 32.32 269.603 32.32ZM269.603 30.048C270.776 30.048 271.822 29.7707 272.739 29.216C273.656 28.64 274.371 27.872 274.883 26.912C275.395 25.9307 275.651 24.8213 275.651 23.584C275.651 22.3467 275.395 21.248 274.883 20.288C274.371 19.328 273.656 18.5813 272.739 18.048C271.822 17.4933 270.776 17.216 269.603 17.216C268.43 17.216 267.374 17.4933 266.435 18.048C265.518 18.5813 264.792 19.3387 264.259 20.32C263.747 21.28 263.502 22.368 263.523 23.584C263.502 24.8213 263.747 25.9307 264.259 26.912C264.792 27.872 265.518 28.64 266.435 29.216C267.374 29.7707 268.43 30.048 269.603 30.048Z" fill="url(#paint0_linear_915_3908)"/>
<defs>
<linearGradient id="paint0_linear_915_3908" x1="280" y1="20" x2="42" y2="20" gradientUnits="userSpaceOnUse">
<stop stop-color="#43A3D5"/>
<stop offset="1" stop-color="#9C60DA"/>
</linearGradient>
</defs>
</svg>
