<svg width="16" height="15" viewBox="0 0 16 15" fill="none" xmlns="http://www.w3.org/2000/svg">
<path d="M7.46667 7.49593C7.46667 6.90704 7.25833 6.40426 6.84167 5.9876C6.425 5.57093 5.92222 5.3626 5.33333 5.3626C4.74444 5.3626 4.24167 5.57093 3.825 5.9876C3.40833 6.40426 3.2 6.90704 3.2 7.49593C3.2 8.08482 3.40833 8.5876 3.825 9.00426C4.24167 9.42093 4.74444 9.62926 5.33333 9.62926C5.92222 9.62926 6.425 9.42093 6.84167 9.00426C7.25833 8.5876 7.46667 8.08482 7.46667 7.49593ZM13.8667 11.7626C13.8667 11.4737 13.7611 11.2237 13.55 11.0126C13.3389 10.8015 13.0889 10.6959 12.8 10.6959C12.5111 10.6959 12.2611 10.8015 12.05 11.0126C11.8389 11.2237 11.7333 11.4737 11.7333 11.7626C11.7333 12.057 11.8375 12.3084 12.0458 12.5168C12.2542 12.7251 12.5056 12.8293 12.8 12.8293C13.0944 12.8293 13.3458 12.7251 13.5542 12.5168C13.7625 12.3084 13.8667 12.057 13.8667 11.7626ZM13.8667 3.22926C13.8667 2.94038 13.7611 2.69038 13.55 2.47926C13.3389 2.26815 13.0889 2.1626 12.8 2.1626C12.5111 2.1626 12.2611 2.26815 12.05 2.47926C11.8389 2.69038 11.7333 2.94038 11.7333 3.22926C11.7333 3.52371 11.8375 3.7751 12.0458 3.98343C12.2542 4.19176 12.5056 4.29593 12.8 4.29593C13.0944 4.29593 13.3458 4.19176 13.5542 3.98343C13.7625 3.7751 13.8667 3.52371 13.8667 3.22926ZM10.6667 6.7376V8.27926C10.6667 8.33482 10.6472 8.38899 10.6083 8.44176C10.5694 8.49454 10.525 8.52371 10.475 8.52926L9.18333 8.72926C9.12222 8.92371 9.03333 9.13482 8.91667 9.3626C9.10556 9.62926 9.35556 9.94871 9.66667 10.3209C9.70556 10.382 9.725 10.4376 9.725 10.4876C9.725 10.5543 9.70556 10.607 9.66667 10.6459C9.53889 10.8126 9.30972 11.0612 8.97917 11.3918C8.64861 11.7223 8.43056 11.8876 8.325 11.8876C8.26389 11.8876 8.20556 11.8682 8.15 11.8293L7.19167 11.0793C6.98611 11.1848 6.77222 11.2709 6.55 11.3376C6.48889 11.9376 6.425 12.3682 6.35833 12.6293C6.31944 12.7626 6.23611 12.8293 6.10833 12.8293H4.55833C4.49722 12.8293 4.44167 12.8084 4.39167 12.7668C4.34167 12.7251 4.31389 12.6765 4.30833 12.6209L4.11667 11.3459C3.92778 11.2904 3.71944 11.2043 3.49167 11.0876L2.50833 11.8293C2.46944 11.8682 2.41389 11.8876 2.34167 11.8876C2.28056 11.8876 2.22222 11.8654 2.16667 11.8209C1.36667 11.082 0.966667 10.6376 0.966667 10.4876C0.966667 10.4376 0.986111 10.3848 1.025 10.3293C1.08056 10.2515 1.19444 10.1043 1.36667 9.8876C1.53889 9.67093 1.66944 9.50149 1.75833 9.37926C1.63056 9.13482 1.53333 8.90704 1.46667 8.69593L0.2 8.49593C0.144444 8.49038 0.0972222 8.46399 0.0583333 8.41676C0.0194444 8.36954 0 8.31538 0 8.25426V6.7126C0 6.65704 0.0194444 6.60288 0.0583333 6.5501C0.0972222 6.49732 0.141667 6.46815 0.191667 6.4626L1.48333 6.2626C1.54444 6.06815 1.63333 5.85704 1.75 5.62926C1.56111 5.3626 1.31111 5.04315 1 4.67093C0.961111 4.60982 0.941667 4.55426 0.941667 4.50426C0.941667 4.4376 0.961111 4.38204 1 4.3376C1.12222 4.17093 1.35 3.92371 1.68333 3.59593C2.01667 3.26815 2.23611 3.10426 2.34167 3.10426C2.40278 3.10426 2.46111 3.12371 2.51667 3.1626L3.475 3.9126C3.66389 3.8126 3.87778 3.72371 4.11667 3.64593C4.17778 3.04593 4.24167 2.61815 4.30833 2.3626C4.34722 2.22926 4.43056 2.1626 4.55833 2.1626H6.10833C6.16944 2.1626 6.225 2.18343 6.275 2.2251C6.325 2.26676 6.35278 2.31538 6.35833 2.37093L6.55 3.64593C6.73889 3.70149 6.94722 3.7876 7.175 3.90426L8.15833 3.1626C8.20278 3.12371 8.25833 3.10426 8.325 3.10426C8.38611 3.10426 8.44444 3.12649 8.5 3.17093C9.3 3.90982 9.7 4.35426 9.7 4.50426C9.7 4.54871 9.68056 4.60149 9.64167 4.6626C9.575 4.75149 9.45833 4.90149 9.29167 5.1126C9.125 5.32371 9 5.49038 8.91667 5.6126C9.04444 5.87926 9.13889 6.10704 9.2 6.29593L10.4667 6.4876C10.5222 6.49871 10.5694 6.52788 10.6083 6.5751C10.6472 6.62232 10.6667 6.67649 10.6667 6.7376ZM16 11.1793V12.3459C16 12.4348 15.5861 12.5209 14.7583 12.6043C14.6917 12.7543 14.6083 12.8987 14.5083 13.0376C14.7917 13.6654 14.9333 14.0487 14.9333 14.1876C14.9333 14.2098 14.9222 14.2293 14.9 14.2459C14.2222 14.6404 13.8778 14.8376 13.8667 14.8376C13.8222 14.8376 13.6944 14.707 13.4833 14.4459C13.2722 14.1848 13.1278 13.9959 13.05 13.8793C12.9389 13.8904 12.8556 13.8959 12.8 13.8959C12.7444 13.8959 12.6611 13.8904 12.55 13.8793C12.4722 13.9959 12.3278 14.1848 12.1167 14.4459C11.9056 14.707 11.7778 14.8376 11.7333 14.8376C11.7222 14.8376 11.3778 14.6404 10.7 14.2459C10.6778 14.2293 10.6667 14.2098 10.6667 14.1876C10.6667 14.0487 10.8083 13.6654 11.0917 13.0376C10.9917 12.8987 10.9083 12.7543 10.8417 12.6043C10.0139 12.5209 9.6 12.4348 9.6 12.3459V11.1793C9.6 11.0904 10.0139 11.0043 10.8417 10.9209C10.9139 10.7598 10.9972 10.6154 11.0917 10.4876C10.8083 9.85982 10.6667 9.47649 10.6667 9.3376C10.6667 9.31538 10.6778 9.29593 10.7 9.27926C10.7222 9.26815 10.8194 9.2126 10.9917 9.1126C11.1639 9.0126 11.3278 8.91815 11.4833 8.82926C11.6389 8.74037 11.7222 8.69593 11.7333 8.69593C11.7778 8.69593 11.9056 8.8251 12.1167 9.08343C12.3278 9.34176 12.4722 9.52926 12.55 9.64593C12.6611 9.63482 12.7444 9.62926 12.8 9.62926C12.8556 9.62926 12.9389 9.63482 13.05 9.64593C13.3333 9.25149 13.5889 8.94038 13.8167 8.7126L13.8667 8.69593C13.8889 8.69593 14.2333 8.89038 14.9 9.27926C14.9222 9.29593 14.9333 9.31538 14.9333 9.3376C14.9333 9.47649 14.7917 9.85982 14.5083 10.4876C14.6028 10.6154 14.6861 10.7598 14.7583 10.9209C15.5861 11.0043 16 11.0904 16 11.1793ZM16 2.64593V3.8126C16 3.90149 15.5861 3.9876 14.7583 4.07093C14.6917 4.22093 14.6083 4.36538 14.5083 4.50426C14.7917 5.13204 14.9333 5.51538 14.9333 5.65426C14.9333 5.67649 14.9222 5.69593 14.9 5.7126C14.2222 6.10704 13.8778 6.30426 13.8667 6.30426C13.8222 6.30426 13.6944 6.17371 13.4833 5.9126C13.2722 5.65149 13.1278 5.4626 13.05 5.34593C12.9389 5.35704 12.8556 5.3626 12.8 5.3626C12.7444 5.3626 12.6611 5.35704 12.55 5.34593C12.4722 5.4626 12.3278 5.65149 12.1167 5.9126C11.9056 6.17371 11.7778 6.30426 11.7333 6.30426C11.7222 6.30426 11.3778 6.10704 10.7 5.7126C10.6778 5.69593 10.6667 5.67649 10.6667 5.65426C10.6667 5.51538 10.8083 5.13204 11.0917 4.50426C10.9917 4.36538 10.9083 4.22093 10.8417 4.07093C10.0139 3.9876 9.6 3.90149 9.6 3.8126V2.64593C9.6 2.55704 10.0139 2.47093 10.8417 2.3876C10.9139 2.22649 10.9972 2.08204 11.0917 1.95426C10.8083 1.32649 10.6667 0.943153 10.6667 0.804264C10.6667 0.782042 10.6778 0.762598 10.7 0.745931C10.7222 0.73482 10.8194 0.679264 10.9917 0.579264C11.1639 0.479264 11.3278 0.38482 11.4833 0.295931C11.6389 0.207042 11.7222 0.162598 11.7333 0.162598C11.7778 0.162598 11.9056 0.291764 12.1167 0.550098C12.3278 0.808431 12.4722 0.995931 12.55 1.1126C12.6611 1.10149 12.7444 1.09593 12.8 1.09593C12.8556 1.09593 12.9389 1.10149 13.05 1.1126C13.3333 0.718153 13.5889 0.407042 13.8167 0.179264L13.8667 0.162598C13.8889 0.162598 14.2333 0.357042 14.9 0.745931C14.9222 0.762598 14.9333 0.782042 14.9333 0.804264C14.9333 0.943153 14.7917 1.32649 14.5083 1.95426C14.6028 2.08204 14.6861 2.22649 14.7583 2.3876C15.5861 2.47093 16 2.55704 16 2.64593Z" fill="#E1DDF4"/>
</svg>
