<svg width="140" height="40" viewBox="0 0 140 40" fill="none" xmlns="http://www.w3.org/2000/svg">
<g opacity="0.2">
<path d="M20 0.5H139.5V39.5H20C9.23045 39.5 0.5 30.7696 0.5 20C0.5 9.23045 9.23045 0.5 20 0.5Z" stroke="#E1DDF4"/>
<path d="M36.5 20.8661C35.8333 20.4811 35.8333 19.5189 36.5 19.134L48.5 12.2058C49.1667 11.8209 50 12.302 50 13.0718L50 26.9282C50 27.698 49.1667 28.1792 48.5 27.7943L36.5 20.8661Z" fill="#E1DDF4"/>
<path d="M64.7673 26L60.4313 14.8H61.8393L64.6233 22.096C64.7513 22.4267 64.8633 22.72 64.9593 22.976C65.0553 23.232 65.1406 23.4773 65.2153 23.712C65.3006 23.936 65.3806 24.16 65.4553 24.384C65.5299 24.608 65.6099 24.8533 65.6953 25.12L65.2793 25.136C65.3859 24.7733 65.4873 24.4373 65.5833 24.128C65.6899 23.8187 65.7966 23.504 65.9033 23.184C66.0206 22.8533 66.1646 22.4693 66.3353 22.032L69.1033 14.8H70.5113L66.0473 26H64.7673ZM74.8171 26.16C73.9851 26.16 73.2438 25.9733 72.5931 25.6C71.9531 25.2267 71.4465 24.7093 71.0731 24.048C70.7105 23.3867 70.5291 22.6347 70.5291 21.792C70.5291 20.96 70.7105 20.2187 71.0731 19.568C71.4465 18.9173 71.9531 18.4053 72.5931 18.032C73.2438 17.6587 73.9851 17.472 74.8171 17.472C75.6385 17.472 76.3691 17.6587 77.0091 18.032C77.6598 18.4053 78.1665 18.9173 78.5291 19.568C78.9025 20.2187 79.0891 20.96 79.0891 21.792C79.0891 22.6347 78.9025 23.3867 78.5291 24.048C78.1665 24.7093 77.6598 25.2267 77.0091 25.6C76.3691 25.9733 75.6385 26.16 74.8171 26.16ZM74.8171 25.024C75.4038 25.024 75.9265 24.8853 76.3851 24.608C76.8438 24.32 77.2011 23.936 77.4571 23.456C77.7131 22.9653 77.8411 22.4107 77.8411 21.792C77.8411 21.1733 77.7131 20.624 77.4571 20.144C77.2011 19.664 76.8438 19.2907 76.3851 19.024C75.9265 18.7467 75.4038 18.608 74.8171 18.608C74.2305 18.608 73.7025 18.7467 73.2331 19.024C72.7745 19.2907 72.4118 19.6693 72.1451 20.16C71.8891 20.64 71.7665 21.184 71.7771 21.792C71.7665 22.4107 71.8891 22.9653 72.1451 23.456C72.4118 23.936 72.7745 24.32 73.2331 24.608C73.7025 24.8853 74.2305 25.024 74.8171 25.024ZM80.8719 26V14.16H82.0719V26H80.8719ZM85.5388 26V15.456H86.7388V26H85.5388ZM83.6508 18.8V17.648H88.8508V18.8H83.6508ZM93.5101 26.16C92.7848 26.16 92.1288 25.9733 91.5421 25.6C90.9555 25.216 90.4915 24.6987 90.1501 24.048C89.8088 23.3867 89.6381 22.64 89.6381 21.808C89.6381 20.9653 89.8141 20.2187 90.1661 19.568C90.5181 18.9173 90.9875 18.4053 91.5741 18.032C92.1715 17.6587 92.8381 17.472 93.5741 17.472C94.0115 17.472 94.4168 17.536 94.7901 17.664C95.1635 17.792 95.4941 17.9733 95.7821 18.208C96.0808 18.432 96.3261 18.6987 96.5181 19.008C96.7208 19.3067 96.8595 19.632 96.9341 19.984L96.5821 19.808L96.6301 17.648H97.8301V26H96.6141V23.952L96.9341 23.744C96.8595 24.064 96.7155 24.3733 96.5021 24.672C96.2888 24.96 96.0275 25.216 95.7181 25.44C95.4195 25.664 95.0781 25.84 94.6941 25.968C94.3208 26.096 93.9261 26.16 93.5101 26.16ZM93.7821 25.008C94.3368 25.008 94.8328 24.8747 95.2701 24.608C95.7075 24.3307 96.0488 23.952 96.2941 23.472C96.5501 22.9813 96.6781 22.4267 96.6781 21.808C96.6781 21.1893 96.5501 20.64 96.2941 20.16C96.0488 19.68 95.7075 19.3013 95.2701 19.024C94.8328 18.7467 94.3368 18.608 93.7821 18.608C93.2168 18.608 92.7155 18.7467 92.2781 19.024C91.8515 19.3013 91.5101 19.68 91.2541 20.16C91.0088 20.64 90.8861 21.1893 90.8861 21.808C90.8861 22.416 91.0088 22.9653 91.2541 23.456C91.4995 23.936 91.8408 24.3147 92.2781 24.592C92.7155 24.8693 93.2168 25.008 93.7821 25.008ZM100.168 26V17.648H101.368L101.4 19.872L101.272 19.568C101.389 19.1947 101.576 18.848 101.832 18.528C102.099 18.208 102.413 17.952 102.776 17.76C103.139 17.568 103.539 17.472 103.976 17.472C104.157 17.472 104.328 17.488 104.488 17.52C104.648 17.5413 104.781 17.5733 104.888 17.616L104.552 18.96C104.413 18.896 104.269 18.8533 104.12 18.832C103.981 18.8 103.848 18.784 103.72 18.784C103.357 18.784 103.032 18.848 102.744 18.976C102.456 19.104 102.211 19.2853 102.008 19.52C101.805 19.744 101.651 20.0053 101.544 20.304C101.437 20.6027 101.384 20.9227 101.384 21.264V26H100.168Z" fill="#E1DDF4"/>
</g>
</svg>
